<svg xmlns="http://www.w3.org/2000/svg" xmlns:xlink="http://www.w3.org/1999/xlink" viewBox="0 0 250 200"><defs><style>.cls-1{isolation:isolate;}.cls-2{fill:url(#radial-gradient);}.cls-3{fill:url(#radial-gradient-2);}.cls-16,.cls-17,.cls-18,.cls-19,.cls-20,.cls-21,.cls-22,.cls-23,.cls-24,.cls-25,.cls-26,.cls-27,.cls-28,.cls-29,.cls-4,.cls-5,.cls-62,.cls-63,.cls-67,.cls-68{mix-blend-mode:multiply;}.cls-4{fill:url(#radial-gradient-3);}.cls-5{fill:url(#radial-gradient-4);}.cls-10,.cls-11,.cls-12,.cls-13,.cls-14,.cls-15,.cls-30,.cls-31,.cls-32,.cls-33,.cls-6,.cls-64,.cls-69,.cls-7,.cls-8,.cls-9{mix-blend-mode:screen;}.cls-6{fill:url(#radial-gradient-5);}.cls-7{fill:url(#radial-gradient-6);}.cls-8{fill:url(#radial-gradient-7);}.cls-9{fill:url(#radial-gradient-8);}.cls-10{fill:url(#radial-gradient-9);}.cls-11{fill:url(#radial-gradient-10);}.cls-12{fill:url(#radial-gradient-11);}.cls-13{fill:url(#radial-gradient-12);}.cls-14{fill:url(#radial-gradient-13);}.cls-15{fill:url(#radial-gradient-14);}.cls-16{fill:url(#radial-gradient-15);}.cls-17{fill:url(#radial-gradient-16);}.cls-18{fill:url(#radial-gradient-17);}.cls-19{fill:url(#radial-gradient-18);}.cls-20{fill:url(#radial-gradient-19);}.cls-21{fill:url(#radial-gradient-20);}.cls-22{fill:url(#radial-gradient-21);}.cls-23{fill:url(#radial-gradient-22);}.cls-24{fill:url(#radial-gradient-23);}.cls-25{fill:url(#radial-gradient-24);}.cls-26{fill:url(#radial-gradient-25);}.cls-27{fill:url(#radial-gradient-26);}.cls-28{fill:url(#radial-gradient-27);}.cls-29{fill:url(#radial-gradient-28);}.cls-30,.cls-31,.cls-32,.cls-33{opacity:0.45;}.cls-30{fill:url(#radial-gradient-29);}.cls-31{fill:url(#radial-gradient-30);}.cls-32{fill:url(#radial-gradient-31);}.cls-34{fill:url(#radial-gradient-32);}.cls-35{fill:url(#radial-gradient-33);}.cls-36{fill:url(#radial-gradient-34);}.cls-37{fill:url(#radial-gradient-35);}.cls-38{fill:url(#radial-gradient-36);}.cls-39{fill:url(#radial-gradient-37);}.cls-40{fill:url(#radial-gradient-38);}.cls-41{fill:url(#radial-gradient-39);}.cls-42{fill:url(#radial-gradient-40);}.cls-43{fill:url(#radial-gradient-41);}.cls-44{fill:url(#radial-gradient-42);}.cls-45{fill:url(#radial-gradient-43);}.cls-46{fill:url(#radial-gradient-44);}.cls-47{fill:url(#radial-gradient-45);}.cls-48{fill:url(#radial-gradient-46);}.cls-49{fill:url(#radial-gradient-47);}.cls-50{fill:url(#radial-gradient-48);}.cls-51{fill:url(#radial-gradient-49);}.cls-52{fill:url(#radial-gradient-50);}.cls-53{fill:url(#radial-gradient-51);}.cls-54{fill:url(#radial-gradient-52);}.cls-55{fill:url(#radial-gradient-53);}.cls-56{fill:url(#radial-gradient-54);}.cls-57{fill:url(#radial-gradient-55);}.cls-58{fill:url(#radial-gradient-56);}.cls-59{fill:url(#radial-gradient-57);}.cls-60{fill:url(#radial-gradient-58);}.cls-61{fill:url(#radial-gradient-59);}.cls-62{fill:url(#radial-gradient-60);}.cls-63{fill:url(#radial-gradient-61);}.cls-64{fill:url(#radial-gradient-62);}.cls-65{fill:url(#radial-gradient-63);}.cls-66{fill:url(#radial-gradient-64);}.cls-67{fill:url(#radial-gradient-65);}.cls-68{fill:url(#radial-gradient-66);}.cls-69{fill:url(#radial-gradient-67);}</style><radialGradient id="radial-gradient" cx="18.66" cy="-439.51" r="170.93" gradientTransform="translate(-245.1 71.45) rotate(90)" gradientUnits="userSpaceOnUse"><stop offset="0" stop-color="#e26f34"/><stop offset="0.26" stop-color="#e26f34"/><stop offset="0.92" stop-color="#ffe245"/></radialGradient><radialGradient id="radial-gradient-2" cx="23.99" cy="-370.58" r="86.1" gradientTransform="translate(-245.1 71.45) rotate(90)" gradientUnits="userSpaceOnUse"><stop offset="0" stop-color="#e26f34"/><stop offset="0.26" stop-color="#e26f34"/><stop offset="0.54" stop-color="#e27034" stop-opacity="0.99"/><stop offset="0.65" stop-color="#e37335" stop-opacity="0.96"/><stop offset="0.72" stop-color="#e57936" stop-opacity="0.91"/><stop offset="0.78" stop-color="#e78237" stop-opacity="0.83"/><stop offset="0.83" stop-color="#ea8d38" stop-opacity="0.74"/><stop offset="0.87" stop-color="#ed9b3b" stop-opacity="0.62"/><stop offset="0.91" stop-color="#f1ac3d" stop-opacity="0.47"/><stop offset="0.95" stop-color="#f6bf40" stop-opacity="0.31"/><stop offset="0.98" stop-color="#fbd443" stop-opacity="0.12"/><stop offset="1" stop-color="#ffe245" stop-opacity="0"/></radialGradient><radialGradient id="radial-gradient-3" cx="20.18" cy="-422.02" r="154.49" gradientTransform="matrix(0.63, 0.78, -0.78, 0.63, -176.87, 310.68)" gradientUnits="userSpaceOnUse"><stop offset="0.08" stop-color="#ffe245"/><stop offset="0.74" stop-color="#e26f34"/><stop offset="1" stop-color="#e26f34"/></radialGradient><radialGradient id="radial-gradient-4" cx="23.98" cy="-394.03" r="121.91" xlink:href="#radial-gradient-3"/><radialGradient id="radial-gradient-5" cx="2.21" cy="-420.7" r="38.14" gradientTransform="matrix(0.63, 0.78, -0.78, 0.63, -176.87, 310.68)" xlink:href="#radial-gradient"/><radialGradient id="radial-gradient-6" cx="25.21" cy="-369.47" r="54.3" gradientTransform="matrix(0.63, 0.78, -0.78, 0.63, -176.87, 310.68)" xlink:href="#radial-gradient"/><radialGradient id="radial-gradient-7" cx="52.11" cy="-316.39" r="30.18" gradientTransform="matrix(0.63, 0.78, -0.78, 0.63, -176.87, 310.68)" xlink:href="#radial-gradient"/><radialGradient id="radial-gradient-8" cx="-0.3" cy="-433.17" r="21.57" gradientTransform="matrix(0.63, 0.78, -0.78, 0.63, -176.87, 310.68)" xlink:href="#radial-gradient"/><radialGradient id="radial-gradient-9" cx="39.91" cy="-337.67" r="48.34" gradientTransform="matrix(0.63, 0.78, -0.78, 0.63, -176.87, 310.68)" xlink:href="#radial-gradient"/><radialGradient id="radial-gradient-10" cx="0.36" cy="-375.21" r="40.07" gradientTransform="matrix(0.63, 0.78, -0.78, 0.63, -176.87, 310.68)" xlink:href="#radial-gradient"/><radialGradient id="radial-gradient-11" cx="35.38" cy="-338.31" r="0.14" gradientTransform="matrix(0.63, 0.78, -0.78, 0.63, -176.87, 310.68)" xlink:href="#radial-gradient"/><radialGradient id="radial-gradient-12" cx="65.27" cy="-368.7" r="30" gradientTransform="matrix(0.63, 0.78, -0.78, 0.63, -176.87, 310.68)" xlink:href="#radial-gradient"/><radialGradient id="radial-gradient-13" cx="-3.11" cy="-437.35" r="7.49" gradientTransform="matrix(0.63, 0.78, -0.78, 0.63, -176.87, 310.68)" xlink:href="#radial-gradient"/><radialGradient id="radial-gradient-14" cx="5.81" cy="-408.57" r="45.08" gradientTransform="matrix(0.63, 0.78, -0.78, 0.63, -176.87, 310.68)" xlink:href="#radial-gradient"/><radialGradient id="radial-gradient-15" cx="3.6" cy="-428.78" r="186.1" gradientTransform="matrix(0.63, 0.78, -0.78, 0.63, -176.87, 310.68)" xlink:href="#radial-gradient"/><radialGradient id="radial-gradient-16" cx="3.6" cy="-428.78" r="186.12" gradientTransform="matrix(0.63, 0.78, -0.78, 0.63, -176.87, 310.68)" xlink:href="#radial-gradient"/><radialGradient id="radial-gradient-17" cx="3.6" cy="-428.78" r="186.09" gradientTransform="matrix(0.63, 0.78, -0.78, 0.63, -176.87, 310.68)" xlink:href="#radial-gradient"/><radialGradient id="radial-gradient-18" cx="3.6" cy="-428.78" r="186.1" gradientTransform="matrix(0.63, 0.78, -0.78, 0.63, -176.87, 310.68)" xlink:href="#radial-gradient"/><radialGradient id="radial-gradient-19" cx="3.59" cy="-428.77" r="186.09" gradientTransform="matrix(0.63, 0.78, -0.78, 0.63, -176.87, 310.68)" xlink:href="#radial-gradient"/><radialGradient id="radial-gradient-20" cx="3.59" cy="-428.78" r="186.1" gradientTransform="matrix(0.63, 0.78, -0.78, 0.63, -176.87, 310.68)" xlink:href="#radial-gradient"/><radialGradient id="radial-gradient-21" cx="3.59" cy="-428.77" r="186.1" gradientTransform="matrix(0.63, 0.78, -0.78, 0.63, -176.87, 310.68)" xlink:href="#radial-gradient"/><radialGradient id="radial-gradient-22" cx="3.59" cy="-428.78" r="186.1" gradientTransform="matrix(0.63, 0.78, -0.78, 0.63, -176.87, 310.68)" xlink:href="#radial-gradient"/><radialGradient id="radial-gradient-23" cx="3.59" cy="-428.77" r="186.09" gradientTransform="matrix(0.63, 0.78, -0.78, 0.63, -176.87, 310.68)" xlink:href="#radial-gradient"/><radialGradient id="radial-gradient-24" cx="3.59" cy="-428.78" r="186.1" gradientTransform="matrix(0.63, 0.78, -0.78, 0.63, -176.87, 310.68)" xlink:href="#radial-gradient"/><radialGradient id="radial-gradient-25" cx="3.59" cy="-428.78" r="186.09" gradientTransform="matrix(0.63, 0.78, -0.78, 0.63, -176.87, 310.68)" xlink:href="#radial-gradient"/><radialGradient id="radial-gradient-26" cx="3.59" cy="-428.78" r="186.1" gradientTransform="matrix(0.63, 0.78, -0.78, 0.63, -176.87, 310.68)" xlink:href="#radial-gradient"/><radialGradient id="radial-gradient-27" cx="3.6" cy="-428.78" r="186.1" gradientTransform="matrix(0.63, 0.78, -0.78, 0.63, -176.87, 310.68)" xlink:href="#radial-gradient"/><radialGradient id="radial-gradient-28" cx="3.6" cy="-428.78" r="186.1" gradientTransform="matrix(0.63, 0.78, -0.78, 0.63, -176.87, 310.68)" xlink:href="#radial-gradient"/><radialGradient id="radial-gradient-29" cx="-12.83" cy="-446.31" r="102.61" gradientTransform="matrix(0.63, 0.78, -0.78, 0.63, -176.87, 310.68)" xlink:href="#radial-gradient"/><radialGradient id="radial-gradient-30" cx="-151.14" cy="437.24" r="41.59" gradientTransform="matrix(1, 0, 0, 1, 258.5, -419.82)" xlink:href="#radial-gradient"/><radialGradient id="radial-gradient-31" cx="38.93" cy="68.54" r="22.94" gradientTransform="matrix(0, 1, -1, 0, 234.84, -8.94)" xlink:href="#radial-gradient"/><radialGradient id="radial-gradient-32" cx="-25.95" cy="-460.47" r="210.07" gradientTransform="matrix(0, 1, -1, 0, -245.19, 55.47)" xlink:href="#radial-gradient"/><radialGradient id="radial-gradient-33" cx="-25.95" cy="-460.47" r="210.07" gradientTransform="translate(-244.48 50.07) rotate(90)" xlink:href="#radial-gradient"/><radialGradient id="radial-gradient-34" cx="-25.95" cy="-460.47" r="210.07" gradientTransform="translate(-228.6 42.82) rotate(90)" xlink:href="#radial-gradient"/><radialGradient id="radial-gradient-35" cx="-25.95" cy="-460.47" r="210.07" gradientTransform="translate(-228.07 36.12) rotate(90)" xlink:href="#radial-gradient"/><radialGradient id="radial-gradient-36" cx="-25.95" cy="-460.48" r="210.07" gradientTransform="translate(-289.78 72.25) rotate(90)" xlink:href="#radial-gradient"/><radialGradient id="radial-gradient-37" cx="-25.95" cy="-460.47" r="210.07" gradientTransform="translate(-286.27 72.99) rotate(90)" xlink:href="#radial-gradient"/><radialGradient id="radial-gradient-38" cx="-25.95" cy="-460.48" r="210.07" gradientTransform="translate(-287.82 85.48) rotate(90)" xlink:href="#radial-gradient"/><radialGradient id="radial-gradient-39" cx="-25.95" cy="-460.47" r="210.07" gradientTransform="translate(-282.01 84.51) rotate(90)" xlink:href="#radial-gradient"/><radialGradient id="radial-gradient-40" cx="-25.95" cy="-460.47" r="210.07" gradientTransform="translate(-267.47 80.9) rotate(90)" xlink:href="#radial-gradient"/><radialGradient id="radial-gradient-41" cx="-25.95" cy="-460.47" r="210.07" gradientTransform="translate(-264.92 75.83) rotate(90)" xlink:href="#radial-gradient"/><radialGradient id="radial-gradient-42" cx="-25.94" cy="-460.47" r="210.07" gradientTransform="translate(-255.49 25.84) rotate(90)" xlink:href="#radial-gradient"/><radialGradient id="radial-gradient-43" cx="-25.94" cy="-460.47" r="210.07" gradientTransform="translate(-254.11 30.24) rotate(90)" xlink:href="#radial-gradient"/><radialGradient id="radial-gradient-44" cx="-25.94" cy="-460.47" r="210.07" gradientTransform="translate(-240.44 29.02) rotate(90)" xlink:href="#radial-gradient"/><radialGradient id="radial-gradient-45" cx="-25.95" cy="-460.47" r="210.07" gradientTransform="matrix(0, 1, -1, 0, -285.97, 56.97)" xlink:href="#radial-gradient"/><radialGradient id="radial-gradient-46" cx="-25.95" cy="-460.47" r="210.08" gradientTransform="translate(-279.85 55.62) rotate(90)" xlink:href="#radial-gradient"/><radialGradient id="radial-gradient-47" cx="-25.95" cy="-460.47" r="210.07" gradientTransform="translate(-246.88 74.7) rotate(90)" xlink:href="#radial-gradient"/><radialGradient id="radial-gradient-48" cx="-25.95" cy="-460.47" r="210.07" gradientTransform="translate(-242.4 78.17) rotate(90)" xlink:href="#radial-gradient"/><radialGradient id="radial-gradient-49" cx="-25.95" cy="-460.47" r="210.07" gradientTransform="translate(-246.91 108.34) rotate(90)" xlink:href="#radial-gradient"/><radialGradient id="radial-gradient-50" cx="-25.95" cy="-460.47" r="210.07" gradientTransform="translate(-244.29 104.52) rotate(90)" xlink:href="#radial-gradient"/><radialGradient id="radial-gradient-51" cx="-25.95" cy="-460.47" r="210.07" gradientTransform="matrix(0, 1, -1, 0, -231.23, 93.38)" xlink:href="#radial-gradient"/><radialGradient id="radial-gradient-52" cx="-25.95" cy="-460.47" r="210.07" gradientTransform="translate(-220.49 102.51) rotate(90)" xlink:href="#radial-gradient"/><radialGradient id="radial-gradient-53" cx="-25.95" cy="-460.47" r="210.07" gradientTransform="translate(-217.36 100.14) rotate(90)" xlink:href="#radial-gradient"/><radialGradient id="radial-gradient-54" cx="-25.95" cy="-460.47" r="210.07" gradientTransform="translate(-200.24 80.79) rotate(90)" xlink:href="#radial-gradient"/><radialGradient id="radial-gradient-55" cx="-25.95" cy="-460.47" r="210.08" gradientTransform="translate(-203.88 85.33) rotate(90)" xlink:href="#radial-gradient"/><radialGradient id="radial-gradient-56" cx="-25.95" cy="-460.47" r="210.07" gradientTransform="translate(-199.81 75.13) rotate(90)" xlink:href="#radial-gradient"/><radialGradient id="radial-gradient-57" cx="-25.95" cy="-460.48" r="210.07" gradientTransform="matrix(0, 1, -1, 0, -234.28, 115.17)" xlink:href="#radial-gradient"/><radialGradient id="radial-gradient-58" cx="26.32" cy="-367.01" r="92.95" gradientTransform="matrix(0.63, 0.78, -0.78, 0.63, -176.87, 310.68)" gradientUnits="userSpaceOnUse"><stop offset="0.08" stop-color="#ffe245"/><stop offset="0.53" stop-color="#de007b"/><stop offset="1" stop-color="#e38427"/></radialGradient><radialGradient id="radial-gradient-59" cx="238.44" cy="-553.64" r="92.94" gradientTransform="matrix(0.45, 0.56, -0.56, 0.45, -293.19, 215.71)" xlink:href="#radial-gradient-58"/><radialGradient id="radial-gradient-60" cx="22.03" cy="-368.27" r="64.91" xlink:href="#radial-gradient-58"/><radialGradient id="radial-gradient-61" cx="21.97" cy="-368.32" r="82" xlink:href="#radial-gradient-58"/><radialGradient id="radial-gradient-62" cx="26.19" cy="-366.81" r="89.69" xlink:href="#radial-gradient-58"/><radialGradient id="radial-gradient-63" cx="-341.46" cy="-672.92" r="92.95" gradientTransform="matrix(0.22, 1, -0.92, 0.21, -424.76, 577.8)" xlink:href="#radial-gradient-58"/><radialGradient id="radial-gradient-64" cx="-270.84" cy="-976.74" r="92.95" gradientTransform="matrix(0.16, 0.72, -0.66, 0.15, -484.47, 437.97)" xlink:href="#radial-gradient-58"/><radialGradient id="radial-gradient-65" cx="-345.75" cy="-674.18" r="64.91" gradientTransform="matrix(0.22, 1, -0.92, 0.21, -424.76, 577.8)" xlink:href="#radial-gradient-58"/><radialGradient id="radial-gradient-66" cx="-345.81" cy="-674.23" r="81.99" gradientTransform="matrix(0.22, 1, -0.92, 0.21, -424.76, 577.8)" xlink:href="#radial-gradient-58"/><radialGradient id="radial-gradient-67" cx="23.15" cy="-362.92" r="89.33" xlink:href="#radial-gradient-58"/></defs><title>explore-planet</title><g class="cls-1"><g id="OBJECTS"><circle class="cls-2" cx="127.05" cy="94.65" r="75.96" transform="translate(-31.26 100.98) rotate(-38.97)"/><circle class="cls-3" cx="127.05" cy="94.65" r="86.97" transform="translate(-31.26 100.98) rotate(-38.97)"/><path class="cls-4" d="M202.95,97.17A75.94,75.94,0,0,1,65,50.81,76,76,0,1,0,202.95,97.17Z"/><path class="cls-5" d="M187.44,125.49A67.89,67.89,0,0,1,65.51,66.29a67.88,67.88,0,1,0,121.93,59.19Z"/><path class="cls-6" d="M106.08,24.09a17.69,17.69,0,0,0,2.72,6.47,39.57,39.57,0,0,0,6.55,7.4c2.43,2.22,4.86,4.49,7.33,6.64,3.16,2.75,5.1,6,7.75,9.18a19.77,19.77,0,0,0,11,6.68,21.36,21.36,0,0,1,3.29.78A15.3,15.3,0,0,1,148.84,64c2.28,1.89,4.84,3.7,7.78,4,3.43.33,6.55-.7,10,0,4.14.84,8.19,2.09,12.33,3a102.14,102.14,0,0,0,11.12,1.84,24.44,24.44,0,0,0,9.49-.79l-.18-.58c-.08-.24-.14-.47-.22-.71a24.05,24.05,0,0,1-8.88.19c-3.44-.49-7.14-1.37-10.78-2.28a147.13,147.13,0,0,1-19.59-6.52c-5.21-2.15-8.55-3.85-8.55-3.85s-3.44-1.5-8.4-4.14a161.25,161.25,0,0,1-17.56-10.86c-6.07-4.42-12.18-9-15.49-13.44a19.48,19.48,0,0,1-3.14-5.87c-.35-1.15-.5-2-.61-2.31h0l-.18.05h0A8.8,8.8,0,0,0,106.08,24.09Z"/><path class="cls-7" d="M56.1,88.43A24.29,24.29,0,0,0,64,93.17a20.74,20.74,0,0,0,4.69,1.06,25.61,25.61,0,0,0,4.8,0c4.15-.39,7.77-1.39,11.13,2,1.71,1.74,2.83,4.23,5.08,5.15s4.59,0,6.92,0c3.91-.09,7.46,2.08,10.76,4.17l10.12,6.44c4.2,2.67,9.21,5.44,13.87,3.71,1.1-.41,2.1-1.05,3.21-1.42,4.13-1.39,8.44,1.14,12.14,3.43s8.32,4.5,12.21,2.54c1-.49,1.8-1.2,2.75-1.72a7.57,7.57,0,0,1,6.63-.22,7.35,7.35,0,0,0,1.89.76c1.31.2,2.51-.66,3.68-1.27,3.35-1.76,6.66-1,10.22-1a43,43,0,0,0,15.64-2.62c.3-.11.57-.23.86-.35h0c.13-.49.24-1,.36-1.49-.53.21-1.08.42-1.66.6a42.82,42.82,0,0,1-15.16,2c-5.63-.17-11.56-1.46-17.46-2.92s-11.83-3.11-17.58-4.08a70.76,70.76,0,0,0-8.38-.94c-2.68-.12-5.19-.1-7.47-.1a61,61,0,0,1-10.76-.66c-1.25-.23-2.2-.48-2.85-.66l-1-.32a7.13,7.13,0,0,1-1-.33,20,20,0,0,1-2.63-1.18,71.28,71.28,0,0,1-8.91-6.18,40.91,40.91,0,0,0-6.51-4.06,32.83,32.83,0,0,0-8.2-2.68,32.36,32.36,0,0,0-9.19-.36c-3.11.32-6.1,1.05-9,1.4a18.82,18.82,0,0,1-8.54-.67A22.49,22.49,0,0,1,57.33,87a37.07,37.07,0,0,1-5.09-5.31h0c-.13.74-.25,1.48-.36,2.23h0A37.36,37.36,0,0,0,56.1,88.43Z"/><path class="cls-8" d="M141.13,168.83c-.11-.29-3,1.27-7.52,1.16s-10.41-2.05-15.83-4.92c-2.73-1.41-5.39-3-7.94-4.44l-6.93-4-6.77-3.85-22.08-11.5c-4-2-7.92-4.06-11.19-6.06h0c.77,1.22,1.58,2.43,2.43,3.62h0c2.41,1.53,5,3.05,7.61,4.54,2.34,1.34,4.73,2.63,7,4,1.94,1.17,4.21,1.8,5.55,3.77,1.45,2.12,1.69,5,3.57,6.77,2.28,2.13,5.86,1.64,8.91,2.29a11.42,11.42,0,0,1,4.88,2.36c1.83,1.52,3.62,3.77,6,3.43a9.69,9.69,0,0,1,1.93-.35,4.53,4.53,0,0,1,1.8.72c1.93,1,3.85,1,5.88,1.55,2.37.64,4.62,1.82,7,2.44.29.07.57.12.86.19q1.76,0,3.53,0c1.06,0,2.11-.11,3.17-.19l.3,0q3.48-.29,6.94-.9h0C140.86,169.13,141.16,168.89,141.13,168.83Z"/><path class="cls-9" d="M136.39,32.25c1.72,2.27,4.05,4,5.76,6.29,2.46,3.28,3.85,7.8,7.63,9.39,1.95.82,4.14.65,6.25.76a23.45,23.45,0,0,1,8.73,2.17c2,.93,3.94,2.17,6.14,2.24.83,0,1.66-.11,2.49,0a8.71,8.71,0,0,1,2.08.53,11.85,11.85,0,0,0,4.88,1.05c1.67-.15,3.39-1.42,3.37-3.1a19.54,19.54,0,0,0-.39-2.07c-.18-1.5,1.15-2.13.92-3.85a11.39,11.39,0,0,0-.25-1.23c-.64-.73-1.3-1.44-2-2.14l-.27-.28q-1.07-1.11-2.17-2.16h0a37.83,37.83,0,0,1,1.23,3.67c.56,1.77.82,3.41.32,4.33a3,3,0,0,1-2.81,1.43,12.29,12.29,0,0,1-3.64-.46l-3-.89L169,47l-2.62-.85c-1.66-.57-4-1.4-6.78-2.58A64.26,64.26,0,0,1,141.17,32c-.73-.68-1.45-1.36-2.12-2.09l-1-1.07a8.94,8.94,0,0,1-.81-1.06,3.83,3.83,0,0,1-.75-2.14,1.61,1.61,0,0,1,1.12-1.37,35.26,35.26,0,0,1,9.86-2.18c.61,0,1.19-.07,1.76-.09h0c-1.36-.41-2.73-.78-4.11-1.11a33.47,33.47,0,0,0-8.26,1.65,3.47,3.47,0,0,0-2.43,2.89A10.12,10.12,0,0,0,136.39,32.25Z"/><path class="cls-10" d="M174.52,153.94l-3.1-.24c-7.23-.55-16.88-1.2-26.53-1.82-4.83-.33-9.66-.55-14.08-1.07a50.59,50.59,0,0,1-11.71-2.63,34.76,34.76,0,0,1-7.43-3.83c-1.67-1.14-2.55-1.89-2.55-1.89s-.93-.69-2.4-2.06a38.18,38.18,0,0,1-5.44-6.42c-1-1.46-2.17-3.12-3.59-4.78a18.65,18.65,0,0,0-5.38-4.49c-4.36-2.37-9.38-2.81-13.86-4.07a38.35,38.35,0,0,1-6.5-2.53,47.46,47.46,0,0,1-5.83-3.53,78.16,78.16,0,0,1-9.29-7.94c-1.5-1.5-3.51-4.47-5.45-5.51q.3,3.53.93,7a11.73,11.73,0,0,0,3.31,3.69c1.2.8,2.61,1.39,3.48,2.55,1.9,2.52.52,6.77,2.94,8.8a6.61,6.61,0,0,0,3.34,1.17c6.29,1,13,1.79,17.85,6,1.94,1.69,3.69,4,6.24,4.31,1,.14,2-.06,3.06,0,2.75.16,5,2.15,6.89,4.17,2.39,2.58,4.9,4.21,7.61,6.3,0,0,1,.8,2.83,2a37.64,37.64,0,0,0,8.2,4,52.84,52.84,0,0,0,12.47,2.49c4.59.42,9.43.5,14.26.67,9.66.31,19.33.6,26.58.75l1.73,0,.35-.27C173.8,154.5,174.16,154.23,174.52,153.94Z"/><path class="cls-11" d="M70.23,44.26s0,.1,0,.15c.55,1.95,4.56,3.7,6,5.23a9.52,9.52,0,0,1,2.71,7,19,19,0,0,0-.44,3.93c.59,4.76,8.72,6,8.64,10.81,0,1.09-.51,2.14-.41,3.23.3,3.15,4.78,3.8,6.63,6.36.54.76.92,1.74,1.77,2.1a3.26,3.26,0,0,0,1.66.08c4-.5,7.07.09,11,.11,1.69,0,2.62,0,2.62,0l2.57-.16a54.59,54.59,0,0,1,6.56-.14,16.66,16.66,0,0,1,8.33,2.6c1.41.88,2.82,2,4.31,3.06s3.07,2.19,4.68,3.2a68.48,68.48,0,0,0,19,8.21c5.49,1.4,9.26,1.61,9.29,1.41s-3.64-.92-8.92-2.68a73.63,73.63,0,0,1-18.11-9q-2.27-1.56-4.4-3.26c-1.42-1.14-2.85-2.31-4.38-3.34a17.79,17.79,0,0,0-4.86-2.41,21.88,21.88,0,0,0-4.75-.94,56,56,0,0,0-7-.06l-2.56.09s-.92.07-2.5.1a22,22,0,0,1-6.26-.57,11.32,11.32,0,0,1-6.69-4.88c-1.8-2.69-2.92-6.24-4.44-9.73a33.85,33.85,0,0,0-6.15-9.42A55.48,55.48,0,0,0,77,48.81a45.82,45.82,0,0,0-6.72-4.64Z"/><path class="cls-12" d="M108.2,125.4s.17,0,.39,0C108.38,125.31,108.24,125.3,108.2,125.4Z"/><path class="cls-13" d="M176.61,135.35a45.24,45.24,0,0,1-8.45-1.1,44.16,44.16,0,0,0-7.8-1.29,23.64,23.64,0,0,0-5.76.56c-1.33.28-2.07.48-2.07.48l-2,.58a52.45,52.45,0,0,1-5.08,1.32,33.15,33.15,0,0,1-15.6-.86c-5.53-1.62-10.44-5.17-14.51-7.19a22.35,22.35,0,0,0-6.76-2.46c1.88.73,9.72,8.1,10.11,8.93,1.27,2.7,1.36,6.85,4.31,7.28,2.33.34,4.22-2.35,6.57-2.24,2.15.1,3.55,2.43,5.62,3,1.81.5,3.72-.43,5.6-.31,2.84.18,5.1,2.69,7.93,3,4.4.47,8.15-4.49,12.5-3.67,2.27.43,4.15,2.4,6.45,2.31a8.44,8.44,0,0,0,3.78-1.54c6.18-3.63,13.37-4.7,20-7.24.38-.61.76-1.22,1.12-1.84l-.13,0A46.82,46.82,0,0,1,176.61,135.35Z"/><path class="cls-14" d="M158.74,29.73a9.71,9.71,0,0,0-5.32,1,1.47,1.47,0,0,0-.71.83c-.22.91,1,1.53,1.16,2.45.09.64-.4,1.23-.46,1.88a1.53,1.53,0,0,0,1.4,1.6c1,0,1.87-.9,2.83-.69s1.25,1.07,2,1.51c1,.64,2.45.18,3.57.66a2.06,2.06,0,0,0,1,.33.75.75,0,0,0,.42-1.21c-.26-.4-.93-.12-1.29-.29A20.26,20.26,0,0,1,160,35.42l-1.55-1.21-.83-.67A5.86,5.86,0,0,1,157,33a1.24,1.24,0,0,1-.34-.58.58.58,0,0,1,.27-.6,1.4,1.4,0,0,1,.69-.17h.94c1.73,0,3.55.11,5.43.28s3.81.43,5.75.78c.62.11,1.22.24,1.83.38h0c-1.23-.89-2.49-1.74-3.76-2.55a6.84,6.84,0,0,0-1.65-.6C163.85,29.49,161.13,29.74,158.74,29.73Z"/><path class="cls-15" d="M93.45,31.53c1.38,3.83,3.41,10,3.54,10.91.24,1.63.3,3.29.69,4.89a12.31,12.31,0,0,0,6.51,8.05c1.71.82,3.66,1.28,5,2.6,1.63,1.57,2.12,4.1,3.87,5.54,2.17,1.79,5.55,1.32,7.84,3,1.14.82,1.89,2.08,3,3,2.23,1.8,5.38,1.69,8.24,1.81,4.79.19,8.86,1.62,13.35,3l3.11.92,3.13.84c2,.53,4.82,1.28,8.18,2.26,5,1.46,10.12,3,14.32,6.18,3.88,2.92,7.2,7.22,12.2,8.22a3.48,3.48,0,0,0,2.51-.24,13.46,13.46,0,0,0,1.21-1.08c1.55-1.24,4.21-.89,5.23-2.6.56-.94.46-2.31,1.38-2.9a4.12,4.12,0,0,1,1.42-.39c2.15-.45,2.27-2.35,3.76-3.43-.1-.58-.19-1.17-.31-1.75l-.14.08c-1.81,1.11-3.43,2.55-5.16,3.84a12.8,12.8,0,0,1-5.61,2.71,12.08,12.08,0,0,1-6.28-.94,47.1,47.1,0,0,1-6.08-3.11c-2-1.15-4.08-2.28-6.12-3.21a97.48,97.48,0,0,0-11.42-4.37c-3.39-1.08-6.23-1.89-8.21-2.47l-3.1-.9-3.1-.85c-2-.55-4.77-1.34-8.07-2.44A77.77,77.77,0,0,1,127.45,64,78,78,0,0,1,116,56.82,81.31,81.31,0,0,1,98.39,38.45c-4-5.73-5.91-10-6.2-9.93A13.81,13.81,0,0,1,93.45,31.53Z"/><path class="cls-16" d="M181.2,44.92c-1-1.08-2-2.14-3.09-3.16a37.82,37.82,0,0,1,1.23,3.67,9.28,9.28,0,0,1,.56,3.47,2.21,2.21,0,0,0,1.23-1.1A4.44,4.44,0,0,0,181.2,44.92Z"/><path class="cls-17" d="M137.59,24.26a1.61,1.61,0,0,0-1.12,1.37,1.9,1.9,0,0,0,0,.46A35.54,35.54,0,0,1,146,24c.61,0,1.19-.07,1.76-.09-1.36-.41-2.74-.78-4.12-1.11-.7.05-1.41.13-2.15.23A31.46,31.46,0,0,0,137.59,24.26Z"/><path class="cls-18" d="M157,33a5.86,5.86,0,0,0,.56.51l.15.12c1.54,0,3.14.11,4.8.26,1.88.17,3.81.43,5.75.78.62.11,1.22.24,1.83.38a18.81,18.81,0,0,0-4.78-3L164,32c-1.88-.17-3.7-.26-5.43-.28h-1a1.35,1.35,0,0,0-.65.17.58.58,0,0,0-.27.6A1.24,1.24,0,0,0,157,33Z"/><path class="cls-19" d="M152.82,32.26a5.35,5.35,0,0,0-.87.43,1.47,1.47,0,0,0-.71.83c-.22.91,1,1.53,1.16,2.45.09.64-.4,1.23-.46,1.88a1.53,1.53,0,0,0,1.4,1.6c1,0,1.87-.9,2.83-.69s1.25,1.07,2,1.51c1,.64,2.45.18,3.57.66a2.06,2.06,0,0,0,1,.33.75.75,0,0,0,.42-1.21c-.26-.4-.93-.12-1.29-.29a12.35,12.35,0,0,1-2.09-1.37l-.18-.08a3.66,3.66,0,0,1-.68-.59l-.43-.34-.59-.46a1.32,1.32,0,0,0-.27-.12c-1-.2-1.85.73-2.83.69a1.53,1.53,0,0,1-1.4-1.6c.06-.65.54-1.24.46-1.88S153.1,32.84,152.82,32.26Z"/><path class="cls-20" d="M124.57,170.55a49.65,49.65,0,0,1-6.64-2.7c-1.82-.41-3.57-.47-5.33-1.42a4.53,4.53,0,0,0-1.8-.72,9.69,9.69,0,0,0-1.93.35c-2.36.34-4.15-1.92-6-3.43A11.42,11.42,0,0,0,98,160.27c-3.05-.65-6.63-.16-8.91-2.29-1.88-1.75-2.12-4.65-3.57-6.77-1.35-2-3.61-2.6-5.55-3.77s-4.14-2.39-6.22-3.57l-1.15-.6c-2.25-1.14-4.46-2.28-6.56-3.42.64.87,1.29,1.73,2,2.57.52.64,1.06,1.26,1.6,1.88l1.84,1.07c2.34,1.34,4.73,2.63,7,4,1.94,1.17,4.21,1.8,5.55,3.77s1.61,4.21,2.87,6c1.33.83,2.67,1.62,4,2.36,1.8.36,3.78.36,5.58.74a11.42,11.42,0,0,1,4.88,2.36c1,.82,2,1.85,3,2.57,1,.31,2,.59,3,.85a8.89,8.89,0,0,1,1.89-.34,4.53,4.53,0,0,1,1.8.72c1.87,1,3.73,1,5.68,1.5A76.39,76.39,0,0,0,124.57,170.55Z"/><path class="cls-21" d="M62.47,95.13a20.75,20.75,0,0,0,4.69,1.06,25.61,25.61,0,0,0,4.8,0c4.15-.39,7.77-1.39,11.13,2,1.71,1.74,2.83,4.23,5.08,5.15s4.59,0,6.92,0c3.91-.09,7.46,2.08,10.76,4.17L116,113.9c4.2,2.67,9.21,5.44,13.87,3.71,1.1-.41,2.1-1.05,3.21-1.43,4.13-1.39,8.44,1.14,12.14,3.43s8.32,4.5,12.21,2.54c1-.49,1.8-1.2,2.75-1.72a7.57,7.57,0,0,1,6.63-.22,7.36,7.36,0,0,0,1.89.76c1.31.2,2.51-.66,3.68-1.27,3.35-1.76,6.66-1,10.22-1a43,43,0,0,0,15.64-2.62c.3-.11.57-.23.86-.35.13-.49.24-1,.36-1.49-.53.21-1.08.42-1.66.6a42.82,42.82,0,0,1-15.16,2c-1.12,0-2.25-.12-3.39-.24a11,11,0,0,0-5.39,1.15c-1.17.62-2.37,1.47-3.68,1.27a7.35,7.35,0,0,1-1.89-.76,7.57,7.57,0,0,0-6.63.22c-1,.51-1.78,1.23-2.75,1.72-3.89,2-8.51-.25-12.21-2.54s-8-4.83-12.14-3.43c-1.11.37-2.11,1-3.21,1.42-4.66,1.73-9.68-1-13.87-3.71l-10.12-6.44c-3.3-2.1-6.85-4.27-10.76-4.17-2.33.06-4.77.92-6.92,0s-3.37-3.42-5.08-5.15c-3.36-3.41-7-2.41-11.13-2a25.61,25.61,0,0,1-4.8,0,25,25,0,0,1-2.87-.52,16.06,16.06,0,0,1-2.6-.62A22.5,22.5,0,0,1,55.85,89a35.6,35.6,0,0,1-4.09-4.1c-.1.77-.2,1.54-.28,2.32a36.16,36.16,0,0,0,3.14,3.22A24.29,24.29,0,0,0,62.47,95.13Z"/><path class="cls-22" d="M169.94,155.66c-4.4-.34-9.7-.71-15.34-1.09l-9.83-.31c-4.83-.17-9.67-.25-14.26-.67A52.84,52.84,0,0,1,118,151.11a37.64,37.64,0,0,1-8.2-4c-1.85-1.21-2.83-2-2.83-2-2.71-2.09-5.22-3.72-7.61-6.3-1.87-2-4.14-4-6.89-4.17-1-.06-2,.14-3.06,0-2.55-.34-4.3-2.63-6.24-4.31-4.81-4.17-11.56-5-17.85-6A6.61,6.61,0,0,1,62,123.19c-2.42-2-1-6.27-2.94-8.8-.87-1.16-2.28-1.74-3.48-2.55a11.7,11.7,0,0,1-3.31-3.71c.31,1.71.69,3.42,1.11,5.11a8.12,8.12,0,0,0,.72.56c1.2.8,2.61,1.39,3.48,2.55,1.9,2.52.52,6.77,2.94,8.8a6.62,6.62,0,0,0,3.34,1.17c6.29,1,13,1.79,17.85,6,1.94,1.69,3.69,4,6.24,4.31,1,.14,2-.06,3.06,0,2.75.16,5,2.15,6.89,4.17,2.39,2.58,4.9,4.21,7.61,6.3,0,0,1,.8,2.83,2a37.65,37.65,0,0,0,8.2,4A52.84,52.84,0,0,0,129,155.55c4.59.42,9.43.5,14.26.67,9.66.31,19.33.6,26.58.75h.55c.55-.38,1.1-.76,1.64-1.16Z"/><path class="cls-23" d="M193.9,90.66a4.07,4.07,0,0,0,.38-1c-1.25.65-3,.7-4.14,1.62a13.46,13.46,0,0,1-1.21,1.08,3.48,3.48,0,0,1-2.51.24c-5-1-8.32-5.3-12.2-8.22-4.2-3.16-9.33-4.72-14.32-6.18-3.36-1-6.19-1.73-8.18-2.26l-3.13-.84-3.11-.92c-4.5-1.33-8.56-2.76-13.35-3-2.86-.11-6,0-8.24-1.81-1.09-.88-1.84-2.15-3-3-2.29-1.65-5.66-1.18-7.84-3-1.75-1.44-2.24-4-3.87-5.54-1.36-1.32-3.31-1.77-5-2.6a12.31,12.31,0,0,1-6.51-8.05c-.39-1.6-.45-3.26-.69-4.89-.05-.36-.44-1.67-1-3.34-3.38-5.06-5-8.72-5.3-8.61a13.8,13.8,0,0,1,1.26,3c1.38,3.83,3.41,10,3.54,10.91.24,1.63.3,3.29.69,4.89a12.31,12.31,0,0,0,6.51,8.05c1.71.82,3.66,1.28,5,2.6,1.63,1.57,2.12,4.1,3.87,5.54,2.17,1.79,5.55,1.32,7.84,3,1.14.82,1.89,2.08,3,3,2.23,1.8,5.38,1.69,8.24,1.81,4.79.19,8.86,1.62,13.35,3l3.11.92,3.13.84c2,.53,4.82,1.28,8.18,2.26,5,1.46,10.12,3,14.32,6.18,3.88,2.92,7.2,7.22,12.2,8.22a3.48,3.48,0,0,0,2.51-.24,13.46,13.46,0,0,0,1.21-1.08C190.22,92,192.88,92.37,193.9,90.66Z"/><path class="cls-24" d="M106.72,127.36s.17,0,.39,0C106.9,127.27,106.77,127.26,106.72,127.36Z"/><path class="cls-25" d="M171.46,142.15a8.44,8.44,0,0,1-3.78,1.54c-2.3.09-4.19-1.88-6.45-2.31-4.35-.82-8.1,4.13-12.5,3.67-2.83-.3-5.09-2.82-7.93-3-1.88-.12-3.79.82-5.6.31-2.07-.58-3.47-2.91-5.62-3-2.36-.1-4.24,2.58-6.57,2.24-3-.43-3-4.58-4.31-7.28a36.28,36.28,0,0,0-4.06-4.1l-.77-.4a22.36,22.36,0,0,0-6.76-2.46c1.88.73,9.72,8.1,10.11,8.93,1.27,2.7,1.36,6.85,4.31,7.28,2.33.34,4.22-2.35,6.57-2.24,2.15.1,3.55,2.43,5.62,3,1.81.5,3.72-.43,5.6-.31,2.84.18,5.1,2.69,7.93,3,4.4.47,8.15-4.49,12.5-3.67,2.27.43,4.15,2.4,6.45,2.31a8.44,8.44,0,0,0,3.78-1.54c6.28-3.69,13.59-4.73,20.32-7.36.4-.6.78-1.22,1.16-1.84h0C184.81,137.46,177.64,138.52,171.46,142.15Z"/><path class="cls-26" d="M74.73,51.6a9.52,9.52,0,0,1,2.71,7A19,19,0,0,0,77,62.52c.59,4.76,8.72,6,8.64,10.81,0,1.09-.51,2.14-.41,3.23.3,3.15,4.78,3.8,6.63,6.36.54.76.92,1.74,1.77,2.1a3.26,3.26,0,0,0,1.66.08c4-.5,7.07.09,11,.11,1.69,0,2.62,0,2.62,0l2.57-.16a54.59,54.59,0,0,1,6.56-.14,16.66,16.66,0,0,1,8.33,2.6c1.41.88,2.82,2,4.31,3.06s3.07,2.19,4.68,3.2a68.48,68.48,0,0,0,19,8.21c5.49,1.4,9.26,1.61,9.29,1.41s-3.64-.92-8.92-2.68a73.63,73.63,0,0,1-18.11-9c-.41-.28-.81-.58-1.22-.87-1.12-.74-2.23-1.5-3.29-2.29-1.49-1.1-2.9-2.18-4.31-3.06a16.66,16.66,0,0,0-8.33-2.6,54.59,54.59,0,0,0-6.56.14l-2.57.16s-.94,0-2.62,0c-3.89,0-7-.61-11-.11a3.26,3.26,0,0,1-1.66-.08c-.86-.36-1.23-1.34-1.77-2.1C91.5,78.4,87,77.74,86.72,74.6c-.1-1.08.39-2.14.41-3.23.08-4.8-8-6.05-8.64-10.81a19,19,0,0,1,.44-3.93,7.91,7.91,0,0,0-.55-3.53c-1-.84-1.92-1.62-2.82-2.32a45.13,45.13,0,0,0-6.82-4.69,1.67,1.67,0,0,0,.05.28C69.33,48.32,73.35,50.06,74.73,51.6Z"/><path class="cls-27" d="M108.4,31.76a19.47,19.47,0,0,1-3.14-5.87c-.35-1.15-.5-2-.61-2.31l-.18.05a8.79,8.79,0,0,0,.13,2.42,17.69,17.69,0,0,0,2.72,6.47,39.57,39.57,0,0,0,6.55,7.4c2.43,2.22,4.86,4.49,7.33,6.64,3.16,2.75,5.1,6,7.75,9.18a19.77,19.77,0,0,0,11,6.68,21.36,21.36,0,0,1,3.29.78,15.31,15.31,0,0,1,4.07,2.75c2.28,1.89,4.84,3.7,7.78,4,3.43.33,6.55-.7,10,0,4.14.84,8.19,2.09,12.33,3a102.14,102.14,0,0,0,11.12,1.84,24.44,24.44,0,0,0,9.49-.79c-.13-.43-.26-.86-.4-1.29a24.05,24.05,0,0,1-8.88.19c-2-.29-4.19-.73-6.35-1.22q-1.74-.33-3.49-.69c-4.14-.88-8.19-2.13-12.33-3-3.44-.7-6.56.33-10,0-2.95-.29-5.5-2.1-7.78-4a15.3,15.3,0,0,0-4.07-2.75,21.36,21.36,0,0,0-3.29-.78,19.77,19.77,0,0,1-11-6.68c-2.65-3.21-4.59-6.42-7.75-9.18-.6-.52-1.18-1.06-1.78-1.59C115.89,39.27,111.17,35.47,108.4,31.76Z"/><path class="cls-28" d="M134.91,34.21c1.72,2.27,4.05,4,5.76,6.29,2.46,3.28,3.85,7.8,7.63,9.39,1.95.82,4.14.65,6.25.76a23.45,23.45,0,0,1,8.73,2.17c2,.93,3.94,2.17,6.14,2.24.83,0,1.66-.11,2.49,0a8.72,8.72,0,0,1,2.08.53,11.85,11.85,0,0,0,4.88,1.05A3.69,3.69,0,0,0,182.17,54a4.24,4.24,0,0,1-1.83.62,11.85,11.85,0,0,1-4.88-1.05,8.71,8.71,0,0,0-2.08-.53c-.83-.08-1.66.07-2.49,0-2.19-.08-4.15-1.31-6.14-2.24A23.45,23.45,0,0,0,156,48.69c-2.11-.1-4.3.06-6.25-.76-3.78-1.59-5.16-6.12-7.63-9.39-1.71-2.28-4-4-5.76-6.29a10.12,10.12,0,0,1-2-6.83,4.52,4.52,0,0,1,.13-.53,3.47,3.47,0,0,0-1.6,2.49A10.12,10.12,0,0,0,134.91,34.21Z"/><path class="cls-29" d="M196.76,85.81a2.75,2.75,0,0,0-.94,1.75c.29-.07.6-.11.89-.17,2.15-.45,2.27-2.35,3.76-3.43l0-.19a3.47,3.47,0,0,1-2.25,1.66A4.12,4.12,0,0,0,196.76,85.81Z"/><path class="cls-30" d="M181,95.32a27.2,27.2,0,0,1-5.63-2.59c-7-4.23-12.58-10.58-20-14-8.31-3.86-17.89-3.59-27-2.71S110,78.33,101,76.54,83.12,68.92,80.79,60.06c-6.24-23.7,29.31-35.47,46.82-36.35a68.16,68.16,0,0,1,56,25c6,7.44,9.66,15.62,13.17,24.41,2.12,5.31,2.57,11.87.5,17.27C194.6,97.53,187.48,97.45,181,95.32Z"/><ellipse class="cls-31" cx="126.12" cy="39.72" rx="14.82" ry="8.01" transform="translate(-2.09 7.39) rotate(-3.33)"/><ellipse class="cls-32" cx="153.99" cy="40.32" rx="4.42" ry="8.18" transform="matrix(0.36, -0.93, 0.93, 0.36, 60.8, 169.38)"/><g class="cls-33"><circle class="cls-34" cx="149.58" cy="86.54" r="2.94" transform="translate(-21.14 113.34) rotate(-38.97)"/><circle class="cls-35" cx="157.57" cy="84.84" r="1.79" transform="translate(-18.29 117.99) rotate(-38.97)"/><circle class="cls-36" cx="175.75" cy="103.66" r="4.6" transform="translate(-26.08 133.61) rotate(-38.97)"/><circle class="cls-37" cx="185.47" cy="101.05" r="2.04" transform="translate(-22.28 139.15) rotate(-38.97)"/><circle class="cls-38" cx="103.58" cy="31.91" r="2.3" transform="translate(2.98 72.25) rotate(-38.97)"/><circle class="cls-39" cx="104.29" cy="37.26" r="1.28" transform="translate(-0.22 73.88) rotate(-38.97)"/><circle class="cls-40" cx="85.87" cy="41.31" r="3.83" transform="translate(-6.87 63.2) rotate(-38.97)"/><circle class="cls-41" cx="90.15" cy="49.02" r="1.79" transform="translate(-10.77 67.61) rotate(-38.97)"/><circle class="cls-42" cx="102.52" cy="67.77" r="3.96" transform="translate(-19.81 79.56) rotate(-38.97)"/><circle class="cls-43" cx="110.94" cy="68.84" r="1.66" transform="translate(-18.61 85.1) rotate(-38.97)"/><circle class="cls-44" cx="186.29" cy="57.18" r="1.92" transform="translate(5.5 129.9) rotate(-38.97)"/><circle class="cls-45" cx="180.77" cy="61.32" r="2.94" transform="translate(1.67 127.34) rotate(-38.97)"/><circle class="cls-46" cx="189.33" cy="80.02" r="2.43" transform="translate(-8.19 136.89) rotate(-38.97)"/><circle class="cls-47" cx="127.07" cy="29.67" r="4.09" transform="translate(9.62 86.52) rotate(-38.97)"/><circle class="cls-48" cx="132.04" cy="37.64" r="2.43" transform="translate(5.71 91.43) rotate(-38.97)"/><circle class="cls-49" cx="121.57" cy="93.76" r="2.94" transform="translate(-31.91 97.33) rotate(-38.97)"/><circle class="cls-50" cx="118.9" cy="101.83" r="1.66" transform="translate(-37.59 97.45) rotate(-38.97)"/><circle class="cls-51" cx="74.02" cy="110.54" r="3.19" transform="matrix(0.78, -0.63, 0.63, 0.78, -53.05, 71.16)"/><circle class="cls-52" cx="80.74" cy="112.34" r="1.92" transform="translate(-52.69 75.78) rotate(-38.97)"/><circle class="cls-53" cx="102.99" cy="125.22" r="1.92" transform="translate(-55.84 92.65) rotate(-38.97)"/><circle class="cls-54" cx="95.46" cy="144.95" r="1.79" transform="translate(-69.92 92.3) rotate(-38.97)"/><circle class="cls-55" cx="100.38" cy="148.2" r="3.07" transform="translate(-70.87 96.12) rotate(-38.97)"/><circle class="cls-56" cx="136.27" cy="162.71" r="2.94" transform="translate(-72.01 121.93) rotate(-38.97)"/><circle class="cls-57" cx="128.04" cy="159.84" r="1.41" transform="translate(-72.03 116.1) rotate(-38.97)"/><circle class="cls-58" cx="144.5" cy="160.49" r="2.04" transform="translate(-68.78 126.6) rotate(-38.97)"/><circle class="cls-59" cx="70.69" cy="131.8" r="2.3" transform="translate(-67.17 73.79) rotate(-38.97)"/></g><path class="cls-60" d="M248,141c2.35-7.12-16.65-20.37-47.55-34.75a24.86,24.86,0,0,1-.4,5.59c16.3,8.51,25.65,15.82,24.26,20-2.86,8.66-50.32.77-106-17.64s-98.5-40.35-95.63-49c1.5-4.53,15.19-4.52,35.85-.87a36.22,36.22,0,0,1,2.5-4.2C27.56,53.19,4.31,52.49,2,59.62c-3.8,11.51,48.2,39.05,116.15,61.51S244.24,152.47,248,141Z"/><path class="cls-61" d="M214.19,128.31c1.09-3.31-4.25-8.47-14.13-14.51a12.11,12.11,0,0,1-1,4.68c2.9,2.09,4.6,3.87,4.22,5-2.06,6.25-42.54-1.35-82.73-14.7S46.42,78.56,48.47,72.31c.46-1.41,3.14-2,7.22-2a14.41,14.41,0,0,1,1.62-4.09c-12-1.2-19.65-.27-20.76,3.12-2.73,8.31,34.82,28.25,83.87,44.54S211.46,136.61,214.19,128.31Z"/><path class="cls-62" d="M204.76,119.6c-1.45-2.43,1.29-1.24,4.26.46a75.55,75.55,0,0,0-9-6.26,12.11,12.11,0,0,1-1,4.68c2.9,2.09,4.6,3.87,4.22,5-2.06,6.25-42.54-1.35-82.73-14.7S46.42,78.56,48.47,72.31c.46-1.41,3.14-2,7.22-2a14.41,14.41,0,0,1,1.62-4.09c-12-1.2-19.65-.27-20.76,3.12a3.13,3.13,0,0,0,0,1.69c.67-2.34,2.73-4.74,8.52-4.05,10.7,1.27-3.81,2.34.46,7.32S53.65,84,96.31,100.88s77.83,24.13,96.53,26.38S207.56,124.28,204.76,119.6Z"/><path class="cls-63" d="M221,116.55c-6-3.33-12.9-6.8-20.51-10.34a24.86,24.86,0,0,1-.4,5.59c16.3,8.51,25.65,15.82,24.26,20-2.86,8.66-50.32.77-106-17.64s-98.5-40.35-95.63-49c1.5-4.53,15.19-4.52,35.85-.87a36.22,36.22,0,0,1,2.5-4.2c-16.73-3.45-30.89-5.35-41.19-5.5,10,1.07,21,2.66,21.63,4.51,1.21,3.46-16-2.57-20.44,4.16s5.1,16.5,47.24,34.46,99.14,33.1,121.09,37.87,39,3.06,41.22-1.61-20.63-17.27-15-17.37C216.84,116.58,218.76,116.56,221,116.55Z"/><path class="cls-64" d="M22.64,77.22c-.11.22-5.21-2.36-9.77-5.82-1.14-.85-2.26-1.74-3.28-2.61a27.07,27.07,0,0,1-2.74-2.54,5.73,5.73,0,0,1-1.37-2.62,3.93,3.93,0,0,1-.08-1.2l0-.32a3.58,3.58,0,0,1,.29-.89,4.3,4.3,0,0,1,2.34-2,45.61,45.61,0,0,1,7.68-2c5.66-1.05,11.39-.7,11.37-.45s-5.67.32-11.13,1.65a48.76,48.76,0,0,0-7.27,2.27c-1.79.81-1.54,1.94-1.6,1.93a2.32,2.32,0,0,0,0,.73,4.08,4.08,0,0,0,.93,1.91,27.23,27.23,0,0,0,2.47,2.49c1,.89,2,1.82,3.09,2.72C17.91,74.08,22.75,77,22.64,77.22Zm60,18.63-8.76-3.68c-3.17-1.37-6.31-2.79-8.61-3.94s-3.83-2-3.83-2l-1.05-.53c-.68-.33-1.62-.83-2.75-1.45a86.78,86.78,0,0,1-8-4.91c-1.4-1-2.8-2-4.05-3a13.41,13.41,0,0,1-3.12-2.93A3.14,3.14,0,0,1,42,70.69c.25-.67.64-.91.59-1s-.5.1-.91.83a3.45,3.45,0,0,0,.12,3.25,13.12,13.12,0,0,0,3.08,3.34c1.21,1.1,2.58,2.18,4,3.25a80,80,0,0,0,8,5.31c1.13.67,2.07,1.2,2.75,1.56l1.05.57s1.56.78,3.94,1.86,5.59,2.4,8.83,3.63,6.52,2.37,9,3.18a22.51,22.51,0,0,0,4.17,1.19A23.53,23.53,0,0,0,82.65,95.85ZM176,126.24l-4.68-1.09c-3.87-.89-9-2.18-14.12-3.54-10.22-2.77-20.29-6-20.29-6s-10.14-3-20.2-6.36l-13.85-4.54-4.58-1.45a7.63,7.63,0,0,0-1.78-.44,7.58,7.58,0,0,0,1.66.77c1.07.44,2.62,1,4.48,1.76,3.71,1.42,8.69,3.26,13.68,5.06,10,3.61,20.09,6.86,20.09,6.86s10.17,3.09,20.5,5.56c5.17,1.22,10.36,2.33,14.29,3,2,.37,3.6.6,4.75.77a7.57,7.57,0,0,0,1.82.17A7.65,7.65,0,0,0,176,126.24Zm32.62,3.83a10.39,10.39,0,0,0,2.69-.33,4.58,4.58,0,0,0,1.27-.52,3.88,3.88,0,0,0,.31-.25,3.21,3.21,0,0,0,.72-.86,2.2,2.2,0,0,0,.19-1.74A4,4,0,0,0,213,125c-1.26-1.46-2.82-2.55-3-2.37s1.07,1.56,2,3.1a3,3,0,0,1,.47,1,.7.7,0,0,1-.17.53,2.13,2.13,0,0,1-.61.49,3,3,0,0,1-.82.45,10.76,10.76,0,0,1-2.29.63c-1.76.29-3.64.34-3.65.6S206.72,130.06,208.66,130.07Zm-.65,9c3.12.49,7.26,1.27,11.42,2A114.68,114.68,0,0,0,231,142.57a38.15,38.15,0,0,0,5.38.07s.55,0,1.5-.19a14.48,14.48,0,0,0,3.86-1.19,4.81,4.81,0,0,0,2.27-2,2.64,2.64,0,0,0,.21-1.88,5.63,5.63,0,0,0-.69-1.5,25.91,25.91,0,0,0-3.85-5,46.28,46.28,0,0,0-9.29-7.11,28.76,28.76,0,0,0-4.66-2.51,41.75,41.75,0,0,0,4.29,3.08,50.65,50.65,0,0,1,8.76,7.38,25.15,25.15,0,0,1,3.49,4.91,4.41,4.41,0,0,1,.51,1.14,1.11,1.11,0,0,1-.12.83,3.39,3.39,0,0,1-1.59,1.23,13,13,0,0,1-3.45,1c-.87.12-1.38.14-1.38.14a37,37,0,0,1-5.16.06c-3.13-.11-7.3-.54-11.47-1.1s-8.36-1.16-11.52-1.45a26.3,26.3,0,0,0-5.29-.22A48.36,48.36,0,0,0,208,139.09Zm-56.93-11.56-5-1.68-15.31-5c-11.12-3.7-22.17-7.6-22.17-7.6s-11.11-3.7-22.17-7.6l-15.18-5.41-5-1.77a9.3,9.3,0,0,0-1.94-.57,9.23,9.23,0,0,0,1.81.89c1.18.51,2.86,1.24,4.9,2.07,4.07,1.68,9.52,3.83,15,5.93,11,4.2,22,8.09,22,8.09s11.13,3.72,22.36,7.13c5.61,1.7,11.24,3.35,15.48,4.52,2.12.59,3.89,1.05,5.14,1.37a9.24,9.24,0,0,0,2,.41A9.3,9.3,0,0,0,151.08,127.53Zm32.59,7c-4-.65-8-1.51-8-1.51s-4-.65-8-1.52-7.95-1.92-8-1.69,3.76,1.71,7.72,2.88,8,2,8,2,4.08.68,8.19,1,8.23.38,8.24.14S187.7,135.23,183.67,134.57Z"/><path class="cls-65" d="M209.3,194.13c4.74-5.14-5.19-24.68-24.35-50.63-1.17,1.3-2.32,2.6-3.51,3.87,9.58,14.27,14.08,24.45,11.31,27.46-6,6.48-43.41-22.79-83.57-65.38S41.3,27.06,47.29,20.57c3.13-3.39,14.85,3,31.05,15.94a32.69,32.69,0,0,1,3.86-2.63C56.33,12,36.71.53,31.78,5.87c-8,8.62,25.33,57.74,74.35,109.73S201.34,202.74,209.3,194.13Z"/><path class="cls-66" d="M180.16,148.7c-1,1.05-2.11,2.07-3.24,3,1.37,2.86,2,5,1.21,5.79-4.31,4.68-35.88-21.06-64.85-51.87S62.12,43.71,66.43,39c1-1.06,3.51-.35,7,1.53a13.38,13.38,0,0,1,3.06-2.94C66.72,31,59.79,28.22,57.46,30.75,51.73,37,75.74,72.5,111.09,110.1s68.66,63,74.39,56.81C187.65,164.55,185.51,158,180.16,148.7Z"/><path class="cls-67" d="M181,154.64c-.25-2.87,1.61-.52,3.46,2.41a77,77,0,0,0-4.27-8.34c-1,1.05-2.11,2.07-3.23,3,1.37,2.86,2,5,1.21,5.79-4.31,4.68-35.88-21.06-64.85-51.87S62.12,43.71,66.43,39c1-1.06,3.51-.35,7,1.53a13.38,13.38,0,0,1,3.06-2.94C66.72,31,59.79,28.22,57.46,30.75a3.13,3.13,0,0,0-.73,1.5c1.53-1.8,4.27-3,9,.32,8.65,6.14-4.22.33-2.59,6.82s3,12.63,32.65,47.75,56.8,58.1,71.89,68.85S181.44,160.18,181,154.64Z"/><path class="cls-68" d="M191.48,157c1.06.55,2.71,1.43,4.63,2.46-3.24-5-7-10.32-11.17-16-1.16,1.3-2.32,2.59-3.5,3.86,9.58,14.27,14.08,24.45,11.31,27.46-6,6.48-43.41-22.79-83.57-65.38S41.3,27.06,47.29,20.57c3.13-3.39,14.85,3,31.05,15.94a32.69,32.69,0,0,1,3.86-2.63C69.29,23,57.93,14.64,49.18,9.7c8.17,5.66,16.88,12.19,16.68,14.16-.37,3.69-12.69-9.81-19.2-5.78S44.29,35.35,73,71.23s71.38,76.14,88.23,90.69,32.13,20.95,36,17.78S186.61,154.48,191.48,157Z"/><path class="cls-69" d="M42.3,31.41c-.19.15-3.5-4.56-6-9.81-.63-1.3-1.22-2.63-1.75-3.89a29.62,29.62,0,0,1-1.31-3.58,6.23,6.23,0,0,1-.1-3A4,4,0,0,1,33.57,10l.17-.27a3.37,3.37,0,0,1,.62-.67,3.79,3.79,0,0,1,2.83-.73,41.63,41.63,0,0,1,7.39,1.77c5.27,1.69,10,4.68,9.92,4.9s-5-2.36-10.2-3.7A44.15,44.15,0,0,0,37.15,10C35.28,9.86,35,11,35,11a2.34,2.34,0,0,0-.28.67,4.43,4.43,0,0,0,0,2.15,29.89,29.89,0,0,0,1.1,3.4c.46,1.26,1,2.59,1.53,3.9C39.54,26.37,42.48,31.28,42.3,31.41ZM86.08,76.23l-6-7.41c-2.15-2.71-4.26-5.46-5.77-7.58s-2.48-3.55-2.48-3.55l-.68-1c-.44-.61-1.05-1.51-1.77-2.59a93.21,93.21,0,0,1-4.89-8.19c-.8-1.54-1.59-3.1-2.24-4.6a14.68,14.68,0,0,1-1.47-4.1,3.24,3.24,0,0,1,.8-2.68c.48-.49.92-.53.9-.61s-.48-.14-1.12.33a3.49,3.49,0,0,0-1.22,3,14.4,14.4,0,0,0,1.27,4.45c.58,1.56,1.31,3.17,2.06,4.78A86.35,86.35,0,0,0,68.14,55c.69,1.13,1.29,2.05,1.72,2.69l.67,1s1,1.43,2.61,3.51,3.81,4.78,6.08,7.4,4.61,5.18,6.4,7.06a23,23,0,0,0,3.09,3A24.87,24.87,0,0,0,86.08,76.23Zm67.56,71-3.56-3.16c-3-2.61-6.82-6.17-10.64-9.79-7.62-7.27-14.91-14.91-14.91-14.91s-7.44-7.48-14.71-15.17l-10-10.56-3.33-3.45A7.73,7.73,0,0,0,95.14,89a8,8,0,0,0,1.1,1.47c.74.9,1.81,2.17,3.12,3.67,2.6,3,6.11,7,9.65,11,7.07,7.91,14.4,15.56,14.4,15.56s7.45,7.53,15.28,14.58c3.93,3.51,7.93,6.94,11,9.39,1.52,1.25,2.84,2.22,3.75,2.91a7.4,7.4,0,0,0,1.49,1A7.89,7.89,0,0,0,153.65,147.24ZM180,165.92a9.73,9.73,0,0,0,2.44,1,4.08,4.08,0,0,0,1.3.12,3.39,3.39,0,0,0,.37-.08,2.84,2.84,0,0,0,1-.45A2.17,2.17,0,0,0,186,165a4.34,4.34,0,0,0-.2-1.63c-.48-1.91-1.38-3.62-1.58-3.53s.28,1.9.44,3.73a3.2,3.2,0,0,1,0,1.11.66.66,0,0,1-.36.4,1.87,1.87,0,0,1-.72.16,2.66,2.66,0,0,1-.89,0,9.79,9.79,0,0,1-2.22-.5c-1.62-.56-3.26-1.39-3.37-1.16S178.36,165,180,165.92Zm-4.24,7.84c2.47,1.9,5.69,4.54,9,7.13a113.58,113.58,0,0,0,9.31,6.74,36.74,36.74,0,0,0,4.58,2.57s.48.22,1.36.53a13.15,13.15,0,0,0,3.79.73,4.23,4.23,0,0,0,2.75-.73,2.6,2.6,0,0,0,.95-1.6,6.11,6.11,0,0,0,0-1.68,28.47,28.47,0,0,0-1.24-6.35,50.27,50.27,0,0,0-5.05-10.75,30.58,30.58,0,0,0-3-4.44,45.31,45.31,0,0,0,2.42,4.78,55.25,55.25,0,0,1,4.49,10.75,27.63,27.63,0,0,1,1,6.06,4.77,4.77,0,0,1,0,1.27,1.09,1.09,0,0,1-.44.69,3,3,0,0,1-1.87.37,11.84,11.84,0,0,1-3.35-.75c-.8-.3-1.24-.51-1.24-.51a35.45,35.45,0,0,1-4.44-2.35c-2.64-1.56-6-3.89-9.38-6.35s-6.69-4.95-9.27-6.68a25.46,25.46,0,0,0-4.44-2.66A48.47,48.47,0,0,0,175.78,173.76Zm-44-37-3.63-3.87-11-11.69c-8-8.53-15.88-17.2-15.88-17.2s-8-8.53-15.88-17.2l-10.79-12L71,70.89a9.5,9.5,0,0,0-1.43-1.42,9.81,9.81,0,0,0,1.19,1.65c.8,1,1.94,2.45,3.35,4.15,2.8,3.41,6.59,7.9,10.42,12.36,7.67,8.9,15.56,17.58,15.56,17.58s8,8.55,16.23,16.87c4.11,4.15,8.26,8.27,11.42,11.3,1.57,1.52,2.9,2.77,3.84,3.63a9.25,9.25,0,0,0,1.53,1.29A9.75,9.75,0,0,0,131.75,136.76Zm25,21.56c-3.19-2.47-6.25-5.1-6.25-5.1s-3.18-2.47-6.24-5.11-6-5.44-6.18-5.27,2.52,3.3,5.44,6.2,6,5.57,6,5.57,3.21,2.52,6.59,4.74,6.89,4.18,7,4S160,160.8,156.79,158.32Z"/></g></g></svg>