<svg xmlns="http://www.w3.org/2000/svg" xmlns:xlink="http://www.w3.org/1999/xlink" viewBox="0 0 250 250"><defs><style>.cls-1{isolation:isolate;}.cls-2{fill:url(#radial-gradient);}.cls-3{fill:url(#radial-gradient-2);}.cls-106,.cls-107,.cls-119,.cls-120,.cls-129,.cls-13,.cls-134,.cls-135,.cls-14,.cls-145,.cls-15,.cls-150,.cls-151,.cls-25,.cls-30,.cls-31,.cls-4,.cls-41,.cls-46,.cls-47,.cls-5,.cls-57,.cls-62,.cls-63,.cls-73,.cls-78,.cls-79,.cls-8,.cls-93,.cls-94{mix-blend-mode:screen;}.cls-4{fill:url(#radial-gradient-3);}.cls-5{fill:url(#radial-gradient-4);}.cls-100,.cls-113,.cls-127,.cls-143,.cls-159,.cls-160,.cls-161,.cls-162,.cls-163,.cls-164,.cls-165,.cls-166,.cls-167,.cls-168,.cls-169,.cls-170,.cls-171,.cls-172,.cls-173,.cls-174,.cls-175,.cls-176,.cls-177,.cls-178,.cls-179,.cls-180,.cls-181,.cls-182,.cls-183,.cls-23,.cls-39,.cls-55,.cls-6,.cls-71,.cls-87{opacity:0.45;}.cls-10,.cls-100,.cls-102,.cls-103,.cls-104,.cls-105,.cls-11,.cls-112,.cls-113,.cls-115,.cls-116,.cls-117,.cls-118,.cls-12,.cls-125,.cls-126,.cls-127,.cls-130,.cls-131,.cls-132,.cls-133,.cls-140,.cls-141,.cls-142,.cls-143,.cls-146,.cls-147,.cls-148,.cls-149,.cls-156,.cls-157,.cls-158,.cls-159,.cls-160,.cls-161,.cls-162,.cls-163,.cls-164,.cls-165,.cls-166,.cls-167,.cls-168,.cls-169,.cls-170,.cls-171,.cls-172,.cls-173,.cls-174,.cls-175,.cls-176,.cls-177,.cls-178,.cls-179,.cls-180,.cls-181,.cls-182,.cls-183,.cls-20,.cls-21,.cls-22,.cls-23,.cls-26,.cls-27,.cls-28,.cls-29,.cls-36,.cls-37,.cls-38,.cls-39,.cls-42,.cls-43,.cls-44,.cls-45,.cls-52,.cls-53,.cls-54,.cls-55,.cls-58,.cls-59,.cls-6,.cls-60,.cls-61,.cls-68,.cls-69,.cls-70,.cls-71,.cls-74,.cls-75,.cls-76,.cls-77,.cls-84,.cls-85,.cls-86,.cls-87,.cls-89,.cls-9,.cls-90,.cls-91,.cls-92,.cls-99{mix-blend-mode:multiply;}.cls-6{fill:url(#radial-gradient-5);}.cls-7{fill:url(#radial-gradient-6);}.cls-106,.cls-107,.cls-119,.cls-120,.cls-129,.cls-13,.cls-134,.cls-135,.cls-14,.cls-145,.cls-150,.cls-151,.cls-25,.cls-30,.cls-31,.cls-41,.cls-46,.cls-47,.cls-57,.cls-62,.cls-63,.cls-73,.cls-78,.cls-79,.cls-8,.cls-93,.cls-94{opacity:0.54;}.cls-8{fill:url(#radial-gradient-7);}.cls-9{fill:url(#radial-gradient-8);}.cls-10{fill:url(#radial-gradient-9);}.cls-11{fill:url(#radial-gradient-10);}.cls-12{fill:url(#radial-gradient-11);}.cls-13{fill:url(#radial-gradient-12);}.cls-14{fill:url(#radial-gradient-13);}.cls-16{fill:url(#radial-gradient-14);}.cls-17{fill:url(#radial-gradient-15);}.cls-18{fill:url(#radial-gradient-16);}.cls-19{fill:url(#radial-gradient-17);}.cls-20{fill:url(#radial-gradient-18);}.cls-21{fill:url(#radial-gradient-19);}.cls-22{fill:url(#radial-gradient-20);}.cls-23{fill:url(#radial-gradient-21);}.cls-24{fill:url(#radial-gradient-22);}.cls-25{fill:url(#radial-gradient-23);}.cls-26{fill:url(#radial-gradient-24);}.cls-27{fill:url(#radial-gradient-25);}.cls-28{fill:url(#radial-gradient-26);}.cls-29{fill:url(#radial-gradient-27);}.cls-30{fill:url(#radial-gradient-28);}.cls-31{fill:url(#radial-gradient-29);}.cls-32{fill:url(#radial-gradient-30);}.cls-33{fill:url(#radial-gradient-31);}.cls-34{fill:url(#radial-gradient-32);}.cls-35{fill:url(#radial-gradient-33);}.cls-36{fill:url(#radial-gradient-34);}.cls-37{fill:url(#radial-gradient-35);}.cls-38{fill:url(#radial-gradient-36);}.cls-39{fill:url(#radial-gradient-37);}.cls-40{fill:url(#radial-gradient-38);}.cls-41{fill:url(#radial-gradient-39);}.cls-42{fill:url(#radial-gradient-40);}.cls-43{fill:url(#radial-gradient-41);}.cls-44{fill:url(#radial-gradient-42);}.cls-45{fill:url(#radial-gradient-43);}.cls-46{fill:url(#radial-gradient-44);}.cls-47{fill:url(#radial-gradient-45);}.cls-48{fill:url(#radial-gradient-46);}.cls-49{fill:url(#radial-gradient-47);}.cls-50{fill:url(#radial-gradient-48);}.cls-51{fill:url(#radial-gradient-49);}.cls-52{fill:url(#radial-gradient-50);}.cls-53{fill:url(#radial-gradient-51);}.cls-54{fill:url(#radial-gradient-52);}.cls-55{fill:url(#radial-gradient-53);}.cls-56{fill:url(#radial-gradient-54);}.cls-57{fill:url(#radial-gradient-55);}.cls-58{fill:url(#radial-gradient-56);}.cls-59{fill:url(#radial-gradient-57);}.cls-60{fill:url(#radial-gradient-58);}.cls-61{fill:url(#radial-gradient-59);}.cls-62{fill:url(#radial-gradient-60);}.cls-63{fill:url(#radial-gradient-61);}.cls-64{fill:url(#radial-gradient-62);}.cls-65{fill:url(#radial-gradient-63);}.cls-66{fill:url(#radial-gradient-64);}.cls-67{fill:url(#radial-gradient-65);}.cls-68{fill:url(#radial-gradient-66);}.cls-69{fill:url(#radial-gradient-67);}.cls-70{fill:url(#radial-gradient-68);}.cls-71{fill:url(#radial-gradient-69);}.cls-72{fill:url(#radial-gradient-70);}.cls-73{fill:url(#radial-gradient-71);}.cls-74{fill:url(#radial-gradient-72);}.cls-75{fill:url(#radial-gradient-73);}.cls-76{fill:url(#radial-gradient-74);}.cls-77{fill:url(#radial-gradient-75);}.cls-78{fill:url(#radial-gradient-76);}.cls-79{fill:url(#radial-gradient-77);}.cls-80{fill:url(#radial-gradient-78);}.cls-81{fill:url(#radial-gradient-79);}.cls-82{fill:url(#radial-gradient-80);}.cls-83{fill:url(#radial-gradient-81);}.cls-84{fill:url(#radial-gradient-82);}.cls-85{fill:url(#radial-gradient-83);}.cls-86{fill:url(#radial-gradient-84);}.cls-87{fill:url(#radial-gradient-85);}.cls-88{fill:url(#radial-gradient-86);}.cls-89{fill:url(#radial-gradient-87);}.cls-90{fill:url(#radial-gradient-88);}.cls-91{fill:url(#radial-gradient-89);}.cls-92{fill:url(#radial-gradient-90);}.cls-93{fill:url(#radial-gradient-91);}.cls-94{fill:url(#radial-gradient-92);}.cls-95{fill:url(#radial-gradient-93);}.cls-96{fill:url(#radial-gradient-94);}.cls-97{fill:url(#radial-gradient-95);}.cls-98{fill:url(#radial-gradient-96);}.cls-99{fill:url(#radial-gradient-97);}.cls-100{fill:url(#radial-gradient-98);}.cls-101{fill:url(#radial-gradient-99);}.cls-102{fill:url(#radial-gradient-100);}.cls-103{fill:url(#radial-gradient-101);}.cls-104{fill:url(#radial-gradient-102);}.cls-105{fill:url(#radial-gradient-103);}.cls-106{fill:url(#radial-gradient-104);}.cls-107{fill:url(#radial-gradient-105);}.cls-108{fill:url(#radial-gradient-106);}.cls-109{fill:url(#radial-gradient-107);}.cls-110{fill:url(#radial-gradient-108);}.cls-111{fill:url(#radial-gradient-109);}.cls-112{fill:url(#radial-gradient-110);}.cls-113{fill:url(#radial-gradient-111);}.cls-114{fill:url(#radial-gradient-112);}.cls-115{fill:url(#radial-gradient-113);}.cls-116{fill:url(#radial-gradient-114);}.cls-117{fill:url(#radial-gradient-115);}.cls-118{fill:url(#radial-gradient-116);}.cls-119{fill:url(#radial-gradient-117);}.cls-120{fill:url(#radial-gradient-118);}.cls-121{fill:url(#radial-gradient-119);}.cls-122{fill:url(#radial-gradient-120);}.cls-123{fill:url(#radial-gradient-121);}.cls-124{fill:url(#radial-gradient-122);}.cls-125{fill:url(#radial-gradient-123);}.cls-126{opacity:0.35;fill:url(#radial-gradient-124);}.cls-127{fill:url(#radial-gradient-125);}.cls-128{fill:url(#radial-gradient-126);}.cls-129{fill:url(#radial-gradient-127);}.cls-130{fill:url(#radial-gradient-128);}.cls-131{fill:url(#radial-gradient-129);}.cls-132{fill:url(#radial-gradient-130);}.cls-133{fill:url(#radial-gradient-131);}.cls-134{fill:url(#radial-gradient-132);}.cls-135{fill:url(#radial-gradient-133);}.cls-136{fill:url(#radial-gradient-134);}.cls-137{fill:url(#radial-gradient-135);}.cls-138{fill:url(#radial-gradient-136);}.cls-139{fill:url(#radial-gradient-137);}.cls-140{fill:url(#radial-gradient-138);}.cls-141{fill:url(#radial-gradient-139);}.cls-142{fill:url(#radial-gradient-140);}.cls-143{fill:url(#radial-gradient-141);}.cls-144{fill:url(#radial-gradient-142);}.cls-145{fill:url(#radial-gradient-143);}.cls-146{fill:url(#radial-gradient-144);}.cls-147{fill:url(#radial-gradient-145);}.cls-148{fill:url(#radial-gradient-146);}.cls-149{fill:url(#radial-gradient-147);}.cls-150{fill:url(#radial-gradient-148);}.cls-151{fill:url(#radial-gradient-149);}.cls-152{fill:url(#radial-gradient-150);}.cls-153{fill:url(#radial-gradient-151);}.cls-154{fill:url(#radial-gradient-152);}.cls-155{fill:url(#radial-gradient-153);}.cls-156{fill:url(#radial-gradient-154);}.cls-157{fill:url(#radial-gradient-155);}.cls-158{fill:url(#radial-gradient-156);}.cls-159{fill:url(#radial-gradient-157);}.cls-160{fill:url(#radial-gradient-158);}.cls-161{fill:url(#radial-gradient-159);}.cls-162{fill:url(#radial-gradient-160);}.cls-163{fill:url(#radial-gradient-161);}.cls-164{fill:url(#radial-gradient-162);}.cls-165{fill:url(#radial-gradient-163);}.cls-166{fill:url(#radial-gradient-164);}.cls-167{fill:url(#radial-gradient-165);}.cls-168{fill:url(#radial-gradient-166);}.cls-169{fill:url(#radial-gradient-167);}.cls-170{fill:url(#radial-gradient-168);}.cls-171{fill:url(#radial-gradient-169);}.cls-172{fill:url(#radial-gradient-170);}.cls-173{fill:url(#radial-gradient-171);}.cls-174{fill:url(#radial-gradient-172);}.cls-175{fill:url(#radial-gradient-173);}.cls-176{fill:url(#radial-gradient-174);}.cls-177{fill:url(#radial-gradient-175);}.cls-178{fill:url(#radial-gradient-176);}.cls-179{fill:url(#radial-gradient-177);}.cls-180{fill:url(#radial-gradient-178);}.cls-181{fill:url(#radial-gradient-179);}.cls-182{fill:url(#radial-gradient-180);}.cls-183{fill:url(#radial-gradient-181);}</style><radialGradient id="radial-gradient" cx="3.63" cy="-190.12" r="208.15" gradientTransform="translate(29.05 97.03) rotate(90)" gradientUnits="userSpaceOnUse"><stop offset="0" stop-color="#d1e1ee"/><stop offset="0.34" stop-color="#8ee1ee"/><stop offset="0.94" stop-color="#732fa4"/></radialGradient><radialGradient id="radial-gradient-2" cx="25.96" cy="-98.04" r="124.78" gradientTransform="matrix(0, 1, -1, 0, 29.05, 97.03)" gradientUnits="userSpaceOnUse"><stop offset="0.06" stop-color="#732fa4"/><stop offset="0.66" stop-color="#8ee1ee"/><stop offset="1" stop-color="#d1e1ee" stop-opacity="0"/></radialGradient><radialGradient id="radial-gradient-3" cx="-290.44" cy="-133.24" r="166.32" gradientTransform="matrix(1.31, 0.35, -0.31, 1.15, 421.94, 193.1)" xlink:href="#radial-gradient"/><radialGradient id="radial-gradient-4" cx="-3.87" cy="-191.21" r="178.33" gradientTransform="translate(62.83 203.26) rotate(22.21)" xlink:href="#radial-gradient"/><radialGradient id="radial-gradient-5" cx="-946.88" cy="-393.24" r="85.65" gradientTransform="translate(-882.9 274.56) rotate(155.83)" xlink:href="#radial-gradient"/><radialGradient id="radial-gradient-6" cx="-945.78" cy="-401.02" r="87.9" gradientTransform="translate(-882.9 274.56) rotate(155.83)" xlink:href="#radial-gradient"/><radialGradient id="radial-gradient-7" cx="-946.05" cy="-394.47" r="67.7" gradientTransform="translate(-882.9 274.56) rotate(155.83)" xlink:href="#radial-gradient"/><radialGradient id="radial-gradient-8" cx="-945.8" cy="-384.37" r="77.11" gradientTransform="translate(-882.9 274.56) rotate(155.83)" xlink:href="#radial-gradient"/><radialGradient id="radial-gradient-9" cx="-1145.76" cy="-448.11" r="87.9" gradientTransform="matrix(-0.75, 0.14, -0.1, -0.52, -778.79, 177.08)" xlink:href="#radial-gradient"/><radialGradient id="radial-gradient-10" cx="-926.12" cy="-383.28" r="47" gradientTransform="translate(-882.9 274.56) rotate(155.83)" xlink:href="#radial-gradient"/><radialGradient id="radial-gradient-11" cx="-945.78" cy="-401.02" r="87.9" gradientTransform="translate(-882.9 274.56) rotate(155.83)" xlink:href="#radial-gradient"/><radialGradient id="radial-gradient-12" cx="-892.8" cy="-344.38" r="13.07" gradientTransform="translate(-882.9 274.56) rotate(155.83)" xlink:href="#radial-gradient"/><radialGradient id="radial-gradient-13" cx="-944.94" cy="-355.75" r="20.17" gradientTransform="translate(-882.9 274.56) rotate(155.83)" xlink:href="#radial-gradient"/><radialGradient id="radial-gradient-14" cx="-942.38" cy="-392.36" r="119.53" gradientTransform="translate(-885.27 266.31) rotate(156.84)" xlink:href="#radial-gradient"/><radialGradient id="radial-gradient-15" cx="-942.38" cy="-392.36" r="119.53" gradientTransform="translate(-885.27 266.31) rotate(156.84)" xlink:href="#radial-gradient"/><radialGradient id="radial-gradient-16" cx="-942.37" cy="-392.36" r="119.53" gradientTransform="translate(-885.27 266.31) rotate(156.84)" xlink:href="#radial-gradient"/><radialGradient id="radial-gradient-17" cx="-942.38" cy="-392.36" r="119.53" gradientTransform="translate(-885.27 266.31) rotate(156.84)" xlink:href="#radial-gradient"/><radialGradient id="radial-gradient-18" cx="-959.95" cy="-368.85" r="40.67" gradientTransform="translate(-825.13 -127.87) rotate(-180)" xlink:href="#radial-gradient"/><radialGradient id="radial-gradient-19" cx="-1003.37" cy="-277.03" r="40.67" gradientTransform="matrix(-1, 0, 0, -1, -868.31, -33.09)" xlink:href="#radial-gradient"/><radialGradient id="radial-gradient-20" cx="-1003.37" cy="-277.03" r="40.67" gradientTransform="translate(-868.93 -33.54) rotate(-180)" xlink:href="#radial-gradient"/><radialGradient id="radial-gradient-21" cx="-204.62" cy="314.33" r="77.28" gradientTransform="matrix(0.68, -0.54, 0.66, 0.7, 14.82, -319.88)" xlink:href="#radial-gradient"/><radialGradient id="radial-gradient-22" cx="-203.63" cy="307.31" r="79.31" gradientTransform="matrix(0.68, -0.54, 0.66, 0.7, 14.82, -319.88)" xlink:href="#radial-gradient"/><radialGradient id="radial-gradient-23" cx="-203.88" cy="313.21" r="61.08" gradientTransform="matrix(0.68, -0.54, 0.66, 0.7, 14.82, -319.88)" xlink:href="#radial-gradient"/><radialGradient id="radial-gradient-24" cx="-203.66" cy="322.33" r="69.58" gradientTransform="matrix(0.68, -0.54, 0.66, 0.7, 14.82, -319.88)" xlink:href="#radial-gradient"/><radialGradient id="radial-gradient-25" cx="20.99" cy="518.67" r="79.3" gradientTransform="matrix(0.62, -0.27, 0.25, 0.43, -45.76, -213.98)" xlink:href="#radial-gradient"/><radialGradient id="radial-gradient-26" cx="-185.89" cy="323.31" r="42.4" gradientTransform="matrix(0.68, -0.54, 0.66, 0.7, 14.82, -319.88)" xlink:href="#radial-gradient"/><radialGradient id="radial-gradient-27" cx="-203.63" cy="307.31" r="79.31" gradientTransform="matrix(0.68, -0.54, 0.66, 0.7, 14.82, -319.88)" xlink:href="#radial-gradient"/><radialGradient id="radial-gradient-28" cx="-155.84" cy="358.41" r="11.79" gradientTransform="matrix(0.68, -0.54, 0.66, 0.7, 14.82, -319.88)" xlink:href="#radial-gradient"/><radialGradient id="radial-gradient-29" cx="-202.88" cy="348.15" r="18.2" gradientTransform="matrix(0.68, -0.54, 0.66, 0.7, 14.82, -319.88)" xlink:href="#radial-gradient"/><radialGradient id="radial-gradient-30" cx="-188.19" cy="302.33" r="107.85" gradientTransform="matrix(0.69, -0.53, 0.65, 0.71, 19.49, -312.74)" xlink:href="#radial-gradient"/><radialGradient id="radial-gradient-31" cx="-188.19" cy="302.32" r="107.85" gradientTransform="matrix(0.69, -0.53, 0.65, 0.71, 19.49, -312.74)" xlink:href="#radial-gradient"/><radialGradient id="radial-gradient-32" cx="-188.2" cy="302.33" r="107.85" gradientTransform="matrix(0.69, -0.53, 0.65, 0.71, 19.49, -312.74)" xlink:href="#radial-gradient"/><radialGradient id="radial-gradient-33" cx="-188.19" cy="302.33" r="107.84" gradientTransform="matrix(0.69, -0.53, 0.65, 0.71, 19.49, -312.74)" xlink:href="#radial-gradient"/><radialGradient id="radial-gradient-34" cx="-191.68" cy="310.41" r="36.69" gradientTransform="matrix(0.7, -0.52, 0.63, 0.72, 24.37, -304.49)" xlink:href="#radial-gradient"/><radialGradient id="radial-gradient-35" cx="-117.54" cy="238.48" r="36.7" gradientTransform="matrix(0.82, -0.37, 0.48, 0.81, 67.78, -220.7)" xlink:href="#radial-gradient"/><radialGradient id="radial-gradient-36" cx="-117.54" cy="238.48" r="36.69" gradientTransform="matrix(0.82, -0.37, 0.48, 0.81, 67.78, -220.7)" xlink:href="#radial-gradient"/><radialGradient id="radial-gradient-37" cx="-175" cy="-551.03" r="60.81" gradientTransform="matrix(0.23, 0.84, -0.91, 0.32, -224.64, 468.33)" xlink:href="#radial-gradient"/><radialGradient id="radial-gradient-38" cx="-174.21" cy="-556.55" r="62.4" gradientTransform="matrix(0.23, 0.84, -0.91, 0.32, -224.64, 468.33)" xlink:href="#radial-gradient"/><radialGradient id="radial-gradient-39" cx="-174.41" cy="-551.91" r="48.06" gradientTransform="matrix(0.23, 0.84, -0.91, 0.32, -224.64, 468.33)" xlink:href="#radial-gradient"/><radialGradient id="radial-gradient-40" cx="-174.23" cy="-544.73" r="54.75" gradientTransform="matrix(0.23, 0.84, -0.91, 0.32, -224.64, 468.33)" xlink:href="#radial-gradient"/><radialGradient id="radial-gradient-41" cx="-216.43" cy="-1083.29" r="62.4" gradientTransform="matrix(0, 0.68, -0.5, 0.06, -297.44, 369.85)" xlink:href="#radial-gradient"/><radialGradient id="radial-gradient-42" cx="-160.26" cy="-543.96" r="33.36" gradientTransform="matrix(0.23, 0.84, -0.91, 0.32, -224.64, 468.33)" xlink:href="#radial-gradient"/><radialGradient id="radial-gradient-43" cx="-174.21" cy="-556.55" r="62.4" gradientTransform="matrix(0.23, 0.84, -0.91, 0.32, -224.64, 468.33)" xlink:href="#radial-gradient"/><radialGradient id="radial-gradient-44" cx="-136.61" cy="-516.34" r="9.28" gradientTransform="matrix(0.23, 0.84, -0.91, 0.32, -224.64, 468.33)" xlink:href="#radial-gradient"/><radialGradient id="radial-gradient-45" cx="-173.62" cy="-524.42" r="14.32" gradientTransform="matrix(0.23, 0.84, -0.91, 0.32, -224.64, 468.33)" xlink:href="#radial-gradient"/><radialGradient id="radial-gradient-46" cx="-175.55" cy="-562.78" r="84.85" gradientTransform="matrix(0.21, 0.85, -0.91, 0.31, -233.9, 469.68)" xlink:href="#radial-gradient"/><radialGradient id="radial-gradient-47" cx="-175.56" cy="-562.78" r="84.85" gradientTransform="matrix(0.21, 0.85, -0.91, 0.31, -233.9, 469.68)" xlink:href="#radial-gradient"/><radialGradient id="radial-gradient-48" cx="-175.56" cy="-562.78" r="84.85" gradientTransform="matrix(0.21, 0.85, -0.91, 0.31, -233.9, 469.68)" xlink:href="#radial-gradient"/><radialGradient id="radial-gradient-49" cx="-175.55" cy="-562.78" r="84.85" gradientTransform="matrix(0.21, 0.85, -0.91, 0.31, -233.9, 469.68)" xlink:href="#radial-gradient"/><radialGradient id="radial-gradient-50" cx="-193.2" cy="-557.96" r="28.88" gradientTransform="matrix(0.19, 0.85, -0.92, 0.29, -243.45, 471.04)" xlink:href="#radial-gradient"/><radialGradient id="radial-gradient-51" cx="-290.36" cy="-611.75" r="28.87" gradientTransform="matrix(0.01, 0.89, -0.94, 0.12, -337.35, 477.38)" xlink:href="#radial-gradient"/><radialGradient id="radial-gradient-52" cx="-290.36" cy="-611.75" r="28.87" gradientTransform="matrix(0.01, 0.89, -0.94, 0.12, -337.35, 477.38)" xlink:href="#radial-gradient"/><radialGradient id="radial-gradient-53" cx="-535.32" cy="-588.67" r="40.71" gradientTransform="matrix(-0.32, 0.81, -0.92, -0.28, -517.16, 476.24)" xlink:href="#radial-gradient"/><radialGradient id="radial-gradient-54" cx="-534.8" cy="-592.37" r="41.78" gradientTransform="matrix(-0.32, 0.81, -0.92, -0.28, -517.16, 476.24)" xlink:href="#radial-gradient"/><radialGradient id="radial-gradient-55" cx="-534.93" cy="-589.26" r="32.18" gradientTransform="matrix(-0.32, 0.81, -0.92, -0.28, -517.16, 476.24)" xlink:href="#radial-gradient"/><radialGradient id="radial-gradient-56" cx="-534.81" cy="-584.46" r="36.65" gradientTransform="matrix(-0.32, 0.81, -0.92, -0.28, -517.16, 476.24)" xlink:href="#radial-gradient"/><radialGradient id="radial-gradient-57" cx="-697.76" cy="-990.09" r="41.77" gradientTransform="matrix(-0.4, 0.55, -0.43, -0.25, -517.74, 354.51)" xlink:href="#radial-gradient"/><radialGradient id="radial-gradient-58" cx="-525.45" cy="-583.94" r="22.34" gradientTransform="matrix(-0.32, 0.81, -0.92, -0.28, -517.16, 476.24)" xlink:href="#radial-gradient"/><radialGradient id="radial-gradient-59" cx="-534.8" cy="-592.37" r="41.78" gradientTransform="matrix(-0.32, 0.81, -0.92, -0.28, -517.16, 476.24)" xlink:href="#radial-gradient"/><radialGradient id="radial-gradient-60" cx="-509.62" cy="-565.45" r="6.21" gradientTransform="matrix(-0.32, 0.81, -0.92, -0.28, -517.16, 476.24)" xlink:href="#radial-gradient"/><radialGradient id="radial-gradient-61" cx="-534.4" cy="-570.86" r="9.59" gradientTransform="matrix(-0.32, 0.81, -0.92, -0.28, -517.16, 476.24)" xlink:href="#radial-gradient"/><radialGradient id="radial-gradient-62" cx="-539.94" cy="-591.53" r="56.81" gradientTransform="matrix(-0.34, 0.81, -0.92, -0.3, -525.05, 472.93)" xlink:href="#radial-gradient"/><radialGradient id="radial-gradient-63" cx="-539.94" cy="-591.53" r="56.81" gradientTransform="matrix(-0.34, 0.81, -0.92, -0.3, -525.05, 472.93)" xlink:href="#radial-gradient"/><radialGradient id="radial-gradient-64" cx="-539.94" cy="-591.53" r="56.81" gradientTransform="matrix(-0.34, 0.81, -0.92, -0.3, -525.05, 472.93)" xlink:href="#radial-gradient"/><radialGradient id="radial-gradient-65" cx="-539.94" cy="-591.53" r="56.81" gradientTransform="matrix(-0.34, 0.81, -0.92, -0.3, -525.05, 472.93)" xlink:href="#radial-gradient"/><radialGradient id="radial-gradient-66" cx="-556.1" cy="-582.88" r="19.33" gradientTransform="matrix(-0.35, 0.8, -0.91, -0.31, -533.21, 469.41)" xlink:href="#radial-gradient"/><radialGradient id="radial-gradient-67" cx="-650.36" cy="-564.78" r="19.33" gradientTransform="matrix(-0.53, 0.72, -0.82, -0.46, -612.13, 417.02)" xlink:href="#radial-gradient"/><radialGradient id="radial-gradient-68" cx="-650.36" cy="-564.78" r="19.33" gradientTransform="matrix(-0.53, 0.72, -0.82, -0.46, -612.13, 417.02)" xlink:href="#radial-gradient"/><radialGradient id="radial-gradient-69" cx="-691.56" cy="609.38" r="60.81" gradientTransform="matrix(-0.31, 0.81, 0.87, 0.42, -732.42, 440.93)" xlink:href="#radial-gradient"/><radialGradient id="radial-gradient-70" cx="-690.78" cy="603.86" r="62.4" gradientTransform="matrix(-0.31, 0.81, 0.87, 0.42, -732.42, 440.93)" xlink:href="#radial-gradient"/><radialGradient id="radial-gradient-71" cx="-690.98" cy="608.51" r="48.06" gradientTransform="matrix(-0.31, 0.81, 0.87, 0.42, -732.42, 440.93)" xlink:href="#radial-gradient"/><radialGradient id="radial-gradient-72" cx="-690.8" cy="615.68" r="54.75" gradientTransform="matrix(-0.31, 0.81, 0.87, 0.42, -732.42, 440.93)" xlink:href="#radial-gradient"/><radialGradient id="radial-gradient-73" cx="-515.17" cy="1279.1" r="62.4" gradientTransform="matrix(-0.07, 0.68, 0.49, 0.11, -649.18, 351.13)" xlink:href="#radial-gradient"/><radialGradient id="radial-gradient-74" cx="-676.83" cy="616.45" r="33.36" gradientTransform="matrix(-0.31, 0.81, 0.87, 0.42, -732.42, 440.93)" xlink:href="#radial-gradient"/><radialGradient id="radial-gradient-75" cx="-690.78" cy="603.86" r="62.4" gradientTransform="matrix(-0.31, 0.81, 0.87, 0.42, -732.42, 440.93)" xlink:href="#radial-gradient"/><radialGradient id="radial-gradient-76" cx="-653.18" cy="644.07" r="9.28" gradientTransform="matrix(-0.31, 0.81, 0.87, 0.42, -732.42, 440.93)" xlink:href="#radial-gradient"/><radialGradient id="radial-gradient-77" cx="-690.19" cy="636" r="14.32" gradientTransform="matrix(-0.31, 0.81, 0.87, 0.42, -732.42, 440.93)" xlink:href="#radial-gradient"/><radialGradient id="radial-gradient-78" cx="-672.39" cy="606.12" r="84.85" gradientTransform="matrix(-0.3, 0.82, 0.87, 0.4, -723.25, 444.18)" xlink:href="#radial-gradient"/><radialGradient id="radial-gradient-79" cx="-672.39" cy="606.12" r="84.85" gradientTransform="matrix(-0.3, 0.82, 0.87, 0.4, -723.25, 444.18)" xlink:href="#radial-gradient"/><radialGradient id="radial-gradient-80" cx="-672.39" cy="606.11" r="84.85" gradientTransform="matrix(-0.3, 0.82, 0.87, 0.4, -723.25, 444.18)" xlink:href="#radial-gradient"/><radialGradient id="radial-gradient-81" cx="-672.39" cy="606.11" r="84.85" gradientTransform="matrix(-0.3, 0.82, 0.87, 0.4, -723.25, 444.18)" xlink:href="#radial-gradient"/><radialGradient id="radial-gradient-82" cx="-667.22" cy="621.15" r="28.87" gradientTransform="matrix(-0.28, 0.83, 0.88, 0.39, -714.59, 445.6)" xlink:href="#radial-gradient"/><radialGradient id="radial-gradient-83" cx="-522.85" cy="637.68" r="28.87" gradientTransform="matrix(-0.1, 0.89, 0.92, 0.22, -621.99, 461.26)" xlink:href="#radial-gradient"/><radialGradient id="radial-gradient-84" cx="-522.85" cy="637.67" r="28.88" gradientTransform="matrix(-0.1, 0.89, 0.92, 0.22, -621.99, 461.26)" xlink:href="#radial-gradient"/><radialGradient id="radial-gradient-85" cx="-79.52" cy="-197.33" r="75.95" gradientTransform="matrix(0, 1.27, -1.19, 0.18, -107.61, 171.54)" xlink:href="#radial-gradient"/><radialGradient id="radial-gradient-86" cx="-24.61" cy="-215.79" r="82.75" gradientTransform="matrix(0, 1.13, -1.07, 0.16, -102.7, 93.4)" xlink:href="#radial-gradient"/><radialGradient id="radial-gradient-87" cx="-11.23" cy="-162.83" r="78.86" gradientTransform="matrix(0.18, 0.98, -1, 0.19, -47.15, 89.65)" xlink:href="#radial-gradient"/><radialGradient id="radial-gradient-88" cx="3.11" cy="-111.64" r="67.95" gradientTransform="matrix(0.27, 0.97, -0.97, 0.3, 4.28, 74.69)" xlink:href="#radial-gradient"/><radialGradient id="radial-gradient-89" cx="-9.14" cy="-155.87" r="60.47" gradientTransform="matrix(0.18, 0.98, -1, 0.19, -41.26, 93.53)" xlink:href="#radial-gradient"/><radialGradient id="radial-gradient-90" cx="-9.38" cy="-168.33" r="64.19" gradientTransform="matrix(0.18, 0.98, -1, 0.19, -49.21, 84.46)" xlink:href="#radial-gradient"/><radialGradient id="radial-gradient-91" cx="-22.08" cy="-142.14" r="47.87" gradientTransform="matrix(0.18, 0.98, -1, 0.19, -42.29, 111.52)" xlink:href="#radial-gradient"/><radialGradient id="radial-gradient-92" cx="24.44" cy="-168.78" r="39.42" gradientTransform="matrix(0.18, 0.98, -1, 0.19, -24.36, 63.66)" xlink:href="#radial-gradient"/><radialGradient id="radial-gradient-93" cx="-9.81" cy="-158.97" r="115.16" gradientTransform="translate(62.83 203.26) rotate(22.21)" xlink:href="#radial-gradient"/><radialGradient id="radial-gradient-94" cx="-9.81" cy="-158.97" r="115.17" gradientTransform="translate(62.83 203.26) rotate(22.21)" xlink:href="#radial-gradient"/><radialGradient id="radial-gradient-95" cx="-9.8" cy="-158.97" r="115.16" gradientTransform="translate(62.83 203.26) rotate(22.21)" xlink:href="#radial-gradient"/><radialGradient id="radial-gradient-96" cx="-9.81" cy="-158.97" r="115.16" gradientTransform="translate(62.83 203.26) rotate(22.21)" xlink:href="#radial-gradient"/><radialGradient id="radial-gradient-97" cx="-9.57" cy="-124.35" r="7.49" gradientTransform="translate(62.83 203.26) rotate(22.21)" xlink:href="#radial-gradient"/><radialGradient id="radial-gradient-98" cx="-990.33" cy="-302.01" r="62.46" gradientTransform="matrix(-0.86, -0.93, 0.75, -0.95, -445.87, -1017.85)" xlink:href="#radial-gradient"/><radialGradient id="radial-gradient-99" cx="-1044.27" cy="-333.24" r="68.05" gradientTransform="matrix(-0.77, -0.83, 0.67, -0.84, -395.63, -954.07)" xlink:href="#radial-gradient"/><radialGradient id="radial-gradient-100" cx="-1008.22" cy="-417.49" r="64.86" gradientTransform="translate(-372.7 -766.11) rotate(-143.4) scale(1 1.02)" xlink:href="#radial-gradient"/><radialGradient id="radial-gradient-101" cx="-976.41" cy="-461.19" r="55.88" gradientTransform="matrix(-0.86, -0.53, 0.51, -0.88, -419.43, -740.58)" xlink:href="#radial-gradient"/><radialGradient id="radial-gradient-102" cx="-1006.51" cy="-411.76" r="49.73" gradientTransform="translate(-378.42 -765.15) rotate(-143.4) scale(1 1.02)" xlink:href="#radial-gradient"/><radialGradient id="radial-gradient-103" cx="-1006.7" cy="-422.01" r="52.79" gradientTransform="translate(-368.56 -764.14) rotate(-143.4) scale(1 1.02)" xlink:href="#radial-gradient"/><radialGradient id="radial-gradient-104" cx="-1017.14" cy="-400.47" r="39.37" gradientTransform="translate(-387.86 -776.57) rotate(-143.4) scale(1 1.02)" xlink:href="#radial-gradient"/><radialGradient id="radial-gradient-105" cx="-978.88" cy="-422.38" r="32.42" gradientTransform="translate(-371.9 -737.7) rotate(-143.4) scale(1 1.02)" xlink:href="#radial-gradient"/><radialGradient id="radial-gradient-106" cx="-1007.05" cy="-414.31" r="94.71" gradientTransform="translate(-907.74 141.64) rotate(159.35)" xlink:href="#radial-gradient"/><radialGradient id="radial-gradient-107" cx="-1007.05" cy="-414.31" r="94.72" gradientTransform="translate(-907.74 141.64) rotate(159.35)" xlink:href="#radial-gradient"/><radialGradient id="radial-gradient-108" cx="-1007.05" cy="-414.31" r="94.71" gradientTransform="translate(-907.74 141.64) rotate(159.35)" xlink:href="#radial-gradient"/><radialGradient id="radial-gradient-109" cx="-1007.05" cy="-414.31" r="94.72" gradientTransform="translate(-907.74 141.64) rotate(159.35)" xlink:href="#radial-gradient"/><radialGradient id="radial-gradient-110" cx="80.2" cy="-92.36" r="6.55" gradientTransform="translate(62.83 203.26) rotate(22.21)" xlink:href="#radial-gradient"/><radialGradient id="radial-gradient-111" cx="-76.38" cy="-202.33" r="48.89" gradientTransform="matrix(0.57, -1.14, -0.99, -0.7, -82.74, -40.58)" xlink:href="#radial-gradient"/><radialGradient id="radial-gradient-112" cx="-20.28" cy="-220.48" r="53.27" gradientTransform="matrix(0.51, -1.01, -0.88, -0.62, -112.02, 31.88)" xlink:href="#radial-gradient"/><radialGradient id="radial-gradient-113" cx="-4.9" cy="-175.56" r="50.77" gradientTransform="matrix(0.6, -0.8, -0.81, -0.62, -70.53, 63.64)" xlink:href="#radial-gradient"/><radialGradient id="radial-gradient-114" cx="12.54" cy="-121.94" r="43.74" gradientTransform="matrix(0.68, -0.75, -0.73, -0.7, -30.08, 101.45)" xlink:href="#radial-gradient"/><radialGradient id="radial-gradient-115" cx="-3.55" cy="-171.08" r="38.92" gradientTransform="matrix(0.6, -0.8, -0.81, -0.62, -66.01, 63.1)" xlink:href="#radial-gradient"/><radialGradient id="radial-gradient-116" cx="-3.7" cy="-179.1" r="41.32" gradientTransform="matrix(0.6, -0.8, -0.81, -0.62, -73.2, 66.03)" xlink:href="#radial-gradient"/><radialGradient id="radial-gradient-117" cx="-11.88" cy="-162.24" r="30.81" gradientTransform="matrix(0.6, -0.8, -0.81, -0.62, -61.43, 52.45)" xlink:href="#radial-gradient"/><radialGradient id="radial-gradient-118" cx="18.07" cy="-179.39" r="25.38" gradientTransform="matrix(0.6, -0.8, -0.81, -0.62, -64.89, 85.17)" xlink:href="#radial-gradient"/><radialGradient id="radial-gradient-119" cx="-3.98" cy="-173.07" r="74.13" gradientTransform="matrix(1, 0.08, 0.08, -1, 87.49, 0.86)" xlink:href="#radial-gradient"/><radialGradient id="radial-gradient-120" cx="-3.98" cy="-173.07" r="74.14" gradientTransform="matrix(1, 0.08, 0.08, -1, 87.49, 0.86)" xlink:href="#radial-gradient"/><radialGradient id="radial-gradient-121" cx="-3.98" cy="-173.07" r="74.13" gradientTransform="matrix(1, 0.08, 0.08, -1, 87.49, 0.86)" xlink:href="#radial-gradient"/><radialGradient id="radial-gradient-122" cx="-3.98" cy="-173.07" r="74.14" gradientTransform="matrix(1, 0.08, 0.08, -1, 87.49, 0.86)" xlink:href="#radial-gradient"/><radialGradient id="radial-gradient-123" cx="-11.18" cy="-51.26" r="5.08" gradientTransform="translate(62.83 203.26) rotate(22.21)" xlink:href="#radial-gradient"/><radialGradient id="radial-gradient-124" cx="8.21" cy="-156.78" r="200.09" gradientTransform="translate(62.83 203.26) rotate(22.21)" xlink:href="#radial-gradient"/><radialGradient id="radial-gradient-125" cx="61.92" cy="-212.48" r="85.65" gradientTransform="translate(62.83 203.26) rotate(22.21)" xlink:href="#radial-gradient"/><radialGradient id="radial-gradient-126" cx="63.02" cy="-220.26" r="87.9" gradientTransform="translate(62.83 203.26) rotate(22.21)" xlink:href="#radial-gradient"/><radialGradient id="radial-gradient-127" cx="62.75" cy="-213.72" r="67.7" gradientTransform="translate(62.83 203.26) rotate(22.21)" xlink:href="#radial-gradient"/><radialGradient id="radial-gradient-128" cx="63" cy="-203.61" r="77.12" gradientTransform="translate(62.83 203.26) rotate(22.21)" xlink:href="#radial-gradient"/><radialGradient id="radial-gradient-129" cx="200.89" cy="-569.25" r="87.9" gradientTransform="matrix(0.61, 0.45, -0.31, 0.43, -79.48, 195.68)" xlink:href="#radial-gradient"/><radialGradient id="radial-gradient-130" cx="82.68" cy="-202.52" r="47" gradientTransform="translate(62.83 203.26) rotate(22.21)" xlink:href="#radial-gradient"/><radialGradient id="radial-gradient-131" cx="63.02" cy="-220.26" r="87.9" gradientTransform="translate(62.83 203.26) rotate(22.21)" xlink:href="#radial-gradient"/><radialGradient id="radial-gradient-132" cx="116" cy="-163.62" r="13.07" gradientTransform="translate(62.83 203.26) rotate(22.21)" xlink:href="#radial-gradient"/><radialGradient id="radial-gradient-133" cx="63.86" cy="-174.99" r="20.17" gradientTransform="translate(62.83 203.26) rotate(22.21)" xlink:href="#radial-gradient"/><radialGradient id="radial-gradient-134" cx="69.39" cy="-230.58" r="119.52" gradientTransform="translate(58.11 211.71) rotate(23.23)" xlink:href="#radial-gradient"/><radialGradient id="radial-gradient-135" cx="69.39" cy="-230.58" r="119.52" gradientTransform="translate(58.11 211.71) rotate(23.23)" xlink:href="#radial-gradient"/><radialGradient id="radial-gradient-136" cx="69.39" cy="-230.58" r="119.52" gradientTransform="translate(58.11 211.71) rotate(23.23)" xlink:href="#radial-gradient"/><radialGradient id="radial-gradient-137" cx="69.39" cy="-230.58" r="119.52" gradientTransform="translate(58.11 211.71) rotate(23.23)" xlink:href="#radial-gradient"/><radialGradient id="radial-gradient-138" cx="55.3" cy="-225.4" r="40.67" gradientTransform="translate(-13 -6.8) rotate(90)" xlink:href="#radial-gradient"/><radialGradient id="radial-gradient-139" cx="19.82" cy="-335.26" r="40.67" gradientTransform="matrix(0, 1, -1, 0, -115.53, 24.86)" xlink:href="#radial-gradient"/><radialGradient id="radial-gradient-140" cx="19.82" cy="-335.26" r="40.67" gradientTransform="matrix(0, 1, -1, 0, -116.02, 28.45)" xlink:href="#radial-gradient"/><radialGradient id="radial-gradient-141" cx="-1132.5" cy="186.46" r="77.28" gradientTransform="matrix(-0.81, 0.32, 0.28, 0.92, -921.78, 223.51)" xlink:href="#radial-gradient"/><radialGradient id="radial-gradient-142" cx="-1131.51" cy="179.44" r="79.31" gradientTransform="matrix(-0.81, 0.32, 0.28, 0.92, -921.78, 223.51)" xlink:href="#radial-gradient"/><radialGradient id="radial-gradient-143" cx="-1131.75" cy="185.34" r="61.08" gradientTransform="matrix(-0.81, 0.32, 0.28, 0.92, -921.78, 223.51)" xlink:href="#radial-gradient"/><radialGradient id="radial-gradient-144" cx="-1131.53" cy="194.46" r="69.58" gradientTransform="matrix(-0.81, 0.32, 0.28, 0.92, -921.78, 223.51)" xlink:href="#radial-gradient"/><radialGradient id="radial-gradient-145" cx="-1205.56" cy="699.37" r="79.3" gradientTransform="matrix(-0.55, 0.4, 0.25, 0.43, -799.31, 223.66)" xlink:href="#radial-gradient"/><radialGradient id="radial-gradient-146" cx="-1113.77" cy="195.44" r="42.4" gradientTransform="matrix(-0.81, 0.32, 0.28, 0.92, -921.78, 223.51)" xlink:href="#radial-gradient"/><radialGradient id="radial-gradient-147" cx="-1131.51" cy="179.44" r="79.31" gradientTransform="matrix(-0.81, 0.32, 0.28, 0.92, -921.78, 223.51)" xlink:href="#radial-gradient"/><radialGradient id="radial-gradient-148" cx="-1083.71" cy="230.54" r="11.79" gradientTransform="matrix(-0.81, 0.32, 0.28, 0.92, -921.78, 223.51)" xlink:href="#radial-gradient"/><radialGradient id="radial-gradient-149" cx="-1130.76" cy="220.28" r="18.2" gradientTransform="matrix(-0.81, 0.32, 0.28, 0.92, -921.78, 223.51)" xlink:href="#radial-gradient"/><radialGradient id="radial-gradient-150" cx="-1119.02" cy="190.8" r="107.84" gradientTransform="matrix(-0.81, 0.34, 0.3, 0.92, -918.54, 231.52)" xlink:href="#radial-gradient"/><radialGradient id="radial-gradient-151" cx="-1119.02" cy="190.8" r="107.84" gradientTransform="matrix(-0.81, 0.34, 0.3, 0.92, -918.54, 231.52)" xlink:href="#radial-gradient"/><radialGradient id="radial-gradient-152" cx="-1119.02" cy="190.8" r="107.84" gradientTransform="matrix(-0.81, 0.34, 0.3, 0.92, -918.54, 231.52)" xlink:href="#radial-gradient"/><radialGradient id="radial-gradient-153" cx="-1119.03" cy="190.8" r="107.84" gradientTransform="matrix(-0.81, 0.34, 0.3, 0.92, -918.54, 231.52)" xlink:href="#radial-gradient"/><radialGradient id="radial-gradient-154" cx="-1123.62" cy="217.22" r="36.69" gradientTransform="matrix(-0.8, 0.35, 0.31, 0.91, -913.34, 238.84)" xlink:href="#radial-gradient"/><radialGradient id="radial-gradient-155" cx="-1049.81" cy="330.22" r="36.7" gradientTransform="matrix(-0.72, 0.53, 0.46, 0.82, -862.34, 318.28)" xlink:href="#radial-gradient"/><radialGradient id="radial-gradient-156" cx="-1049.81" cy="330.22" r="36.7" gradientTransform="matrix(-0.72, 0.53, 0.46, 0.82, -862.34, 318.28)" xlink:href="#radial-gradient"/><radialGradient id="radial-gradient-157" cx="1.03" cy="-182.21" r="177.86" gradientTransform="matrix(0.14, 0.99, -1.05, 0.15, -58.06, 60.52)" xlink:href="#radial-gradient"/><radialGradient id="radial-gradient-158" cx="-44.63" cy="-158.16" r="4.8" gradientTransform="matrix(0.14, 0.99, -1.05, 0.15, -77.96, 107.24)" xlink:href="#radial-gradient"/><radialGradient id="radial-gradient-159" cx="-42.28" cy="-65.7" r="4.92" gradientTransform="matrix(0.14, 0.99, -1.05, 0.15, -14.35, 177.91)" xlink:href="#radial-gradient"/><radialGradient id="radial-gradient-160" cx="-49.47" cy="-75.98" r="8.14" gradientTransform="matrix(0.14, 0.99, -1.05, 0.15, -26.88, 174.3)" xlink:href="#radial-gradient"/><radialGradient id="radial-gradient-161" cx="-60.28" cy="-66.49" r="5.16" gradientTransform="matrix(0.14, 0.99, -1.05, 0.15, -29.05, 188.32)" xlink:href="#radial-gradient"/><radialGradient id="radial-gradient-162" cx="-36.67" cy="-153.51" r="5.69" gradientTransform="matrix(0.14, 0.99, -1.05, 0.15, -68.59, 105.99)" xlink:href="#radial-gradient"/><radialGradient id="radial-gradient-163" cx="-41.23" cy="-145.85" r="8.24" gradientTransform="matrix(0.14, 0.99, -1.05, 0.15, -67.06, 114.76)" xlink:href="#radial-gradient"/><radialGradient id="radial-gradient-164" cx="87.51" cy="-53.99" r="4.66" gradientTransform="matrix(0.14, 0.99, -1.05, 0.15, 95.7, 107.56)" xlink:href="#radial-gradient"/><radialGradient id="radial-gradient-165" cx="101.46" cy="-123.72" r="4.92" gradientTransform="matrix(0.14, 0.99, -1.05, 0.15, 60.12, 44.63)" xlink:href="#radial-gradient"/><radialGradient id="radial-gradient-166" cx="35.81" cy="-62.49" r="5.16" gradientTransform="matrix(0.14, 0.99, -1.05, 0.15, 49.3, 132.59)" xlink:href="#radial-gradient"/><radialGradient id="radial-gradient-167" cx="27.27" cy="-175.58" r="7.11" gradientTransform="matrix(0.14, 0.99, -1.05, 0.15, -32.96, 49.62)" xlink:href="#radial-gradient"/><radialGradient id="radial-gradient-168" cx="33.57" cy="-187.86" r="4.8" gradientTransform="matrix(0.14, 0.99, -1.05, 0.15, -36.2, 36.18)" xlink:href="#radial-gradient"/><radialGradient id="radial-gradient-169" cx="36.75" cy="-170.71" r="4.52" gradientTransform="matrix(0.14, 0.99, -1.05, 0.15, -22.24, 47.61)" xlink:href="#radial-gradient"/><radialGradient id="radial-gradient-170" cx="-26.89" cy="-91.34" r="10.21" gradientTransform="matrix(0.14, 0.99, -1.05, 0.15, -19.35, 148.49)" xlink:href="#radial-gradient"/><radialGradient id="radial-gradient-171" cx="77.02" cy="-133.41" r="10.18" gradientTransform="matrix(0.14, 0.99, -1.05, 0.15, 34.39, 52.04)" xlink:href="#radial-gradient"/><radialGradient id="radial-gradient-172" cx="44.41" cy="-51.21" r="8.59" gradientTransform="matrix(0.14, 0.99, -1.05, 0.15, 63.61, 136.12)" xlink:href="#radial-gradient"/><radialGradient id="radial-gradient-173" cx="65.15" cy="-135.71" r="4.66" gradientTransform="matrix(0.14, 0.99, -1.05, 0.15, 23.51, 57.52)" xlink:href="#radial-gradient"/><radialGradient id="radial-gradient-174" cx="81.33" cy="-45.6" r="9.05" gradientTransform="matrix(0.14, 0.99, -1.05, 0.15, 96.44, 117.88)" xlink:href="#radial-gradient"/><radialGradient id="radial-gradient-175" cx="98.6" cy="-63.48" r="7.68" gradientTransform="matrix(0.14, 0.99, -1.05, 0.15, 98.1, 93.36)" xlink:href="#radial-gradient"/><radialGradient id="radial-gradient-176" cx="-7.37" cy="-19.87" r="6.3" gradientTransform="matrix(0.14, 0.99, -1.05, 0.15, 43.76, 192.27)" xlink:href="#radial-gradient"/><radialGradient id="radial-gradient-177" cx="-34.22" cy="-96.49" r="3.65" gradientTransform="matrix(0.14, 0.99, -1.05, 0.15, -28.57, 148.96)" xlink:href="#radial-gradient"/><radialGradient id="radial-gradient-178" cx="34.52" cy="-52.15" r="3.97" gradientTransform="matrix(0.14, 0.99, -1.05, 0.15, 55.2, 141.45)" xlink:href="#radial-gradient"/><radialGradient id="radial-gradient-179" cx="-11" cy="-29.52" r="3.97" gradientTransform="matrix(0.14, 0.99, -1.05, 0.15, 34.45, 186.97)" xlink:href="#radial-gradient"/><radialGradient id="radial-gradient-180" cx="26.9" cy="-76.64" r="5.41" gradientTransform="matrix(0.14, 0.99, -1.05, 0.15, 32.83, 127.02)" xlink:href="#radial-gradient"/><radialGradient id="radial-gradient-181" cx="24.43" cy="-90.74" r="8.24" gradientTransform="matrix(0.14, 0.99, -1.05, 0.15, 21.47, 117.53)" xlink:href="#radial-gradient"/></defs><title>footer-planet-2</title><g class="cls-1"><g id="OBJECTS"><circle class="cls-2" cx="125" cy="125" r="100.87" transform="translate(-37.98 193.47) rotate(-67.79)"/><circle class="cls-3" cx="125" cy="125" r="121.98" transform="translate(-37.98 193.47) rotate(-67.79)"/><path class="cls-4" d="M61.94,108.41c-2.21-5.09-11.19-36.27,32.22-60.48s91.11,5.76,95.17,24.83-15.06,29.18-41,23-45.57,22.72-63.51,22.82S64.24,113.71,61.94,108.41Z"/><path class="cls-5" d="M34.73,96.89a100.86,100.86,0,0,1,188,3.26,100.86,100.86,0,1,0-192.4,59.72A100.41,100.41,0,0,1,34.73,96.89Z"/><path class="cls-6" d="M56.62,199.33a101,101,0,0,0,91.63,24.22c1.83-4.17,2.08-9.2-.91-16.58-5.56-13.71-23.41-23.33-42.79-27s-40.77,1.44-47.25,17.32A19.28,19.28,0,0,0,56.62,199.33Z"/><path class="cls-7" d="M94,239.53c24.8,7.8,42.4-1.13,47.09-6.05,6.43-6.74,12.12-12.13,7.09-24.67s-22.31-20.87-41.28-23.59-40.22,2.67-47.13,17.6S69.18,231.73,94,239.53Z"/><path class="cls-8" d="M146.52,207c5,12.53-.66,17.93-7.09,24.67-4.7,4.92-22.29,13.85-47.09,6.05-12.39-3.9-22.67-9.34-29-15.67,6.09,7.1,17.09,13.2,30.64,17.46,24.8,7.8,42.4-1.13,47.09-6.05,6.43-6.74,12.12-12.13,7.09-24.67a25.29,25.29,0,0,0-5.62-8.28A24.06,24.06,0,0,1,146.52,207Z"/><path class="cls-9" d="M60.56,207.31c6.91-14.93,28.15-20.33,47.13-17.6S143.94,200.77,149,213.3a31,31,0,0,1,1.07,3.19,24.6,24.6,0,0,0-1.88-7.68c-5-12.53-22.31-20.87-41.28-23.59s-40.22,2.67-47.13,17.6A15.68,15.68,0,0,0,59,214.67,16.22,16.22,0,0,1,60.56,207.31Z"/><path class="cls-10" d="M90.47,234.28c16.17,6.31,30.79,3.1,35.25.9,6.11-3,11.38-5.38,10.49-12.48s-11.52-13-24.6-16.13-29.56-2.09-37.8,5.23S74.31,228,90.47,234.28Z"/><path class="cls-11" d="M90.47,234.28a53.85,53.85,0,0,0,10.62,2.92c-14.7-6.23-22.24-14.57-14.4-21.55s22.74-8.19,35.37-5.75a69.32,69.32,0,0,0-10.44-3.33c-13.08-3.1-29.56-2.09-37.8,5.23S74.3,228,90.47,234.28Z"/><path class="cls-12" d="M90.47,234.28c16.17,6.31,30.79,3.1,35.25.9,6.11-3,11.38-5.38,10.49-12.48a8.34,8.34,0,0,0-.53-2,35.13,35.13,0,0,1-7.59,4.47c-4.46,2.2-19.08,5.41-35.25-.9-9.38-3.66-16.22-8.17-18.73-12.74l-.29.23C65.59,219.13,74.3,228,90.47,234.28Z"/><path class="cls-13" d="M61.64,214.33c-.72,2.59.06,5.25,1.74,7.78,4,4.61,10,8.8,17.49,12.34a23.7,23.7,0,0,0,4.31,1.13s3.63-.77-.7-3.49-18.63-8.76-14.14-18S64.29,204.84,61.64,214.33Z"/><path class="cls-14" d="M142.8,229.39s6.7-2.76,1.16-15.64S111.74,189.83,103,197s11.81,3.32,27.31,13S135.32,231.51,142.8,229.39Z"/><g class="cls-15"><path class="cls-16" d="M125.34,203.34c.12-.46,3.87.29,7.27,2.14a31,31,0,0,1,6.23,4.52,31,31,0,0,1,4.18,6.46c1.67,3.49,2.21,7.27,1.75,7.37s-1.82-3.27-3.87-6.16a36.35,36.35,0,0,0-3-3.75c-.9-1-1.53-1.55-1.53-1.55s-.56-.66-1.46-1.61a36.35,36.35,0,0,0-3.58-3.23C128.5,205.34,125.2,203.8,125.34,203.34Z"/><path class="cls-17" d="M111.58,198.83c.05-.48,1.38-.76,2.74-.82a18.72,18.72,0,0,1,2.69.09,18.69,18.69,0,0,1,2.38,1.24c1.15.72,2.17,1.62,2,2.06s-1.51.35-2.76.26l-2.48-.21-2.26-1C112.72,199.88,111.53,199.31,111.58,198.83Z"/><path class="cls-18" d="M67.43,222.4c.37-.31,2.39,1.38,4.51,2.83s4.3,2.73,4.3,2.73,2,1.59,4.1,3,4.42,2.72,4.27,3.18-2.82,0-5.38-1a34.79,34.79,0,0,1-4.94-2.35,34.79,34.79,0,0,1-4-3.75C68.48,225,67.07,222.7,67.43,222.4Z"/><path class="cls-19" d="M67.79,210.94c.32.36-.15,1.43-.27,2.45a9.08,9.08,0,0,0-.05,2,9.07,9.07,0,0,0-.44,1.91c-.14,1,0,2.17-.35,2.44s-1.48-.63-2-2a7.75,7.75,0,0,1-.59-2.82,7.74,7.74,0,0,1,1.28-2.58C66.2,211.18,67.49,210.58,67.79,210.94Z"/></g><ellipse class="cls-20" cx="127.1" cy="223.09" rx="3.89" ry="1.59" transform="translate(-74.53 64.12) rotate(-22.08)"/><ellipse class="cls-21" cx="119.79" cy="225.28" rx="2.33" ry="0.95" transform="translate(-39.89 26.27) rotate(-10.74)"/><ellipse class="cls-22" cx="121.41" cy="221.66" rx="2.33" ry="0.95" transform="translate(-39.2 26.52) rotate(-10.75)"/><path class="cls-23" d="M165.06,32.52c-26.07-13-56.5-14-80.77-1.7-.26,3.6,1,7.57,5.57,12.76,8.48,9.65,25.64,13.8,42.28,13s32.38-8.77,33-22.37A14.35,14.35,0,0,0,165.06,32.52Z"/><path class="cls-24" d="M123.28,8.18C101.05,6.75,89.51,17,87.16,21.73,84,28.2,81,33.47,88.66,42.3s24,12.09,40.09,10.65,31.58-9.63,32.77-22.57S145.51,9.61,123.28,8.18Z"/><path class="cls-25" d="M90.51,43.39c-7.7-8.83-4.7-14.1-1.49-20.57,2.34-4.72,13.89-15,36.12-13.56,11.11.71,21,3,27.89,6.78-7-4.39-17.6-7.09-29.74-7.87C101.05,6.75,89.51,17,87.16,21.73,84,28.2,81,33.47,88.66,42.3a25.09,25.09,0,0,0,6.94,5.41A23.75,23.75,0,0,1,90.51,43.39Z"/><path class="cls-26" d="M159.56,27C158.37,40,142.85,48.17,126.79,49.6S94.41,47.78,86.7,39c-.69-.79-1.27-1.55-1.79-2.28a22.59,22.59,0,0,0,3.75,5.64c7.7,8.83,24,12.09,40.09,10.65s31.58-9.63,32.77-22.57A13,13,0,0,0,158.68,21,12.68,12.68,0,0,1,159.56,27Z"/><path class="cls-27" d="M127.64,11.61C112.79,9.72,102,15,99,17.52c-4,3.5-7.59,6.33-4.8,11.7s13.07,8,24.49,8S143.1,33.27,147.59,26,142.48,13.49,127.64,11.61Z"/><path class="cls-28" d="M127.64,11.61a49.05,49.05,0,0,0-9.39-.29c13.64,2.1,22.15,7.19,17.87,14.1s-15.91,10.65-26.78,11.12a64,64,0,0,0,9.37.63c11.42,0,24.39-3.91,28.88-11.17S142.48,13.49,127.64,11.61Z"/><path class="cls-29" d="M127.64,11.61C112.79,9.72,102,15,99,17.52c-4,3.5-7.59,6.33-4.8,11.7a7.72,7.72,0,0,0,1,1.43,24.43,24.43,0,0,1,4.8-4.91c2.94-2.55,13.77-7.8,28.62-5.91,8.61,1.09,15.43,3.33,18.78,6.42.05-.08.12-.16.17-.24C152.07,18.75,142.48,13.49,127.64,11.61Z"/><path class="cls-30" d="M156.66,21.76c-.17-2.15-1.58-4.08-3.67-5.74-4.54-2.85-10.62-5-17.67-6.34a21.48,21.48,0,0,0-3.8-.07s-2.7,1.28,1.58,2.59,17.54,3.33,16.64,11.41S157.29,29.66,156.66,21.76Z"/><path class="cls-31" d="M87,25.25s-4.58,3.41,3.63,12.42,32.89,12.61,37.81,5.42-10.47-.38-25.75-5S92.37,22.19,87,25.25Z"/><g class="cls-15"><path class="cls-32" d="M108.62,42.28c0,.38-3.2.5-6.47-.31a30.71,30.71,0,0,1-6.33-2.36,30.75,30.75,0,0,1-5.25-4.26C88.21,33,86.67,30.11,87,29.94s2.42,2.21,4.91,4.07a36.43,36.43,0,0,0,3.54,2.35c1,.57,1.68.92,1.68.92s.64.41,1.65,1a36.42,36.42,0,0,0,3.82,1.85C105.49,41.32,108.59,41.9,108.62,42.28Z"/><path class="cls-33" d="M121,43.22c.1.38-.89.85-2,1.16a15.7,15.7,0,0,1-2.19.44,18,18,0,0,1-2.28-.52c-1.13-.34-2.22-.85-2.19-1.23s1.11-.56,2.15-.72l2.05-.3,2.12.38C119.78,42.61,120.9,42.84,121,43.22Z"/><path class="cls-34" d="M149.64,16.55c-.21.31-2.32-.63-4.45-1.36s-4.26-1.32-4.26-1.32-2-.87-4.18-1.59S132.4,11,132.39,10.6s2.28-.51,4.62-.23a33.38,33.38,0,0,1,4.66.91A34.83,34.83,0,0,1,146,13.46C148,14.7,149.84,16.25,149.64,16.55Z"/><path class="cls-35" d="M152.69,25.56c-.36-.22-.29-1.15-.5-2a7.63,7.63,0,0,0-.53-1.54,7,7,0,0,0-.2-1.57c-.18-.82-.67-1.69-.43-2s1.37.21,2.22,1.15a7,7,0,0,1,1.3,2.09,5.6,5.6,0,0,1-.28,2.25C153.9,25.07,153,25.78,152.69,25.56Z"/></g><path class="cls-36" d="M103.91,25.4c.5.57-.2,1.85-1.56,2.85S99.47,29.6,99,29s.2-1.85,1.56-2.85S103.41,24.82,103.91,25.4Z"/><path class="cls-37" d="M108.4,23.36c.23.39-.35,1-1.3,1.47s-1.9.46-2.13.07.35-1,1.3-1.47S108.17,23,108.4,23.36Z"/><path class="cls-38" d="M108.15,26.49c.23.39-.35,1-1.3,1.47s-1.9.46-2.13.07.35-1,1.3-1.47S107.92,26.1,108.15,26.49Z"/><path class="cls-39" d="M196.32,195.8c17.57-14.71,27.85-36.35,26.66-57.71-2.51-1.32-5.77-1.66-11,0-9.63,3.07-18,14.14-22.69,26.4s-3.87,26.11,5.75,30.81A11.37,11.37,0,0,0,196.32,195.8Z"/><path class="cls-40" d="M227,173.34c8-15.58,4.27-27.14,1.6-30.31-3.65-4.35-6.51-8.18-15.3-5.4S197,151.14,193,163.17s-3,25.8,6,30.74S219,188.91,227,173.34Z"/><path class="cls-41" d="M212,138.61c8.79-2.77,11.65,1.05,15.3,5.4,2.67,3.18,6.43,14.74-1.6,30.31-4,7.78-8.79,14.16-13.67,18,5.36-3.64,10.65-10.46,15-19,8-15.58,4.27-27.14,1.6-30.31-3.65-4.35-6.51-8.18-15.3-5.4a19.74,19.74,0,0,0-6.08,3.3A18.71,18.71,0,0,1,212,138.61Z"/><path class="cls-42" d="M202,193.56c-9-4.94-10-18.71-6-30.74s11.51-22.78,20.31-25.55c.79-.25,1.51-.43,2.21-.57a17.77,17.77,0,0,0-5.24.93C204.54,140.4,197,151.14,193,163.17s-3,25.8,6,30.74a10.2,10.2,0,0,0,7.66.91A10,10,0,0,1,202,193.56Z"/><path class="cls-43" d="M223.19,175.4c6-10.11,5.66-19.57,4.75-22.5-1.25-4-2.18-7.46-6.92-7.15s-9.88,6.9-13.45,15.15-4.86,18.82-1,24.34S217.15,185.51,223.19,175.4Z"/><path class="cls-44" d="M223.19,175.4a38.58,38.58,0,0,0,3.16-6.68c-5.81,9.17-12.16,13.7-15.8,8.44s-2.67-14.83.41-22.81a50.36,50.36,0,0,0-3.41,6.55c-3.57,8.25-4.86,18.82-1,24.34S217.15,185.51,223.19,175.4Z"/><path class="cls-45" d="M223.19,175.4c6-10.11,5.66-19.57,4.75-22.5-1.25-4-2.18-7.46-6.92-7.15a6.07,6.07,0,0,0-1.34.27,19.23,19.23,0,0,1,2,5c.91,2.93,1.29,12.39-4.75,22.5-3.5,5.87-7.26,10.08-10.55,11.52l.12.2C210.34,190.77,217.15,185.51,223.19,175.4Z"/><path class="cls-46" d="M206.73,193.12a6.7,6.7,0,0,0,5.29-.84,41.1,41.1,0,0,0,10.14-10.74,16.9,16.9,0,0,0,1.25-2.71s-.07-2.35-2.37.33-7.93,11.6-13.47,8.4S200.83,191.09,206.73,193.12Z"/><path class="cls-47" d="M226.16,141.78s-1-4.38-10.1-1.29S196.61,160.23,200.25,166s3.57-7.43,11.72-17S226.66,146.64,226.16,141.78Z"/><g class="cls-15"><path class="cls-48" d="M207.06,152c-.28-.09.65-2.46,2.26-4.57a16.43,16.43,0,0,1,8.41-6.26c2.48-.94,5-1.16,5-.86s-2.35,1-4.48,2.26a28.64,28.64,0,0,0-2.81,1.81c-.73.54-1.19.92-1.19.92s-.5.34-1.23.88a28.61,28.61,0,0,0-2.54,2.17C208.74,150.07,207.34,152.13,207.06,152Z"/><path class="cls-49" d="M202.49,160.66c-.31,0-.34-.91-.22-1.78a12.35,12.35,0,0,1,.37-1.71,14.2,14.2,0,0,1,1.09-1.48c.6-.71,1.31-1.33,1.58-1.19s.05,1-.16,1.78l-.43,1.58-.94,1.41C203.31,160,202.79,160.7,202.49,160.66Z"/><path class="cls-50" d="M212.69,189.7c-.16-.25,1.18-1.48,2.38-2.78s2.29-2.65,2.29-2.65,1.27-1.2,2.46-2.51,2.3-2.73,2.58-2.62-.35,1.8-1.29,3.4a26.27,26.27,0,0,1-2.12,3.07,27.44,27.44,0,0,1-2.93,2.41C214.53,189.13,212.85,189.95,212.69,189.7Z"/><path class="cls-51" d="M205.24,189.07c.27-.19.92.15,1.57.26a6,6,0,0,0,1.28.1,5.49,5.49,0,0,0,1.2.35c.65.13,1.43.05,1.56.31s-.59.92-1.53,1.24a5.51,5.51,0,0,1-1.91.28,4.41,4.41,0,0,1-1.54-.91C205.21,190.09,205,189.25,205.24,189.07Z"/></g><path class="cls-52" d="M220.72,153.95c-.57.18-1.27-.72-1.57-2s-.07-2.5.5-2.69,1.27.72,1.57,2S221.29,153.77,220.72,153.95Z"/><path class="cls-53" d="M220.77,157.82c-.35,0-.64-.58-.65-1.4s.27-1.52.62-1.56.64.58.65,1.4S221.12,157.78,220.77,157.82Z"/><path class="cls-54" d="M218.6,156.66c-.35,0-.64-.58-.65-1.4s.27-1.52.62-1.56.64.58.65,1.4S218.95,156.61,218.6,156.66Z"/><path class="cls-55" d="M154.61,220.94c15.32-.9,29.48-8.42,37.36-20.38-.82-1.71-2.44-3.19-5.89-4.37-6.4-2.19-15.33.41-22.73,5.14s-12.5,12.49-9.2,18.86A7.58,7.58,0,0,0,154.61,220.94Z"/><path class="cls-56" d="M180.08,221.13c10.53-5.17,13.12-12.88,13-15.66-.23-3.79-.23-7-6.07-9s-14.15.77-21.11,5.63-11.91,12.67-9.07,18.9S169.55,226.29,180.08,221.13Z"/><path class="cls-57" d="M185.84,196.45c5.83,2,5.84,5.22,6.07,9,.17,2.77-2.42,10.49-13,15.65-5.26,2.58-10.37,4.11-14.52,4.21,4.33.18,9.9-1.37,15.65-4.19,10.53-5.17,13.12-12.88,13-15.66-.23-3.79-.23-7-6.07-9a13.21,13.21,0,0,0-4.59-.65A12.52,12.52,0,0,1,185.84,196.45Z"/><path class="cls-58" d="M158.56,222c-2.84-6.23,2.1-14,9.07-18.9s15.28-7.65,21.11-5.63a15.29,15.29,0,0,1,1.42.57,11.89,11.89,0,0,0-3.19-1.59c-5.83-2-14.15.77-21.11,5.63s-11.91,12.67-9.07,18.9a6.83,6.83,0,0,0,3.75,3.55A6.68,6.68,0,0,1,158.56,222Z"/><path class="cls-59" d="M177.19,220.7c7.28-3,10.86-8.26,11.53-10.2.93-2.65,1.81-4.88-.87-6.6s-8.07-.23-13.28,2.77-10.12,8.18-10.27,12.67S169.91,223.73,177.19,220.7Z"/><path class="cls-60" d="M177.19,220.7a25.81,25.81,0,0,0,4.37-2.33c-6.78,2.61-12,2.51-11.86-1.77s4.48-9,9.33-12.1a33.72,33.72,0,0,0-4.45,2.16c-5.21,3-10.12,8.18-10.27,12.67S169.91,223.73,177.19,220.7Z"/><path class="cls-61" d="M177.19,220.7c7.28-3,10.86-8.26,11.53-10.2.93-2.65,1.81-4.88-.87-6.6a4.09,4.09,0,0,0-.83-.39,12.87,12.87,0,0,1-.91,3.5c-.68,1.94-4.25,7.17-11.53,10.2-4.22,1.76-7.92,2.52-10.27,2,0,.05,0,.1,0,.15C164.15,223.83,169.91,223.73,177.19,220.7Z"/><path class="cls-62" d="M161.27,223.66a4.48,4.48,0,0,0,3.18,1.66,27.51,27.51,0,0,0,9.74-1.73,11.32,11.32,0,0,0,1.75-1s.9-1.29-1.4-.77-8.89,3.07-10.59-.86S158.91,220.21,161.27,223.66Z"/><path class="cls-63" d="M192.21,203.82s1.2-2.76-4.91-4.73-18.33,2.85-18.7,7.43,4.88-2.57,13.08-4.46S190.54,206.63,192.21,203.82Z"/><g class="cls-15"><path class="cls-64" d="M177.85,201.7c-.12-.16,1.33-1.07,3-1.55a11,11,0,0,1,7,0c1.71.48,3.16,1.38,3,1.55s-1.68-.38-3.31-.58a19.12,19.12,0,0,0-2.23-.15c-.61,0-1,0-1,0s-.4,0-1,0a19.15,19.15,0,0,0-2.23.16C179.53,201.32,178,201.87,177.85,201.7Z"/><path class="cls-65" d="M171.95,204.51c-.14-.15.18-.62.59-1a8.27,8.27,0,0,1,.88-.77,9.5,9.5,0,0,1,1.18-.36c.61-.14,1.24-.19,1.33,0s-.36.55-.79.89l-.86.67-1.07.38C172.66,204.47,172.09,204.66,171.95,204.51Z"/><path class="cls-66" d="M165.84,224.2c0-.2,1.23-.32,2.39-.54s2.29-.51,2.29-.51,1.16-.14,2.33-.37,2.33-.55,2.43-.38-.91.83-2.05,1.32a17.62,17.62,0,0,1-2.37.81,18.32,18.32,0,0,1-2.53.13C167.06,224.63,165.83,224.39,165.84,224.2Z"/><path class="cls-67" d="M162.09,220.89c.22,0,.43.45.74.77a4,4,0,0,0,.64.56,3.69,3.69,0,0,0,.5.67c.3.33.75.6.71.79s-.68.26-1.32.05a3.68,3.68,0,0,1-1.14-.62,3,3,0,0,1-.46-1.1C161.66,221.42,161.87,220.87,162.09,220.89Z"/></g><path class="cls-68" d="M184.42,208.18c-.38-.13-.4-.9,0-1.71s1-1.37,1.34-1.24.4.9,0,1.71S184.8,208.31,184.42,208.18Z"/><path class="cls-69" d="M182.91,210.29c-.21-.12-.11-.57.21-1s.75-.71,1-.59.11.57-.21,1S183.11,210.41,182.91,210.29Z"/><path class="cls-70" d="M182.2,208.79c-.21-.12-.11-.57.21-1s.75-.71,1-.59.11.57-.21,1S182.41,208.91,182.2,208.79Z"/><path class="cls-71" d="M48.8,190.25C32.89,173.75,25,151.15,28.42,130c2.64-1,5.92-1,10.89,1.16,9.25,4.08,16.42,16,19.75,28.66s1.08,26.37-9,30A11.24,11.24,0,0,1,48.8,190.25Z"/><path class="cls-72" d="M20.65,164.65c-6.33-16.34-1.36-27.44,1.63-30.31,4.09-3.94,7.34-7.44,15.79-3.75s14.76,15.17,17.48,27.56.25,26-9.18,29.94S27,181,20.65,164.65Z"/><path class="cls-73" d="M39.32,131.73c-8.45-3.69-11.7-.19-15.79,3.75-3,2.87-8,14-1.63,30.31,3.16,8.17,7.23,15,11.69,19.33-4.94-4.19-9.48-11.53-12.94-20.46-6.33-16.34-1.36-27.44,1.63-30.31,4.09-3.94,7.34-7.44,15.79-3.75a19.74,19.74,0,0,1,5.7,3.93A18.69,18.69,0,0,0,39.32,131.73Z"/><path class="cls-74" d="M43.38,187.42c9.43-4,11.91-17.55,9.18-29.94s-9-23.87-17.48-27.56c-.76-.33-1.46-.59-2.14-.81a17.77,17.77,0,0,1,5.12,1.48c8.45,3.69,14.76,15.17,17.48,27.56s.25,26-9.18,29.94a10.2,10.2,0,0,1-7.71.09A10,10,0,0,0,43.38,187.42Z"/><path class="cls-75" d="M24.25,167.11c-4.93-10.69-3.55-20.06-2.33-22.88,1.67-3.85,3-7.19,7.64-6.37s9.09,7.91,11.77,16.49,2.83,19.23-1.55,24.31S29.18,177.8,24.25,167.11Z"/><path class="cls-76" d="M24.25,167.11a38.58,38.58,0,0,1-2.44-7c4.8,9.74,10.64,14.92,14.81,10.07s4.23-14.46,2-22.73a50.34,50.34,0,0,1,2.69,6.88c2.68,8.58,2.83,19.23-1.55,24.32S29.18,177.8,24.25,167.11Z"/><path class="cls-77" d="M24.25,167.11c-4.93-10.69-3.55-20.06-2.33-22.88,1.67-3.85,3-7.19,7.64-6.37a6.07,6.07,0,0,1,1.31.41A19.22,19.22,0,0,0,28.32,143c-1.22,2.81-2.59,12.18,2.33,22.88,2.86,6.2,6.15,10.79,9.27,12.58l-.14.18C35.4,183.76,29.18,177.8,24.25,167.11Z"/><path class="cls-78" d="M38.74,186.48a6.7,6.7,0,0,1-5.17-1.4,41.1,41.1,0,0,1-8.94-11.76,16.88,16.88,0,0,1-1-2.83s.32-2.33,2.32.57,6.65,12.37,12.5,9.79S44.82,185.09,38.74,186.48Z"/><path class="cls-79" d="M24.87,133.37s1.47-4.24,10.18-.21,17.24,21.7,13,27.09-2.76-7.77-9.85-18.14S23.85,138.14,24.87,133.37Z"/><g class="cls-15"><path class="cls-80" d="M42.77,145.58c.29-.06-.38-2.52-1.76-4.78a24.17,24.17,0,0,0-3.27-4.19,24.18,24.18,0,0,0-4.43-2.93c-2.37-1.2-4.87-1.68-4.91-1.39s2.23,1.29,4.22,2.72a28.68,28.68,0,0,1,2.6,2.1c.67.61,1.09,1,1.09,1s.46.39,1.13,1a28.63,28.63,0,0,1,2.29,2.43C41.31,143.46,42.48,145.65,42.77,145.58Z"/><path class="cls-81" d="M46.4,154.65c.31,0,.43-.87.4-1.74a12.35,12.35,0,0,0-.19-1.74,14.19,14.19,0,0,0-.93-1.59c-.53-.77-1.17-1.46-1.44-1.35s-.16,1,0,1.78l.26,1.61.78,1.5C45.66,153.88,46.09,154.67,46.4,154.65Z"/><path class="cls-82" d="M33.17,182.45c.18-.23-1-1.6-2.08-3s-2-2.88-2-2.88-1.14-1.33-2.18-2.76-2-3-2.29-2.88.16,1.83.92,3.52a26.31,26.31,0,0,0,1.78,3.28A27.44,27.44,0,0,0,30,180.43C31.4,181.68,33,182.68,33.17,182.45Z"/><path class="cls-83" d="M40.65,182.61c-.25-.22-.93.05-1.59.09a6,6,0,0,1-1.28,0,5.52,5.52,0,0,1-1.23.22c-.66.06-1.42-.1-1.58.15s.48,1,1.39,1.4a5.51,5.51,0,0,0,1.87.48,4.4,4.4,0,0,0,1.63-.74C40.57,183.63,40.9,182.82,40.65,182.61Z"/></g><path class="cls-84" d="M29,146c.55.24,1.34-.59,1.77-1.85s.33-2.48-.22-2.72-1.34.59-1.77,1.85S28.44,145.8,29,146Z"/><path class="cls-85" d="M28.52,149.89c.34.08.7-.51.79-1.32s-.11-1.54-.45-1.62-.7.51-.79,1.32S28.18,149.81,28.52,149.89Z"/><path class="cls-86" d="M30.81,149c.34.08.7-.51.79-1.32s-.11-1.54-.45-1.62-.7.51-.79,1.32S30.47,148.88,30.81,149Z"/><path class="cls-87" d="M153.82,71.29c-10.71-6.51-21.81-16-50.44-10.53S63,103.69,88,122.78c15.37,11.7,39.92,12.81,62.69-6.33C175.73,95.46,160.61,75.42,153.82,71.29Z"/><path class="cls-88" d="M149.68,64.92c-9.57-5.81-21.17-11.53-46.71-6.72S60,99.74,83.69,114.94s52,9.89,69.48-9.08C172.87,84.5,155.74,68.61,149.68,64.92Z"/><path class="cls-89" d="M162.3,84.34c-.34,5.49-2.86,11.75-9.16,18.58-17.5,19-45.79,24.27-69.48,9.08A23.2,23.2,0,0,1,72.52,93.36a23.38,23.38,0,0,0,11.17,21.58c23.69,15.2,52,9.89,69.48-9.08C160.62,97.78,162.8,90.49,162.3,84.34Z"/><path class="cls-90" d="M137.54,65.7c-8.58-2.9-18.71-5.48-37.61,1.06S74.75,101.29,96.15,109s42.32.51,52.17-15C159.42,76.59,143,67.54,137.54,65.7Z"/><path class="cls-91" d="M152.06,83.68a27,27,0,0,1-2.6,5.17c-9.85,15.5-30.78,22.74-52.17,15C86.94,100.1,83.08,91.62,84,83.12c-3.35,10-.3,21.4,12.17,25.92,21.4,7.75,42.32.51,52.17-15A21.76,21.76,0,0,0,152.06,83.68Z"/><path class="cls-92" d="M101,74c18.89-6.54,29-4,37.61-1.06C141.88,74,149.16,77.77,152,84.39c1.15-11.2-10.13-17.23-14.45-18.7-8.58-2.9-18.71-5.48-37.61,1.06C86.9,71.27,79.87,86,83.78,97.23A26,26,0,0,1,101,74Z"/><path class="cls-93" d="M87.58,72S80.75,79,81,92.42s13.4,18.77,23.18,20.33-3.37,7.71-15.37,1.26S74.6,102.21,75.45,89.25,88.19,66.74,87.58,72Z"/><path class="cls-94" d="M139.4,64.59c3.79,3.35,11.74,5.46,14.34,14.28s-7.17,17.86-5.83,22.17,14-6.81,11.91-19.34C156.89,64.33,132.57,58.55,139.4,64.59Z"/><g class="cls-15"><path class="cls-95" d="M77.5,95.23c-.31,0-.81-2.12-.85-4.35a26.06,26.06,0,0,1,.3-4.45,26.09,26.09,0,0,1,1.61-4.16c1-2,2.34-3.75,2.61-3.59s-.54,2.15-1.09,4.17a38.78,38.78,0,0,0-.88,4.07A38.75,38.75,0,0,0,78.27,91C77.91,93.06,77.82,95.2,77.5,95.23Z"/><path class="cls-96" d="M87.24,110c-.14.28-1.83-.27-3.35-1.26a16.78,16.78,0,0,1-2.78-2.29,16.81,16.81,0,0,1-1.75-3.15c-.69-1.67-.94-3.43-.63-3.52s1.08,1.41,2.06,2.73A23.93,23.93,0,0,0,82.88,105a23.9,23.9,0,0,0,2,2.5C86,108.69,87.38,109.73,87.24,110Z"/><path class="cls-97" d="M156.31,78.6c-.31,0-.78-1.2-1.59-2.19A17.19,17.19,0,0,0,153,74.53l-1.54-2.2c-.8-1.14-1.46-2.42-1.2-2.61s1.3.67,2.39,1.5A27.69,27.69,0,0,1,154.78,73a11.72,11.72,0,0,1,1.38,2.59C156.72,77.06,156.64,78.59,156.31,78.6Z"/><path class="cls-98" d="M152.29,94.27c-.25-.21.61-1.7,1.33-3.21s1.29-3,1.29-3a23.36,23.36,0,0,0,1.39-2.94c.6-1.52.88-3.19,1.21-3.2s.63,1.77.38,3.59A16.53,16.53,0,0,1,157,89a20.8,20.8,0,0,1-2,3C153.86,93.32,152.53,94.47,152.29,94.27Z"/></g><path class="cls-99" d="M103,78.52c.53,1.45-1,3.32-3.33,4.19s-4.72.4-5.25-1,1-3.32,3.33-4.19S102.47,77.08,103,78.52Zm-7.89,6.34c-2-.09-3.6.81-3.65,2S93,89.1,94.92,89.19s3.6-.81,3.65-2S97.08,85,95.12,84.86ZM105,80.76c-2.37.87-3.86,2.75-3.33,4.19s2.88,1.91,5.25,1,3.86-2.75,3.33-4.19S107.32,79.89,105,80.76Z"/><path class="cls-100" d="M146,185.09c10.1-2.07,22.08-2.57,36.3-21.87s.35-48.49-25.45-46c-15.81,1.55-31.23,14.61-34.25,38.89C119.28,182.78,139.61,186.4,146,185.09Z"/><path class="cls-101" d="M152.07,186.61c9-1.85,19.21-4.89,31.92-22.08s2.66-49.08-20.12-45-36.87,23.12-36.8,44.34C127.14,187.78,146.36,187.78,152.07,186.61Z"/><path class="cls-102" d="M133.6,182c-2.87-3.5-4.85-8.69-4.87-16.32-.06-21.22,14-40.25,36.8-44.34a19.08,19.08,0,0,1,17.15,5,19.23,19.23,0,0,0-18.81-6.76c-22.78,4.09-36.87,23.12-36.8,44.34C127.09,172.92,129.86,178.54,133.6,182Z"/><path class="cls-103" d="M159,179.35c6.79-3,14.35-7.16,22.08-21.68s-4.14-34.9-21.37-27.6-25.8,23.37-23.07,38.22C139.67,185,154.65,181.28,159,179.35Z"/><path class="cls-104" d="M140.14,176.63a22.24,22.24,0,0,1-1.33-4.57c-2.73-14.86,5.83-30.92,23.07-38.22,8.33-3.53,15.4-.58,19.62,5-3.58-7.91-11.79-13.07-21.84-8.81-17.23,7.3-25.8,23.37-23.07,38.22A17.9,17.9,0,0,0,140.14,176.63Z"/><path class="cls-105" d="M176.36,153.92c-7.73,14.51-15.28,18.63-22.08,21.68-2.6,1.17-9.08,3-14.5.57,5.57,7.39,15.74,4.72,19.17,3.18,6.79-3,14.35-7.16,22.08-21.68,5.33-10,1.33-22.82-7.31-27.4A21.41,21.41,0,0,1,176.36,153.92Z"/><path class="cls-106" d="M185.53,147.58s.22-8-7.46-16-18.58-3.82-25.35.71-2.28-6.54,8.56-9.36,15.19-.86,21.92,7.43S188.12,151.11,185.53,147.58Z"/><path class="cls-107" d="M158.46,181.05c-4.16.1-10.13,3.28-16.64-.58s-5.67-14.78-8.89-16.63-4.64,11.95,3.64,18.32C148.06,191,165.95,180.87,158.46,181.05Z"/><g class="cls-15"><path class="cls-108" d="M178.62,128c.17-.2,1.67.83,3,2.15a21.48,21.48,0,0,1,2.31,2.85,21.44,21.44,0,0,1,1.36,3.41c.53,1.76.69,3.57.43,3.62s-.87-1.6-1.68-3.13a31.83,31.83,0,0,0-1.75-2.95,31.79,31.79,0,0,0-1.72-3C179.59,129.5,178.45,128.15,178.62,128Z"/><path class="cls-109" d="M164.48,124.49c-.08-.25,1.26-.86,2.72-1.11a13.8,13.8,0,0,1,3-.18,13.81,13.81,0,0,1,2.82.92c1.35.62,2.49,1.54,2.35,1.77s-1.44-.25-2.77-.49a19.66,19.66,0,0,0-2.64-.31,19.61,19.61,0,0,0-2.63-.36C165.94,124.62,164.56,124.75,164.48,124.49Z"/><path class="cls-110" d="M140.42,182.07c.17-.19,1.14.29,2.18.43a14.17,14.17,0,0,0,2.09.18l2.16.46c1.12.23,2.24.64,2.18.91s-1.16.32-2.28.43a22.64,22.64,0,0,1-2.31.08,9.63,9.63,0,0,1-2.29-.79C141,183.23,140.23,182.26,140.42,182.07Z"/><path class="cls-111" d="M134.08,170.38c.27,0,.59,1.36,1,2.68s.92,2.55.92,2.55a19.17,19.17,0,0,0,.81,2.55c.49,1.26,1.25,2.42,1.06,2.6s-1.37-.72-2.24-1.95a13.57,13.57,0,0,1-1.44-2.61,17.09,17.09,0,0,1-.44-2.91C133.67,171.83,133.82,170.39,134.08,170.38Z"/></g><path class="cls-112" d="M172.6,152.3c-1.13-.58-1.28-2.54-.34-4.39s2.62-2.88,3.75-2.31,1.28,2.54.34,4.39S173.73,152.87,172.6,152.3Zm1.21-8.23c1.23-1,1.72-2.5,1.08-3.25s-2.15-.52-3.38.53-1.72,2.5-1.08,3.25S172.57,145.11,173.81,144.07Zm-3.63,8c.94-1.85.79-3.82-.34-4.39s-2.81.46-3.75,2.31-.79,3.82.34,4.39S169.23,153.89,170.18,152Z"/><path class="cls-113" d="M98.8,173.75c-8,.66-17.15,2.91-32.07-8.46s-10.9-36.36,9-40.12c12.21-2.31,26.67,4.12,34.27,21.7C118.37,166.15,103.9,173.33,98.8,173.75Z"/><path class="cls-114" d="M94.58,176.22c-7.18.59-15.51.54-28.83-9.58S53,130.34,71,128.42s32.77,9.28,37.38,25.24C113.57,171.63,99.13,175.85,94.58,176.22Z"/><path class="cls-115" d="M107.44,168.68c1.39-3.26,1.74-7.59.08-13.33-4.61-16-19.37-27.16-37.38-25.24a14.93,14.93,0,0,0-11.79,7.52A15.05,15.05,0,0,1,71,128.42c18-1.92,32.77,9.28,37.38,25.24C110.34,160.46,109.5,165.28,107.44,168.68Z"/><path class="cls-116" d="M87.81,172.28c-5.77-.8-12.35-2.23-21.34-11.44s-4.55-27.13,10-25.43S101,147.3,102.19,159.06C103.55,172.31,91.48,172.79,87.81,172.28Z"/><path class="cls-117" d="M101.35,166.11a17.39,17.39,0,0,0,0-3.72c-1.21-11.76-11.17-22-25.72-23.66-7-.82-11.7,2.95-13.63,8.1,1-6.73,6-12.4,14.47-11.41C91,137.11,101,147.3,102.19,159.06A14,14,0,0,1,101.35,166.11Z"/><path class="cls-118" d="M69.16,157c9,9.21,15.57,10.64,21.34,11.44,2.21.31,7.48.25,11-2.75-2.56,6.78-10.79,7-13.7,6.6-5.77-.8-12.35-2.23-21.34-11.44-6.2-6.35-6-16.85-.52-22.19A16.76,16.76,0,0,0,69.16,157Z"/><path class="cls-119" d="M60.88,154.24s-1.93-6,2.1-13.62,13.12-6.95,19.2-5,.28-5.41-8.48-5.15-11.6,2.69-14.84,10.39S59.71,157.46,60.88,154.24Z"/><path class="cls-120" d="M88.57,173.45c3.15-.84,8.33.24,12.37-4.09s1-12.35,3-14.44,6.11,8,1.28,14.56C98.56,178.64,82.9,175,88.57,173.45Z"/><g class="cls-15"><path class="cls-121" d="M61.76,138c-.17-.11-1.08,1-1.75,2.26a16.77,16.77,0,0,0-1.11,2.65,16.8,16.8,0,0,0-.27,2.86c0,1.44.27,2.84.47,2.82s.31-1.39.57-2.72a24.91,24.91,0,0,1,.67-2.6,24.91,24.91,0,0,1,.64-2.6C61.37,139.35,61.93,138.09,61.76,138Z"/><path class="cls-122" d="M71.62,132.28c0-.2-1.13-.37-2.29-.24a10.81,10.81,0,0,0-2.26.52,10.81,10.81,0,0,0-1.91,1.31c-.88.76-1.53,1.71-1.38,1.84s1-.5,2-1a15.38,15.38,0,0,1,1.91-.82,15.41,15.41,0,0,1,1.9-.85C70.55,132.7,71.62,132.49,71.62,132.28Z"/><path class="cls-123" d="M102.34,170.26c-.17-.1-.8.47-1.54.8a11.09,11.09,0,0,1-1.53.59l-1.52.82c-.79.42-1.54,1-1.44,1.16s.94,0,1.8-.17a17.82,17.82,0,0,0,1.75-.45,7.55,7.55,0,0,0,1.54-1.1C102.13,171.27,102.52,170.36,102.34,170.26Z"/><path class="cls-124" d="M104.53,160.08c-.2,0-.14,1.15-.16,2.23s-.13,2.12-.13,2.12a15,15,0,0,1,0,2.09c-.09,1-.41,2.09-.23,2.19s.87-.84,1.25-2a10.64,10.64,0,0,0,.51-2.28,13.39,13.39,0,0,0-.31-2.28C105.16,161.08,104.73,160,104.53,160.08Z"/></g><path class="cls-125" d="M68.3,154c-1.11-1.18-1.43-2.69-.71-3.37s2.21-.27,3.33.91,1.43,2.69.71,3.37S69.42,155.22,68.3,154Zm3.27-5.35c.31-.7-.37-1.69-1.52-2.21s-2.35-.36-2.66.35.37,1.69,1.52,2.21S71.26,149.39,71.57,148.68Zm5.15,6.45c.72-.68.4-2.19-.71-3.37s-2.6-1.59-3.33-.91-.4,2.19.71,3.37S76,155.82,76.72,155.14Z"/><path class="cls-126" d="M231,162.48a35.79,35.79,0,0,0,.73-4.74q.09-1.12.11-2.17a29.08,29.08,0,0,0-.2-3.92q-.11-.91-.27-1.74a15.76,15.76,0,0,0-2.78-6.88,36.94,36.94,0,0,0-3.39-3.74l-.35-.29a100.68,100.68,0,0,0-4.77-47.51A100.84,100.84,0,0,1,33.35,82.91c-.6,1.31-1.19,2.62-1.74,4a100.42,100.42,0,0,0-7.21,45.5c-.45.41-.91.8-1.37,1.24l-.76.73a9,9,0,0,0-1.19,1.46c-.2.31-.41.64-.61,1A23.39,23.39,0,0,0,18,144.45c-.82,5.18-.48,12,2.68,20.21q.62,1.61,1.29,3.14c.14.32.29.62.43.93.31.7.63,1.39,1,2.06.17.35.35.69.52,1,.26.5.51,1,.77,1.5h0l.22.39.31.55c.23.41.46.82.7,1.21l.43.71.16.26.17.29c.2.32.41.63.62.94l.44.66.43.61.33.45.54.74.47.6.47.59.09.11.38.44.59.67.62.66.38.38,0,0,.69.67c.3.28.59.55.89.81h0l0,0,0,0,.05,0a17,17,0,0,0,5.09,3.06h-.07l.22.06a11.69,11.69,0,0,0,1.27.35c.2,0,.4.1.6.14a10.29,10.29,0,0,0,1.29.12c.2,0,.4,0,.59,0a9.85,9.85,0,0,0,1.34-.14c.18,0,.36,0,.54-.07a10.43,10.43,0,0,0,1.82-.57,100.3,100.3,0,0,0,10.35,11.1l0,.12c1.11,1,2.27,2,3.42,3-.09.18-.2.34-.28.52-.23.49-.42,1-.6,1.47,0,.14-.09.27-.13.41-.12.35-.23.71-.33,1.06,0,.14-.07.29-.1.43-.08.35-.16.69-.22,1,0,.13,0,.27-.05.4-.05.36-.09.72-.12,1.08,0,.12,0,.23,0,.35,0,.38,0,.76,0,1.13,0,.09,0,.19,0,.28q0,.61.11,1.21l0,.2q.09.65.24,1.29l0,.11q.17.7.39,1.39h0c1.26,3.81,3.93,7.45,7.74,10.81l0,0a46.73,46.73,0,0,0,4.05,3.18l0,0q1,.72,2.14,1.43l.22.14q1.28.8,2.64,1.58l.1.06q1,.55,2,1.08l.44.23,1.45.73.29.14q2,.95,4,1.84l.37.16q2.1.88,4.33,1.7l.31.12q2.36.86,4.84,1.64c18.6,5.85,33.15,2.29,41.24-1.93a23,23,0,0,0,5.85-4.12c1.21-1.26,2.39-2.48,3.47-3.71q.54-.61,1.06-1.23a21,21,0,0,0,3.45-5.6q3.8-.94,7.51-2.16h.14c0,.08.05.15.09.23a7,7,0,0,0,.65,1.13c.07.1.16.18.23.28a6.63,6.63,0,0,0,.6.68c.1.09.2.17.31.25a6.85,6.85,0,0,0,.69.53l.36.21a7.84,7.84,0,0,0,.79.4l.13.07,0,0a11.37,11.37,0,0,0,3.89.8h.35c.38,0,.77,0,1.18,0l.51,0,.37,0,.83-.09.59-.08L169,225l.22,0,.23,0,.65-.13,1.19-.28.37-.09.36-.1,1.24-.37.73-.23.14,0,.07,0h0l1.06-.39.73-.27c.46-.18.93-.38,1.4-.58l.64-.27q1-.45,2.06-1c5.93-2.91,9.34-6.62,11.16-9.81a16.54,16.54,0,0,0,1-2c.13-.32.24-.63.34-.93a8.32,8.32,0,0,0,.47-2.89,19.29,19.29,0,0,0-.48-4,6.61,6.61,0,0,0-.46-1.16q3.48-3.1,6.68-6.54l.2.13a10.42,10.42,0,0,0,1.79.78c.17.06.35.08.53.13a9.75,9.75,0,0,0,1.32.28c.2,0,.4,0,.6,0a10.21,10.21,0,0,0,1.29,0c.2,0,.41,0,.62-.07a11.68,11.68,0,0,0,1.3-.22l.22,0h-.07a17,17,0,0,0,5.38-2.51l.05,0h0l0,0h0c.32-.22.65-.46,1-.71l.77-.6,0,0,.41-.34.68-.59.65-.6.43-.4.1-.1.53-.54.53-.54.61-.67.38-.42.49-.56.5-.61c.24-.29.48-.57.71-.87l.2-.27.19-.24.5-.65c.28-.37.55-.75.83-1.14l.36-.5.26-.37h0c.31-.46.62-.94.93-1.41.21-.32.42-.63.63-1,.4-.63.78-1.29,1.17-1.94.18-.3.35-.59.53-.89q.83-1.46,1.62-3A44.88,44.88,0,0,0,231,162.48Z"/><path class="cls-127" d="M225.88,123.63a101,101,0,0,0-45.67-83c-4.29,1.55-8.1,4.84-11.38,12.09-6.09,13.49-.74,33,10,49.57S208,130.78,224,124.52A19.13,19.13,0,0,0,225.88,123.63Z"/><path class="cls-128" d="M229.21,68.85c-11.46-23.34-30.06-29.92-36.87-29.92-9.32,0-17.15-.41-22.75,11.88S169.88,81.36,181,97s29.68,27.28,45.25,22S240.67,92.19,229.21,68.85Z"/><path class="cls-129" d="M169.44,53.25C175,41,182.87,41.36,192.18,41.36c6.8,0,25.41,6.58,36.87,29.92,5.73,11.66,8.88,22.86,8.66,31.8.94-9.3-2.23-21.48-8.5-34.23-11.46-23.34-30.06-29.92-36.87-29.92-9.32,0-17.15-.41-22.75,11.88a25.29,25.29,0,0,0-2.12,9.78A24.07,24.07,0,0,1,169.44,53.25Z"/><path class="cls-130" d="M228.94,115.27c-15.58,5.3-34.14-6.36-45.25-22s-17-33.87-11.4-46.16a31,31,0,0,1,1.57-3,24.59,24.59,0,0,0-4.26,6.66C164,63.1,169.88,81.36,181,97s29.68,27.28,45.25,22a15.69,15.69,0,0,0,9.11-7.62A16.22,16.22,0,0,1,228.94,115.27Z"/><path class="cls-131" d="M227.84,75c-6.59-16.06-19-24.43-23.67-26.14-6.4-2.34-11.75-4.53-16.27,1s-1.48,17.32,5.29,28.93,18.88,22.85,29.86,23.76S234.42,91.07,227.84,75Z"/><path class="cls-132" d="M227.84,75a53.85,53.85,0,0,0-5.21-9.7c5.63,14.94,4.79,26.16-5.67,25.29S195.35,79.79,188.4,69a69.31,69.31,0,0,0,4.79,9.85c6.77,11.61,18.88,22.85,29.86,23.76S234.42,91.07,227.84,75Z"/><path class="cls-133" d="M227.84,75c-6.59-16.06-19-24.43-23.67-26.14-6.4-2.34-11.75-4.53-16.27,1a8.35,8.35,0,0,0-1.05,1.73c2.6.22,5.42,1.3,8.47,2.41C200,55.73,212.4,64.11,219,80.17c3.82,9.31,5.27,17.38,3.69,22.35l.37.05C234,103.48,234.42,91.07,227.84,75Z"/><path class="cls-134" d="M233.28,109.65c2.37-1.26,3.76-3.66,4.43-6.63.6-6.05-.53-13.32-3.13-21.17a23.68,23.68,0,0,0-2.15-3.9s-3.06-2.1-2,2.91,6.51,19.53-3.3,22.68S224.58,114.28,233.28,109.65Z"/><path class="cls-135" d="M188.2,40.51s-6.62-2.95-12.13,10,4.91,39.82,16.07,41.2-5.74-10.85-9.44-28.72S194.89,44.46,188.2,40.51Z"/><g class="cls-15"><path class="cls-136" d="M181.38,71.11c-.42.23-2.46-3-3.46-6.74a31,31,0,0,1-1-7.63,31,31,0,0,1,1.8-7.48c1.38-3.61,3.74-6.62,4.13-6.35S181.72,46.49,181,50a36.4,36.4,0,0,0-.62,4.78c-.07,1.31-.07,2.17-.07,2.17s-.09.86-.16,2.17a36.34,36.34,0,0,0,.13,4.82C180.65,67.45,181.82,70.9,181.38,71.11Z"/><path class="cls-137" d="M187.61,84.19c-.38.29-1.51-.48-2.48-1.41a18.73,18.73,0,0,1-1.79-2,18.69,18.69,0,0,1-.74-2.58c-.27-1.32-.33-2.69.12-2.85s1.29.85,2.1,1.82l1.55,1.94.82,2.35C187.58,82.64,188,83.89,187.61,84.19Z"/><path class="cls-138" d="M235.13,99.89c-.48-.05-.65-2.68-1.06-5.22s-1-5-1-5-.2-2.52-.64-5.05-1.08-5.08-.64-5.28,1.93,2.06,3,4.59a34.79,34.79,0,0,1,1.7,5.2,34.82,34.82,0,0,1,0,5.47C236.31,97.33,235.6,99.95,235.13,99.89Z"/><path class="cls-139" d="M226.59,107.53c0-.48,1.14-.88,2-1.5a9.07,9.07,0,0,0,1.46-1.31,9.06,9.06,0,0,0,1.69-1c.83-.6,1.54-1.53,2-1.43s.57,1.5,0,2.84a7.75,7.75,0,0,1-1.64,2.37,7.74,7.74,0,0,1-2.75.85C227.85,108.52,226.53,108,226.59,107.53Z"/></g><ellipse class="cls-140" cx="194.47" cy="56.22" rx="1.59" ry="3.89" transform="translate(63.18 210.3) rotate(-65.69)"/><ellipse class="cls-141" cx="201.1" cy="60" rx="0.95" ry="2.33" transform="translate(35.16 188.47) rotate(-54.36)"/><ellipse class="cls-142" cx="197.36" cy="61.32" rx="0.95" ry="2.33" transform="translate(32.53 185.98) rotate(-54.36)"/><path class="cls-143" d="M25,113.07c1.68-29.07,15.95-56,38.64-71,3.25,1.56,6.07,4.63,8.31,11.17,4.17,12.15-.75,29.11-9.72,43.15s-23.69,23.75-35.79,17.5A14.36,14.36,0,0,1,25,113.07Z"/><path class="cls-144" d="M24.62,64.71c9.8-20,24.44-24.93,29.7-24.62,7.2.42,13.27.44,17.11,11.51S70,78.47,60.77,91.69s-24,22.63-35.87,17.24S14.82,84.72,24.62,64.71Z"/><path class="cls-145" d="M71.46,53.75c-3.84-11.07-9.91-11.08-17.11-11.51-5.26-.31-19.91,4.62-29.7,24.62-4.9,10-7.78,19.7-8,27.58-.35-8.23,2.59-18.8,7.94-29.73,9.8-20,24.44-24.93,29.7-24.62,7.2.43,13.27.44,17.11,11.51a25.09,25.09,0,0,1,1.25,8.7A23.75,23.75,0,0,0,71.46,53.75Z"/><path class="cls-146" d="M23,105.57c11.83,5.39,26.65-4,35.87-17.24s14.5-29,10.66-40.09c-.34-1-.71-1.87-1.09-2.69a22.6,22.6,0,0,1,3,6.05C75.27,62.68,70,78.47,60.77,91.69s-24,22.63-35.87,17.24a13,13,0,0,1-6.74-7.12A12.68,12.68,0,0,0,23,105.57Z"/><path class="cls-147" d="M25.43,70.2C31.17,56.38,41.1,49.58,44.78,48.29c5-1.76,9.27-3.44,12.54,1.64s.45,15.31-5.25,25.21S36.56,94.38,28,94.67,19.7,84,25.43,70.2Z"/><path class="cls-148" d="M25.43,70.2a49,49,0,0,1,4.42-8.29c-5,12.88-4.75,22.79,3.37,22.52s17.15-8.52,23-17.72a63.92,63.92,0,0,1-4.1,8.45C46.36,85,36.56,94.38,28,94.67S19.7,84,25.43,70.2Z"/><path class="cls-149" d="M25.43,70.2c5.74-13.82,15.67-20.62,19.35-21.9,5-1.76,9.27-3.44,12.54,1.64a7.75,7.75,0,0,1,.74,1.57,24.44,24.44,0,0,0-6.65,1.73c-3.68,1.29-13.61,8.08-19.35,21.91-3.33,8-4.77,15-3.75,19.49l-.29,0C19.5,95,19.7,84,25.43,70.2Z"/><path class="cls-150" d="M19.83,100.43c-1.78-1.22-2.76-3.4-3.16-6-.22-5.35.95-11.7,3.27-18.48a21.45,21.45,0,0,1,1.82-3.33s2.45-1.71,1.46,2.66-5.81,16.88,1.64,20.11S26.38,104.9,19.83,100.43Z"/><path class="cls-151" d="M57.46,41.67s5.23-2.29,9,9.32S61,85.8,52.36,86.5s4.87-9.28,8.45-24.83S52.13,44.84,57.46,41.67Z"/><g class="cls-15"><path class="cls-152" d="M61.5,68.92c.31.22,2-2.53,2.95-5.77a30.71,30.71,0,0,0,1.1-6.66,30.75,30.75,0,0,0-1.09-6.67c-.92-3.24-2.63-6-2.94-5.78s.71,3.19,1.1,6.29a36.33,36.33,0,0,1,.29,4.24c0,1.15,0,1.92,0,1.92s0,.76,0,1.92a36.34,36.34,0,0,1-.29,4.24C62.22,65.73,61.18,68.71,61.5,68.92Z"/><path class="cls-153" d="M56.16,80.13c.28.27,1.18-.35,2-1.13a15.68,15.68,0,0,0,1.47-1.68,18.07,18.07,0,0,0,.68-2.24c.26-1.15.36-2.35,0-2.52s-1,.68-1.69,1.51l-1.28,1.64-.73,2C56.25,78.77,55.88,79.86,56.16,80.13Z"/><path class="cls-154" d="M18.8,91.75c.37,0,.61-2.33,1-4.54s1-4.35,1-4.35.26-2.21.69-4.42,1-4.42.71-4.62-1.57,1.73-2.5,3.9a33.35,33.35,0,0,0-1.53,4.49A34.84,34.84,0,0,0,17.94,87C18,89.44,18.43,91.78,18.8,91.75Z"/><path class="cls-155" d="M25.1,98.87c0-.42-.85-.82-1.46-1.41a7.65,7.65,0,0,1-1.07-1.22,7,7,0,0,1-1.26-1c-.62-.57-1.13-1.42-1.5-1.35s-.5,1.3-.1,2.5a7,7,0,0,0,1.17,2.16,5.6,5.6,0,0,0,2.09.88C24.08,99.68,25.12,99.29,25.1,98.87Z"/></g><path class="cls-156" d="M49.18,56.45c.25.72,1.7.75,3.25.06S55,54.68,54.79,54s-1.7-.75-3.25-.06S48.93,55.73,49.18,56.45Z"/><path class="cls-157" d="M45.19,59.33c.22.39,1.08.21,1.92-.4s1.34-1.43,1.12-1.82-1.08-.21-1.92.4S45,58.94,45.19,59.33Z"/><path class="cls-158" d="M48,60.67c.22.39,1.08.21,1.92-.4s1.34-1.43,1.12-1.82-1.08-.21-1.92.4S47.8,60.28,48,60.67Z"/><path class="cls-159" d="M176.38,105.46a2.4,2.4,0,1,1-1.31-3.12A2.4,2.4,0,0,1,176.38,105.46Zm9.71,3.68a5.59,5.59,0,1,0,3.06,7.29A5.59,5.59,0,0,0,186.09,109.14Zm18.09,18a2.53,2.53,0,1,0,1.39,3.3A2.53,2.53,0,0,0,204.17,127.16Zm-25,54.79a4.13,4.13,0,1,0,2.26,5.38A4.13,4.13,0,0,0,179.22,182Zm-14.34,4.49a2.4,2.4,0,1,0,1.31,3.12A2.4,2.4,0,0,0,164.87,186.45ZM120.29,159a2.66,2.66,0,1,0,1.46,3.47A2.66,2.66,0,0,0,120.29,159Zm4.28,13.82a4.66,4.66,0,1,0,2.55,6.07A4.66,4.66,0,0,0,124.56,172.86ZM156.7,192a4.92,4.92,0,1,0,2.7,6.42A4.92,4.92,0,0,0,156.7,192ZM64.31,171.84a2,2,0,1,0,1.09,2.6A2,2,0,0,0,64.31,171.84Zm.07,10.38a3.33,3.33,0,1,0,1.82,4.34A3.33,3.33,0,0,0,64.39,182.22ZM32.83,119a2.66,2.66,0,1,0,1.46,3.47A2.66,2.66,0,0,0,32.83,119Zm14.1-4.59a4.39,4.39,0,1,0,2.41,5.73A4.39,4.39,0,0,0,46.93,114.42Zm2.24,12.13a2.53,2.53,0,1,0,1.39,3.3A2.53,2.53,0,0,0,49.17,126.55ZM115,168.1a2,2,0,1,0,1.09,2.6A2,2,0,0,0,115,168.1Zm-33.07-128a2.47,2.47,0,1,0,1.36,3.23A2.47,2.47,0,0,0,81.93,40.06Zm5.74,7.33a3,3,0,1,0,1.63,3.87A3,3,0,0,0,87.67,47.39ZM81,52.86a4.45,4.45,0,1,0,2.44,5.81A4.46,4.46,0,0,0,81,52.86Zm84.58-10.73a2.47,2.47,0,1,0,1.36,3.23A2.48,2.48,0,0,0,165.56,42.13Zm-10.11,9.06a3.79,3.79,0,1,0,2.08,4.95A3.79,3.79,0,0,0,155.45,51.18Zm6.53,8a2.31,2.31,0,1,0,1.27,3A2.31,2.31,0,0,0,162,59.2Zm-93.9,41.85a1.81,1.81,0,1,0,1,2.37A1.82,1.82,0,0,0,68.08,101.05ZM74,108.81a5.61,5.61,0,1,0,3.07,7.31A5.61,5.61,0,0,0,74,108.81Zm46.95,19.88a4.45,4.45,0,1,0,2.44,5.81A4.45,4.45,0,0,0,120.95,128.7Zm-3.53,13.88a2.8,2.8,0,1,0,1.54,3.66A2.8,2.8,0,0,0,117.42,142.58Z"/><path class="cls-160" d="M79,43.8a2.32,2.32,0,0,1,.07-.36,2.47,2.47,0,0,1,3.23-1.36,2.41,2.41,0,0,1,1,.84,2.44,2.44,0,0,0-1.42-2.86,2.47,2.47,0,0,0-3.23,1.36A2.44,2.44,0,0,0,79,43.8Z"/><path class="cls-161" d="M46.28,130a2.52,2.52,0,0,1,4.39-.52,2.52,2.52,0,1,0-4.51.92A2.52,2.52,0,0,1,46.28,130Z"/><path class="cls-162" d="M41.61,118.86a4.38,4.38,0,0,1,8-.2,4.38,4.38,0,1,0-8.34,1.7A4.36,4.36,0,0,1,41.61,118.86Z"/><path class="cls-163" d="M29.78,122.5a2.66,2.66,0,0,1,4.66-.5,2.66,2.66,0,1,0-4.8,1A2.66,2.66,0,0,1,29.78,122.5Z"/><path class="cls-164" d="M84,51.7a3,3,0,0,1,5.44-1.1A3,3,0,1,0,84,51.7Z"/><path class="cls-165" d="M75.18,55.3a4.43,4.43,0,0,0,.1,3.56,4.44,4.44,0,0,1,8.46-1.72,4.45,4.45,0,0,0-8.56-1.84Z"/><path class="cls-166" d="M162.1,190.1a2.21,2.21,0,0,1,.06-.32,2.4,2.4,0,0,1,3.12-1.31,2.33,2.33,0,0,1,1,.78,2.37,2.37,0,0,0-1.37-2.81,2.4,2.4,0,0,0-3.12,1.31A2.36,2.36,0,0,0,162.1,190.1Z"/><path class="cls-167" d="M201.17,131a2.52,2.52,0,0,1,4.51-.92,2.52,2.52,0,1,0-4.51.92Z"/><path class="cls-168" d="M120.29,159a2.66,2.66,0,0,0-3.2,4,2.66,2.66,0,0,1,4.8-1A2.66,2.66,0,0,0,120.29,159Z"/><path class="cls-169" d="M150.66,56.43a3.76,3.76,0,0,1,.25-1.14,3.78,3.78,0,0,1,6.87-.3,3.78,3.78,0,1,0-7.12,1.45Z"/><path class="cls-170" d="M162.68,45.87a2.32,2.32,0,0,1,.07-.36A2.47,2.47,0,0,1,166,44.15a2.4,2.4,0,0,1,1,.84,2.44,2.44,0,0,0-1.42-2.86,2.48,2.48,0,0,0-3.23,1.36A2.44,2.44,0,0,0,162.68,45.87Z"/><path class="cls-171" d="M159,60.46a2.28,2.28,0,0,0,.36,2.29,2.16,2.16,0,0,1,.05-.27,2.31,2.31,0,0,1,3-1.27,2.25,2.25,0,0,1,.9.72A2.29,2.29,0,0,0,162,59.2,2.31,2.31,0,0,0,159,60.46Z"/><path class="cls-172" d="M67.09,113.92a5.6,5.6,0,0,1,10.39,0,5.61,5.61,0,1,0-10.81,2.15A5.59,5.59,0,0,1,67.09,113.92Z"/><path class="cls-173" d="M179.21,114.23a5.58,5.58,0,0,1,10.35,0,5.59,5.59,0,1,0-10.77,2.14A5.57,5.57,0,0,1,179.21,114.23Z"/><path class="cls-174" d="M118.9,177.44a4.65,4.65,0,0,1,8.55-.16,4.65,4.65,0,1,0-8.88,1.81A4.63,4.63,0,0,1,118.9,177.44Z"/><path class="cls-175" d="M172.35,105.68a2.4,2.4,0,0,1,3.12-1.31,2.33,2.33,0,0,1,1,.78,2.37,2.37,0,0,0-1.37-2.81,2.4,2.4,0,0,0-3.12,1.31,2.36,2.36,0,0,0,.35,2.34A2.26,2.26,0,0,1,172.35,105.68Z"/><path class="cls-176" d="M150.69,196.75a4.92,4.92,0,0,1,9.06-.11,4.92,4.92,0,1,0-9.42,1.92A4.91,4.91,0,0,1,150.69,196.75Z"/><path class="cls-177" d="M174.25,186.24a4.11,4.11,0,0,1,7.51-.25,4.11,4.11,0,1,0-7.79,1.59A4.09,4.09,0,0,1,174.25,186.24Z"/><path class="cls-178" d="M60.46,186.07a3.31,3.31,0,0,1,6-.38,3.32,3.32,0,1,0-6.17,1.25A3.3,3.3,0,0,1,60.46,186.07Z"/><path class="cls-179" d="M68.49,103.08a1.79,1.79,0,0,1,.56.37l0,0a1.81,1.81,0,1,0-2.93.62A1.81,1.81,0,0,1,68.49,103.08Z"/><path class="cls-180" d="M112.81,171.22a2,2,0,0,1,2.6-1.09,2,2,0,0,1,.7.49,2,2,0,1,0-3.32.68S112.8,171.24,112.81,171.22Z"/><path class="cls-181" d="M62.12,175a2,2,0,0,1,2.6-1.09,2,2,0,0,1,.7.49,2,2,0,1,0-3.32.68S62.11,175,62.12,175Z"/><path class="cls-182" d="M114.17,146.15a2.8,2.8,0,0,1,4.94-.47,2.8,2.8,0,1,0-5.11,1A2.81,2.81,0,0,1,114.17,146.15Z"/><path class="cls-183" d="M115.55,133.17a4.44,4.44,0,0,1,8.15-.19,4.44,4.44,0,1,0-8.46,1.72A4.41,4.41,0,0,1,115.55,133.17Z"/></g></g></svg>