<svg xmlns="http://www.w3.org/2000/svg" xmlns:xlink="http://www.w3.org/1999/xlink" viewBox="0 0 250 250"><defs><style>.cls-1{isolation:isolate;}.cls-2{fill:url(#radial-gradient);}.cls-3{fill:url(#radial-gradient-2);}.cls-106,.cls-107,.cls-119,.cls-120,.cls-129,.cls-13,.cls-134,.cls-135,.cls-14,.cls-145,.cls-15,.cls-150,.cls-151,.cls-25,.cls-30,.cls-31,.cls-4,.cls-41,.cls-46,.cls-47,.cls-5,.cls-57,.cls-62,.cls-63,.cls-73,.cls-78,.cls-79,.cls-8,.cls-93,.cls-94{mix-blend-mode:screen;}.cls-4{fill:url(#radial-gradient-3);}.cls-5{fill:url(#radial-gradient-4);}.cls-100,.cls-113,.cls-127,.cls-143,.cls-159,.cls-160,.cls-161,.cls-162,.cls-163,.cls-164,.cls-165,.cls-166,.cls-167,.cls-168,.cls-169,.cls-170,.cls-171,.cls-172,.cls-173,.cls-174,.cls-175,.cls-176,.cls-177,.cls-178,.cls-179,.cls-180,.cls-181,.cls-182,.cls-183,.cls-23,.cls-39,.cls-55,.cls-6,.cls-71,.cls-87{opacity:0.45;}.cls-10,.cls-100,.cls-102,.cls-103,.cls-104,.cls-105,.cls-11,.cls-112,.cls-113,.cls-115,.cls-116,.cls-117,.cls-118,.cls-12,.cls-125,.cls-126,.cls-127,.cls-130,.cls-131,.cls-132,.cls-133,.cls-140,.cls-141,.cls-142,.cls-143,.cls-146,.cls-147,.cls-148,.cls-149,.cls-156,.cls-157,.cls-158,.cls-159,.cls-160,.cls-161,.cls-162,.cls-163,.cls-164,.cls-165,.cls-166,.cls-167,.cls-168,.cls-169,.cls-170,.cls-171,.cls-172,.cls-173,.cls-174,.cls-175,.cls-176,.cls-177,.cls-178,.cls-179,.cls-180,.cls-181,.cls-182,.cls-183,.cls-20,.cls-21,.cls-22,.cls-23,.cls-26,.cls-27,.cls-28,.cls-29,.cls-36,.cls-37,.cls-38,.cls-39,.cls-42,.cls-43,.cls-44,.cls-45,.cls-52,.cls-53,.cls-54,.cls-55,.cls-58,.cls-59,.cls-6,.cls-60,.cls-61,.cls-68,.cls-69,.cls-70,.cls-71,.cls-74,.cls-75,.cls-76,.cls-77,.cls-84,.cls-85,.cls-86,.cls-87,.cls-89,.cls-9,.cls-90,.cls-91,.cls-92,.cls-99{mix-blend-mode:multiply;}.cls-6{fill:url(#radial-gradient-5);}.cls-7{fill:url(#radial-gradient-6);}.cls-106,.cls-107,.cls-119,.cls-120,.cls-129,.cls-13,.cls-134,.cls-135,.cls-14,.cls-145,.cls-150,.cls-151,.cls-25,.cls-30,.cls-31,.cls-41,.cls-46,.cls-47,.cls-57,.cls-62,.cls-63,.cls-73,.cls-78,.cls-79,.cls-8,.cls-93,.cls-94{opacity:0.54;}.cls-8{fill:url(#radial-gradient-7);}.cls-9{fill:url(#radial-gradient-8);}.cls-10{fill:url(#radial-gradient-9);}.cls-11{fill:url(#radial-gradient-10);}.cls-12{fill:url(#radial-gradient-11);}.cls-13{fill:url(#radial-gradient-12);}.cls-14{fill:url(#radial-gradient-13);}.cls-16{fill:url(#radial-gradient-14);}.cls-17{fill:url(#radial-gradient-15);}.cls-18{fill:url(#radial-gradient-16);}.cls-19{fill:url(#radial-gradient-17);}.cls-20{fill:url(#radial-gradient-18);}.cls-21{fill:url(#radial-gradient-19);}.cls-22{fill:url(#radial-gradient-20);}.cls-23{fill:url(#radial-gradient-21);}.cls-24{fill:url(#radial-gradient-22);}.cls-25{fill:url(#radial-gradient-23);}.cls-26{fill:url(#radial-gradient-24);}.cls-27{fill:url(#radial-gradient-25);}.cls-28{fill:url(#radial-gradient-26);}.cls-29{fill:url(#radial-gradient-27);}.cls-30{fill:url(#radial-gradient-28);}.cls-31{fill:url(#radial-gradient-29);}.cls-32{fill:url(#radial-gradient-30);}.cls-33{fill:url(#radial-gradient-31);}.cls-34{fill:url(#radial-gradient-32);}.cls-35{fill:url(#radial-gradient-33);}.cls-36{fill:url(#radial-gradient-34);}.cls-37{fill:url(#radial-gradient-35);}.cls-38{fill:url(#radial-gradient-36);}.cls-39{fill:url(#radial-gradient-37);}.cls-40{fill:url(#radial-gradient-38);}.cls-41{fill:url(#radial-gradient-39);}.cls-42{fill:url(#radial-gradient-40);}.cls-43{fill:url(#radial-gradient-41);}.cls-44{fill:url(#radial-gradient-42);}.cls-45{fill:url(#radial-gradient-43);}.cls-46{fill:url(#radial-gradient-44);}.cls-47{fill:url(#radial-gradient-45);}.cls-48{fill:url(#radial-gradient-46);}.cls-49{fill:url(#radial-gradient-47);}.cls-50{fill:url(#radial-gradient-48);}.cls-51{fill:url(#radial-gradient-49);}.cls-52{fill:url(#radial-gradient-50);}.cls-53{fill:url(#radial-gradient-51);}.cls-54{fill:url(#radial-gradient-52);}.cls-55{fill:url(#radial-gradient-53);}.cls-56{fill:url(#radial-gradient-54);}.cls-57{fill:url(#radial-gradient-55);}.cls-58{fill:url(#radial-gradient-56);}.cls-59{fill:url(#radial-gradient-57);}.cls-60{fill:url(#radial-gradient-58);}.cls-61{fill:url(#radial-gradient-59);}.cls-62{fill:url(#radial-gradient-60);}.cls-63{fill:url(#radial-gradient-61);}.cls-64{fill:url(#radial-gradient-62);}.cls-65{fill:url(#radial-gradient-63);}.cls-66{fill:url(#radial-gradient-64);}.cls-67{fill:url(#radial-gradient-65);}.cls-68{fill:url(#radial-gradient-66);}.cls-69{fill:url(#radial-gradient-67);}.cls-70{fill:url(#radial-gradient-68);}.cls-71{fill:url(#radial-gradient-69);}.cls-72{fill:url(#radial-gradient-70);}.cls-73{fill:url(#radial-gradient-71);}.cls-74{fill:url(#radial-gradient-72);}.cls-75{fill:url(#radial-gradient-73);}.cls-76{fill:url(#radial-gradient-74);}.cls-77{fill:url(#radial-gradient-75);}.cls-78{fill:url(#radial-gradient-76);}.cls-79{fill:url(#radial-gradient-77);}.cls-80{fill:url(#radial-gradient-78);}.cls-81{fill:url(#radial-gradient-79);}.cls-82{fill:url(#radial-gradient-80);}.cls-83{fill:url(#radial-gradient-81);}.cls-84{fill:url(#radial-gradient-82);}.cls-85{fill:url(#radial-gradient-83);}.cls-86{fill:url(#radial-gradient-84);}.cls-87{fill:url(#radial-gradient-85);}.cls-88{fill:url(#radial-gradient-86);}.cls-89{fill:url(#radial-gradient-87);}.cls-90{fill:url(#radial-gradient-88);}.cls-91{fill:url(#radial-gradient-89);}.cls-92{fill:url(#radial-gradient-90);}.cls-93{fill:url(#radial-gradient-91);}.cls-94{fill:url(#radial-gradient-92);}.cls-95{fill:url(#radial-gradient-93);}.cls-96{fill:url(#radial-gradient-94);}.cls-97{fill:url(#radial-gradient-95);}.cls-98{fill:url(#radial-gradient-96);}.cls-99{fill:url(#radial-gradient-97);}.cls-100{fill:url(#radial-gradient-98);}.cls-101{fill:url(#radial-gradient-99);}.cls-102{fill:url(#radial-gradient-100);}.cls-103{fill:url(#radial-gradient-101);}.cls-104{fill:url(#radial-gradient-102);}.cls-105{fill:url(#radial-gradient-103);}.cls-106{fill:url(#radial-gradient-104);}.cls-107{fill:url(#radial-gradient-105);}.cls-108{fill:url(#radial-gradient-106);}.cls-109{fill:url(#radial-gradient-107);}.cls-110{fill:url(#radial-gradient-108);}.cls-111{fill:url(#radial-gradient-109);}.cls-112{fill:url(#radial-gradient-110);}.cls-113{fill:url(#radial-gradient-111);}.cls-114{fill:url(#radial-gradient-112);}.cls-115{fill:url(#radial-gradient-113);}.cls-116{fill:url(#radial-gradient-114);}.cls-117{fill:url(#radial-gradient-115);}.cls-118{fill:url(#radial-gradient-116);}.cls-119{fill:url(#radial-gradient-117);}.cls-120{fill:url(#radial-gradient-118);}.cls-121{fill:url(#radial-gradient-119);}.cls-122{fill:url(#radial-gradient-120);}.cls-123{fill:url(#radial-gradient-121);}.cls-124{fill:url(#radial-gradient-122);}.cls-125{fill:url(#radial-gradient-123);}.cls-126{opacity:0.35;fill:url(#radial-gradient-124);}.cls-127{fill:url(#radial-gradient-125);}.cls-128{fill:url(#radial-gradient-126);}.cls-129{fill:url(#radial-gradient-127);}.cls-130{fill:url(#radial-gradient-128);}.cls-131{fill:url(#radial-gradient-129);}.cls-132{fill:url(#radial-gradient-130);}.cls-133{fill:url(#radial-gradient-131);}.cls-134{fill:url(#radial-gradient-132);}.cls-135{fill:url(#radial-gradient-133);}.cls-136{fill:url(#radial-gradient-134);}.cls-137{fill:url(#radial-gradient-135);}.cls-138{fill:url(#radial-gradient-136);}.cls-139{fill:url(#radial-gradient-137);}.cls-140{fill:url(#radial-gradient-138);}.cls-141{fill:url(#radial-gradient-139);}.cls-142{fill:url(#radial-gradient-140);}.cls-143{fill:url(#radial-gradient-141);}.cls-144{fill:url(#radial-gradient-142);}.cls-145{fill:url(#radial-gradient-143);}.cls-146{fill:url(#radial-gradient-144);}.cls-147{fill:url(#radial-gradient-145);}.cls-148{fill:url(#radial-gradient-146);}.cls-149{fill:url(#radial-gradient-147);}.cls-150{fill:url(#radial-gradient-148);}.cls-151{fill:url(#radial-gradient-149);}.cls-152{fill:url(#radial-gradient-150);}.cls-153{fill:url(#radial-gradient-151);}.cls-154{fill:url(#radial-gradient-152);}.cls-155{fill:url(#radial-gradient-153);}.cls-156{fill:url(#radial-gradient-154);}.cls-157{fill:url(#radial-gradient-155);}.cls-158{fill:url(#radial-gradient-156);}.cls-159{fill:url(#radial-gradient-157);}.cls-160{fill:url(#radial-gradient-158);}.cls-161{fill:url(#radial-gradient-159);}.cls-162{fill:url(#radial-gradient-160);}.cls-163{fill:url(#radial-gradient-161);}.cls-164{fill:url(#radial-gradient-162);}.cls-165{fill:url(#radial-gradient-163);}.cls-166{fill:url(#radial-gradient-164);}.cls-167{fill:url(#radial-gradient-165);}.cls-168{fill:url(#radial-gradient-166);}.cls-169{fill:url(#radial-gradient-167);}.cls-170{fill:url(#radial-gradient-168);}.cls-171{fill:url(#radial-gradient-169);}.cls-172{fill:url(#radial-gradient-170);}.cls-173{fill:url(#radial-gradient-171);}.cls-174{fill:url(#radial-gradient-172);}.cls-175{fill:url(#radial-gradient-173);}.cls-176{fill:url(#radial-gradient-174);}.cls-177{fill:url(#radial-gradient-175);}.cls-178{fill:url(#radial-gradient-176);}.cls-179{fill:url(#radial-gradient-177);}.cls-180{fill:url(#radial-gradient-178);}.cls-181{fill:url(#radial-gradient-179);}.cls-182{fill:url(#radial-gradient-180);}.cls-183{fill:url(#radial-gradient-181);}</style><radialGradient id="radial-gradient" cx="125.29" cy="127.21" r="120.03" gradientUnits="userSpaceOnUse"><stop offset="0" stop-color="#ffe245"/><stop offset="0.37" stop-color="#fee245" stop-opacity="0.99"/><stop offset="0.51" stop-color="#fae244" stop-opacity="0.97"/><stop offset="0.6" stop-color="#f2e243" stop-opacity="0.92"/><stop offset="0.68" stop-color="#e8e241" stop-opacity="0.85"/><stop offset="0.74" stop-color="#dae23e" stop-opacity="0.77"/><stop offset="0.8" stop-color="#c9e23b" stop-opacity="0.66"/><stop offset="0.85" stop-color="#b5e237" stop-opacity="0.53"/><stop offset="0.9" stop-color="#9ee333" stop-opacity="0.39"/><stop offset="0.95" stop-color="#83e32d" stop-opacity="0.22"/><stop offset="0.99" stop-color="#67e328" stop-opacity="0.04"/><stop offset="1" stop-color="#61e327" stop-opacity="0"/></radialGradient><radialGradient id="radial-gradient-2" cx="101.46" cy="33.92" r="201.33" gradientUnits="userSpaceOnUse"><stop offset="0.08" stop-color="#ffe245"/><stop offset="1" stop-color="#61e327"/></radialGradient><radialGradient id="radial-gradient-3" cx="-238.13" cy="66.45" r="160.86" gradientTransform="matrix(1.34, -0.17, 0.15, 1.18, 329.78, -145.52)" xlink:href="#radial-gradient-2"/><radialGradient id="radial-gradient-4" cx="94.21" cy="32.87" r="172.49" xlink:href="#radial-gradient-2"/><radialGradient id="radial-gradient-5" cx="-854.85" cy="-612.1" r="82.84" gradientTransform="translate(-848.57 423.43) rotate(133.61)" xlink:href="#radial-gradient-2"/><radialGradient id="radial-gradient-6" cx="-853.79" cy="-619.63" r="85.02" gradientTransform="translate(-848.57 423.43) rotate(133.61)" xlink:href="#radial-gradient-2"/><radialGradient id="radial-gradient-7" cx="-854.05" cy="-613.3" r="65.48" gradientTransform="translate(-848.57 423.43) rotate(133.61)" xlink:href="#radial-gradient-2"/><radialGradient id="radial-gradient-8" cx="-853.81" cy="-603.52" r="74.59" gradientTransform="translate(-848.57 423.43) rotate(133.61)" xlink:href="#radial-gradient-2"/><radialGradient id="radial-gradient-9" cx="-1097.26" cy="-891.43" r="85.02" gradientTransform="matrix(-0.64, 0.41, -0.29, -0.45, -788.98, 293.67)" xlink:href="#radial-gradient-2"/><radialGradient id="radial-gradient-10" cx="-834.77" cy="-602.48" r="45.46" gradientTransform="translate(-848.57 423.43) rotate(133.61)" xlink:href="#radial-gradient-2"/><radialGradient id="radial-gradient-11" cx="-853.79" cy="-619.63" r="85.02" gradientTransform="translate(-848.57 423.43) rotate(133.61)" xlink:href="#radial-gradient-2"/><radialGradient id="radial-gradient-12" cx="-802.55" cy="-564.84" r="12.64" gradientTransform="translate(-848.57 423.43) rotate(133.61)" xlink:href="#radial-gradient-2"/><radialGradient id="radial-gradient-13" cx="-852.98" cy="-575.85" r="19.51" gradientTransform="translate(-848.57 423.43) rotate(133.61)" xlink:href="#radial-gradient-2"/><radialGradient id="radial-gradient-14" cx="-853.59" cy="-612.67" r="115.62" gradientTransform="matrix(-0.7, 0.71, -0.71, -0.7, -853.21, 415.86)" xlink:href="#radial-gradient-2"/><radialGradient id="radial-gradient-15" cx="-853.59" cy="-612.67" r="115.62" gradientTransform="matrix(-0.7, 0.71, -0.71, -0.7, -853.21, 415.86)" xlink:href="#radial-gradient-2"/><radialGradient id="radial-gradient-16" cx="-853.59" cy="-612.67" r="115.62" gradientTransform="matrix(-0.7, 0.71, -0.71, -0.7, -853.21, 415.86)" xlink:href="#radial-gradient-2"/><radialGradient id="radial-gradient-17" cx="-853.59" cy="-612.68" r="115.62" gradientTransform="matrix(-0.7, 0.71, -0.71, -0.7, -853.21, 415.86)" xlink:href="#radial-gradient-2"/><radialGradient id="radial-gradient-18" cx="-876.59" cy="-591.5" r="39.34" gradientTransform="translate(-706.45 -362.14) rotate(180)" xlink:href="#radial-gradient-2"/><radialGradient id="radial-gradient-19" cx="-964.79" cy="-511.13" r="39.34" gradientTransform="translate(-792.99 -276.42) rotate(-180)" xlink:href="#radial-gradient-2"/><radialGradient id="radial-gradient-20" cx="-964.79" cy="-511.13" r="39.34" gradientTransform="translate(-795.05 -277.11) rotate(-180)" xlink:href="#radial-gradient-2"/><radialGradient id="radial-gradient-21" cx="-391.78" cy="518.21" r="74.75" gradientTransform="matrix(0.42, -0.76, 0.88, 0.4, -241.82, -466.6)" xlink:href="#radial-gradient-2"/><radialGradient id="radial-gradient-22" cx="-390.82" cy="511.42" r="76.71" gradientTransform="matrix(0.42, -0.76, 0.88, 0.4, -241.82, -466.6)" xlink:href="#radial-gradient-2"/><radialGradient id="radial-gradient-23" cx="-391.05" cy="517.13" r="59.08" gradientTransform="matrix(0.42, -0.76, 0.88, 0.4, -241.82, -466.6)" xlink:href="#radial-gradient-2"/><radialGradient id="radial-gradient-24" cx="-390.84" cy="525.95" r="67.3" gradientTransform="matrix(0.42, -0.76, 0.88, 0.4, -241.82, -466.6)" xlink:href="#radial-gradient-2"/><radialGradient id="radial-gradient-25" cx="-154.26" cy="977.39" r="76.71" gradientTransform="matrix(0.47, -0.49, 0.4, 0.3, -258.48, -344.99)" xlink:href="#radial-gradient-2"/><radialGradient id="radial-gradient-26" cx="-373.66" cy="526.9" r="41.01" gradientTransform="matrix(0.42, -0.76, 0.88, 0.4, -241.82, -466.6)" xlink:href="#radial-gradient-2"/><radialGradient id="radial-gradient-27" cx="-390.82" cy="511.42" r="76.71" gradientTransform="matrix(0.42, -0.76, 0.88, 0.4, -241.82, -466.6)" xlink:href="#radial-gradient-2"/><radialGradient id="radial-gradient-28" cx="-344.59" cy="560.85" r="11.41" gradientTransform="matrix(0.42, -0.76, 0.88, 0.4, -241.82, -466.6)" xlink:href="#radial-gradient-2"/><radialGradient id="radial-gradient-29" cx="-390.09" cy="550.92" r="17.61" gradientTransform="matrix(0.42, -0.76, 0.88, 0.4, -241.82, -466.6)" xlink:href="#radial-gradient-2"/><radialGradient id="radial-gradient-30" cx="-371.87" cy="509.61" r="104.31" gradientTransform="matrix(0.44, -0.75, 0.87, 0.42, -234.74, -461.64)" xlink:href="#radial-gradient-2"/><radialGradient id="radial-gradient-31" cx="-371.87" cy="509.61" r="104.31" gradientTransform="matrix(0.44, -0.75, 0.87, 0.42, -234.74, -461.64)" xlink:href="#radial-gradient-2"/><radialGradient id="radial-gradient-32" cx="-371.87" cy="509.61" r="104.31" gradientTransform="matrix(0.44, -0.75, 0.87, 0.42, -234.74, -461.64)" xlink:href="#radial-gradient-2"/><radialGradient id="radial-gradient-33" cx="-371.87" cy="509.61" r="104.3" gradientTransform="matrix(0.44, -0.75, 0.87, 0.42, -234.74, -461.64)" xlink:href="#radial-gradient-2"/><radialGradient id="radial-gradient-34" cx="-371.39" cy="521.52" r="35.49" gradientTransform="matrix(0.46, -0.75, 0.86, 0.43, -227.69, -456.45)" xlink:href="#radial-gradient-2"/><radialGradient id="radial-gradient-35" cx="-252.23" cy="480.35" r="35.49" gradientTransform="matrix(0.62, -0.65, 0.75, 0.57, -155.5, -394.89)" xlink:href="#radial-gradient-2"/><radialGradient id="radial-gradient-36" cx="-252.23" cy="480.35" r="35.49" gradientTransform="matrix(0.62, -0.65, 0.75, 0.57, -155.5, -394.89)" xlink:href="#radial-gradient-2"/><radialGradient id="radial-gradient-37" cx="88.27" cy="-488.78" r="58.81" gradientTransform="matrix(0.53, 0.69, -0.72, 0.64, -166.54, 353.13)" xlink:href="#radial-gradient-2"/><radialGradient id="radial-gradient-38" cx="89.02" cy="-494.12" r="60.36" gradientTransform="matrix(0.53, 0.69, -0.72, 0.64, -166.54, 353.13)" xlink:href="#radial-gradient-2"/><radialGradient id="radial-gradient-39" cx="88.83" cy="-489.63" r="46.48" gradientTransform="matrix(0.53, 0.69, -0.72, 0.64, -166.54, 353.13)" xlink:href="#radial-gradient-2"/><radialGradient id="radial-gradient-40" cx="89" cy="-482.68" r="52.95" gradientTransform="matrix(0.53, 0.69, -0.72, 0.64, -166.54, 353.13)" xlink:href="#radial-gradient-2"/><radialGradient id="radial-gradient-41" cx="137.35" cy="-1086.74" r="60.35" gradientTransform="matrix(0.26, 0.63, -0.44, 0.24, -270.63, 290.58)" xlink:href="#radial-gradient-2"/><radialGradient id="radial-gradient-42" cx="102.52" cy="-481.94" r="32.27" gradientTransform="matrix(0.53, 0.69, -0.72, 0.64, -166.54, 353.13)" xlink:href="#radial-gradient-2"/><radialGradient id="radial-gradient-43" cx="89.02" cy="-494.12" r="60.36" gradientTransform="matrix(0.53, 0.69, -0.72, 0.64, -166.54, 353.13)" xlink:href="#radial-gradient-2"/><radialGradient id="radial-gradient-44" cx="125.4" cy="-455.22" r="8.98" gradientTransform="matrix(0.53, 0.69, -0.72, 0.64, -166.54, 353.13)" xlink:href="#radial-gradient-2"/><radialGradient id="radial-gradient-45" cx="89.59" cy="-463.04" r="13.85" gradientTransform="matrix(0.53, 0.69, -0.72, 0.64, -166.54, 353.13)" xlink:href="#radial-gradient-2"/><radialGradient id="radial-gradient-46" cx="87.48" cy="-503.89" r="82.08" gradientTransform="matrix(0.51, 0.71, -0.73, 0.63, -173.19, 357.91)" xlink:href="#radial-gradient-2"/><radialGradient id="radial-gradient-47" cx="87.48" cy="-503.89" r="82.08" gradientTransform="matrix(0.51, 0.71, -0.73, 0.63, -173.19, 357.91)" xlink:href="#radial-gradient-2"/><radialGradient id="radial-gradient-48" cx="87.48" cy="-503.89" r="82.08" gradientTransform="matrix(0.51, 0.71, -0.73, 0.63, -173.19, 357.91)" xlink:href="#radial-gradient-2"/><radialGradient id="radial-gradient-49" cx="87.48" cy="-503.89" r="82.07" gradientTransform="matrix(0.51, 0.71, -0.73, 0.63, -173.19, 357.91)" xlink:href="#radial-gradient-2"/><radialGradient id="radial-gradient-50" cx="71.12" cy="-504.93" r="27.93" gradientTransform="matrix(0.5, 0.72, -0.74, 0.62, -181.84, 363.17)" xlink:href="#radial-gradient-2"/><radialGradient id="radial-gradient-51" cx="-20.01" cy="-610.84" r="27.93" gradientTransform="matrix(0.35, 0.82, -0.82, 0.46, -266.04, 403.43)" xlink:href="#radial-gradient-2"/><radialGradient id="radial-gradient-52" cx="-20.01" cy="-610.84" r="27.93" gradientTransform="matrix(0.35, 0.82, -0.82, 0.46, -266.04, 403.43)" xlink:href="#radial-gradient-2"/><radialGradient id="radial-gradient-53" cx="-274.33" cy="-683.26" r="39.37" gradientTransform="matrix(0.01, 0.87, -0.96, 0.09, -433.32, 472.15)" xlink:href="#radial-gradient-2"/><radialGradient id="radial-gradient-54" cx="-273.83" cy="-686.84" r="40.41" gradientTransform="matrix(0.01, 0.87, -0.96, 0.09, -433.32, 472.15)" xlink:href="#radial-gradient-2"/><radialGradient id="radial-gradient-55" cx="-273.95" cy="-683.83" r="31.12" gradientTransform="matrix(0.01, 0.87, -0.96, 0.09, -433.32, 472.15)" xlink:href="#radial-gradient-2"/><radialGradient id="radial-gradient-56" cx="-273.84" cy="-679.19" r="35.45" gradientTransform="matrix(0.01, 0.87, -0.96, 0.09, -433.32, 472.15)" xlink:href="#radial-gradient-2"/><radialGradient id="radial-gradient-57" cx="-392.66" cy="-1281.6" r="40.41" gradientTransform="matrix(-0.17, 0.66, -0.49, -0.06, -480.02, 358.76)" xlink:href="#radial-gradient-2"/><radialGradient id="radial-gradient-58" cx="-264.79" cy="-678.69" r="21.6" gradientTransform="matrix(0.01, 0.87, -0.96, 0.09, -433.32, 472.15)" xlink:href="#radial-gradient-2"/><radialGradient id="radial-gradient-59" cx="-273.83" cy="-686.84" r="40.41" gradientTransform="matrix(0.01, 0.87, -0.96, 0.09, -433.32, 472.15)" xlink:href="#radial-gradient-2"/><radialGradient id="radial-gradient-60" cx="-249.48" cy="-660.8" r="6.01" gradientTransform="matrix(0.01, 0.87, -0.96, 0.09, -433.32, 472.15)" xlink:href="#radial-gradient-2"/><radialGradient id="radial-gradient-61" cx="-273.45" cy="-666.03" r="9.27" gradientTransform="matrix(0.01, 0.87, -0.96, 0.09, -433.32, 472.15)" xlink:href="#radial-gradient-2"/><radialGradient id="radial-gradient-62" cx="-280.64" cy="-691.12" r="54.95" gradientTransform="matrix(-0.01, 0.87, -0.96, 0.07, -442.36, 471.94)" xlink:href="#radial-gradient-2"/><radialGradient id="radial-gradient-63" cx="-280.64" cy="-691.11" r="54.95" gradientTransform="matrix(-0.01, 0.87, -0.96, 0.07, -442.36, 471.94)" xlink:href="#radial-gradient-2"/><radialGradient id="radial-gradient-64" cx="-280.64" cy="-691.12" r="54.95" gradientTransform="matrix(-0.01, 0.87, -0.96, 0.07, -442.36, 471.94)" xlink:href="#radial-gradient-2"/><radialGradient id="radial-gradient-65" cx="-280.64" cy="-691.12" r="54.95" gradientTransform="matrix(-0.01, 0.87, -0.96, 0.07, -442.36, 471.94)" xlink:href="#radial-gradient-2"/><radialGradient id="radial-gradient-66" cx="-297.67" cy="-687.74" r="18.7" gradientTransform="matrix(-0.03, 0.87, -0.96, 0.06, -451.38, 470.97)" xlink:href="#radial-gradient-2"/><radialGradient id="radial-gradient-67" cx="-418.73" cy="-718.25" r="18.7" gradientTransform="matrix(-0.21, 0.87, -0.94, -0.12, -544.45, 453.33)" xlink:href="#radial-gradient-2"/><radialGradient id="radial-gradient-68" cx="-418.73" cy="-718.25" r="18.7" gradientTransform="matrix(-0.21, 0.87, -0.94, -0.12, -544.45, 453.33)" xlink:href="#radial-gradient-2"/><radialGradient id="radial-gradient-69" cx="-446.51" cy="709.02" r="58.81" gradientTransform="matrix(0.02, 0.87, 0.96, 0.06, -646.2, 520.65)" xlink:href="#radial-gradient-2"/><radialGradient id="radial-gradient-70" cx="-445.75" cy="703.68" r="60.36" gradientTransform="matrix(0.02, 0.87, 0.96, 0.06, -646.2, 520.65)" xlink:href="#radial-gradient-2"/><radialGradient id="radial-gradient-71" cx="-445.94" cy="708.18" r="46.48" gradientTransform="matrix(0.02, 0.87, 0.96, 0.06, -646.2, 520.65)" xlink:href="#radial-gradient-2"/><radialGradient id="radial-gradient-72" cx="-445.77" cy="715.12" r="52.95" gradientTransform="matrix(0.02, 0.87, 0.96, 0.06, -646.2, 520.65)" xlink:href="#radial-gradient-2"/><radialGradient id="radial-gradient-73" cx="-171.47" cy="1353.82" r="60.36" gradientTransform="matrix(0.19, 0.65, 0.49, -0.08, -603.69, 406.21)" xlink:href="#radial-gradient-2"/><radialGradient id="radial-gradient-74" cx="-432.25" cy="715.86" r="32.27" gradientTransform="matrix(0.02, 0.87, 0.96, 0.06, -646.2, 520.65)" xlink:href="#radial-gradient-2"/><radialGradient id="radial-gradient-75" cx="-445.75" cy="703.68" r="60.36" gradientTransform="matrix(0.02, 0.87, 0.96, 0.06, -646.2, 520.65)" xlink:href="#radial-gradient-2"/><radialGradient id="radial-gradient-76" cx="-409.38" cy="742.58" r="8.98" gradientTransform="matrix(0.02, 0.87, 0.96, 0.06, -646.2, 520.65)" xlink:href="#radial-gradient-2"/><radialGradient id="radial-gradient-77" cx="-445.18" cy="734.77" r="13.85" gradientTransform="matrix(0.02, 0.87, 0.96, 0.06, -646.2, 520.65)" xlink:href="#radial-gradient-2"/><radialGradient id="radial-gradient-78" cx="-425.99" cy="702.08" r="82.07" gradientTransform="matrix(0.03, 0.87, 0.96, 0.04, -636.96, 520.29)" xlink:href="#radial-gradient-2"/><radialGradient id="radial-gradient-79" cx="-425.99" cy="702.08" r="82.07" gradientTransform="matrix(0.03, 0.87, 0.96, 0.04, -636.96, 520.29)" xlink:href="#radial-gradient-2"/><radialGradient id="radial-gradient-80" cx="-425.99" cy="702.08" r="82.07" gradientTransform="matrix(0.03, 0.87, 0.96, 0.04, -636.96, 520.29)" xlink:href="#radial-gradient-2"/><radialGradient id="radial-gradient-81" cx="-425.99" cy="702.08" r="82.07" gradientTransform="matrix(0.03, 0.87, 0.96, 0.04, -636.96, 520.29)" xlink:href="#radial-gradient-2"/><radialGradient id="radial-gradient-82" cx="-418.79" cy="710.87" r="27.93" gradientTransform="matrix(0.05, 0.87, 0.96, 0.03, -627.28, 518.43)" xlink:href="#radial-gradient-2"/><radialGradient id="radial-gradient-83" cx="-261.82" cy="677" r="27.93" gradientTransform="matrix(0.24, 0.86, 0.93, -0.15, -535.67, 497.99)" xlink:href="#radial-gradient-2"/><radialGradient id="radial-gradient-84" cx="-261.82" cy="677" r="27.93" gradientTransform="matrix(0.24, 0.86, 0.93, -0.15, -535.67, 497.99)" xlink:href="#radial-gradient-2"/><radialGradient id="radial-gradient-85" cx="30.07" cy="-38.49" r="73.46" gradientTransform="matrix(0.48, 1.18, -1.04, 0.62, 40.37, 30.88)" xlink:href="#radial-gradient-2"/><radialGradient id="radial-gradient-86" cx="98.85" cy="-36.49" r="80.04" gradientTransform="matrix(0.43, 1.05, -0.92, 0.55, 16.38, -44)" xlink:href="#radial-gradient-2"/><radialGradient id="radial-gradient-87" cx="87.08" cy="60.31" r="76.28" gradientTransform="translate(91.69 -46.19) rotate(57.26) scale(1 1.02)" xlink:href="#radial-gradient-2"/><radialGradient id="radial-gradient-88" cx="78.73" cy="116.49" r="65.72" gradientTransform="matrix(0.62, 0.8, -0.78, 0.64, 127.5, -80.67)" xlink:href="#radial-gradient-2"/><radialGradient id="radial-gradient-89" cx="89.1" cy="67.04" r="58.49" gradientTransform="translate(98.39 -44.87) rotate(57.26) scale(1 1.02)" xlink:href="#radial-gradient-2"/><radialGradient id="radial-gradient-90" cx="88.87" cy="54.99" r="62.08" gradientTransform="translate(87.96 -50.08) rotate(57.26) scale(1 1.02)" xlink:href="#radial-gradient-2"/><radialGradient id="radial-gradient-91" cx="76.59" cy="80.33" r="46.3" gradientTransform="translate(104.04 -28.38) rotate(57.26) scale(1 1.02)" xlink:href="#radial-gradient-2"/><radialGradient id="radial-gradient-92" cx="121.59" cy="54.56" r="38.13" gradientTransform="translate(102.6 -77.79) rotate(57.26) scale(1 1.02)" xlink:href="#radial-gradient-2"/><radialGradient id="radial-gradient-93" cx="88.46" cy="64.05" r="111.39" xlink:href="#radial-gradient-2"/><radialGradient id="radial-gradient-94" cx="88.46" cy="64.05" r="111.39" xlink:href="#radial-gradient-2"/><radialGradient id="radial-gradient-95" cx="88.46" cy="64.05" r="111.39" xlink:href="#radial-gradient-2"/><radialGradient id="radial-gradient-96" cx="88.46" cy="64.05" r="111.39" xlink:href="#radial-gradient-2"/><radialGradient id="radial-gradient-97" cx="88.69" cy="97.53" r="7.24" xlink:href="#radial-gradient-2"/><radialGradient id="radial-gradient-98" cx="-941.14" cy="-477.09" r="60.42" gradientTransform="matrix(-1.15, -0.54, 0.34, -1.16, -722.65, -895.28)" xlink:href="#radial-gradient-2"/><radialGradient id="radial-gradient-99" cx="-989.46" cy="-530.07" r="65.82" gradientTransform="matrix(-1.03, -0.48, 0.3, -1.03, -652.06, -855.93)" xlink:href="#radial-gradient-2"/><radialGradient id="radial-gradient-100" cx="-928.28" cy="-643.92" r="62.73" gradientTransform="matrix(-0.97, -0.25, 0.25, -0.99, -540.28, -716.47)" xlink:href="#radial-gradient-2"/><radialGradient id="radial-gradient-101" cx="-871.62" cy="-674.28" r="54.05" gradientTransform="matrix(-0.99, -0.16, 0.14, -1, -575.66, -668.39)" xlink:href="#radial-gradient-2"/><radialGradient id="radial-gradient-102" cx="-926.62" cy="-638.38" r="48.1" gradientTransform="matrix(-0.97, -0.25, 0.25, -0.99, -545.06, -713.52)" xlink:href="#radial-gradient-2"/><radialGradient id="radial-gradient-103" cx="-926.8" cy="-648.29" r="51.06" gradientTransform="matrix(-0.97, -0.25, 0.25, -0.99, -535.85, -716.21)" xlink:href="#radial-gradient-2"/><radialGradient id="radial-gradient-104" cx="-936.9" cy="-627.45" r="38.08" gradientTransform="matrix(-0.97, -0.25, 0.25, -0.99, -557.68, -720.29)" xlink:href="#radial-gradient-2"/><radialGradient id="radial-gradient-105" cx="-899.9" cy="-648.65" r="31.36" gradientTransform="matrix(-0.97, -0.25, 0.25, -0.99, -529.18, -691.32)" xlink:href="#radial-gradient-2"/><radialGradient id="radial-gradient-106" cx="-927.14" cy="-640.84" r="91.6" gradientTransform="matrix(-0.73, 0.68, -0.68, -0.73, -922.73, 309.62)" xlink:href="#radial-gradient-2"/><radialGradient id="radial-gradient-107" cx="-927.14" cy="-640.84" r="91.61" gradientTransform="matrix(-0.73, 0.68, -0.68, -0.73, -922.73, 309.62)" xlink:href="#radial-gradient-2"/><radialGradient id="radial-gradient-108" cx="-927.14" cy="-640.84" r="91.6" gradientTransform="matrix(-0.73, 0.68, -0.68, -0.73, -922.73, 309.62)" xlink:href="#radial-gradient-2"/><radialGradient id="radial-gradient-109" cx="-927.14" cy="-640.84" r="91.6" gradientTransform="matrix(-0.73, 0.68, -0.68, -0.73, -922.73, 309.62)" xlink:href="#radial-gradient-2"/><radialGradient id="radial-gradient-110" cx="-447.28" cy="-723.42" r="6.3" gradientTransform="translate(-582.48 514.07) rotate(94.78)" xlink:href="#radial-gradient-2"/><radialGradient id="radial-gradient-111" cx="-76.62" cy="-382.71" r="47.29" gradientTransform="matrix(0.09, -1.27, -1.18, -0.27, -341.28, -2.23)" xlink:href="#radial-gradient-2"/><radialGradient id="radial-gradient-112" cx="-21" cy="-422.08" r="51.52" gradientTransform="matrix(0.09, -1.13, -1.05, -0.24, -340.32, 75.89)" xlink:href="#radial-gradient-2"/><radialGradient id="radial-gradient-113" cx="21.53" cy="-414.16" r="49.1" gradientTransform="matrix(0.26, -0.97, -0.99, -0.26, -320, 102.88)" xlink:href="#radial-gradient-2"/><radialGradient id="radial-gradient-114" cx="63.42" cy="-353.07" r="42.31" gradientTransform="matrix(0.34, -0.95, -0.94, -0.37, -261.75, 121.51)" xlink:href="#radial-gradient-2"/><radialGradient id="radial-gradient-115" cx="22.83" cy="-409.83" r="37.65" gradientTransform="matrix(0.26, -0.97, -0.99, -0.26, -316.15, 100.75)" xlink:href="#radial-gradient-2"/><radialGradient id="radial-gradient-116" cx="22.69" cy="-417.59" r="39.96" gradientTransform="matrix(0.26, -0.97, -0.99, -0.26, -321.52, 106)" xlink:href="#radial-gradient-2"/><radialGradient id="radial-gradient-117" cx="14.78" cy="-401.28" r="29.8" gradientTransform="matrix(0.26, -0.97, -0.99, -0.26, -315.94, 89.53)" xlink:href="#radial-gradient-2"/><radialGradient id="radial-gradient-118" cx="43.74" cy="-417.87" r="24.55" gradientTransform="matrix(0.26, -0.97, -0.99, -0.26, -307.08, 120.09)" xlink:href="#radial-gradient-2"/><radialGradient id="radial-gradient-119" cx="22.42" cy="-411.76" r="71.7" gradientTransform="matrix(0.95, -0.31, -0.31, -0.95, -53.86, -197.01)" xlink:href="#radial-gradient-2"/><radialGradient id="radial-gradient-120" cx="22.42" cy="-411.76" r="71.7" gradientTransform="matrix(0.95, -0.31, -0.31, -0.95, -53.86, -197.01)" xlink:href="#radial-gradient-2"/><radialGradient id="radial-gradient-121" cx="22.42" cy="-411.76" r="71.7" gradientTransform="matrix(0.95, -0.31, -0.31, -0.95, -53.86, -197.01)" xlink:href="#radial-gradient-2"/><radialGradient id="radial-gradient-122" cx="22.42" cy="-411.76" r="71.7" gradientTransform="matrix(0.95, -0.31, -0.31, -0.95, -53.86, -197.01)" xlink:href="#radial-gradient-2"/><radialGradient id="radial-gradient-123" cx="103.83" cy="80.1" r="4.93" gradientTransform="matrix(0.91, 0.41, 0.41, -0.91, -41.15, 198.51)" xlink:href="#radial-gradient-2"/><radialGradient id="radial-gradient-124" cx="105.88" cy="66.16" r="193.54" gradientUnits="userSpaceOnUse"><stop offset="0" stop-color="#8ee1ee"/><stop offset="0.62" stop-color="#5e8dec"/><stop offset="0.63" stop-color="#5f89e8"/><stop offset="0.74" stop-color="#6b64c7"/><stop offset="0.84" stop-color="#714eb3"/><stop offset="0.9" stop-color="#7446ac"/></radialGradient><radialGradient id="radial-gradient-125" cx="157.84" cy="12.29" r="82.84" xlink:href="#radial-gradient-2"/><radialGradient id="radial-gradient-126" cx="158.9" cy="4.77" r="85.02" xlink:href="#radial-gradient-2"/><radialGradient id="radial-gradient-127" cx="158.64" cy="11.1" r="65.48" xlink:href="#radial-gradient-2"/><radialGradient id="radial-gradient-128" cx="158.87" cy="20.87" r="74.59" xlink:href="#radial-gradient-2"/><radialGradient id="radial-gradient-129" cx="393.15" cy="-197.91" r="85.02" gradientTransform="matrix(0.74, 0.18, -0.13, 0.51, -134.69, 46.06)" xlink:href="#radial-gradient-2"/><radialGradient id="radial-gradient-130" cx="177.92" cy="21.92" r="45.46" xlink:href="#radial-gradient-2"/><radialGradient id="radial-gradient-131" cx="158.9" cy="4.77" r="85.02" xlink:href="#radial-gradient-2"/><radialGradient id="radial-gradient-132" cx="210.14" cy="59.55" r="12.64" xlink:href="#radial-gradient-2"/><radialGradient id="radial-gradient-133" cx="159.71" cy="48.55" r="19.51" xlink:href="#radial-gradient-2"/><radialGradient id="radial-gradient-134" cx="169.53" cy="-5.98" r="115.62" gradientTransform="translate(-1.73 8.27) rotate(1.01)" xlink:href="#radial-gradient-2"/><radialGradient id="radial-gradient-135" cx="169.53" cy="-5.98" r="115.62" gradientTransform="translate(-1.73 8.27) rotate(1.01)" xlink:href="#radial-gradient-2"/><radialGradient id="radial-gradient-136" cx="169.53" cy="-5.98" r="115.61" gradientTransform="translate(-1.73 8.27) rotate(1.01)" xlink:href="#radial-gradient-2"/><radialGradient id="radial-gradient-137" cx="169.53" cy="-5.97" r="115.61" gradientTransform="translate(-1.73 8.27) rotate(1.01)" xlink:href="#radial-gradient-2"/><radialGradient id="radial-gradient-138" cx="159" cy="-3.65" r="39.34" gradientTransform="translate(175.74 -128.44) rotate(90)" xlink:href="#radial-gradient-2"/><radialGradient id="radial-gradient-139" cx="164.58" cy="-138.51" r="39.34" gradientTransform="matrix(0, 1, -1, 0, 48.88, -140.42)" xlink:href="#radial-gradient-2"/><radialGradient id="radial-gradient-140" cx="164.58" cy="-138.51" r="39.34" gradientTransform="translate(49.16 -135.67) rotate(90)" xlink:href="#radial-gradient-2"/><radialGradient id="radial-gradient-141" cx="-1059.79" cy="426.11" r="74.75" gradientTransform="matrix(-0.63, 0.6, 0.61, 0.75, -903.95, 390.9)" xlink:href="#radial-gradient-2"/><radialGradient id="radial-gradient-142" cx="-1058.83" cy="419.32" r="76.71" gradientTransform="matrix(-0.63, 0.6, 0.61, 0.75, -903.95, 390.9)" xlink:href="#radial-gradient-2"/><radialGradient id="radial-gradient-143" cx="-1059.07" cy="425.03" r="59.08" gradientTransform="matrix(-0.63, 0.6, 0.61, 0.75, -903.95, 390.9)" xlink:href="#radial-gradient-2"/><radialGradient id="radial-gradient-144" cx="-1058.85" cy="433.85" r="67.3" gradientTransform="matrix(-0.63, 0.6, 0.61, 0.75, -903.95, 390.9)" xlink:href="#radial-gradient-2"/><radialGradient id="radial-gradient-145" cx="-1037.53" cy="1106.47" r="76.7" gradientTransform="matrix(-0.35, 0.58, 0.39, 0.31, -789.97, 344.33)" xlink:href="#radial-gradient-2"/><radialGradient id="radial-gradient-146" cx="-1041.67" cy="434.79" r="41.01" gradientTransform="matrix(-0.63, 0.6, 0.61, 0.75, -903.95, 390.9)" xlink:href="#radial-gradient-2"/><radialGradient id="radial-gradient-147" cx="-1058.83" cy="419.32" r="76.71" gradientTransform="matrix(-0.63, 0.6, 0.61, 0.75, -903.95, 390.9)" xlink:href="#radial-gradient-2"/><radialGradient id="radial-gradient-148" cx="-1012.6" cy="468.75" r="11.41" gradientTransform="matrix(-0.63, 0.6, 0.61, 0.75, -903.95, 390.9)" xlink:href="#radial-gradient-2"/><radialGradient id="radial-gradient-149" cx="-1058.1" cy="458.82" r="17.61" gradientTransform="matrix(-0.63, 0.6, 0.61, 0.75, -903.95, 390.9)" xlink:href="#radial-gradient-2"/><radialGradient id="radial-gradient-150" cx="-1041.31" cy="429.44" r="104.31" gradientTransform="matrix(-0.62, 0.62, 0.62, 0.74, -897.33, 396.43)" xlink:href="#radial-gradient-2"/><radialGradient id="radial-gradient-151" cx="-1041.31" cy="429.44" r="104.31" gradientTransform="matrix(-0.62, 0.62, 0.62, 0.74, -897.33, 396.43)" xlink:href="#radial-gradient-2"/><radialGradient id="radial-gradient-152" cx="-1041.31" cy="429.44" r="104.31" gradientTransform="matrix(-0.62, 0.62, 0.62, 0.74, -897.33, 396.43)" xlink:href="#radial-gradient-2"/><radialGradient id="radial-gradient-153" cx="-1041.3" cy="429.44" r="104.31" gradientTransform="matrix(-0.62, 0.62, 0.62, 0.74, -897.33, 396.43)" xlink:href="#radial-gradient-2"/><radialGradient id="radial-gradient-154" cx="-1042.19" cy="453.43" r="35.49" gradientTransform="matrix(-0.61, 0.63, 0.63, 0.72, -890.1, 402.21)" xlink:href="#radial-gradient-2"/><radialGradient id="radial-gradient-155" cx="-923.79" cy="546.3" r="35.49" gradientTransform="matrix(-0.47, 0.76, 0.74, 0.59, -813.28, 456.38)" xlink:href="#radial-gradient-2"/><radialGradient id="radial-gradient-156" cx="-923.79" cy="546.3" r="35.49" gradientTransform="matrix(-0.47, 0.76, 0.74, 0.59, -813.28, 456.38)" xlink:href="#radial-gradient-2"/><radialGradient id="radial-gradient-157" cx="98.94" cy="41.57" r="172.03" gradientTransform="matrix(0.5, 0.86, -0.91, 0.53, 87.21, -66.04)" xlink:href="#radial-gradient-2"/><radialGradient id="radial-gradient-158" cx="54.77" cy="64.83" r="4.64" gradientTransform="matrix(0.5, 0.86, -0.91, 0.53, 86.47, -16.92)" xlink:href="#radial-gradient-2"/><radialGradient id="radial-gradient-159" cx="57.06" cy="154.26" r="4.76" gradientTransform="matrix(0.5, 0.86, -0.91, 0.53, 169.27, 23.1)" xlink:href="#radial-gradient-2"/><radialGradient id="radial-gradient-160" cx="50.1" cy="144.32" r="7.87" gradientTransform="matrix(0.5, 0.86, -0.91, 0.53, 156.72, 24.45)" xlink:href="#radial-gradient-2"/><radialGradient id="radial-gradient-161" cx="39.64" cy="153.5" r="4.99" gradientTransform="matrix(0.5, 0.86, -0.91, 0.53, 159.9, 37.8)" xlink:href="#radial-gradient-2"/><radialGradient id="radial-gradient-162" cx="62.47" cy="69.33" r="5.5" gradientTransform="matrix(0.5, 0.86, -0.91, 0.53, 94.4, -21.47)" xlink:href="#radial-gradient-2"/><radialGradient id="radial-gradient-163" cx="58.06" cy="76.74" r="7.97" gradientTransform="matrix(0.5, 0.86, -0.91, 0.53, 98.98, -14.17)" xlink:href="#radial-gradient-2"/><radialGradient id="radial-gradient-164" cx="182.59" cy="165.58" r="4.51" gradientTransform="matrix(0.5, 0.86, -0.91, 0.53, 242.09, -80.13)" xlink:href="#radial-gradient-2"/><radialGradient id="radial-gradient-165" cx="196.08" cy="98.14" r="4.76" gradientTransform="matrix(0.5, 0.86, -0.91, 0.53, 187.22, -123.47)" xlink:href="#radial-gradient-2"/><radialGradient id="radial-gradient-166" cx="132.58" cy="157.36" r="4.99" gradientTransform="matrix(0.5, 0.86, -0.91, 0.53, 209.69, -40.75)" xlink:href="#radial-gradient-2"/><radialGradient id="radial-gradient-167" cx="124.32" cy="47.98" r="6.88" gradientTransform="matrix(0.5, 0.86, -0.91, 0.53, 105.69, -84.97)" xlink:href="#radial-gradient-2"/><radialGradient id="radial-gradient-168" cx="130.42" cy="36.11" r="4.64" gradientTransform="matrix(0.5, 0.86, -0.91, 0.53, 97.88, -95.82)" xlink:href="#radial-gradient-2"/><radialGradient id="radial-gradient-169" cx="133.49" cy="52.69" r="4.37" gradientTransform="matrix(0.5, 0.86, -0.91, 0.53, 114.56, -90.69)" xlink:href="#radial-gradient-2"/><radialGradient id="radial-gradient-170" cx="71.94" cy="129.46" r="9.88" gradientTransform="matrix(0.5, 0.86, -0.91, 0.53, 154.03, -1.42)" xlink:href="#radial-gradient-2"/><radialGradient id="radial-gradient-171" cx="172.44" cy="88.77" r="9.84" gradientTransform="matrix(0.5, 0.86, -0.91, 0.53, 166.89, -107.43)" xlink:href="#radial-gradient-2"/><radialGradient id="radial-gradient-172" cx="140.9" cy="168.27" r="8.31" gradientTransform="matrix(0.5, 0.86, -0.91, 0.53, 223.8, -42.82)" xlink:href="#radial-gradient-2"/><radialGradient id="radial-gradient-173" cx="160.96" cy="86.55" r="4.51" gradientTransform="matrix(0.5, 0.86, -0.91, 0.53, 159.15, -98.55)" xlink:href="#radial-gradient-2"/><radialGradient id="radial-gradient-174" cx="176.61" cy="173.7" r="8.75" gradientTransform="matrix(0.5, 0.86, -0.91, 0.53, 246.52, -71.16)" xlink:href="#radial-gradient-2"/><radialGradient id="radial-gradient-175" cx="193.32" cy="156.4" r="7.43" gradientTransform="matrix(0.5, 0.86, -0.91, 0.53, 239.05, -93.72)" xlink:href="#radial-gradient-2"/><radialGradient id="radial-gradient-176" cx="90.82" cy="198.59" r="6.1" gradientTransform="matrix(0.5, 0.86, -0.91, 0.53, 226.55, 14.72)" xlink:href="#radial-gradient-2"/><radialGradient id="radial-gradient-177" cx="64.85" cy="124.48" r="3.53" gradientTransform="matrix(0.5, 0.86, -0.91, 0.53, 145.95, 2.38)" xlink:href="#radial-gradient-2"/><radialGradient id="radial-gradient-178" cx="131.34" cy="167.37" r="3.84" gradientTransform="matrix(0.5, 0.86, -0.91, 0.53, 218.21, -34.98)" xlink:href="#radial-gradient-2"/><radialGradient id="radial-gradient-179" cx="87.31" cy="189.25" r="3.84" gradientTransform="matrix(0.5, 0.86, -0.91, 0.53, 216.28, 13.37)" xlink:href="#radial-gradient-2"/><radialGradient id="radial-gradient-180" cx="123.96" cy="143.68" r="5.23" gradientTransform="matrix(0.5, 0.86, -0.91, 0.53, 192.91, -39.72)" xlink:href="#radial-gradient-2"/><radialGradient id="radial-gradient-181" cx="121.58" cy="130.04" r="7.97" gradientTransform="matrix(0.5, 0.86, -0.91, 0.53, 179.27, -44.06)" xlink:href="#radial-gradient-2"/></defs><title>footer-planet-1</title><g class="cls-1"><g id="OBJECTS"><circle class="cls-2" cx="125" cy="125" r="122.01"/><circle class="cls-3" cx="125" cy="125" r="97.56"/><path class="cls-4" d="M62.47,133.2c-3.84-3.75-23.28-28.39,6.74-65.93s83.69-28.15,94.3-12.56-2.81,31.63-28.33,35.65-32.49,37-48.53,43.65S66.47,137.11,62.47,133.2Z"/><path class="cls-5" d="M33.89,132.83A97.56,97.56,0,0,1,203.45,67,97.56,97.56,0,1,0,53,190.83,97.11,97.11,0,0,1,33.89,132.83Z"/><path class="cls-6" d="M90.95,216.56a97.71,97.71,0,0,0,90.91-11.81c.12-4.41-1.5-9-6.88-14.51-10-10.25-29.5-12.33-48.17-8.49s-36,16.2-36,32.79A18.59,18.59,0,0,0,90.95,216.56Z"/><path class="cls-7" d="M139.1,238.89c25.06-2.08,37.55-16.51,40-22.64,3.3-8.39,6.42-15.3-2.67-24.68s-27.61-10.53-45.59-6-35,17.1-35.76,33S114,241,139.1,238.89Z"/><path class="cls-8" d="M174.26,190.57c9.09,9.38,6,16.29,2.67,24.68-2.41,6.12-14.9,20.55-40,22.64-12.52,1-23.72-.07-31.69-3.43,8,4.13,20.13,5.57,33.82,4.43,25.06-2.08,37.55-16.51,40-22.64,3.29-8.39,6.42-15.3-2.67-24.68a24.47,24.47,0,0,0-8.06-5.36A23.28,23.28,0,0,1,174.26,190.57Z"/><path class="cls-9" d="M97.4,222.27c.72-15.9,17.78-28.5,35.76-33s36.5-3.35,45.59,6a29.94,29.94,0,0,1,2.13,2.46,23.79,23.79,0,0,0-4.49-6.19c-9.09-9.38-27.61-10.53-45.59-6s-35,17.1-35.76,33a15.17,15.17,0,0,0,3.64,10.89A15.69,15.69,0,0,1,97.4,222.27Z"/><path class="cls-10" d="M134,235.48c16.78-.26,28.71-8.48,31.9-12.08,4.36-4.93,8.22-9,4.83-15s-15.08-7.45-27.92-5.45-27.24,8.93-31.93,18.5S117.26,235.75,134,235.48Z"/><path class="cls-11" d="M134,235.48a52.09,52.09,0,0,0,10.57-1.27c-15.44-.2-25.25-4.92-20.78-14s17.37-15.65,29.57-18.08a67.08,67.08,0,0,0-10.56.84c-12.84,2-27.24,8.93-31.93,18.5S117.26,235.75,134,235.48Z"/><path class="cls-12" d="M134,235.48c16.78-.26,28.71-8.48,31.9-12.08,4.36-4.93,8.22-9,4.83-15a8.06,8.06,0,0,0-1.19-1.56,34,34,0,0,1-5.16,6.78c-3.19,3.6-15.11,11.82-31.9,12.08-9.74.15-17.51-1.39-21.43-4.56-.05.11-.12.21-.18.32C106.22,231,117.26,235.75,134,235.48Z"/><path class="cls-13" d="M100.92,228.16c.3,2.58,2,4.68,4.4,6.33,5.24,2.68,12.18,4.22,20.17,4.65a22.92,22.92,0,0,0,4.27-.56s3-2-1.9-2.87-19.88-1-19.26-11S99.83,218.69,100.92,228.16Z"/><path class="cls-14" d="M179.11,212s5-4.92-4.68-14.43-37.59-9.64-42.78-.07,11.79-1.34,29.2,1.64S173.18,216.6,179.11,212Z"/><g class="cls-15"><path class="cls-16" d="M153.95,195c-.06-.45,3.57-1.16,7.29-.74a30,30,0,0,1,7.23,1.77,30,30,0,0,1,6.1,4.26c2.77,2.52,4.64,5.7,4.26,6s-2.83-2.26-5.72-4.1a35.18,35.18,0,0,0-4.09-2.25c-1.15-.52-1.93-.83-1.93-.83s-.74-.39-1.9-.91a35.14,35.14,0,0,0-4.39-1.59C157.51,195.66,154,195.49,153.95,195Z"/><path class="cls-17" d="M140,196c-.13-.45,1-1.19,2.15-1.74a18.09,18.09,0,0,1,2.44-.91,18.1,18.1,0,0,1,2.59.24c1.29.22,2.53.66,2.53,1.12s-1.22.87-2.38,1.24l-2.3.71-2.4-.09C141.38,196.54,140.11,196.47,140,196Z"/><path class="cls-18" d="M109.06,233.27c.22-.41,2.64.36,5.07.89S119,235,119,235s2.34.71,4.78,1.21,5,.82,5,1.29-2.54,1-5.19,1.07a33.65,33.65,0,0,1-5.28-.3,33.67,33.67,0,0,1-4.93-1.91C111,235.23,108.85,233.67,109.06,233.27Z"/><path class="cls-19" d="M105.2,222.88c.41.21.39,1.34.65,2.3a8.77,8.77,0,0,0,.67,1.77,8.78,8.78,0,0,0,.3,1.87c.24,1,.83,1.93.58,2.32s-1.55,0-2.56-1a4.26,4.26,0,0,1-1.36-5.09C103.86,223.67,104.79,222.66,105.2,222.88Z"/></g><ellipse class="cls-20" cx="162.74" cy="212.07" rx="3.76" ry="1.54" transform="translate(-101.83 173.9) rotate(-44.29)"/><ellipse class="cls-21" cx="157" cy="216.7" rx="2.26" ry="0.92" transform="translate(-92.62 120.28) rotate(-32.96)"/><ellipse class="cls-22" cx="157.13" cy="212.87" rx="2.26" ry="0.92" transform="translate(-90.52 119.73) rotate(-32.96)"/><path class="cls-23" d="M127.06,27.54C99,25.45,71.37,35.7,54.11,55.55c1.09,3.32,3.67,6.41,9.65,9.39,11.12,5.54,28,3,42.61-3.83S132.16,41.42,127.71,29A13.92,13.92,0,0,0,127.06,27.54Z"/><path class="cls-24" d="M80.75,21c-20.43,6.85-27,20.26-27.39,25.34-.51,7-1.27,12.78,8.86,17.87s25.94,2,39.79-5.12,24.75-20.17,21.1-32.2S101.17,14.17,80.75,21Z"/><path class="cls-25" d="M64.28,64.54c-10.13-5.09-9.37-10.91-8.86-17.87.37-5.08,7-18.5,27.39-25.34,10.21-3.42,19.88-5,27.45-4.13-7.84-1.39-18.35.09-29.51,3.83-20.43,6.85-27,20.26-27.39,25.34-.51,7-1.27,12.78,8.86,17.87a24.27,24.27,0,0,0,8.19,2.3A23,23,0,0,1,64.28,64.54Z"/><path class="cls-26" d="M120.13,24.64c3.66,12-7.24,25-21.1,32.2S69.37,67,59.24,62c-.91-.46-1.7-.92-2.44-1.39a21.85,21.85,0,0,0,5.42,3.68c10.13,5.09,25.94,2,39.79-5.12s24.75-20.17,21.1-32.2a12.53,12.53,0,0,0-6-7.37A12.26,12.26,0,0,1,120.13,24.64Z"/><path class="cls-27" d="M85.9,22.5c-14,3.74-21.76,12.4-23.47,15.76-2.33,4.61-4.48,8.45,0,12.23S77,52.87,87.26,48.67,107.67,36.24,109,28.1,99.88,18.76,85.9,22.5Z"/><path class="cls-28" d="M85.9,22.5a47.42,47.42,0,0,0-8.51,3.18c13-3.11,22.46-1.66,21.16,6.09S88.2,47.13,78.64,51.52a61.87,61.87,0,0,0,8.62-2.86C97.47,44.46,107.67,36.24,109,28.1S99.88,18.76,85.9,22.5Z"/><path class="cls-29" d="M85.9,22.5c-14,3.74-21.76,12.4-23.47,15.76-2.33,4.61-4.48,8.45,0,12.23a7.48,7.48,0,0,0,1.41.91,23.64,23.64,0,0,1,2.51-6.15c1.7-3.36,9.48-12,23.47-15.76,8.11-2.17,15-2.66,19.17-1.11,0-.09,0-.18.06-.27C110.4,20,99.88,18.76,85.9,22.5Z"/><path class="cls-30" d="M115.6,21c-.94-1.87-2.91-3.08-5.39-3.8-5.11-.89-11.33-.58-18.14.78a20.77,20.77,0,0,0-3.43,1.32S86.7,21.42,91,21s16.92-3.43,19.07,4.13S119.05,27.82,115.6,21Z"/><path class="cls-31" d="M54.48,49.58s-2.86,4.73,7.79,9.79,34.06-.73,35.84-9-9.52,3.49-24.89,4.94S58.19,44.87,54.48,49.58Z"/><g class="cls-15"><path class="cls-32" d="M80.08,56.92c.17.33-2.68,1.62-5.91,2.09a29.7,29.7,0,0,1-6.53.2,29.73,29.73,0,0,1-6.25-1.89C58.4,56,56,54,56.23,53.77s3,1.09,5.89,1.85a35.2,35.2,0,0,0,4,.81c1.1.15,1.84.21,1.84.21s.73.13,1.83.28a35.18,35.18,0,0,0,4.1.26C76.93,57.2,79.92,56.58,80.08,56.92Z"/><path class="cls-33" d="M91.51,53.23c.23.31-.49,1.09-1.33,1.75a15.19,15.19,0,0,1-1.8,1.19,17.42,17.42,0,0,1-2.23.37c-1.14.11-2.3,0-2.42-.3s.79-.91,1.66-1.43l1.73-1,2-.44C90.2,53.14,91.29,52.93,91.51,53.23Z"/><path class="cls-34" d="M107.41,18.88c-.07.35-2.31.29-4.48.41s-4.29.38-4.29.38-2.15,0-4.32.1-4.37.43-4.52.09,1.86-1.29,4.05-1.9a32.29,32.29,0,0,1,4.5-.89,33.7,33.7,0,0,1,4.64.38C105.3,17.81,107.48,18.53,107.41,18.88Z"/><path class="cls-35" d="M113.43,25.83c-.4-.07-.68-.92-1.16-1.58a7.39,7.39,0,0,0-1-1.18,6.77,6.77,0,0,0-.76-1.33c-.46-.67-1.21-1.27-1.1-1.61s1.31-.31,2.41.22a6.77,6.77,0,0,1,1.92,1.4,5.42,5.42,0,0,1,.58,2.12C114.34,25,113.83,25.9,113.43,25.83Z"/></g><path class="cls-36" d="M69.7,43.52c.66.33.5,1.73-.36,3.13s-2.09,2.26-2.75,1.94-.5-1.73.36-3.13S69,43.19,69.7,43.52Z"/><path class="cls-37" d="M73,40.06c.35.26.07,1.06-.63,1.79s-1.54,1.11-1.88.84-.07-1.06.63-1.79S72.62,39.8,73,40.06Z"/><path class="cls-38" d="M73.89,42.95c.35.26.07,1.06-.63,1.79s-1.54,1.11-1.88.84-.07-1.06.63-1.79S73.55,42.69,73.89,42.95Z"/><path class="cls-39" d="M214.75,162.32c10.35-19.6,11.65-42.73,2.78-61.42-2.73-.26-5.78.63-9.81,4-7.5,6.27-11,19.25-10.66,31.93s6.08,24.79,16.42,25.49A10.94,10.94,0,0,0,214.75,162.32Z"/><path class="cls-40" d="M234,131c1.5-16.88-6.1-25.86-9.65-27.73-4.86-2.56-8.82-4.94-15.68.76s-9.64,18.06-8.84,30.31,6.75,24.2,16.57,25.35S232.54,147.86,234,131Z"/><path class="cls-41" d="M207.85,105.39c6.86-5.7,10.82-3.32,15.68-.76,3.55,1.87,11.15,10.84,9.65,27.73-.75,8.44-2.69,15.89-5.67,21.1C231,148.24,233.22,140.2,234,131c1.5-16.88-6.1-25.86-9.65-27.73-4.86-2.56-8.82-4.94-15.68.76a19.09,19.09,0,0,0-4.24,5.18A18.08,18.08,0,0,1,207.85,105.39Z"/><path class="cls-42" d="M219,158.24c-9.83-1.15-15.77-13.11-16.57-25.35s2-24.61,8.84-30.3c.62-.51,1.2-.94,1.77-1.32a17.19,17.19,0,0,0-4.36,2.75c-6.86,5.7-9.64,18.06-8.84,30.31s6.75,24.2,16.57,25.35a9.86,9.86,0,0,0,7.19-2A9.65,9.65,0,0,1,219,158.24Z"/><path class="cls-43" d="M231.35,134.23c1.71-11.26-2.08-19.6-4-21.88-2.59-3.13-4.68-5.89-8.81-3.87s-6.32,9.79-6.51,18.49,2.53,18.63,8,22.18S229.64,145.49,231.35,134.23Z"/><path class="cls-44" d="M231.35,134.23a37.3,37.3,0,0,0,.39-7.14c-1.85,10.34-5.88,16.72-11.06,13.34s-7.81-12.3-8-20.58a48.69,48.69,0,0,0-.66,7.12c-.18,8.69,2.53,18.63,8,22.18S229.64,145.49,231.35,134.23Z"/><path class="cls-45" d="M231.35,134.23c1.71-11.26-2.08-19.6-4-21.88-2.59-3.13-4.68-5.89-8.81-3.87a5.88,5.88,0,0,0-1.1.73,18.59,18.59,0,0,1,3.65,3.74c1.89,2.29,5.68,10.62,4,21.88-1,6.53-2.82,11.68-5.23,14.17l.18.13C225.46,152.69,229.64,145.49,231.35,134.23Z"/><path class="cls-46" d="M223.09,156.12a6.48,6.48,0,0,0,4.43-2.69,39.75,39.75,0,0,0,5.15-13.33,16.34,16.34,0,0,0,.13-2.89s-.92-2.08-2,1.16-2.86,13.28-9,12.45S217.07,156.45,223.09,156.12Z"/><path class="cls-47" d="M221.72,103s-2.51-3.55-9.51,2.53-10.2,24.79-4.82,28.67.48-8,4.28-19.5S223.95,107.2,221.72,103Z"/><g class="cls-15"><path class="cls-48" d="M208.36,119.19c-.29,0-.32-2.44.35-4.92a23.37,23.37,0,0,1,1.91-4.77,23.39,23.39,0,0,1,3.33-3.91c1.88-1.75,4.07-2.87,4.19-2.61s-1.72,1.8-3.19,3.66a27.7,27.7,0,0,0-1.86,2.65c-.45.75-.73,1.26-.73,1.26s-.32.48-.78,1.23a27.69,27.69,0,0,0-1.48,2.87C209.15,116.83,208.65,119.18,208.36,119.19Z"/><path class="cls-49" d="M207.42,128.6c-.29.07-.63-.69-.84-1.51a12,12,0,0,1-.29-1.67,13.73,13.73,0,0,1,.44-1.72c.28-.85.69-1.67,1-1.65s.4.85.51,1.65l.19,1.57-.33,1.61C207.9,127.68,207.71,128.53,207.42,128.6Z"/><path class="cls-50" d="M227.18,150.88c-.23-.16.52-1.76,1.12-3.36s1.08-3.21,1.08-3.21.7-1.54,1.29-3.15,1.06-3.29,1.36-3.29.34,1.74.09,3.52a25.41,25.41,0,0,1-.78,3.53,26.52,26.52,0,0,1-1.74,3.23C228.62,149.69,227.41,151,227.18,150.88Z"/><path class="cls-51" d="M220.28,153c.18-.27.88-.2,1.5-.34a5.81,5.81,0,0,0,1.18-.37,5.33,5.33,0,0,0,1.2-.12c.63-.12,1.3-.48,1.51-.29s-.19,1-.92,1.67a5.32,5.32,0,0,1-1.61.95,4.26,4.26,0,0,1-1.71-.25C220.62,154,220.1,153.29,220.28,153Z"/></g><path class="cls-52" d="M221.29,115.92c-.45.37-1.41-.18-2.14-1.24s-1-2.22-.53-2.59,1.41.18,2.14,1.24S221.74,115.55,221.29,115.92Z"/><path class="cls-53" d="M222.76,119.37c-.3.17-.79-.29-1.09-1s-.31-1.46,0-1.62.79.29,1.09,1S223.06,119.21,222.76,119.37Z"/><path class="cls-54" d="M220.39,119.13c-.3.17-.79-.29-1.09-1s-.31-1.46,0-1.62.79.29,1.09,1S220.68,119,220.39,119.13Z"/><path class="cls-55" d="M186.59,200.09c13.39-6.4,23.32-18.32,26-31.91-1.37-1.23-3.36-2-6.87-1.76-6.53.38-13.58,6-18.47,12.91s-6.63,15.75-1.35,20.25A7.37,7.37,0,0,0,186.59,200.09Z"/><path class="cls-56" d="M209.47,190.94c7.54-8.48,7-16.34,5.88-18.76-1.59-3.31-2.77-6.17-8.73-5.85s-12.39,5.86-16.85,12.76-6,15.7-1.21,20.24S201.93,199.42,209.47,190.94Z"/><path class="cls-57" d="M205.6,166.73c6-.33,7.14,2.53,8.73,5.85,1.16,2.42,1.66,10.28-5.88,18.76-3.77,4.24-7.79,7.47-11.47,9.08,3.95-1.42,8.36-4.85,12.49-9.48,7.54-8.48,7-16.34,5.88-18.76-1.59-3.31-2.77-6.17-8.73-5.85a12.79,12.79,0,0,0-4.35,1.09A12.11,12.11,0,0,1,205.6,166.73Z"/><path class="cls-58" d="M190.52,199.6c-4.82-4.54-3.25-13.34,1.21-20.24s10.88-12.44,16.85-12.76c.53,0,1,0,1.48,0a11.52,11.52,0,0,0-3.44-.26c-6,.33-12.39,5.86-16.85,12.76s-6,15.7-1.21,20.24a6.6,6.6,0,0,0,4.66,1.8A6.46,6.46,0,0,1,190.52,199.6Z"/><path class="cls-59" d="M206.73,191.61c5.41-5.37,6.7-11.37,6.6-13.35-.14-2.72-.17-5-3.19-5.6s-7.31,2.74-10.88,7.34-6.07,11-4.57,15.1S201.32,197,206.73,191.61Z"/><path class="cls-60" d="M206.73,191.61a25,25,0,0,0,3.06-3.68c-5.12,4.82-9.83,6.64-11.27,2.76s.71-9.73,3.93-14.24a32.6,32.6,0,0,0-3.19,3.56c-3.57,4.6-6.07,11-4.57,15.1S201.32,197,206.73,191.61Z"/><path class="cls-61" d="M206.73,191.61c5.41-5.37,6.7-11.37,6.6-13.35-.14-2.72-.17-5-3.19-5.6a3.94,3.94,0,0,0-.88,0,12.45,12.45,0,0,1,.47,3.47c.1,2-1.19,8-6.6,13.35-3.14,3.12-6.17,5.15-8.47,5.53,0,0,0,.1,0,.14C196.2,199.18,201.32,197,206.73,191.61Z"/><path class="cls-62" d="M193.55,200.08a4.34,4.34,0,0,0,3.46.32,26.61,26.61,0,0,0,8.09-5.11,10.93,10.93,0,0,0,1.22-1.5s.33-1.48-1.54-.18-6.84,6-9.8,3.11S190.18,197.86,193.55,200.08Z"/><path class="cls-63" d="M214,171s.07-2.91-6.13-2.44-15.38,9.26-14,13.49,3.43-4.09,10.08-8.77S213.53,174.13,214,171Z"/><g class="cls-15"><path class="cls-64" d="M200.37,174.35c-.16-.11.8-1.44,2.15-2.5a10.64,10.64,0,0,1,6.28-2.58c1.71-.19,3.33.08,3.29.27s-1.64.28-3.18.7a18.53,18.53,0,0,0-2.05.68c-.54.22-.9.39-.9.39s-.37.13-.91.35a18.52,18.52,0,0,0-1.94,1C201.74,173.4,200.53,174.47,200.37,174.35Z"/><path class="cls-65" d="M196.11,179c-.18-.08-.06-.63.15-1.15a8,8,0,0,1,.51-1,9.18,9.18,0,0,1,.92-.75c.49-.35,1-.62,1.18-.49s-.12.62-.38,1.09l-.52.92-.82.73C196.74,178.73,196.3,179.11,196.11,179Z"/><path class="cls-66" d="M197.84,198.9c-.06-.18,1-.74,1.94-1.36s1.86-1.3,1.86-1.3,1-.55,1.95-1.18,1.88-1.34,2-1.23-.51,1.07-1.36,1.93a17,17,0,0,1-1.82,1.59,17.76,17.76,0,0,1-2.22,1C199.09,198.83,197.9,199.07,197.84,198.9Z"/><path class="cls-67" d="M193.27,197.3c.2-.07.55.24.94.42a3.9,3.9,0,0,0,.78.27,3.57,3.57,0,0,0,.69.41c.39.18.89.26.93.45s-.52.48-1.16.53a3.57,3.57,0,0,1-1.24-.13,2.85,2.85,0,0,1-.82-.82C193.09,197.94,193.07,197.37,193.27,197.3Z"/></g><path class="cls-68" d="M208.63,177.76c-.39,0-.68-.66-.66-1.52s.36-1.58.75-1.6.68.66.66,1.52S209,177.74,208.63,177.76Z"/><path class="cls-69" d="M208,180.2c-.23,0-.31-.47-.18-1s.41-.91.64-.88.31.47.18,1S208.27,180.23,208,180.2Z"/><path class="cls-70" d="M206.86,179.12c-.23,0-.31-.47-.18-1s.41-.91.64-.88.31.47.18,1S207.09,179.15,206.86,179.12Z"/><path class="cls-71" d="M80.62,211.29C60.35,202.33,45,185,40.36,164.82c2-1.9,4.92-3.09,10.18-2.94,9.77.27,20.55,8.3,28.17,18.44s10.61,23.22,2.93,30.18A11,11,0,0,1,80.62,211.29Z"/><path class="cls-72" d="M46.06,198.66c-11.65-12.32-11.25-24.07-9.63-27.74,2.22-5,3.85-9.34,12.77-9.13S68,170,74.93,180.09s9.72,23.17,2.72,30.16S57.7,211,46.06,198.66Z"/><path class="cls-73" d="M50.74,162.35c-8.92-.22-10.54,4.11-12.77,9.13-1.62,3.67-2,15.42,9.63,27.74,5.82,6.16,12,10.8,17.53,13-6-1.94-12.71-6.86-19.07-13.59-11.65-12.32-11.25-24.07-9.63-27.74,2.22-5,3.85-9.34,12.77-9.13a19.1,19.1,0,0,1,6.54,1.43A18.08,18.08,0,0,0,50.74,162.35Z"/><path class="cls-74" d="M74.74,210.74c7-7,4.25-20.06-2.72-30.16S55.2,162.5,46.29,162.28c-.8,0-1.52,0-2.21.06a17.2,17.2,0,0,1,5.12-.55C58.11,162,68,170,74.93,180.09s9.72,23.17,2.72,30.16a9.86,9.86,0,0,1-6.87,2.9A9.65,9.65,0,0,0,74.74,210.74Z"/><path class="cls-75" d="M50.18,199.54c-8.32-7.77-10.52-16.67-10.45-19.63.09-4.06,0-7.52,4.52-8.5s11,3.76,16.57,10.47,9.57,16.18,7.5,22.34S58.51,207.32,50.18,199.54Z"/><path class="cls-76" d="M50.18,199.54a37.31,37.31,0,0,1-4.73-5.36c7.86,7,15,9.47,16.95,3.61s-1.5-14.49-6.51-21.09a48.67,48.67,0,0,1,4.93,5.18c5.54,6.7,9.57,16.18,7.5,22.34S58.51,207.32,50.18,199.54Z"/><path class="cls-77" d="M50.18,199.54c-8.32-7.77-10.52-16.67-10.45-19.63.09-4.06,0-7.52,4.52-8.5a5.89,5.89,0,0,1,1.32-.11,18.59,18.59,0,0,0-.54,5.2c-.06,3,2.13,11.86,10.45,19.63,4.83,4.51,9.45,7.42,12.89,7.87,0,.07,0,.14-.06.21C66.25,210.38,58.51,207.32,50.18,199.54Z"/><path class="cls-78" d="M70.24,211.6a6.48,6.48,0,0,1-5.14.64A39.75,39.75,0,0,1,52.79,205a16.34,16.34,0,0,1-1.89-2.19s-.56-2.2,2.29-.33S63.67,211.1,68,206.65,75.17,208.12,70.24,211.6Z"/><path class="cls-79" d="M38.4,169.11s-.23-4.34,9-3.91S70.81,178.32,69,184.69s-5.31-5.95-15.45-12.64S39.23,173.75,38.4,169.11Z"/><g class="cls-15"><path class="cls-80" d="M58.89,173.49c.24-.16-1.26-2.12-3.33-3.64a23.36,23.36,0,0,0-4.46-2.56,23.4,23.4,0,0,0-5-1c-2.56-.21-5,.27-4.9.55s2.47.34,4.77.89a27.66,27.66,0,0,1,3.1.93c.82.31,1.36.54,1.36.54s.55.18,1.37.49A27.68,27.68,0,0,1,54.71,171C56.81,172.13,58.66,173.67,58.89,173.49Z"/><path class="cls-81" d="M65.46,180.29c.27-.13.07-.94-.28-1.71a12,12,0,0,0-.81-1.49A13.71,13.71,0,0,0,63,176c-.75-.5-1.58-.88-1.79-.68s.21.92.62,1.61l.82,1.35,1.25,1.06C64.52,179.87,65.19,180.42,65.46,180.29Z"/><path class="cls-82" d="M63.78,210c.08-.27-1.5-1.06-3-1.94S58,206.23,58,206.23s-1.5-.77-3-1.67-2.87-1.92-3.1-1.74.81,1.58,2.11,2.82a25.4,25.4,0,0,0,2.8,2.29,26.53,26.53,0,0,0,3.37,1.45C61.91,210,63.7,210.29,63.78,210Z"/><path class="cls-83" d="M70.53,207.43c-.3-.1-.81.38-1.39.66a5.82,5.82,0,0,1-1.16.44,5.33,5.33,0,0,1-1,.65c-.57.29-1.31.43-1.36.71s.79.7,1.76.74a5.32,5.32,0,0,0,1.85-.26,4.26,4.26,0,0,0,1.18-1.26C70.84,208.37,70.83,207.52,70.53,207.43Z"/></g><path class="cls-84" d="M46.72,179c.58,0,1-1,.91-2.3s-.61-2.34-1.19-2.36-1,1-.91,2.3S46.14,178.93,46.72,179Z"/><path class="cls-85" d="M47.71,182.57c.34-.05.44-.71.23-1.47s-.66-1.34-1-1.28-.44.71-.23,1.48S47.37,182.62,47.71,182.57Z"/><path class="cls-86" d="M49.42,180.9c.34-.05.44-.71.23-1.48s-.66-1.34-1-1.28-.44.71-.23,1.48S49.08,181,49.42,180.9Z"/><path class="cls-87" d="M131.17,66.37c-12-1.91-25.37-6.33-49,9s-20.49,53.22,8.94,61.15c18,4.86,40.43-3.13,53.83-28.59C159.63,80,138.76,67.58,131.17,66.37Z"/><path class="cls-88" d="M125.13,62.18C114.44,60.47,102,59.6,80.85,73.24s-23.29,52.91,3.48,57.86,50.16-10.15,58.9-33.53C153.06,71.23,131.91,63.26,125.13,62.18Z"/><path class="cls-89" d="M143.54,75c1.71,5,1.74,11.57-1.41,20-8.73,23.38-32.13,38.48-58.9,33.53a22.44,22.44,0,0,1-16.8-12.62A22.62,22.62,0,0,0,84.33,131.1c26.77,4.94,50.16-10.15,58.9-33.53C146.94,87.61,146.23,80.28,143.54,75Z"/><path class="cls-90" d="M114.54,67.31c-8.74.54-18.76,1.93-33.29,14.7s-9.92,40.13,12.07,39.24,38.09-15,41.24-32.5C138.12,69.07,120.09,67,114.54,67.31Z"/><path class="cls-91" d="M134.12,78.11a26.15,26.15,0,0,1-.43,5.58c-3.15,17.48-19.25,31.61-41.24,32.5-10.63.43-17.19-5.75-19.5-13.69.66,10.19,7.56,19.27,20.38,18.75,22-.88,38.09-15,41.24-32.5A21,21,0,0,0,134.12,78.11Z"/><path class="cls-92" d="M84.84,88.08c14.52-12.77,24.55-14.16,33.29-14.7,3.35-.21,11.24.48,16.19,5.39C131.26,68.32,119,67,114.54,67.31c-8.74.54-18.76,1.93-33.29,14.7-10,8.81-10.93,24.56-3.32,33.19A25.18,25.18,0,0,1,84.84,88.08Z"/><path class="cls-93" d="M72.13,91.25S68.56,100,73.72,111.9s18.86,11.91,28.19,9.73-.2,8.14-13.3,6.75-17.07-5.36-21-17.27S70.74,86.29,72.13,91.25Z"/><path class="cls-94" d="M115.8,65.65c4.62,1.62,12.51.6,18.07,7.54s.11,18.61,2.89,22S146.82,84,140.35,73.51C131.37,59,107.48,62.73,115.8,65.65Z"/><g class="cls-15"><path class="cls-95" d="M71.58,115.71c-.27.15-1.5-1.6-2.36-3.59A25.22,25.22,0,0,1,67.87,108a25.22,25.22,0,0,1-.08-4.31c.15-2.15.73-4.22,1-4.17s.3,2.12.55,4.14a37.49,37.49,0,0,0,.7,4,37.47,37.47,0,0,0,.66,4C71.16,113.61,71.86,115.57,71.58,115.71Z"/><path class="cls-96" d="M85.71,125.39c0,.31-1.74.42-3.46.1a16.24,16.24,0,0,1-3.33-1,16.24,16.24,0,0,1-2.72-2.18c-1.23-1.24-2.1-2.73-1.85-2.92s1.49.87,2.84,1.69A23.09,23.09,0,0,0,80,122.48,23.1,23.1,0,0,0,82.72,124C84.15,124.64,85.73,125.08,85.71,125.39Z"/><path class="cls-97" d="M136.07,72c-.27.13-1.14-.79-2.22-1.38a16.67,16.67,0,0,0-2.22-1.06l-2.19-1.41c-1.14-.72-2.2-1.63-2-1.9s1.41.12,2.68.47a26.66,26.66,0,0,1,2.57.87,11.33,11.33,0,0,1,2.19,1.82C135.88,70.47,136.36,71.87,136.07,72Z"/><path class="cls-98" d="M138.2,87.5c-.3-.09-.08-1.75,0-3.36s0-3.19,0-3.19a22.58,22.58,0,0,0,.17-3.14c0-1.58-.38-3.18-.09-3.31s1.21,1.36,1.65,3.07a16,16,0,0,1,.5,3.47,20.09,20.09,0,0,1-.73,3.39C139.25,86.08,138.49,87.6,138.2,87.5Z"/></g><path class="cls-99" d="M88.31,91.43c1,1.1.36,3.33-1.45,5s-4.08,2.09-5.09,1-.35-3.33,1.45-5S87.31,90.32,88.31,91.43ZM83.57,100c-1.79.64-2.93,2-2.54,3.13s2.15,1.46,3.94.82,2.92-2,2.54-3.13S85.36,99.35,83.57,100Zm7.3-7.27c-1.81,1.65-2.45,3.87-1.45,5s3.28.66,5.09-1,2.45-3.87,1.45-5S92.68,91.07,90.87,92.71Z"/><path class="cls-100" d="M165.78,171.12c8.29-5.54,18.83-10.38,24.51-32.85s-17.42-43.55-39.6-31.86c-13.59,7.16-22.62,24.5-16.45,47.35C141,178.83,160.53,174.64,165.78,171.12Z"/><path class="cls-101" d="M171.77,170.27c7.4-5,15.41-11.4,20.51-31.44S176.71,93.9,157.81,105.9s-24.56,34.18-16.74,53.16C149.87,180.43,167.08,173.41,171.77,170.27Z"/><path class="cls-102" d="M153.53,172.87c-3.85-2.08-7.52-6-10.33-12.84-7.82-19-2.16-41.17,16.74-53.16a18.45,18.45,0,0,1,17.18-1.79,18.6,18.6,0,0,0-19.31.82c-18.9,12-24.56,34.18-16.74,53.16C144.4,167.14,148.93,171.16,153.53,172.87Z"/><path class="cls-103" d="M175.28,161.25c5-5.21,10.23-11.66,11.84-27.48s-16.47-29.74-29.23-16.9-14.56,30.36-6.68,42.66C160.09,173.38,172.13,164.56,175.28,161.25Z"/><path class="cls-104" d="M157.44,165.69a21.51,21.51,0,0,1-2.86-3.61c-7.88-12.3-6.08-29.82,6.68-42.66,6.17-6.21,13.58-6.15,19.41-2.66-6.1-5.77-15.34-7.39-22.78.09-12.76,12.84-14.56,30.36-6.68,42.66A17.31,17.31,0,0,0,157.44,165.69Z"/><path class="cls-105" d="M181.56,132.11c-1.61,15.82-6.87,22.27-11.84,27.48-1.9,2-7,6-12.77,5.81,7.69,4.58,15.82-1.53,18.33-4.16,5-5.21,10.23-11.66,11.84-27.48,1.11-10.92-7.15-20.92-16.57-21.86A20.71,20.71,0,0,1,181.56,132.11Z"/><path class="cls-106" d="M187.45,123.09s-2.73-7.26-12.51-11.56-18,3.37-22.44,9.91-4.43-5,4.24-11.51,13.29-6.32,22.35-1.36S191.07,125.3,187.45,123.09Z"/><path class="cls-107" d="M175.45,163c-3.69,1.61-7.87,6.64-15.11,5.56s-10.48-11.16-14-11.64.21,12.39,10,15.07C169.78,175.67,182.1,160.06,175.45,163Z"/><g class="cls-15"><path class="cls-108" d="M174.1,108c.08-.24,1.8.13,3.43.84a20.75,20.75,0,0,1,3.11,1.71,20.75,20.75,0,0,1,2.46,2.55c1.11,1.38,1.92,2.95,1.71,3.09s-1.37-1.11-2.65-2.19a30.84,30.84,0,0,0-2.64-2,30.85,30.85,0,0,0-2.62-2C175.53,109.07,174,108.28,174.1,108Z"/><path class="cls-109" d="M160.17,110.11c-.16-.2.81-1.23,2-2a13.37,13.37,0,0,1,2.58-1.24,13.36,13.36,0,0,1,2.86-.21c1.44.06,2.79.47,2.75.72s-1.38.31-2.66.57a19,19,0,0,0-2.48.68,19,19,0,0,0-2.49.64C161.53,109.69,160.33,110.31,160.17,110.11Z"/><path class="cls-110" d="M159.68,170.47c.09-.23,1.13-.16,2.11-.41a13.7,13.7,0,0,0,1.93-.6l2.11-.38c1.09-.2,2.24-.24,2.29,0s-.92.71-1.88,1.22a22,22,0,0,1-2,.92,9.31,9.31,0,0,1-2.34.13C160.65,171.28,159.58,170.71,159.68,170.47Z"/><path class="cls-111" d="M149.72,162.31c.23-.11,1,1,1.87,2s1.76,1.95,1.76,1.95a18.57,18.57,0,0,0,1.65,2c.89.95,2,1.71,1.91,1.94s-1.49-.14-2.71-.93a13.14,13.14,0,0,1-2.24-1.81A16.53,16.53,0,0,1,150.5,165C149.89,163.76,149.5,162.42,149.72,162.31Z"/></g><path class="cls-112" d="M177.6,132c-1.22-.1-2.08-1.81-1.91-3.81s1.29-3.54,2.51-3.44,2.08,1.81,1.91,3.81S178.82,132.14,177.6,132Zm-1.93-7.81c.72-1.38.62-2.86-.22-3.31s-2.12.32-2.84,1.71-.62,2.86.22,3.31S175,125.61,175.68,124.23Zm-.33,8.47c.17-2-.69-3.71-1.91-3.81s-2.35,1.44-2.51,3.44.69,3.71,1.91,3.81S175.17,134.7,175.34,132.7Z"/><path class="cls-113" d="M119.36,178.23c-7,3.53-14.3,8.88-31.81,4.15S64.49,153.81,81,143.15c10.09-6.53,25.39-6.06,38.62,6.9C134.11,164.27,123.78,176,119.36,178.23Z"/><path class="cls-114" d="M116.49,182c-6.21,3.16-13.69,6.15-29.32,2s-24.71-27.83-9.28-36.14,32.74-3.67,42.7,8.93C131.82,170.93,120.43,180,116.49,182Z"/><path class="cls-115" d="M125.25,170.53c.05-3.42-1.22-7.43-4.8-12-10-12.6-27.28-17.24-42.7-8.93a14.44,14.44,0,0,0-7.8,11,14.56,14.56,0,0,1,8-12.87c15.43-8.31,32.74-3.67,42.7,8.93C124.84,162.11,125.85,166.74,125.25,170.53Z"/><path class="cls-116" d="M109,180.93c-5.46,1.39-11.88,2.52-23.3-2.44s-14-22.63-.34-26.43,26.3,1.69,31.68,11.78C123.09,175.21,112.45,180,109,180.93Z"/><path class="cls-117" d="M118.86,170.45a16.83,16.83,0,0,0-1.37-3.33c-5.38-10.09-18-15.58-31.68-11.78-6.6,1.84-9.4,6.92-9.25,12.23-1.61-6.37.83-13.3,8.79-15.51,13.65-3.8,26.3,1.69,31.68,11.78A13.55,13.55,0,0,1,118.86,170.45Z"/><path class="cls-118" d="M86.69,174.06c11.42,5,17.83,3.84,23.3,2.44,2.09-.53,6.79-2.51,8.86-6.49.18,7-7.1,10.22-9.86,10.92-5.46,1.39-11.88,2.52-23.3-2.44-7.88-3.42-11.54-12.89-8.58-19.68A16.21,16.21,0,0,0,86.69,174.06Z"/><path class="cls-119" d="M78.28,174.63s-3.91-4.65-3.1-13,9.21-11,15.36-11.52-1.73-4.95-9.48-1.51-9.4,6.65-9.49,14.73S78.4,177.94,78.28,174.63Z"/><path class="cls-120" d="M110.09,181.71c2.51-1.9,7.55-2.83,9.58-8.19s-3.6-11.43-2.57-14,8.38,4.89,6.47,12.57C120.94,182.7,105.56,185.13,110.09,181.71Z"/><g class="cls-15"><path class="cls-121" d="M73.12,159.75c-.19,0-.6,1.28-.74,2.66a16.24,16.24,0,0,0,0,2.78,16.24,16.24,0,0,0,.8,2.66c.52,1.29,1.28,2.44,1.45,2.35s-.24-1.36-.48-2.64a24.15,24.15,0,0,1-.35-2.57,24.11,24.11,0,0,1-.38-2.57C73.27,161.12,73.31,159.78,73.12,159.75Z"/><path class="cls-122" d="M79.86,151c-.07-.18-1.15.08-2.14.62a10.46,10.46,0,0,0-1.84,1.29,10.46,10.46,0,0,0-1.24,1.87c-.51,1-.75,2.09-.56,2.15s.74-.83,1.41-1.6a14.86,14.86,0,0,1,1.42-1.43,14.88,14.88,0,0,1,1.39-1.46C79.06,151.8,79.94,151.22,79.86,151Z"/><path class="cls-123" d="M121.25,173.81c-.19,0-.54.71-1.09,1.28a10.72,10.72,0,0,1-1.15,1.09l-1.06,1.29c-.55.67-1,1.43-.87,1.57s.84-.35,1.55-.82a17.2,17.2,0,0,0,1.4-1,7.29,7.29,0,0,0,1-1.55C121.44,174.79,121.46,173.84,121.25,173.81Z"/><path class="cls-124" d="M119.5,163.89c-.16.12.3,1.09.67,2.06s.66,1.94.66,1.94a14.54,14.54,0,0,1,.72,1.89c.3,1,.4,2,.6,2s.47-1.07.41-2.21a10.28,10.28,0,0,0-.38-2.22,13,13,0,0,0-1.11-1.93C120.43,164.56,119.66,163.78,119.5,163.89Z"/></g><path class="cls-125" d="M84.85,171.73c-1.43-.65-2.27-1.89-1.87-2.76s1.88-1.05,3.31-.4,2.27,1.89,1.87,2.76S86.28,172.38,84.85,171.73Zm1-6c0-.75-.95-1.38-2.17-1.42s-2.23.54-2.25,1.28.95,1.38,2.17,1.42S85.79,166.49,85.82,165.74Zm7,3.9c.4-.87-.44-2.11-1.87-2.76s-2.91-.47-3.31.4.44,2.11,1.87,2.76S92.39,170.51,92.78,169.64Z"/><path class="cls-126" d="M233.66,119.78a34.55,34.55,0,0,0-1.08-4.51q-.33-1-.7-2a28.18,28.18,0,0,0-1.61-3.44q-.43-.77-.87-1.46a15.24,15.24,0,0,0-5-5.14,35.67,35.67,0,0,0-4.41-2.11l-.42-.13a97.38,97.38,0,0,0-21.64-40.8A97.53,97.53,0,0,1,27.54,120.82c-.06,1.39-.11,2.78-.11,4.18a97.13,97.13,0,0,0,10.18,43.38c-.26.53-.52,1-.77,1.61l-.41.93a8.68,8.68,0,0,0-.53,1.74c-.07.35-.13.72-.18,1.13a22.61,22.61,0,0,0,.55,7.76c1.15,4.94,4,11,9.79,17.11q1.15,1.21,2.31,2.34l.72.68c.54.51,1.07,1,1.61,1.5l.85.73c.41.36.82.72,1.24,1.06h0l.34.27.48.38,1.07.83.64.47.24.17.26.19.9.62.63.43.61.39.46.29.75.46.64.36.63.36.12.07.51.26.77.38.79.36.48.21h0l.87.35c.37.14.73.28,1.09.4h.07a16.43,16.43,0,0,0,5.68.88l-.06,0,.22,0a11.36,11.36,0,0,0,1.26-.15c.2,0,.4-.06.59-.1a9.89,9.89,0,0,0,1.2-.37c.18-.06.37-.11.54-.19a9.5,9.5,0,0,0,1.15-.62c.15-.09.31-.16.45-.26a10.12,10.12,0,0,0,1.42-1.17,97,97,0,0,0,13.32,6.16s0,.08,0,.12c1.37.52,2.76,1,4.15,1.42,0,.19-.05.37-.06.57,0,.52,0,1,0,1.53,0,.14,0,.28,0,.42,0,.36,0,.72.1,1.07,0,.14,0,.28.07.42.05.34.11.68.19,1,0,.13.07.25.1.38.09.34.18.68.29,1l.11.32c.12.35.26.69.41,1l.11.24q.25.53.54,1l.1.17q.32.55.69,1.07l.06.09q.4.57.86,1.1h0c2.52,3,6.25,5.23,10.88,6.85h0a45.16,45.16,0,0,0,4.79,1.37h0q1.19.27,2.44.49l.25,0q1.44.25,2.94.45h.11q1.07.14,2.18.24l.48,0,1.56.12.31,0q2.1.14,4.29.17h.39q2.21,0,4.5-.06h.32q2.43-.09,4.94-.3c18.8-1.56,30.52-10.07,36.22-16.81a22.24,22.24,0,0,0,3.73-5.83c.62-1.57,1.23-3.09,1.76-4.59q.26-.75.49-1.49a20.27,20.27,0,0,0,1-6.28q3.06-2.23,5.93-4.68l.12-.06.16.17a6.76,6.76,0,0,0,1,.77c.1.06.21.11.31.16a6.37,6.37,0,0,0,.78.39l.37.12a6.65,6.65,0,0,0,.81.22l.39.05a7.54,7.54,0,0,0,.85.07h.11a11,11,0,0,0,3.77-.71h0l.08,0,.19-.08c.35-.13.7-.27,1.05-.44l.45-.22.32-.16.71-.38.5-.29.64-.38.18-.12.19-.12.53-.36,1-.69.3-.21.29-.23c.32-.25.65-.52,1-.79l.57-.48.11-.09.06,0h0c.27-.23.54-.49.8-.73l.55-.51c.35-.33.7-.68,1-1l.47-.47q.75-.78,1.5-1.61c4.24-4.77,5.94-9.34,6.41-12.86a16.05,16.05,0,0,0,.14-2.18q0-.5,0-1a8.05,8.05,0,0,0-.63-2.76,18.64,18.64,0,0,0-1.89-3.39,6.36,6.36,0,0,0-.84-.87q2-4,3.59-8.3l.22,0a10.09,10.09,0,0,0,1.88,0c.18,0,.34-.06.52-.08a9.52,9.52,0,0,0,1.28-.23c.19-.05.36-.13.55-.19a9.9,9.9,0,0,0,1.16-.45c.18-.09.35-.19.53-.29a11.3,11.3,0,0,0,1.08-.67l.19-.11-.06,0a16.42,16.42,0,0,0,3.9-4.21l0,0v0h0c.21-.32.41-.65.61-1s.31-.54.47-.82l0,0,.25-.46c.13-.26.27-.51.4-.78s.25-.52.37-.78l.24-.51.05-.13c.09-.22.18-.45.28-.67s.19-.45.28-.68.2-.55.3-.83l.19-.52c.08-.23.16-.45.24-.68s.15-.49.23-.73.22-.69.32-1l.09-.31.08-.28c.07-.26.14-.51.21-.77.11-.43.22-.88.32-1.32l.14-.58c0-.14.07-.28.1-.42h0c.11-.52.21-1.07.31-1.6.07-.36.15-.72.21-1.09.12-.71.23-1.44.33-2.17,0-.33.1-.65.15-1,.14-1.07.26-2.16.36-3.27A43.39,43.39,0,0,0,233.66,119.78Z"/><path class="cls-127" d="M214.83,86.89a97.71,97.71,0,0,0-71.26-57.67c-3.27,3-5.48,7.29-5.76,15-.52,14.3,11.42,29.86,27.08,40.73s36.55,14.88,48.56,3.43A18.61,18.61,0,0,0,214.83,86.89Z"/><path class="cls-128" d="M197.79,36.62c-18.8-16.71-37.86-15.8-44-13.31-8.34,3.4-15.5,5.91-16,19s11.42,27.25,27.08,37.17S201.44,93,213.45,82.56,216.58,53.33,197.79,36.62Z"/><path class="cls-129" d="M138.55,44.5c.52-13.05,7.68-15.56,16-19,6.09-2.48,25.16-3.39,44,13.31,9.39,8.35,16.31,17.22,19.38,25.31-2.56-8.67-9.86-18.42-20.12-27.55-18.8-16.71-37.86-15.8-44-13.31-8.34,3.4-15.5,5.91-16,19a24.47,24.47,0,0,0,1.68,9.53A23.28,23.28,0,0,1,138.55,44.5Z"/><path class="cls-130" d="M214.52,78.28c-12,10.44-32.89,6.79-48.56-3.13S138.36,51,138.88,38a30,30,0,0,1,.31-3.24,23.79,23.79,0,0,0-1.38,7.52c-.52,13.05,11.42,27.25,27.08,37.17S201.44,93,213.45,82.56a15.17,15.17,0,0,0,5.37-10.15A15.69,15.69,0,0,1,214.52,78.28Z"/><path class="cls-131" d="M198.81,42.64c-11.77-12-25.95-14.93-30.75-14.76-6.58.24-12.18.24-14.2,6.85s5,16.06,15.32,24,25.26,13.56,35.42,10.35S210.58,54.61,198.81,42.64Z"/><path class="cls-132" d="M198.81,42.64a52.08,52.08,0,0,0-8.21-6.78c10.5,11.32,13.86,21.67,4.17,24.72s-23.31-1.78-33.49-8.94a67,67,0,0,0,7.89,7.07c10.31,7.92,25.26,13.56,35.42,10.35S210.58,54.61,198.81,42.64Z"/><path class="cls-133" d="M198.81,42.64c-11.77-12-25.94-14.93-30.75-14.76-6.58.24-12.18.24-14.2,6.85a8.08,8.08,0,0,0-.31,1.93,34,34,0,0,1,8.47-.94c4.81-.18,19,2.79,30.75,14.76,6.83,6.94,11.08,13.63,11.48,18.66l.35-.09C214.77,65.86,210.58,54.61,198.81,42.64Z"/><path class="cls-134" d="M216.35,71.67c1.66-2,2-4.65,1.54-7.55-1.68-5.64-5.35-11.73-10.55-17.82a22.9,22.9,0,0,0-3.35-2.7s-3.51-.76-.76,3.36,13,15.1,5.34,21.51S210.25,79,216.35,71.67Z"/><path class="cls-135" d="M150.7,26.23s-7-.22-7.22,13.35,19,33.86,29.45,31S163.82,63,154,48.33,158.14,27.33,150.7,26.23Z"/><g class="cls-15"><path class="cls-136" d="M155.79,56.13c-.29.35-3.3-1.79-5.56-4.77a30,30,0,0,1-3.7-6.46,30,30,0,0,1-1.13-7.36c-.09-3.74.93-7.29,1.38-7.2s.31,3.6,1,7a35.19,35.19,0,0,0,1.2,4.51c.42,1.2.74,2,.74,2s.23.81.65,2a35.14,35.14,0,0,0,1.88,4.27C153.78,53.12,156.09,55.78,155.79,56.13Z"/><path class="cls-137" d="M166.14,65.56c-.23.4-1.52.12-2.74-.36a18.11,18.11,0,0,1-2.34-1.14,18.11,18.11,0,0,1-1.61-2c-.73-1.09-1.27-2.29-.93-2.6s1.47.28,2.54.86l2.1,1.17,1.59,1.8C165.55,64.18,166.38,65.16,166.14,65.56Z"/><path class="cls-138" d="M214.44,62.25c-.45.13-1.56-2.16-2.86-4.28s-2.72-4.11-2.72-4.11-1.1-2.18-2.42-4.29-2.83-4.15-2.51-4.5,2.48,1.14,4.35,3a33.65,33.65,0,0,1,3.43,4,33.67,33.67,0,0,1,2,4.89C214.55,59.52,214.88,62.13,214.44,62.25Z"/><path class="cls-139" d="M209.58,72.22c-.14-.44.7-1.2,1.21-2.06a8.78,8.78,0,0,0,.82-1.71,8.77,8.77,0,0,0,1.15-1.51c.53-.84.82-1.93,1.28-2s1.06,1.14,1,2.55a7.5,7.5,0,0,1-.6,2.72A7.49,7.49,0,0,1,212.32,72C211.07,72.64,209.7,72.66,209.58,72.22Z"/></g><ellipse class="cls-140" cx="162.06" cy="38.01" rx="1.54" ry="3.76" transform="translate(118.14 198.56) rotate(-87.9)"/><ellipse class="cls-141" cx="169.38" cy="38.97" rx="0.92" ry="2.26" transform="translate(92.14 194.66) rotate(-76.57)"/><ellipse class="cls-142" cx="166.51" cy="41.52" rx="0.92" ry="2.26" transform="translate(87.46 193.84) rotate(-76.57)"/><path class="cls-143" d="M31.09,150.88C22,124.23,24.91,94.93,39.75,73.22c3.48.21,7.13,1.93,11.52,7,8.17,9.36,10,26.34,7.07,42.2S45.81,152.3,32.7,151.13A14,14,0,0,1,31.09,150.88Z"/><path class="cls-144" d="M13.07,107.72c1.46-21.49,12.77-31.26,17.6-32.9,6.61-2.25,12-4.46,19.53,4s8.53,24.58,5.11,39.79-13.25,29-25.81,28.55S11.61,129.21,13.07,107.72Z"/><path class="cls-145" d="M51,80.78c-7.49-8.51-12.92-6.3-19.53-4-4.82,1.65-16.14,11.41-17.6,32.9-.73,10.74.23,20.48,2.95,27.61-3.32-7.24-4.56-17.78-3.76-29.52,1.46-21.49,12.77-31.26,17.6-32.9,6.61-2.25,12-4.46,19.53,4a24.27,24.27,0,0,1,4.3,7.34A23,23,0,0,0,51,80.78Z"/><path class="cls-146" d="M26.53,144.91c12.56.5,22.39-13.34,25.81-28.55s2.37-31.28-5.11-39.79c-.67-.76-1.32-1.41-2-2a21.85,21.85,0,0,1,4.93,4.31c7.49,8.51,8.53,24.58,5.11,39.79s-13.25,29-25.81,28.55a12.53,12.53,0,0,1-8.64-3.92A12.26,12.26,0,0,0,26.53,144.91Z"/><path class="cls-147" d="M15.8,112.33c.08-14.47,6.49-24.19,9.31-26.69,3.87-3.42,7-6.47,11.83-3.11S43,96.08,41.46,107s-6.86,22.89-14.39,26.27S15.72,126.81,15.8,112.33Z"/><path class="cls-148" d="M15.8,112.33a47.42,47.42,0,0,1,.92-9C17,116.64,20.8,125.44,28,122.22S40.21,108.33,42,98a61.88,61.88,0,0,1-.58,9.06C40,118,34.61,129.91,27.08,133.29S15.72,126.81,15.8,112.33Z"/><path class="cls-149" d="M15.8,112.33c.08-14.47,6.49-24.19,9.31-26.69,3.87-3.42,7-6.47,11.83-3.11a7.48,7.48,0,0,1,1.24,1.13,23.64,23.64,0,0,0-5.32,4c-2.82,2.5-9.23,12.21-9.31,26.69,0,8.4,1.23,15.22,3.77,18.83l-.25.13C19.54,136.67,15.72,126.81,15.8,112.33Z"/><path class="cls-150" d="M21.84,141.45c-2-.44-3.71-2-5-4.25-2.16-4.71-3.43-10.82-3.83-17.75a20.75,20.75,0,0,1,.41-3.65s1.57-2.42,2.28,1.85,1,17.24,8.82,17.4S29.34,143.06,21.84,141.45Z"/><path class="cls-151" d="M34.06,75.08s3.85-4,11.44,5.06,7.9,33.14.38,36.94,1-10.09-1.52-25.33S30.44,79.87,34.06,75.08Z"/><g class="cls-15"><path class="cls-152" d="M47.64,98c.36.08.89-3,.53-6.24a29.7,29.7,0,0,0-1.45-6.37,29.73,29.73,0,0,0-3.41-5.57c-2-2.57-4.54-4.41-4.74-4.1s1.81,2.6,3.28,5.23a35.22,35.22,0,0,1,1.81,3.69c.42,1,.67,1.73.67,1.73s.31.67.73,1.7A35.15,35.15,0,0,1,46.33,92C47.11,94.88,47.27,97.93,47.64,98Z"/><path class="cls-153" d="M47,110c.35.14.93-.75,1.36-1.73a15.19,15.19,0,0,0,.7-2A17.44,17.44,0,0,0,48.8,104c-.18-1.13-.54-2.23-.9-2.26s-.68,1-1,2l-.55,1.93.09,2.08C46.53,108.74,46.6,109.85,47,110Z"/><path class="cls-154" d="M17.74,134.06c.32-.16-.3-2.31-.74-4.44s-.72-4.25-.72-4.25-.58-2.07-1-4.21-.69-4.34-1.05-4.39-.78,2.12-.81,4.4a32.29,32.29,0,0,0,.28,4.58,33.7,33.7,0,0,0,1.55,4.4C16.18,132.28,17.43,134.22,17.74,134.06Z"/><path class="cls-155" d="M26,138.13c-.17-.37-1.06-.43-1.82-.73a7.39,7.39,0,0,1-1.41-.7,6.77,6.77,0,0,1-1.48-.39c-.76-.28-1.53-.85-1.84-.66s0,1.34.82,2.28a6.77,6.77,0,0,0,1.84,1.51,5.42,5.42,0,0,0,2.19,0C25.37,139.23,26.16,138.49,26,138.13Z"/></g><path class="cls-156" d="M32,91.34c.49.56,1.8,0,2.94-1.13s1.66-2.59,1.18-3.15-1.8,0-2.94,1.13S31.56,90.79,32,91.34Z"/><path class="cls-157" d="M29.52,95.38c.34.27,1-.2,1.57-1.06s.68-1.77.34-2-1,.2-1.57,1.06S29.18,95.11,29.52,95.38Z"/><path class="cls-158" d="M32.55,95.54c.34.27,1-.2,1.57-1.06s.68-1.77.34-2-1,.2-1.57,1.06S32.21,95.27,32.55,95.54Z"/><path class="cls-159" d="M163.86,88.72a2.32,2.32,0,1,1-2.32-2.32A2.32,2.32,0,0,1,163.86,88.72Zm10-.26a5.41,5.41,0,1,0,5.41,5.41A5.41,5.41,0,0,0,173.9,88.46ZM196.69,98a2.45,2.45,0,1,0,2.45,2.45A2.45,2.45,0,0,0,196.69,98Zm-2.32,58.19a4,4,0,1,0,4,4A4,4,0,0,0,194.37,156.17Zm-11.2,9.27a2.32,2.32,0,1,0,2.32,2.32A2.32,2.32,0,0,0,183.17,165.44Zm-49.95-8.24a2.57,2.57,0,1,0,2.57,2.57A2.57,2.57,0,0,0,133.22,157.2ZM142.11,168a4.51,4.51,0,1,0,4.51,4.51A4.51,4.51,0,0,0,142.11,168Zm35.79,5.41a4.76,4.76,0,1,0,4.76,4.76A4.76,4.76,0,0,0,177.89,173.42Zm-90.11,15.7a1.93,1.93,0,1,0,1.93,1.93A1.93,1.93,0,0,0,87.78,189.13Zm3.86,9.27a3.22,3.22,0,1,0,3.22,3.22A3.22,3.22,0,0,0,91.64,198.4ZM40.28,153.34a2.57,2.57,0,1,0,2.57,2.57A2.57,2.57,0,0,0,40.28,153.34Zm10.94-9.27a4.25,4.25,0,1,0,4.25,4.25A4.25,4.25,0,0,0,51.22,144.07Zm6.44,10a2.45,2.45,0,1,0,2.45,2.45A2.45,2.45,0,0,0,57.66,154.11Zm74.15,13.13a1.93,1.93,0,1,0,1.93,1.93A1.93,1.93,0,0,0,131.81,167.24ZM55.38,64.68a2.39,2.39,0,1,0,2.39,2.39A2.39,2.39,0,0,0,55.38,64.68Zm7.82,4.47A2.87,2.87,0,1,0,66.07,72,2.87,2.87,0,0,0,63.2,69.15Zm-4,7.34a4.31,4.31,0,1,0,4.31,4.31A4.31,4.31,0,0,0,59.21,76.49ZM131,36a2.39,2.39,0,1,0,2.39,2.39A2.39,2.39,0,0,0,131,36Zm-5.74,11.81a3.67,3.67,0,1,0,3.67,3.67A3.67,3.67,0,0,0,125.28,47.77Zm8.78,4.79a2.23,2.23,0,1,0,2.23,2.23A2.23,2.23,0,0,0,134.05,52.56ZM65.27,124.37A1.76,1.76,0,1,0,67,126.12,1.76,1.76,0,0,0,65.27,124.37Zm8.14,4.79a5.43,5.43,0,1,0,5.43,5.43A5.43,5.43,0,0,0,73.41,129.16Zm49.31.64A4.31,4.31,0,1,0,127,134.1,4.31,4.31,0,0,0,122.72,129.79Zm1.92,13.72a2.71,2.71,0,1,0,2.71,2.71A2.71,2.71,0,0,0,124.64,143.52Z"/><path class="cls-160" d="M54.17,69.09a2.26,2.26,0,0,1-.07-.35,2.39,2.39,0,0,1,2.39-2.39,2.32,2.32,0,0,1,1.21.38,2.36,2.36,0,0,0-2.32-2A2.39,2.39,0,0,0,53,67.08,2.36,2.36,0,0,0,54.17,69.09Z"/><path class="cls-161" d="M56.32,158.23a2.44,2.44,0,0,1,3.74-2.07,2.44,2.44,0,1,0-3.7,2.47A2.43,2.43,0,0,1,56.32,158.23Z"/><path class="cls-162" d="M48.09,150a4.23,4.23,0,0,1,7.11-3.12,4.24,4.24,0,1,0-6.84,4.57A4.21,4.21,0,0,1,48.09,150Z"/><path class="cls-163" d="M38.82,157.58a2.57,2.57,0,0,1,4-2.15,2.57,2.57,0,1,0-3.94,2.63A2.58,2.58,0,0,1,38.82,157.58Z"/><path class="cls-164" d="M61.52,74.35a2.86,2.86,0,0,1,4.47-3,2.87,2.87,0,1,0-4.47,3Z"/><path class="cls-165" d="M54.9,80.8A4.28,4.28,0,0,0,56.29,84a4.29,4.29,0,0,1,6.95-4.64A4.3,4.3,0,0,0,54.9,80.8Z"/><path class="cls-166" d="M182,169.73a2.19,2.19,0,0,1-.06-.31,2.32,2.32,0,0,1,2.32-2.32,2.25,2.25,0,0,1,1.15.35,2.29,2.29,0,0,0-2.26-2,2.32,2.32,0,0,0-2.32,2.32A2.29,2.29,0,0,0,182,169.73Z"/><path class="cls-167" d="M195.39,102.5a2.43,2.43,0,0,1,3.7-2.47,2.44,2.44,0,1,0-3.7,2.47Z"/><path class="cls-168" d="M133.22,157.2a2.57,2.57,0,0,0-1.42,4.72,2.57,2.57,0,0,1,3.94-2.63A2.57,2.57,0,0,0,133.22,157.2Z"/><path class="cls-169" d="M122.91,54.22a3.63,3.63,0,0,1-.19-1.12,3.65,3.65,0,0,1,6-2.78,3.66,3.66,0,1,0-5.85,3.9Z"/><path class="cls-170" d="M129.81,40.37a2.24,2.24,0,0,1-.07-.35,2.39,2.39,0,0,1,2.39-2.39,2.33,2.33,0,0,1,1.21.38A2.36,2.36,0,0,0,131,36a2.39,2.39,0,0,0-2.39,2.39A2.36,2.36,0,0,0,129.81,40.37Z"/><path class="cls-171" d="M131.82,54.79A2.21,2.21,0,0,0,133,56.71a2.11,2.11,0,0,1-.05-.26,2.23,2.23,0,0,1,2.23-2.23,2.18,2.18,0,0,1,1.07.31,2.21,2.21,0,0,0-2.18-2A2.23,2.23,0,0,0,131.82,54.79Z"/><path class="cls-172" d="M69.1,136.25a5.42,5.42,0,0,1,9.32-3.77,5.42,5.42,0,1,0-8.89,5.87A5.41,5.41,0,0,1,69.1,136.25Z"/><path class="cls-173" d="M169.61,95.53a5.4,5.4,0,0,1,9.28-3.76A5.4,5.4,0,1,0,170,97.63,5.39,5.39,0,0,1,169.61,95.53Z"/><path class="cls-174" d="M138.71,174.19a4.49,4.49,0,0,1,7.59-3.27,4.5,4.5,0,1,0-7.29,4.87A4.47,4.47,0,0,1,138.71,174.19Z"/><path class="cls-175" d="M160.34,90.39a2.32,2.32,0,0,1,2.32-2.32,2.25,2.25,0,0,1,1.15.35,2.29,2.29,0,0,0-2.26-2,2.32,2.32,0,0,0-2.32,2.32,2.29,2.29,0,0,0,1.17,2A2.17,2.17,0,0,1,160.34,90.39Z"/><path class="cls-176" d="M174.24,179.85a4.76,4.76,0,0,1,8.07-3.41,4.76,4.76,0,1,0-7.73,5.16A4.74,4.74,0,0,1,174.24,179.85Z"/><path class="cls-177" d="M191.49,161.83a4,4,0,0,1,6.64-3,4,4,0,1,0-6.4,4.27A4,4,0,0,1,191.49,161.83Z"/><path class="cls-178" d="M89.54,203.28a3.2,3.2,0,0,1,5.2-2.52,3.21,3.21,0,1,0-5.07,3.38A3.18,3.18,0,0,1,89.54,203.28Z"/><path class="cls-179" d="M66.38,126a1.74,1.74,0,0,1,.64.13s0,0,0,0a1.76,1.76,0,1,0-2.39,1.63A1.75,1.75,0,0,1,66.38,126Z"/><path class="cls-180" d="M131,170.84a1.93,1.93,0,0,1,1.93-1.93,1.9,1.9,0,0,1,.8.19,1.92,1.92,0,1,0-2.72,1.82S131,170.87,131,170.84Z"/><path class="cls-181" d="M87,192.72a1.93,1.93,0,0,1,1.93-1.93,1.9,1.9,0,0,1,.8.19A1.92,1.92,0,1,0,87,192.8S87,192.75,87,192.72Z"/><path class="cls-182" d="M123,147.9a2.71,2.71,0,0,1,4.26-2.23,2.71,2.71,0,1,0-4.2,2.79A2.72,2.72,0,0,1,123,147.9Z"/><path class="cls-183" d="M119.52,135.77a4.3,4.3,0,0,1,7.23-3.15,4.3,4.3,0,1,0-6.95,4.64A4.27,4.27,0,0,1,119.52,135.77Z"/></g></g></svg>