<svg xmlns="http://www.w3.org/2000/svg" xmlns:xlink="http://www.w3.org/1999/xlink" viewBox="0 0 500 500"><defs><style>.cls-1{isolation:isolate;}.cls-2{fill:url(#linear-gradient);}.cls-10,.cls-15,.cls-19,.cls-3,.cls-9{mix-blend-mode:overlay;}.cls-3{fill:url(#linear-gradient-2);}.cls-4{fill:url(#linear-gradient-3);}.cls-5{fill:url(#linear-gradient-4);}.cls-6{fill:url(#linear-gradient-5);}.cls-7{fill:url(#linear-gradient-6);}.cls-8{fill:url(#linear-gradient-7);}.cls-9{fill:url(#radial-gradient);}.cls-10{fill:url(#radial-gradient-2);}.cls-11{fill:url(#linear-gradient-8);}.cls-12{fill:url(#linear-gradient-9);}.cls-13{fill:url(#linear-gradient-10);}.cls-14{fill:url(#linear-gradient-11);}.cls-15{fill:url(#linear-gradient-12);}.cls-16{fill:url(#linear-gradient-13);}.cls-17{fill:url(#linear-gradient-14);}.cls-18{fill:url(#linear-gradient-15);}.cls-19{fill:url(#linear-gradient-16);}.cls-20{fill:url(#linear-gradient-17);}</style><linearGradient id="linear-gradient" x1="71.74" y1="532.68" x2="-15.98" y2="506.69" gradientTransform="translate(-146.32 -147.95) rotate(-22.58)" gradientUnits="userSpaceOnUse"><stop offset="0.14" stop-color="#fff3c1"/><stop offset="0.33" stop-color="#fdcf4c"/><stop offset="0.9" stop-color="#f85b00"/></linearGradient><linearGradient id="linear-gradient-2" x1="34.95" y1="671.25" x2="-94.5" y2="661.24" gradientTransform="translate(-294.89 -221.41) rotate(-37.47)" gradientUnits="userSpaceOnUse"><stop offset="0" stop-color="#fff"/><stop offset="1" stop-color="#fff" stop-opacity="0"/></linearGradient><linearGradient id="linear-gradient-3" x1="40.95" y1="559.51" x2="19.73" y2="553.22" gradientTransform="matrix(0.85, -0.53, 0.53, 0.85, -236.64, -197.68)" gradientUnits="userSpaceOnUse"><stop offset="0.1" stop-color="#9da3a5"/><stop offset="0.94" stop-color="#fff"/></linearGradient><linearGradient id="linear-gradient-4" x1="69.8" y1="444.65" x2="326.19" y2="592.67" gradientTransform="matrix(0.85, -0.53, 0.53, 0.85, -236.64, -197.68)" gradientUnits="userSpaceOnUse"><stop offset="0.06" stop-color="#fff"/><stop offset="0.9" stop-color="#9da3a5"/></linearGradient><linearGradient id="linear-gradient-5" x1="183.6" y1="545.46" x2="183.6" y2="632.57" gradientTransform="matrix(0.85, -0.53, 0.53, 0.85, -236.64, -197.68)" gradientUnits="userSpaceOnUse"><stop offset="0.06" stop-color="#ccc"/><stop offset="0.9" stop-color="#6a6e70"/></linearGradient><linearGradient id="linear-gradient-6" x1="263.61" y1="527.71" x2="263.61" y2="727.97" gradientTransform="matrix(0.85, -0.53, 0.53, 0.85, -236.64, -197.68)" gradientUnits="userSpaceOnUse"><stop offset="0.1" stop-color="#9da3a5"/><stop offset="0.32" stop-color="#cacdce"/><stop offset="0.53" stop-color="#f0f1f2"/><stop offset="0.65" stop-color="#fff"/><stop offset="0.77" stop-color="#f0f1f1"/><stop offset="1" stop-color="#d6d9d9"/></linearGradient><linearGradient id="linear-gradient-7" x1="339.07" y1="553.41" x2="339.07" y2="644.51" gradientTransform="matrix(0.85, -0.53, 0.53, 0.85, -236.64, -197.68)" gradientUnits="userSpaceOnUse"><stop offset="0.14" stop-color="#50aaa0"/><stop offset="0.9" stop-color="#345092"/></linearGradient><radialGradient id="radial-gradient" cx="352.19" cy="546.43" r="128.36" gradientTransform="matrix(0.85, -0.53, 0.53, 0.85, -236.64, -197.68)" gradientUnits="userSpaceOnUse"><stop offset="0" stop-color="#fff" stop-opacity="0"/><stop offset="0.2" stop-color="#fff" stop-opacity="0.01"/><stop offset="0.33" stop-color="#fff" stop-opacity="0.05"/><stop offset="0.44" stop-color="#fff" stop-opacity="0.11"/><stop offset="0.55" stop-color="#fff" stop-opacity="0.19"/><stop offset="0.65" stop-color="#fff" stop-opacity="0.3"/><stop offset="0.74" stop-color="#fff" stop-opacity="0.44"/><stop offset="0.83" stop-color="#fff" stop-opacity="0.6"/><stop offset="0.92" stop-color="#fff" stop-opacity="0.78"/><stop offset="1" stop-color="#fff" stop-opacity="0.99"/><stop offset="1" stop-color="#fff"/></radialGradient><radialGradient id="radial-gradient-2" cx="352.19" cy="546.43" r="128.36" xlink:href="#radial-gradient"/><linearGradient id="linear-gradient-8" x1="264.99" y1="647.34" x2="264.99" y2="723.9" xlink:href="#linear-gradient-5"/><linearGradient id="linear-gradient-9" x1="228.77" y1="599.06" x2="202.96" y2="630.35" gradientTransform="translate(55.42 -404.13)" gradientUnits="userSpaceOnUse"><stop offset="0.17" stop-color="#ccc"/><stop offset="0.4" stop-color="#6a6e70"/><stop offset="0.66" stop-color="#a7a9aa"/><stop offset="0.89" stop-color="#86898a"/></linearGradient><linearGradient id="linear-gradient-10" x1="192.28" y1="598.62" x2="245.53" y2="629.37" gradientTransform="translate(53.81 -403.2)" xlink:href="#linear-gradient-4"/><linearGradient id="linear-gradient-11" x1="200.33" y1="603.27" x2="234.59" y2="623.05" gradientTransform="matrix(1, 0, 0, 1, 53.81, -403.21)" gradientUnits="userSpaceOnUse"><stop offset="0" stop-color="#5ef0d7"/><stop offset="0.26" stop-color="#5e9bc9"/><stop offset="0.64" stop-color="#242d76"/><stop offset="0.91" stop-color="#060814"/></linearGradient><linearGradient id="linear-gradient-12" x1="209.51" y1="598.77" x2="212.72" y2="607.53" gradientTransform="translate(310.68 -434.67) rotate(23.62)" xlink:href="#linear-gradient-2"/><linearGradient id="linear-gradient-13" x1="174.79" y1="594.21" x2="148.98" y2="625.51" gradientTransform="translate(61 -374.92)" xlink:href="#linear-gradient-9"/><linearGradient id="linear-gradient-14" x1="138.3" y1="593.78" x2="191.55" y2="624.52" gradientTransform="translate(59.39 -373.99)" xlink:href="#linear-gradient-4"/><linearGradient id="linear-gradient-15" x1="146.35" y1="598.42" x2="180.6" y2="618.2" gradientTransform="translate(59.39 -373.99)" xlink:href="#linear-gradient-11"/><linearGradient id="linear-gradient-16" x1="155.53" y1="593.92" x2="158.74" y2="602.68" gradientTransform="matrix(0.92, 0.4, -0.4, 0.92, 309.79, -384.23)" xlink:href="#linear-gradient-2"/><linearGradient id="linear-gradient-17" x1="-47.13" y1="589.41" x2="279.88" y2="778.2" xlink:href="#linear-gradient-4"/></defs><title>Mesa de trabajo 3</title><g class="cls-1"><g id="OBJECTS"><path class="cls-2" d="M136.36,302.72A43.8,43.8,0,0,1,112.73,360C90.4,369.27,0,359.43,0,359.43s56.76-71,79.09-80.33A43.8,43.8,0,0,1,136.36,302.72Z"/><path class="cls-3" d="M129.09,304.34a30,30,0,0,1-16.16,39.16c-15.28,6.35-77.1-.38-77.1-.38s38.82-48.59,54.1-54.94A30,30,0,0,1,129.09,304.34Z"/><path class="cls-4" d="M93.32,241.73,64.12,255.09a3.55,3.55,0,0,0,.7,6.68l32.65,7.32Z"/><path class="cls-5" d="M274.49,122.81,220.31,99.28a17,17,0,0,0-13.58,0L93.91,148.77a5.09,5.09,0,0,0-.47,9.08l40.48,23.05Z"/><path class="cls-6" d="M94.8,219.54s174.19-103.59,300-41.75c0,0,31.3,59.39-237.83,192.23C156.95,370,81.52,293.7,94.8,219.54Z"/><path class="cls-7" d="M133.92,180.91S345.71,55,498.64,130.15c0,0,38.06,72.21-289.16,233.73C209.48,363.87,117.78,271.08,133.92,180.91Z"/><path class="cls-8" d="M295.72,117.42h0s-8.7,41,15.75,87.57c0,0,85.38-26.84,146.76-89.95C404.68,100.71,347.2,105.51,295.72,117.42Z"/><path class="cls-9" d="M357.82,107.49c-10.29.86-20.51,2.13-30.59,3.74-13,24.18-23.1,50.72-23.49,76.59A152.53,152.53,0,0,0,311.46,205s5.26-1.65,14.1-5.1C324.63,167.1,337.34,134.25,357.82,107.49Z"/><path class="cls-10" d="M423.2,108.35c-4.63-.56-9.27-1-13.91-1.31-3.22,15.46-2.35,32,.86,48.16,5.13-3.53,10.28-7.26,15.39-11.2A211.84,211.84,0,0,1,423.2,108.35Z"/><path class="cls-11" d="M374.27,271.66l.06,0,4.09-2.7.08-.05,4-2.69,0,0c138.62-93.27,116.1-136,116.1-136a216.9,216.9,0,0,0-26.47-10.88c0,.05-16.08,54.84-144.22,112.28l-42.68,63.85h0c-.56.31-53.51,29.87-92.37,49.48,4.27,5.29,8,9.6,10.83,12.78h0l1.95,2.15.26.28.66.71.32.35.5.54.34.36.39.42.28.3.3.32.24.25.18.18.2.21.06.06.09.09,7.44-3.69,2.33-1.17,5-2.48,2.93-1.48,4.22-2.13,3.18-1.62,3.86-2,3.25-1.67,3.67-1.89,3.29-1.7,3.5-1.82,3.27-1.71,3.41-1.78,3.29-1.73,3.23-1.71,3.33-1.77,3.08-1.64,3.38-1.81,2.88-1.55,3.43-1.86,2.72-1.48,3.47-1.9,2.53-1.39,3.54-2,2.33-1.3,3.6-2,2.14-1.2,3.7-2.08,1.85-1,3.87-2.2,1.49-.86,4.1-2.35,1.06-.61,4.42-2.56.31-.18C340,293.4,355.76,283.69,370,274.45l.08,0Z"/><circle class="cls-12" cx="271.11" cy="210.82" r="19.16" transform="translate(-70.43 174.83) rotate(-31.85)"/><circle class="cls-13" cx="268.67" cy="208.45" r="19.16" transform="translate(-69.55 173.19) rotate(-31.85)"/><circle class="cls-14" cx="268.67" cy="208.45" r="12.33" transform="translate(-69.55 173.19) rotate(-31.85)"/><ellipse class="cls-15" cx="262.35" cy="204.24" rx="5.36" ry="3.31" transform="translate(-54.61 304.63) rotate(-55.47)"/><circle class="cls-16" cx="222.7" cy="235.19" r="19.16" transform="translate(-90.59 152.96) rotate(-31.85)"/><circle class="cls-17" cx="220.27" cy="232.83" r="19.16" transform="translate(-89.71 151.32) rotate(-31.85)"/><circle class="cls-18" cx="220.27" cy="232.83" r="12.33" transform="translate(-89.71 151.32) rotate(-31.86)"/><ellipse class="cls-19" cx="213.95" cy="228.62" rx="5.36" ry="3.31" transform="translate(-95.67 275.31) rotate(-55.47)"/><path class="cls-20" d="M309.49,243l-36.64,58.51a5.09,5.09,0,0,1-1.92,1.79L86.53,401.49A5.09,5.09,0,0,1,80,394l36.65-50.85Z"/></g></g></svg>