<svg id="Ñëîé_2" data-name="Ñëîé 2" xmlns="http://www.w3.org/2000/svg" xmlns:xlink="http://www.w3.org/1999/xlink" viewBox="0 0 500 500"><defs><style>.cls-1{fill:#f8b50e;}.cls-2{fill:#d0737e;}.cls-3{fill:#aa505f;}.cls-4{fill:#f9e5cd;}.cls-5{fill:#1190b7;}.cls-6{fill:#ce909b;}.cls-7{fill:#e0cab3;}.cls-8{fill:url(#Áåçûìÿííûé_ãðàäèåíò_11);}.cls-9{fill:#11c5d4;}.cls-10{fill:#139dce;}.cls-11{fill:#2b509e;}.cls-12{fill:#312a20;}.cls-13{fill:#3b4167;}.cls-14{fill:#139fd4;}.cls-15{fill:url(#Áåçûìÿííûé_ãðàäèåíò_5);}.cls-16{fill:#fff;}.cls-17{fill:#cc3b54;}.cls-18{fill:#fff5eb;}.cls-19{fill:#1288ad;}.cls-20{fill:#99c45a;}.cls-21{fill:#d1950f;}.cls-22{fill:#5b7bbb;}</style><linearGradient id="Áåçûìÿííûé_ãðàäèåíò_11" x1="-54.25" y1="-569.16" x2="17.28" y2="-633.96" gradientTransform="translate(-95.91 586.84) rotate(38.21)" gradientUnits="userSpaceOnUse"><stop offset="0" stop-color="#11c5d4"/><stop offset="1" stop-color="#9b6fc8"/></linearGradient><linearGradient id="Áåçûìÿííûé_ãðàäèåíò_5" x1="-24.48" y1="-591.85" x2="-113.45" y2="-580.43" gradientTransform="translate(-95.91 586.84) rotate(38.21)" gradientUnits="userSpaceOnUse"><stop offset="0" stop-color="#11c5d4"/><stop offset="1" stop-color="#78f1f4"/></linearGradient></defs><title>Mesa de trabajo 3</title><path class="cls-1" d="M421.73,498.82a5.08,5.08,0,0,1-2.77-3.68c-4.88-27.35-28.36-40.27-51.08-52.76-21.57-11.86-41.94-23.06-43-45.74-.91-18.74,13.09-36.4,26.63-53.47,9.32-11.75,19-23.9,22.47-35.22,3.69-11.88.37-21.49-10.78-31.16-43.67-37.89-130.07-1.46-130.94-1.08a5.09,5.09,0,0,1-4-9.35,243,243,0,0,1,51.84-14.57c16.9-2.74,32.43-3.16,46.17-1.26,17.54,2.43,32.21,8.68,43.61,18.57,14.23,12.35,18.75,26,13.83,41.87-4.08,13.14-14.32,26-24.22,38.53-12.37,15.6-25.16,31.73-24.44,46.65.82,17,17.95,26.41,37.78,37.31,23.66,13,50.47,27.75,56.2,59.9a5.09,5.09,0,0,1-7.26,5.46Z"/><path class="cls-2" d="M240,343.59a118.69,118.69,0,0,1-21.28-3.15c-12.18-2.9-27-8.45-37.26-19-20.23-20.91,88.18-148.28,88.18-148.28A108.18,108.18,0,0,1,293.6,184.6a76,76,0,0,1,17.18,14.72s5.16,29.36-12.79,69.37a192.52,192.52,0,0,1-23.39,38.67A249.41,249.41,0,0,1,240,343.59Z"/><path class="cls-3" d="M274.59,307.36c-1.55,1-3.14,1.92-4.73,2.83A138.89,138.89,0,0,1,252.19,319c-12,4.77-26.35,8.15-32.45,19.56-.34.63-.65,1.3-1,1.94-12.18-2.9-27-8.45-37.26-19-20.23-20.91,88.18-148.28,88.18-148.28A108.18,108.18,0,0,1,293.6,184.6c-1.3,6-3.19,12-3.22,16.26-.06,6.47,2.71,12.57,4.61,18.75,3.38,11,4.07,22.65,3.95,34.16a129.16,129.16,0,0,1-1,14.92A192.52,192.52,0,0,1,274.59,307.36Z"/><path class="cls-4" d="M112.25,133.09c-.45-1.32-.68-2.34-.75-2.63-1-4.27-1.41-14.65-.12-29.51,1.82-20.78,6.25-43.68,7.83-51.35,0-.07,1.5-7.43,2.63-12.3,17.65-7.92,37.95.52,37.95.52l.57,45.72h0l.06,4.72L163,92.44,184.32,127l9.41,15.2a63.58,63.58,0,0,1-1.15,6.41C181.31,196.6,121.94,161.77,112.25,133.09Z"/><path class="cls-5" d="M111.5,130.46a22.31,22.31,0,0,1-.49-2.91c0-.47-.09-.94-.13-1.43s-.07-.93-.11-1.4a1,1,0,0,0,0-.11c0-.48-.06-1-.08-1.46-.12-2.56-.15-5.27-.1-8.09,0-1,0-2.11.09-3.18.13-3.53.37-7.2.69-10.93L127,95.41a19.35,19.35,0,0,0,2.86,6.6c1.62,2.06,5.49,4.52,10.54,7.12Z"/><path class="cls-4" d="M276.18,217.75q-5,5.72-9.81,11.59c-24.8,30.43-44.5,62.77-58.93,80.74-4.53,5.64-8.54,9.87-12,12.17a14.61,14.61,0,0,1-2.69,1.42c-8.59,3.3-22.37-.7-36.19-7.58a170.49,170.49,0,0,1-22.73-13.77,123.15,123.15,0,0,1-16.62-14c-16-16.61-16.9-60.29-16.9-60.29,32.88-53.87,70.5-87.83,82.87-98.22,2.68-2.25,4.18-3.4,4.18-3.4,31.8,58.39,95,60,95,60-.16,1.86-.37,3.72-.6,5.56C280.58,201,281.85,211.31,276.18,217.75Z"/><path class="cls-6" d="M281.69,192a5.78,5.78,0,0,1-1.28.14c-23.31,0-45.94-8.29-65.85-24q-3.09-2.43-6.09-5.09a133.07,133.07,0,0,1-24.69-28.94,5.74,5.74,0,0,1-.63-4.31c2.68-2.25,4.18-3.4,4.18-3.4,31.8,58.39,95,60,95,60Q282,189.26,281.69,192Z"/><path class="cls-1" d="M112.31,209.5a10.24,10.24,0,0,1,6.13-9.38c17.22-6.3,31.31-20.5,41.8-34.69,2.12-2.86,4.09-5.72,5.91-8.52a189.73,189.73,0,0,0,15.71-29.42c3.79-1.22,10.85-.63,10.85-.63L190,134.3a212,212,0,0,1-15.59,31.32q-2.92,4.74-5.85,8.82C140.3,213.87,112.31,209.5,112.31,209.5Z"/><path class="cls-7" d="M279.06,181.45c-9.21,1.82-55.55-7.88-83-49.8a70.14,70.14,0,0,1-1.92-17.51s0,0,0,0c0-15.4,4.25-38.58,24.64-59.61,34.44-35.52,91,5.59,101.48,18.12a65.74,65.74,0,0,1,13.38,26.78h0c2.77,12.11,2,26.53-6.9,41.8C309.45,170.82,288.27,179.62,279.06,181.45Z"/><path class="cls-4" d="M277.7,166.41c-8.26,1.64-46.42-6-74-37.88a110.82,110.82,0,0,1-9-11.93s-.24-.87-.56-2.47c0,0,0,0,0,0,0-15.4,4.25-38.58,24.64-59.61a49,49,0,0,1,6-5.26c34.65-25.74,85.65,11.56,95.5,23.38a65.74,65.74,0,0,1,13.38,26.78h0a58.33,58.33,0,0,1-8.26,26.76C308.09,155.78,286.91,164.59,277.7,166.41Z"/><path class="cls-6" d="M280.26,159.81c-30.67,4.42-60.11-16.53-76.57-31.28a110.82,110.82,0,0,1-9-11.93s-.24-.87-.56-2.47c0,0,0,0,0,0,0-15.4,4.25-38.58,24.64-59.61a49,49,0,0,1,6-5.26c43.1,12.1,89.84,62.49,89.84,62.49C295.77,153.56,280.26,159.81,280.26,159.81Z"/><path class="cls-8" d="M278.55,156.86c-23.22,2.43-46.26-10.31-62.82-22.84a178.43,178.43,0,0,1-24.38-22.2c-6.27-33.73,25.87-61.4,25.87-61.4,10.09,2.47,20.59,7.31,30.74,13.26,32.57,19.08,61.49,49.54,61.49,49.54C293.06,151.59,278.55,156.86,278.55,156.86Z"/><path class="cls-9" d="M260.87,145.26c-15.79,1.65-31.49-3.71-45.14-11.24a178.43,178.43,0,0,1-24.38-22.2c-6.27-33.73,25.87-61.4,25.87-61.4,10.09,2.47,20.59,7.31,30.74,13.26a350.85,350.85,0,0,1,43.8,38C275.38,140,260.87,145.26,260.87,145.26Z"/><path class="cls-7" d="M295.83,140.72s-8.49,8.84-1.83,19.65,17.42-6.1,17.42-6.1Z"/><rect class="cls-10" x="320" y="117.45" width="4.52" height="14.03" rx="1.84" ry="1.84" transform="translate(213.35 -203.38) rotate(50.5)"/><path class="cls-10" d="M314.46,145.61c4.09-5.2,6.63-10.68,7.25-15l2.65-3.37-4.4-3.46c-4-3.13-12.89,1.56-19.9,10.47s-9.48,18.67-5.5,21.8l4.4,3.46,2.65-3.37C305.63,154.56,310.37,150.8,314.46,145.61Z"/><polygon class="cls-10" points="326.89 119.21 332.28 123.87 324.96 130.26 320 125.13 326.89 119.21"/><ellipse class="cls-11" cx="311.66" cy="143.4" rx="20.53" ry="9.16" transform="translate(6.21 299.59) rotate(-51.79)"/><path class="cls-10" d="M316,145.7c-4,5.08-8.52,8.2-10.09,7-.61-.48-.68-1.54-.32-3a30.58,30.58,0,0,1,11.86-15.06c1.29-.69,2.34-.86,2.95-.38C322,135.5,320,140.62,316,145.7Z"/><path class="cls-12" d="M312.77,143.13a25.76,25.76,0,0,1-7.14,6.58,30.58,30.58,0,0,1,11.86-15.06A25.73,25.73,0,0,1,312.77,143.13Z"/><path class="cls-11" d="M321.74,133.05l.72.87a1.7,1.7,0,0,0,2.39.23l7.34-6.41c.72-.6,1.69-2,1.09-2.74l-.72-.87a1.7,1.7,0,0,0-2.39-.23L322,130.67A1.7,1.7,0,0,0,321.74,133.05Z"/><path class="cls-1" d="M223,219.64c-2.72-1.61-5.7-3.5-8.93-5.69-12.09-8.21-27.62-20.71-45.48-39.51q-4.07-4.28-8.29-9c2.12-2.86,4.09-5.72,5.91-8.52,2.24,2.59,5,5.5,8.23,8.71,10,9.84,25.32,22.56,48.61,38.06q4.26,2.84,8.88,5.79A53.89,53.89,0,0,0,223,219.64Z"/><path class="cls-1" d="M226.79,283.35c0,3.28-4.66,10-8.9,12.73h0C220.71,292.12,223.68,287.85,226.79,283.35Z"/><path class="cls-1" d="M281.3,195c-4.65-.61-14.65.37-14.65.37-15.28,1.53-26.54,6.79-34.77,14.06a53.61,53.61,0,0,0-8.93,10.17c-7.61,11.21-3.6,29.28.08,44.35a132,132,0,0,1-7.19,15.87,31.71,31.71,0,0,1-3.2,4.43c-5.72-18.14-10.27-50.55-1.34-66.05.87-1.49,1.77-2.92,2.72-4.3a59.61,59.61,0,0,1,9-10.26c23.81-21.77,59.13-19.61,59.72-15.53C283.42,193,281.3,195,281.3,195Z"/><path class="cls-13" d="M216.34,165.94q-3.09-2.43-6.08-5.09a133,133,0,0,1-24.69-28.95,5.74,5.74,0,0,1,2.07-7.91,5.88,5.88,0,0,1,8,2.17h0a123.61,123.61,0,0,0,22.63,26.33c19.34,17.1,40.82,25.79,63.83,25.82a5.91,5.91,0,0,1,5.9,5.81,5.71,5.71,0,0,1-5.75,5.8C258.89,189.88,236.26,181.62,216.34,165.94Z"/><path class="cls-14" d="M159.82,41.72s-24.93-8.8-38.55-1.92c0,0,3.25-18.5-4.08-30.59A2,2,0,0,1,118,6.46c3.13-1.68,9.81-4.71,17.23-4.66a1.94,1.94,0,0,1,1.37.59,52,52,0,0,1,6.37,8.13,2,2,0,0,0,3.64-1.39,23.82,23.82,0,0,0-1.69-5.65,2,2,0,0,1,1.66-2.8,10.1,10.1,0,0,1,5,.85,1.94,1.94,0,0,1,1,1.2c.65,2.2,2.58,8.94,4.09,16.24a2,2,0,0,0,3.82.25c.3-.83.56-1.64.77-2.34a2,2,0,0,1,2.63-1.3c1.81.72,4.12,2.08,4.46,4.36C168.89,23.78,159.82,41.72,159.82,41.72Z"/><path class="cls-11" d="M159.89,41.58s-26.14-9.69-39.06-1.5c0,0-2.64,7.1-1.91,10.83l41,.88S161.68,47.86,159.89,41.58Z"/><path class="cls-14" d="M140.37,109.14c-5.06-2.6-8.92-5.07-10.54-7.12a19.35,19.35,0,0,1-2.86-6.6l33.38-11.87h0l.06,4.72L163,92.44Z"/><path class="cls-15" d="M196.58,95.83a26.32,26.32,0,0,0,1.13,11.34c.87,2.37,2.67,4.81,5.19,4.88a5.36,5.36,0,0,0,4.27-2.39,18.2,18.2,0,0,0,2.14-4.6c1.42-3.86,3.24-7.73,6.35-10.42,4.14-3.57,10.07-4.5,15.45-3.59s10.35,3.44,15.09,6.16,9.39,5.68,14.52,7.56a38.09,38.09,0,0,0,6.69,1.79,9.11,9.11,0,0,0,5.46-.33,6.54,6.54,0,0,0,3.37-5.59,12.94,12.94,0,0,0-1.73-6.55c-2.41-4.64-6.16-8.44-10.09-11.88C253.12,72.31,239.9,64.74,226,59.07c-3.87-1.58-8.27-4.4-11.88-.95-4.62,4.43-8.3,10.9-11.19,16.56A57.72,57.72,0,0,0,196.58,95.83Z"/><path class="cls-16" d="M207.91,74.29a4.91,4.91,0,0,0,.17,2.93,2,2,0,0,0,2.44,1.13,3.07,3.07,0,0,0,1.06-1,15.39,15.39,0,0,1,5-4.53c1.1-.55,2.29-.88,3.39-1.43a4.76,4.76,0,0,0,2.53-2.55,4,4,0,0,0-.44-3.19c-1.54-2.65-5.46-5-8.16-2.78C210.64,65.52,208.6,70.25,207.91,74.29Z"/><path class="cls-16" d="M204.22,88.76a2.36,2.36,0,0,0,3.12.14A5.14,5.14,0,0,0,209,86c.48-1.86-.07-6.49-3-4.64C204.28,82.46,202.78,87,204.22,88.76Z"/><path class="cls-11" d="M193.73,214.89c-2.51,3.19-6.6,4.15-9.13,2.16a4.72,4.72,0,0,1-1.35-1.7c-1.06-2.18-.63-5.23,1.3-7.68,2.39-3,6.21-4.06,8.76-2.43a3.44,3.44,0,0,1,.38.26C196.22,207.5,196.24,211.7,193.73,214.89Z"/><path class="cls-14" d="M192,212.91c-2.38,3-6.2,4.05-8.75,2.43-1.06-2.18-.63-5.23,1.3-7.68,2.39-3,6.21-4.06,8.76-2.43C194.36,207.42,193.92,210.46,192,212.91Z"/><path class="cls-17" d="M205.07,223.82c-2.51,3.19-6.6,4.15-9.13,2.16a4.72,4.72,0,0,1-1.35-1.7c-1.06-2.18-.63-5.23,1.3-7.68,2.39-3,6.21-4.06,8.76-2.43a3.44,3.44,0,0,1,.38.26C207.56,216.42,207.58,220.63,205.07,223.82Z"/><path class="cls-2" d="M203.33,221.84c-2.38,3-6.2,4.05-8.75,2.43-1.06-2.18-.63-5.23,1.3-7.68,2.39-3,6.21-4.06,8.76-2.43C205.7,216.35,205.26,219.39,203.33,221.84Z"/><path class="cls-11" d="M164.66,223.2S149,212.49,144.45,205.27l1.69-1.95c4.17-4.79,15-17.16,20.12-22.8,0,0,10.22,10.74,17.51,17,.84.73,1.63,1.39,2.37,2C186.13,199.55,171.12,213.85,164.66,223.2Z"/><path class="cls-14" d="M164.63,218.95s-12.59-8.64-18.5-15.62c4.17-4.79,15-17.16,20.12-22.8,0,0,10.22,10.74,17.51,17C179.28,202,169.51,211.87,164.63,218.95Z"/><path class="cls-4" d="M358.35,156.48l-.39,1c-2.05,5.07-11.75,28.6-21.32,44.53h0a90.32,90.32,0,0,1-5,7.59,31,31,0,0,1-3.2-2c-4.58,3-10.81,6.93-18,11,2.21,2.55,4.2,4.77,5.79,6.51C303.7,236.95,291,248,279.23,253.11,272.45,256,266,257,259.93,255c-8.36-2.82-14.63-6.47-19.2-10.66a34.72,34.72,0,0,1-3.58-3.8c-6.07-7.51-7.76-16.33-7-25.2.86-10.31,12.32-21,22.37-23.44,8-1.95,18.3-8,32.69-15.69,4.23-2.25,8.8-4.64,13.76-7.12,1-.48,24.26-29.33,27.69-34.2.15-.21.26-.38.33-.5A265.06,265.06,0,0,1,358.35,156.48Z"/><path class="cls-14" d="M331.9,126.23s25.2,8,31.92,21.7c0,0,8.56-16.72,21.69-22a2,2,0,0,0,1-2.65c-1.48-3.22-5-9.67-10.94-14.1a1.94,1.94,0,0,0-1.45-.35,52,52,0,0,0-10,2.65,2,2,0,0,1-2.07-3.31,23.82,23.82,0,0,1,4.75-3.49,2,2,0,0,0,.36-3.24,10.1,10.1,0,0,0-4.53-2.35,1.94,1.94,0,0,0-1.51.36c-1.85,1.37-7.45,5.58-13.05,10.5a2,2,0,0,1-3.2-2.1c.27-.84.54-1.64.8-2.33a2,2,0,0,0-1.31-2.62c-1.88-.52-4.54-.83-6.19.79C335.47,106.45,331.9,126.23,331.9,126.23Z"/><path class="cls-11" d="M331.93,126.08s26.7,8,32.07,22.34c0,0-2.17,7.26-5,9.8l-33.26-24S326.72,130,331.93,126.08Z"/><path class="cls-18" d="M263,45.33a94,94,0,0,1,23.33,6.55c.78.33,1.66.8,1.8,1.64a1.79,1.79,0,0,1-1.45,1.83,5.25,5.25,0,0,1-2.53-.22c-7.79-2-15.87-3.75-23.83-2.58-3.1.46-6.12,1.35-9.24,1.67-4,.41-19.12-1.91-9.86-7.07C247.43,43.68,256.28,44.35,263,45.33Z"/><path class="cls-18" d="M164.19,256.2a3.55,3.55,0,0,0,2.25-.1c-1.25-1.51-3.24-2.16-5.12-2.68-13.78-3.86-28.77-5.29-40.46-13.55a4.32,4.32,0,0,0-2.76-1.13c.08,0,3.49,4.32,4,4.75a12.39,12.39,0,0,0,3.58,2.59,108,108,0,0,0,12.66,4.07A245.9,245.9,0,0,0,164.19,256.2Z"/><path class="cls-18" d="M136,241.58c5.53,1,11.34,1.29,16.35,3.84.45.23,1,.7.7,1.13a1,1,0,0,1-.78.33c-11.38,1-23.55-.1-32.89-6.67-1.25-.88-2.87-2.78-.93-4,1.3-.78,2.64.38,3.8.94A55.21,55.21,0,0,0,136,241.58Z"/><path class="cls-4" d="M161.15,274.88c-4.25,1.93-8.68,6.68-13,12.93L148,288c-.13.17-.24.35-.36.53a161.57,161.57,0,0,0-10.13,17.59l-23.86-6.6A89.3,89.3,0,0,0,111,313l22.33,1.75C126.27,330,120.81,345,118.92,350.3a.69.69,0,0,1,0,.11c-.07.17-.12.33-.17.48l-.08.21v0l-.06.17-.1.31,0,.13-.21.6-26,3.29c-8.27-11.8-15.7-42.28-15.7-42.28-11.41-47.81,25.6-88.19,25.6-88.19C151.36,208.21,180.72,266,161.15,274.88Z"/><path class="cls-14" d="M88.88,292.68l24.77,6.85A89.3,89.3,0,0,0,111,313l-27.4-2.15Z"/><path class="cls-11" d="M87.52,299.55s2.85,9.81,2.16,13.56-12.39,5.76-12.39,5.76-3.87-14.32-3.65-17.56S87.52,299.55,87.52,299.55Z"/><path class="cls-7" d="M148.14,287.81,148,288a166.23,166.23,0,0,0-10.39,18.15c-1.43,2.84-2.82,5.72-4.15,8.59-7.09,15.3-12.62,30.23-14.54,35.54a.69.69,0,0,1,0,.11l-.17.48-.08.21v0l-.06.17c0,.11-.07.21-.1.31l0,.13-.21.6-8.75,1.11c-.24-12.24-.08-27.62,1.56-40.44l22.33,1.75c1.34-2.88,2.73-5.77,4.16-8.61l-23.86-6.6a38.5,38.5,0,0,1,1.8-4.95,192,192,0,0,0,13-40.33S137.86,277,148.14,287.81Z"/><path class="cls-14" d="M87.54,349s4.11,9.94,5.65,11.53c0,0-14.1,6.34-16.86,14.81l45.41-5.75-1.84-12.44,2-11.68A142.13,142.13,0,0,0,87.54,349Z"/><path class="cls-19" d="M73.89,283.52s12.39.57,17.86,5.77L90.39,300l-16.83,4.14S67.44,297.05,73.89,283.52Z"/><path class="cls-5" d="M137.51,306.14c-1.43,2.84-2.82,5.73-4.16,8.61L111,313a89.3,89.3,0,0,1,2.63-13.46Z"/><path class="cls-11" d="M79.61,376.54c.89,0,1.44,1,2.28,1.28,1.5.46,2.68-1.45,4.22-1.74s3,1.13,4.56.84c1.17-.22,2-1.35,3.12-1.68,1.6-.46,3.3.77,4.92.37,1.32-.33,2.18-1.65,3.47-2.09,2.07-.71,4.23,1.11,6.41.88s3.85-2.29,5.92-1.92c1.42.25,2.82,1.63,4.08.92.42-.23.71-.66,1.14-.85.73-.32,1.71.12,2.17-1a2.08,2.08,0,0,0,0-1.41c-.11-.37-.15-1-.57-1.21a1.25,1.25,0,0,0-.74-.07l-4.1.46c-1.22.14-2.44.27-3.65.48-2,.34-3.9.85-5.86,1.26-6.19,1.29-12.53,1.44-18.82,1.85-3.14.2-6.29.46-9.4,1-2.6.43-3,1.46-2.42,3.6a.68.68,0,0,0,1,.41C78.12,377.46,78.65,376.51,79.61,376.54Z"/><path class="cls-18" d="M80.62,274.86a2.58,2.58,0,0,0,0,1.55.91.91,0,0,0,1.29.45,1.31,1.31,0,0,0,.34-.51l8-17.73c.66-1.46,2.42-5.87-.41-6.33-2.37-.38-3.49,3.55-4.1,5.08A92.13,92.13,0,0,0,80.62,274.86Z"/><path class="cls-6" d="M162.18,189.73h0a.77.77,0,0,1-.05-1.08l3.16-3.48a.77.77,0,0,1,1.08-.05h0a.77.77,0,0,1,.05,1.08l-3.16,3.48A.77.77,0,0,1,162.18,189.73Z"/><path class="cls-4" d="M217.33,391.49l-19.78,17.19C184.11,403.47,161,382.27,161,382.27c-19.88-18.4-25.84-52.78-27.18-79.94a269.43,269.43,0,0,1,.86-39.46c25.15-33.08,65.31.68,74.77,25,2.4,6.16,2.82,11.7.53,15.4a21.74,21.74,0,0,0-2.52,6.85,58.36,58.36,0,0,0-1.1,11.13c0,.08,0,.16,0,.25s0,.43,0,.64a161.93,161.93,0,0,0,1.37,20.26l-9.13,3-14.37,4.76a88.64,88.64,0,0,0,5.29,12.65l12.22-6.85,7.31-4.1c1.5,9.59,3.4,18.8,5,25.92h0c1.17,5.22,2.18,9.33,2.77,11.64a.46.46,0,0,1,0,.11l.13.49.06.22s0,0,0,0,0,.12,0,.18l.09.32,0,.13Z"/><path class="cls-20" d="M165.58,192.82h0a.77.77,0,0,1-.05-1.08l3.16-3.48a.77.77,0,0,1,1.08-.05h0a.77.77,0,0,1,.05,1.08l-3.16,3.48A.77.77,0,0,1,165.58,192.82Z"/><path class="cls-21" d="M226.79,283.35c-3.11,4.5-6.09,8.77-8.91,12.73-1.62-2-3.49-6.2-5.25-11.78a31.71,31.71,0,0,0,3.2-4.43A132,132,0,0,0,223,264C224.9,271.66,226.68,278.55,226.79,283.35Z"/><path class="cls-7" d="M231.87,209.47c.21,10.79.06,22.24,3.66,28.54,2.84,5,10.88,11.33,16.59,13.81-10.92,14.32-16.67,19-25.33,31.54-.11-4.81-1.9-11.69-3.77-19.36,4.07-10.28,7.63-20.81,7.63-20.81A67.26,67.26,0,0,1,231.87,209.47Z"/><path class="cls-7" d="M206.33,322.1a161.93,161.93,0,0,0,1.37,20.26l-9.13,3a127.09,127.09,0,0,1-3.15-23.13c-.23-4.82-.19-8.94-.09-12,.29-9.22,7.78-15.83,14.11-22.46,1.12-1.18,2.21-2.35,3.21-3.54,1.76,5.59,3.63,9.82,5.25,11.78-3.74,5.27-7.23,10-10.44,14a58.36,58.36,0,0,0-1.1,11.13c0,.08,0,.16,0,.25S206.33,321.89,206.33,322.1Z"/><path class="cls-7" d="M214,377.76a70.85,70.85,0,0,1-12.31-21.82l7.31-4.1C210.53,361.43,212.42,370.64,214,377.76Z"/><path class="cls-22" d="M175,201.7h0a.77.77,0,0,1-.05-1.08l3.16-3.48a.77.77,0,0,1,1.08-.05h0a.77.77,0,0,1,.05,1.08l-3.16,3.48A.77.77,0,0,1,175,201.7Z"/><path class="cls-12" d="M156.29,192.78l-7.23,8.3a1.14,1.14,0,0,0,0,1.5,64.36,64.36,0,0,0,12.58,10.81,1.13,1.13,0,0,0,1.46-.21c1.38-1.55,4.67-5.25,6.88-7.47a1.13,1.13,0,0,0-.06-1.65c-2.47-2.18-9.24-8.24-11.93-11.29A1.14,1.14,0,0,0,156.29,192.78Z"/><path class="cls-14" d="M159.79,358.21l24.4-8.08a89.29,89.29,0,0,0,5.3,12.65l-24,13.44Z"/><path class="cls-11" d="M162.48,364.68s7.82,6.57,9.34,10.07-7.09,11.68-7.09,11.68-11.18-9.76-12.8-12.57S162.48,364.68,162.48,364.68Z"/><path class="cls-14" d="M190,405.8s8.95,6,11.11,6.44c0,0-8.2,13.11-5.79,21.68l34.55-30-8.45-9.31-4.83-10.82A142.13,142.13,0,0,0,190,405.8Z"/><path class="cls-19" d="M142.24,358.93s10.62-6.41,18.06-5.14l4.84,9.69-11.69,12.8S144.4,373.76,142.24,358.93Z"/><path class="cls-5" d="M209,351.84l-7.31,4.1a97.76,97.76,0,0,1-3.14-10.56l9.13-3C208.08,345.52,208.53,348.7,209,351.84Z"/><path class="cls-14" d="M201.71,355.94l-12.22,6.85a88.64,88.64,0,0,1-5.29-12.65l14.37-4.76A97.76,97.76,0,0,0,201.71,355.94Z"/><path class="cls-11" d="M198.7,433.07c.75-.47,1.76,0,2.61-.21,1.5-.45,1.42-2.7,2.54-3.79s3.14-.74,4.26-1.83c.85-.83.89-2.22,1.66-3.13,1.07-1.27,3.18-1.19,4.3-2.43.92-1,.89-2.58,1.72-3.66,1.33-1.74,4.13-1.43,5.82-2.83s1.92-4,3.85-4.89c1.32-.58,3.25-.22,3.9-1.5.22-.43.22-.94.48-1.35.43-.67,1.49-.85,1.27-2a2.08,2.08,0,0,0-.75-1.2c-.3-.25-.67-.73-1.14-.69a1.25,1.25,0,0,0-.66.36l-3.16,2.66c-.94.79-1.88,1.58-2.77,2.43-1.45,1.37-2.77,2.88-4.17,4.31-4.43,4.51-9.62,8.16-14.62,12-2.5,1.92-5,3.88-7.28,6-1.92,1.8-1.66,2.87,0,4.34a.68.68,0,0,0,1.07-.22C198,434.66,197.89,433.58,198.7,433.07Z"/><path class="cls-18" d="M143,348a2.58,2.58,0,0,0,.89,1.27.91.91,0,0,0,1.32-.34,1.31,1.31,0,0,0,0-.61L142,329.13c-.27-1.58-1.25-6.23-3.86-5-2.18,1-.93,4.89-.59,6.5A92.13,92.13,0,0,0,143,348Z"/><path class="cls-14" d="M328.41,207.64c-4.58,3-10.81,6.93-18,11-10.69-12.33-26.39-32.37-25.17-42.49,4.23-2.25,8.8-4.64,13.76-7.12C298.95,169,313,196.88,328.41,207.64Z"/><path class="cls-5" d="M331.61,209.6a35.63,35.63,0,0,1-3.95,4.58c-3.79,3.63-7.64,7.34-11.5,11-1.59-1.74-3.59-4-5.79-6.51,7.23-4.1,13.47-8,18-11A31,31,0,0,0,331.61,209.6Z"/><path class="cls-7" d="M310.36,218.66c2.21,2.55,4.2,4.77,5.79,6.51C303.7,236.95,291,248,279.23,253.11,272.45,256,266,257,259.93,255c-8.36-2.82-14.63-6.47-19.2-10.66a34.72,34.72,0,0,1-3.58-3.8C259,244.39,289,230.77,310.36,218.66Z"/><path class="cls-7" d="M336.63,202a90.32,90.32,0,0,1-5,7.59,31,31,0,0,1-3.2-2C333.39,204.35,336.42,202.16,336.63,202Z"/></svg>