<svg xmlns="http://www.w3.org/2000/svg" xmlns:xlink="http://www.w3.org/1999/xlink" viewBox="0 0 500 500"><defs><style>.cls-1{fill:#79a4e8;}.cls-1,.cls-26{opacity:0.23;}.cls-2{fill:url(#Degradado_sin_nombre_6);}.cls-3{fill:url(#Degradado_sin_nombre_5);}.cls-4{fill:url(#Degradado_sin_nombre_337);}.cls-5{fill:url(#Degradado_sin_nombre_5-2);}.cls-6{fill:url(#Degradado_sin_nombre_3);}.cls-7{fill:url(#Degradado_sin_nombre_5-3);}.cls-8{fill:url(#Degradado_sin_nombre_337-2);}.cls-9{fill:url(#Degradado_sin_nombre_5-4);}.cls-10{fill:url(#Degradado_sin_nombre_3-2);}.cls-11{fill:url(#Degradado_sin_nombre_8);}.cls-12{fill:url(#Degradado_sin_nombre_8-2);}.cls-13{fill:url(#Degradado_sin_nombre_8-3);}.cls-14{fill:url(#Degradado_sin_nombre_8-4);}.cls-15{fill:url(#Degradado_sin_nombre_8-5);}.cls-16{fill:#815163;}.cls-17{fill:#554973;}.cls-18{fill:none;stroke:#554973;stroke-linecap:round;stroke-linejoin:round;stroke-width:1.17px;}.cls-19{fill:url(#Degradado_sin_nombre_5-5);}.cls-20{fill:#41286f;}.cls-21{fill:url(#Degradado_sin_nombre_5-6);}.cls-22{fill:url(#Degradado_sin_nombre_5-7);}.cls-23{fill:url(#Degradado_sin_nombre_5-8);}.cls-24{fill:url(#Degradado_sin_nombre_5-9);}.cls-25{fill:url(#Degradado_sin_nombre_5-10);}.cls-26{fill:#849cc2;}.cls-27{fill:url(#Degradado_sin_nombre_6-2);}.cls-28{fill:url(#Degradado_sin_nombre_5-11);}.cls-29{fill:#f5f5f5;}.cls-30{fill:url(#Degradado_sin_nombre_3-3);}.cls-31{fill:#c4a474;}.cls-32{fill:url(#Degradado_sin_nombre_3-4);}.cls-33{fill:#023d5f;}.cls-33,.cls-63{fill-rule:evenodd;}.cls-34,.cls-63{fill:#ed9c80;}.cls-35{fill:url(#Degradado_sin_nombre_5-12);}.cls-36{fill:url(#Degradado_sin_nombre_337-3);}.cls-37{fill:url(#Degradado_sin_nombre_4);}.cls-38{fill:#db856e;}.cls-39{fill:url(#Degradado_sin_nombre_3-5);}.cls-40{fill:url(#Degradado_sin_nombre_4-2);}.cls-41{fill:url(#Degradado_sin_nombre_8-6);}.cls-42{fill:url(#Degradado_sin_nombre_8-7);}.cls-43{fill:url(#Degradado_sin_nombre_3-6);}.cls-44{fill:url(#Degradado_sin_nombre_7);}.cls-45{fill:url(#Degradado_sin_nombre_3-7);}.cls-46{fill:url(#Degradado_sin_nombre_3-8);}.cls-47{fill:url(#Degradado_sin_nombre_337-4);}.cls-48{fill:url(#Degradado_sin_nombre_3-9);}.cls-49{fill:url(#Degradado_sin_nombre_337-5);}.cls-50{fill:url(#Degradado_sin_nombre_3-10);}.cls-51{fill:url(#Degradado_sin_nombre_337-6);}.cls-52{fill:#939598;}.cls-53{fill:#d1d3d4;}.cls-54{fill:url(#Degradado_sin_nombre_5-13);}.cls-55{fill:url(#Degradado_sin_nombre_3-11);}.cls-56{fill:url(#Degradado_sin_nombre_4-3);}.cls-57{fill:url(#Degradado_sin_nombre_5-14);}.cls-58{fill:url(#Degradado_sin_nombre_3-12);}.cls-59{fill:url(#Degradado_sin_nombre_4-4);}.cls-60{fill:url(#Degradado_sin_nombre_7-2);}.cls-61{fill:url(#Degradado_sin_nombre_8-8);}.cls-62{fill:url(#Degradado_sin_nombre_4-5);}.cls-64{fill:url(#Degradado_sin_nombre_3-13);}.cls-65{fill:url(#Degradado_sin_nombre_5-15);}.cls-66{fill:url(#Degradado_sin_nombre_337-7);}.cls-67{fill:url(#Degradado_sin_nombre_8-9);}.cls-68{fill:url(#Degradado_sin_nombre_8-10);}.cls-69{fill:#f39f86;}.cls-70{fill:url(#Degradado_sin_nombre_3-14);}.cls-71{fill:url(#Degradado_sin_nombre_3-15);}.cls-72{fill:url(#Degradado_sin_nombre_8-11);}.cls-73{fill:url(#Degradado_sin_nombre_4-6);}.cls-74{fill:url(#Degradado_sin_nombre_4-7);}.cls-75{fill:url(#Degradado_sin_nombre_8-12);}.cls-76{fill:url(#Degradado_sin_nombre_3-16);}.cls-77{fill:url(#Degradado_sin_nombre_3-17);}.cls-78{fill:url(#Degradado_sin_nombre_8-13);}</style><linearGradient id="Degradado_sin_nombre_6" x1="101.36" y1="151.15" x2="236" y2="151.15" gradientUnits="userSpaceOnUse"><stop offset="0.05" stop-color="#e5f0f5"/><stop offset="1" stop-color="#def2fb"/></linearGradient><linearGradient id="Degradado_sin_nombre_5" x1="118.83" y1="242.94" x2="138.13" y2="242.94" gradientTransform="translate(-30.58 -90.86) rotate(-11.34)" gradientUnits="userSpaceOnUse"><stop offset="0" stop-color="#c4a474"/><stop offset="1" stop-color="#aa6125"/></linearGradient><linearGradient id="Degradado_sin_nombre_337" x1="95.73" y1="231.3" x2="151.97" y2="231.3" gradientTransform="translate(-30.58 -90.86) rotate(-11.34)" gradientUnits="userSpaceOnUse"><stop offset="0.09" stop-color="#c69574"/><stop offset="1" stop-color="#ffd675"/></linearGradient><linearGradient id="Degradado_sin_nombre_5-2" x1="95.73" y1="234.26" x2="132.28" y2="234.26" xlink:href="#Degradado_sin_nombre_5"/><linearGradient id="Degradado_sin_nombre_3" x1="103.98" y1="235.09" x2="135.2" y2="235.09" gradientTransform="translate(-30.58 -90.86) rotate(-11.34)" gradientUnits="userSpaceOnUse"><stop offset="0.17" stop-color="#191c57"/><stop offset="1" stop-color="#004794"/></linearGradient><linearGradient id="Degradado_sin_nombre_5-3" x1="404.54" y1="163.95" x2="423.65" y2="163.95" gradientTransform="matrix(1, 0, 0, 1, 0, 0)" xlink:href="#Degradado_sin_nombre_5"/><linearGradient id="Degradado_sin_nombre_337-2" x1="390.91" y1="154.44" x2="448.3" y2="154.44" gradientTransform="matrix(1, 0, 0, 1, 0, 0)" xlink:href="#Degradado_sin_nombre_337"/><linearGradient id="Degradado_sin_nombre_5-4" x1="410.03" y1="158.35" x2="448.3" y2="158.35" gradientTransform="matrix(1, 0, 0, 1, 0, 0)" xlink:href="#Degradado_sin_nombre_5"/><linearGradient id="Degradado_sin_nombre_3-2" x1="407.16" y1="157.77" x2="439.64" y2="157.77" gradientTransform="matrix(1, 0, 0, 1, 0, 0)" xlink:href="#Degradado_sin_nombre_3"/><linearGradient id="Degradado_sin_nombre_8" x1="449.52" y1="180.13" x2="465.09" y2="180.13" gradientUnits="userSpaceOnUse"><stop offset="0.25" stop-color="#70b7db"/><stop offset="0.99" stop-color="#9ef0ff"/></linearGradient><linearGradient id="Degradado_sin_nombre_8-2" x1="121.39" y1="69.66" x2="136.96" y2="69.66" xlink:href="#Degradado_sin_nombre_8"/><linearGradient id="Degradado_sin_nombre_8-3" x1="72.4" y1="158.36" x2="87.98" y2="158.36" xlink:href="#Degradado_sin_nombre_8"/><linearGradient id="Degradado_sin_nombre_8-4" x1="296.34" y1="45.62" x2="311.91" y2="45.62" xlink:href="#Degradado_sin_nombre_8"/><linearGradient id="Degradado_sin_nombre_8-5" x1="447.96" y1="363.64" x2="463.54" y2="363.64" xlink:href="#Degradado_sin_nombre_8"/><linearGradient id="Degradado_sin_nombre_5-5" x1="198.69" y1="36.54" x2="225.64" y2="36.54" gradientTransform="matrix(1, 0, 0, 1, 0, 0)" xlink:href="#Degradado_sin_nombre_5"/><linearGradient id="Degradado_sin_nombre_5-6" x1="167.76" y1="65.44" x2="191.92" y2="65.44" gradientTransform="matrix(1, 0, 0, 1, 0, 0)" xlink:href="#Degradado_sin_nombre_5"/><linearGradient id="Degradado_sin_nombre_5-7" x1="27.5" y1="317.51" x2="51.9" y2="317.51" gradientTransform="matrix(1, 0, 0, 1, 0, 0)" xlink:href="#Degradado_sin_nombre_5"/><linearGradient id="Degradado_sin_nombre_5-8" x1="25.99" y1="363.75" x2="49.67" y2="363.75" gradientTransform="matrix(1, 0, 0, 1, 0, 0)" xlink:href="#Degradado_sin_nombre_5"/><linearGradient id="Degradado_sin_nombre_5-9" x1="458.75" y1="257.1" x2="483.96" y2="257.1" gradientTransform="matrix(1, 0, 0, 1, 0, 0)" xlink:href="#Degradado_sin_nombre_5"/><linearGradient id="Degradado_sin_nombre_5-10" x1="464.43" y1="299.74" x2="487.06" y2="299.74" gradientTransform="matrix(1, 0, 0, 1, 0, 0)" xlink:href="#Degradado_sin_nombre_5"/><linearGradient id="Degradado_sin_nombre_6-2" x1="304.58" y1="257.1" x2="439.23" y2="257.1" xlink:href="#Degradado_sin_nombre_6"/><linearGradient id="Degradado_sin_nombre_5-11" x1="123.33" y1="215.56" x2="183.98" y2="215.56" gradientTransform="matrix(1, 0, 0, 1, 0, 0)" xlink:href="#Degradado_sin_nombre_5"/><linearGradient id="Degradado_sin_nombre_3-3" x1="97.06" y1="273.78" x2="180.98" y2="273.78" gradientTransform="matrix(1, 0, 0, 1, 0, 0)" xlink:href="#Degradado_sin_nombre_3"/><linearGradient id="Degradado_sin_nombre_3-4" x1="313.24" y1="232.04" x2="397.16" y2="232.04" gradientTransform="matrix(1, 0, 0, 1, 0, 0)" xlink:href="#Degradado_sin_nombre_3"/><linearGradient id="Degradado_sin_nombre_5-12" x1="399.43" y1="359.6" x2="455.4" y2="359.6" gradientTransform="matrix(1, 0, 0, 1, 0, 0)" xlink:href="#Degradado_sin_nombre_5"/><linearGradient id="Degradado_sin_nombre_337-3" x1="351.46" y1="358.88" x2="447.34" y2="358.88" gradientTransform="matrix(1, 0, 0, 1, 0, 0)" xlink:href="#Degradado_sin_nombre_337"/><linearGradient id="Degradado_sin_nombre_4" x1="406.69" y1="270.86" x2="454.62" y2="270.86" gradientUnits="userSpaceOnUse"><stop offset="0.01" stop-color="#815163"/><stop offset="1" stop-color="#35006a"/></linearGradient><linearGradient id="Degradado_sin_nombre_3-5" x1="417.89" y1="211.02" x2="450.05" y2="211.02" gradientTransform="matrix(1, 0, 0, 1, 0, 0)" xlink:href="#Degradado_sin_nombre_3"/><linearGradient id="Degradado_sin_nombre_4-2" x1="449.35" y1="259.02" x2="382.38" y2="308.49" xlink:href="#Degradado_sin_nombre_4"/><linearGradient id="Degradado_sin_nombre_8-6" x1="123.11" y1="354.35" x2="198.21" y2="354.35" xlink:href="#Degradado_sin_nombre_8"/><linearGradient id="Degradado_sin_nombre_8-7" x1="297.66" y1="354.35" x2="372.76" y2="354.35" xlink:href="#Degradado_sin_nombre_8"/><linearGradient id="Degradado_sin_nombre_3-6" x1="213.56" y1="392.23" x2="279.97" y2="392.23" gradientTransform="matrix(1, 0, 0, 1, 0, 0)" xlink:href="#Degradado_sin_nombre_3"/><linearGradient id="Degradado_sin_nombre_7" x1="170.11" y1="252.85" x2="325.07" y2="252.85" gradientUnits="userSpaceOnUse"><stop offset="0.07" stop-color="#f1f2f2"/><stop offset="0.4" stop-color="#f2f2ef"/><stop offset="0.65" stop-color="#f5f3e5"/><stop offset="0.87" stop-color="#fbf3d5"/><stop offset="0.99" stop-color="#fff4c9"/></linearGradient><linearGradient id="Degradado_sin_nombre_3-7" x1="191.95" y1="70.51" x2="306.88" y2="70.51" gradientTransform="matrix(1, 0, 0, 1, 0, 0)" xlink:href="#Degradado_sin_nombre_3"/><linearGradient id="Degradado_sin_nombre_3-8" x1="221.29" y1="312.16" x2="277.59" y2="312.16" gradientTransform="matrix(1, 0, 0, 1, 0, 0)" xlink:href="#Degradado_sin_nombre_3"/><linearGradient id="Degradado_sin_nombre_337-4" x1="229.74" y1="312.32" x2="268.82" y2="312.32" gradientTransform="translate(293.86 -84.79) rotate(45)" xlink:href="#Degradado_sin_nombre_337"/><linearGradient id="Degradado_sin_nombre_3-9" x1="221.29" y1="245.22" x2="277.59" y2="245.22" gradientTransform="matrix(1, 0, 0, 1, 0, 0)" xlink:href="#Degradado_sin_nombre_3"/><linearGradient id="Degradado_sin_nombre_337-5" x1="229.74" y1="245.38" x2="268.82" y2="245.38" gradientTransform="translate(246.52 -104.39) rotate(45)" xlink:href="#Degradado_sin_nombre_337"/><linearGradient id="Degradado_sin_nombre_3-10" x1="221.29" y1="178.28" x2="277.59" y2="178.28" gradientTransform="matrix(1, 0, 0, 1, 0, 0)" xlink:href="#Degradado_sin_nombre_3"/><linearGradient id="Degradado_sin_nombre_337-6" x1="229.74" y1="178.45" x2="268.82" y2="178.45" gradientTransform="translate(199.19 -124) rotate(45)" xlink:href="#Degradado_sin_nombre_337"/><linearGradient id="Degradado_sin_nombre_5-13" x1="131.63" y1="377.53" x2="183.21" y2="377.53" gradientTransform="matrix(1, 0, 0, 1, 0, 0)" xlink:href="#Degradado_sin_nombre_5"/><linearGradient id="Degradado_sin_nombre_3-11" x1="115.57" y1="412.53" x2="195.26" y2="412.53" gradientTransform="matrix(1, 0, 0, 1, 0, 0)" xlink:href="#Degradado_sin_nombre_3"/><linearGradient id="Degradado_sin_nombre_4-3" x1="163.04" y1="392.81" x2="213.05" y2="392.81" xlink:href="#Degradado_sin_nombre_4"/><linearGradient id="Degradado_sin_nombre_5-14" x1="312.58" y1="377.53" x2="364.15" y2="377.53" gradientTransform="matrix(1, 0, 0, 1, 0, 0)" xlink:href="#Degradado_sin_nombre_5"/><linearGradient id="Degradado_sin_nombre_3-12" x1="300.52" y1="412.53" x2="380.21" y2="412.53" gradientTransform="matrix(1, 0, 0, 1, 0, 0)" xlink:href="#Degradado_sin_nombre_3"/><linearGradient id="Degradado_sin_nombre_4-4" x1="282.74" y1="392.81" x2="332.75" y2="392.81" xlink:href="#Degradado_sin_nombre_4"/><linearGradient id="Degradado_sin_nombre_7-2" x1="132.38" y1="431.09" x2="353.18" y2="431.09" xlink:href="#Degradado_sin_nombre_7"/><linearGradient id="Degradado_sin_nombre_8-8" x1="207.51" y1="410.58" x2="285.84" y2="410.58" xlink:href="#Degradado_sin_nombre_8"/><linearGradient id="Degradado_sin_nombre_4-5" x1="136.28" y1="323.74" x2="86.98" y2="184.92" xlink:href="#Degradado_sin_nombre_4"/><linearGradient id="Degradado_sin_nombre_3-13" x1="154.49" y1="214.75" x2="178.91" y2="214.75" gradientTransform="matrix(1, 0, 0, 1, 0, 0)" xlink:href="#Degradado_sin_nombre_3"/><linearGradient id="Degradado_sin_nombre_5-15" x1="93.59" y1="353.71" x2="120.71" y2="353.71" gradientTransform="matrix(1, 0, 0, 1, 0, 0)" xlink:href="#Degradado_sin_nombre_5"/><linearGradient id="Degradado_sin_nombre_337-7" x1="56.72" y1="350.13" x2="114.02" y2="350.13" gradientTransform="matrix(1, 0, 0, 1, 0, 0)" xlink:href="#Degradado_sin_nombre_337"/><linearGradient id="Degradado_sin_nombre_8-9" x1="98.12" y1="230.99" x2="162.13" y2="230.99" xlink:href="#Degradado_sin_nombre_8"/><linearGradient id="Degradado_sin_nombre_8-10" x1="77.55" y1="258.07" x2="123.21" y2="258.07" xlink:href="#Degradado_sin_nombre_8"/><linearGradient id="Degradado_sin_nombre_3-14" x1="91.27" y1="228.29" x2="102.98" y2="228.29" gradientTransform="matrix(1, 0, 0, 1, 0, 0)" xlink:href="#Degradado_sin_nombre_3"/><linearGradient id="Degradado_sin_nombre_3-15" x1="102.98" y1="227.81" x2="106.06" y2="227.81" gradientTransform="matrix(1, 0, 0, 1, 0, 0)" xlink:href="#Degradado_sin_nombre_3"/><linearGradient id="Degradado_sin_nombre_8-11" x1="44.59" y1="258.09" x2="86.57" y2="258.09" xlink:href="#Degradado_sin_nombre_8"/><linearGradient id="Degradado_sin_nombre_4-6" x1="108.38" y1="236.87" x2="95.35" y2="192.68" xlink:href="#Degradado_sin_nombre_4"/><linearGradient id="Degradado_sin_nombre_4-7" x1="300.02" y1="175.43" x2="361.25" y2="175.43" xlink:href="#Degradado_sin_nombre_4"/><linearGradient id="Degradado_sin_nombre_8-12" x1="317.11" y1="131.88" x2="327.94" y2="131.88" xlink:href="#Degradado_sin_nombre_8"/><linearGradient id="Degradado_sin_nombre_3-16" x1="310.68" y1="85.63" x2="340.59" y2="85.63" gradientTransform="matrix(1, 0, 0, 1, 0, 0)" xlink:href="#Degradado_sin_nombre_3"/><linearGradient id="Degradado_sin_nombre_3-17" x1="330.78" y1="96.56" x2="407.66" y2="96.56" gradientTransform="matrix(1, 0, 0, 1, 0, 0)" xlink:href="#Degradado_sin_nombre_3"/><linearGradient id="Degradado_sin_nombre_8-13" x1="311.79" y1="133.42" x2="357.37" y2="133.42" xlink:href="#Degradado_sin_nombre_8"/></defs><title>Mesa de trabajo 5</title><g id="OBJECTS"><path class="cls-1" d="M56.23,418.81C34,417.37-4.95,422.92,1.29,434.09s24.33,18.23,36.65,17.3,26.53.74,33.74,10.78c2.29,3.19,3.65,7,5.89,10.2,4.94,7.12,13.65,10.76,22.22,12.07,31.71,4.84,61.72-17.07,93.79-18.09,32.54-1,63.78,19.54,95.94,14.46,14.35-2.27,27.39-9.49,41.32-13.59,47.82-14.07,100.83,9.7,148.47-5,9.27-2.86,19.69-9.89,18.13-19.47-.88-5.41-5.46-9.4-10-12.41-15.65-10.28-34.93-12.49-53.66-12.49H433Z"/><path class="cls-2" d="M216.14,179.34l-.12.12a54.56,54.56,0,0,0,6.4-18.08L236,157.5l-2-21.86-14.43-2.89v.14a54.76,54.76,0,0,0-9.81-16.46l5.71-12.93L197.43,91.07,186,100.3l.15.1C179.14,98,166.65,97,166.65,97l-6-14.88-20.89,6.72.33,14.71s-9.58,7.68-15.31,15.06l-13.54-3.86-9.86,19.56,12.69,8.35a55.1,55.1,0,0,0,.29,20.85l-11.94,11.18,9.75,17.11,15.54-2.23a54.8,54.8,0,0,0,21.77,14.5l1.35,14.06,21.85,2,5.47-13.66h-.19a54.8,54.8,0,0,0,18-6.66l11.68,8,15.52-15.51Zm-59-12.82a17.92,17.92,0,1,1,25.14-3.15A17.91,17.91,0,0,1,157.18,166.52Z"/><polygon class="cls-3" points="151.58 114.84 147.46 126.76 132.85 119.61 151.58 114.84"/><polygon class="cls-4" points="106.89 107.68 164.87 110.75 146.51 119.34 106.89 107.68"/><polygon class="cls-5" points="146.51 119.34 128.54 128.98 106.89 107.68 146.51 119.34"/><polygon class="cls-6" points="146.51 119.34 115.89 110.56 149.3 118.38 147.56 122.17 146.51 119.34"/><polygon class="cls-7" points="404.54 158.22 409.81 169.68 423.65 161.11 404.54 158.22"/><polygon class="cls-8" points="448.3 146.68 390.91 155.45 410.03 162.19 448.3 146.68"/><polygon class="cls-9" points="410.03 162.19 428.86 170.02 448.3 146.68 410.03 162.19"/><polygon class="cls-10" points="410.03 162.19 439.64 150.43 407.16 161.51 409.27 165.11 410.03 162.19"/><polygon class="cls-11" points="460.06 177.38 465.09 180.13 460.06 182.89 457.3 187.92 454.55 182.89 449.52 180.13 454.55 177.38 457.3 172.34 460.06 177.38"/><polygon class="cls-12" points="131.93 66.9 136.96 69.66 131.93 72.41 129.18 77.44 126.42 72.41 121.39 69.66 126.42 66.9 129.18 61.87 131.93 66.9"/><polygon class="cls-13" points="82.94 155.61 87.98 158.36 82.94 161.11 80.19 166.15 77.44 161.11 72.4 158.36 77.44 155.61 80.19 150.57 82.94 155.61"/><polygon class="cls-14" points="306.88 42.86 311.91 45.62 306.88 48.37 304.13 53.4 301.37 48.37 296.34 45.62 301.37 42.86 304.13 37.83 306.88 42.86"/><polygon class="cls-15" points="458.5 360.88 463.54 363.63 458.5 366.39 455.75 371.42 453 366.39 447.96 363.63 453 360.88 455.75 355.85 458.5 360.88"/><path class="cls-16" d="M238,89.05a55.09,55.09,0,0,1-25-44.53l4.86-.12A50.17,50.17,0,0,0,240.63,85Z"/><circle class="cls-17" cx="203.26" cy="23.98" r="2.46" transform="translate(4.79 73.99) rotate(-20.87)"/><circle class="cls-17" cx="211.53" cy="20.59" r="2.46" transform="translate(6.55 76.72) rotate(-20.87)"/><circle class="cls-17" cx="205.03" cy="17.33" r="2.46" transform="translate(7.28 74.18) rotate(-20.87)"/><polyline class="cls-18" points="203.26 23.98 212.97 37.53 205.03 17.33"/><line class="cls-18" x1="211.53" y1="20.59" x2="213.46" y2="39.46"/><path class="cls-19" d="M224.74,30.14a13.63,13.63,0,0,1-25.48,9.71c-2.68-7,4.39-14.83,12.5-5.48C211.53,20.59,222.06,23.11,224.74,30.14Z"/><path class="cls-16" d="M196.63,44.77a18.26,18.26,0,0,0,33-9.2A9.61,9.61,0,0,0,220.47,38c-2.24,2.24-2.83,5.41-2.91,8.41C211.23,42.29,203.51,40,196.63,44.77Z"/><path class="cls-20" d="M234.43,86.34a55.09,55.09,0,0,1-48.87-14.88L189,68a50.17,50.17,0,0,0,44.5,13.55Z"/><circle class="cls-17" cx="164.35" cy="63.33" r="2.46" transform="translate(36.62 184.61) rotate(-64.59)"/><circle class="cls-17" cx="167.98" cy="55.16" r="2.46" transform="translate(46.08 183.22) rotate(-64.59)"/><circle class="cls-17" cx="161.03" cy="57.3" r="2.46" transform="translate(40.18 178.16) rotate(-64.59)"/><polyline class="cls-18" points="164.35 63.33 180.72 66.41 161.03 57.3"/><line class="cls-18" x1="167.98" y1="55.16" x2="182.42" y2="67.47"/><path class="cls-21" d="M184.13,52.94a13.63,13.63,0,0,1-11.7,24.63c-6.8-3.23-7.07-13.75,5.24-12.6C168,55.16,177.33,49.71,184.13,52.94Z"/><path class="cls-20" d="M173.92,82.93a18.25,18.25,0,0,0,17.52-29.49,9.61,9.61,0,0,0-5,8.11c-.07,3.16,1.7,5.87,3.71,8.09C182.77,71.06,175.57,74.7,173.92,82.93Z"/><path class="cls-16" d="M93.41,340.86A55.09,55.09,0,0,1,45.26,323.8l3.58-3.28A50.17,50.17,0,0,0,92.7,336.05Z"/><circle class="cls-17" cx="24.43" cy="314.73" r="2.46" transform="translate(-264.99 188.68) rotate(-62.03)"/><circle class="cls-17" cx="28.42" cy="306.73" r="2.46" transform="translate(-255.81 187.97) rotate(-62.03)"/><circle class="cls-17" cx="21.38" cy="308.56" r="2.46" transform="translate(-261.16 182.72) rotate(-62.03)"/><polyline class="cls-18" points="24.43 314.73 40.65 318.54 21.38 308.56"/><line class="cls-18" x1="28.42" y1="306.73" x2="42.3" y2="319.67"/><path class="cls-22" d="M44.66,305.23a13.63,13.63,0,0,1-12.79,24.08c-6.65-3.53-6.45-14.05,5.8-12.35C28.42,306.73,38,301.7,44.66,305.23Z"/><path class="cls-16" d="M33.12,334.74A18.74,18.74,0,0,0,52.57,327a18.74,18.74,0,0,0-.63-20.93,9.61,9.61,0,0,0-5.35,7.88c-.21,3.16,1.43,5.94,3.35,8.25C42.48,323.27,35.13,326.6,33.12,334.74Z"/><path class="cls-20" d="M92.19,342.77a55.09,55.09,0,0,1-46.59,21l.32-4.85A50.17,50.17,0,0,0,88.35,339.8Z"/><circle class="cls-17" cx="24.28" cy="371.57" r="2.46" transform="translate(-99.92 20.53) rotate(-15.75)"/><circle class="cls-17" cx="21.64" cy="363.03" r="2.46" transform="translate(-97.72 19.5) rotate(-15.75)"/><circle class="cls-17" cx="17.81" cy="369.22" r="2.46" transform="translate(-99.54 18.69) rotate(-15.75)"/><polyline class="cls-18" points="24.28 371.57 38.64 363.11 17.81 369.22"/><line class="cls-18" x1="21.64" y1="363.03" x2="40.61" y2="362.79"/><path class="cls-23" d="M32.33,350.73A13.63,13.63,0,0,1,39.73,377c-7.25,2-14.38-5.7-4.35-12.94C21.64,363,25.09,352.77,32.33,350.73Z"/><path class="cls-20" d="M44.39,380a18.25,18.25,0,0,0-6.22-33.74,9.61,9.61,0,0,0,1.58,9.39c2,2.43,5.14,3.3,8.12,3.65C43.23,365.27,40.22,372.75,44.39,380Z"/><path class="cls-16" d="M421.84,289a55.09,55.09,0,0,0,44.71-24.7l-4.07-2.65a50.17,50.17,0,0,1-40.72,22.5Z"/><circle class="cls-17" cx="485.62" cy="251.91" r="2.46" transform="translate(-53.18 346.65) rotate(-37.39)"/><circle class="cls-17" cx="480.37" cy="244.67" r="2.46" transform="translate(-49.87 341.96) rotate(-37.39)"/><circle class="cls-17" cx="487.62" cy="245.32" r="2.46" transform="translate(-48.77 346.5) rotate(-37.39)"/><polyline class="cls-18" points="485.62 251.91 470.24 258.32 487.62 245.32"/><line class="cls-18" x1="480.37" y1="244.67" x2="468.79" y2="259.7"/><path class="cls-24" d="M464.11,245.85a13.63,13.63,0,0,0,16.56,21.66c6-4.57,4.07-14.92-7.75-11.24C480.37,244.67,470.09,241.27,464.11,245.85Z"/><path class="cls-16" d="M480.32,273.07a18.25,18.25,0,0,1-23.26-25.21,9.61,9.61,0,0,1,6.56,6.9c.72,3.08-.44,6.09-2,8.68C469.21,263.29,477,265.36,480.32,273.07Z"/><path class="cls-20" d="M419.21,288.16a55.09,55.09,0,0,0,49.39,13l-1.11-4.73a50.17,50.17,0,0,1-45-11.89Z"/><circle class="cls-17" cx="490.92" cy="305.45" r="2.46" transform="translate(133.22 759.72) rotate(-83.67)"/><circle class="cls-17" cx="492.13" cy="296.59" r="2.46" transform="translate(143.09 753.03) rotate(-83.67)"/><circle class="cls-17" cx="496.92" cy="302.07" r="2.46" transform="translate(141.89 762.65) rotate(-83.67)"/><polyline class="cls-18" points="490.92 305.45 475.37 299.46 496.92 302.07"/><line class="cls-18" x1="492.13" y1="296.59" x2="473.37" y2="299.46"/><path class="cls-25" d="M479.57,286.21a13.63,13.63,0,0,0-3,27.1c7.48.83,13.25-8,2.17-13.48C492.13,296.59,487,287,479.57,286.21Z"/><path class="cls-20" d="M472.47,317.08a18.25,18.25,0,0,1,.61-34.3,9.61,9.61,0,0,1,0,9.52c-1.61,2.73-4.53,4.1-7.41,4.93C471.19,302.34,475.39,309.22,472.47,317.08Z"/><path class="cls-26" d="M380.73,118.73c9.25,8.71,9.08,25.4-.35,33.91s-26.05,7-33.77-3.09a22.69,22.69,0,0,1-42.68,1c-2.66,10.75-15.51,16.39-26.46,14.67s-20.21-8.81-28.58-16.07a10.79,10.79,0,0,1-10.52,5.64c-6.5-.72-13.41-11.81-16.92-16.9-3.31-4.79-4.37-11.49-1.29-16.43s10.88-6.67,15-2.52a26.21,26.21,0,0,1,50.23-5.65c-3.81-10.43,1.51-22.58,10.29-29.38s20.23-9.13,31.31-9.7c7.46-.38,15.31,0,21.73,3.87s10.77,12,8.14,19a39.12,39.12,0,0,1,20.4-6.69c6.9-.26,14.13,1.51,19.22,6.18s7.46,12.58,4.49,18.81-11.84,9.25-17.38,5.12"/><path class="cls-26" d="M239.65,318.74c9.25,8.71,9.08,25.4-.35,33.91s-26.05,7-33.77-3.09a22.69,22.69,0,0,1-42.68,1c-2.66,10.75-15.51,16.39-26.46,14.67s-20.21-8.81-28.58-16.07a10.79,10.79,0,0,1-10.52,5.64c-6.5-.72-13.41-11.81-16.92-16.9-3.3-4.79-4.37-11.49-1.29-16.43S90,314.87,94,319a26.21,26.21,0,0,1,50.22-5.65c-3.81-10.43,1.51-22.58,10.29-29.38s20.23-9.13,31.31-9.7c7.46-.38,15.31,0,21.73,3.87s10.77,12,8.14,19a39.12,39.12,0,0,1,20.4-6.69c6.9-.26,14.13,1.51,19.22,6.18s7.46,12.58,4.49,18.81-11.84,9.25-17.38,5.12"/><path class="cls-27" d="M419.37,285.29l-.13.12a54.55,54.55,0,0,0,6.4-18.08l13.58-3.88-2-21.86-14.43-2.89v.14A54.76,54.76,0,0,0,413,222.4l5.71-12.93L400.65,197l-11.46,9.24.15.1c-7-2.41-19.47-3.39-19.47-3.39l-6-14.88L343,194.81l.33,14.71s-9.58,7.68-15.31,15.06l-13.54-3.86-9.86,19.56,12.69,8.35a55.11,55.11,0,0,0,.29,20.85l-11.94,11.18,9.75,17.11,15.54-2.23A54.8,54.8,0,0,0,352.69,310L354,324.1l21.85,2,5.47-13.66h-.19a54.8,54.8,0,0,0,18-6.66l11.68,8,15.52-15.51Zm-59-12.82a17.92,17.92,0,1,1,25.14-3.15A17.91,17.91,0,0,1,360.4,272.48Z"/><path class="cls-28" d="M184,219.62c-.78-13.47-8.24-25.85-17.92-35.24s-21.51-16.21-33.24-22.88c-7.71,16.65-11.08,35.4-8.79,53.6s10.35,35.76,23.28,48.78c3.61,3.63,8.74,7.12,13.47,5.19,7.51-3.07,5.63-15.88,12.68-19.9"/><polyline class="cls-29" points="179.08 268.09 145.49 188.72 175.37 277.95"/><polygon class="cls-29" points="157.41 218.94 131.65 201.99 161.1 228.36 157.41 218.94"/><polygon class="cls-29" points="166.53 241.66 172.84 207.87 163.2 235.58 166.53 241.66"/><polygon class="cls-29" points="171 255.4 142.41 243.82 169.34 249.15 171 255.4"/><path class="cls-30" d="M180.29,261.54c-6.65-14.94-20.4-25.81-35.4-32.32S113.55,220,97.4,217.47c-1.63,22.18,2.57,44.9,12.94,64.57s27,36.15,47.27,45.38c5.64,2.58,13,4.34,17.5.12,7.21-6.69-.4-20.42,5.87-28"/><polyline class="cls-29" points="195.45 318.63 123.41 242.95 195.45 331.4"/><polygon class="cls-29" points="149.86 272.13 113.38 263.92 158.07 281.25 149.86 272.13"/><polygon class="cls-29" points="169.92 294.01 162.63 252.98 163.54 288.54 169.92 294.01"/><polygon class="cls-29" points="180.86 307.69 143.48 306.78 176.3 301.31 180.86 307.69"/><path class="cls-31" d="M310.24,177.88c.78-13.47,8.24-25.85,17.92-35.24s21.51-16.21,33.24-22.88c7.71,16.65,11.08,35.4,8.79,53.6s-10.35,35.76-23.28,48.78c-3.61,3.63-8.74,7.12-13.47,5.19-7.51-3.07-5.63-15.88-12.68-19.9"/><polyline class="cls-29" points="315.14 226.35 348.73 146.98 318.86 236.21"/><polygon class="cls-29" points="336.81 177.2 362.57 160.25 333.13 186.62 336.81 177.2"/><polygon class="cls-29" points="327.69 199.92 321.38 166.13 331.02 193.84 327.69 199.92"/><polygon class="cls-29" points="323.22 213.66 351.81 202.09 324.88 207.41 323.22 213.66"/><path class="cls-32" d="M313.93,219.8c6.65-14.94,20.4-25.81,35.4-32.32s31.34-9.2,47.49-11.74c1.63,22.18-2.57,44.9-12.94,64.57s-27,36.15-47.27,45.38c-5.64,2.58-13,4.34-17.5.12-7.21-6.69.4-20.42-5.87-28"/><polyline class="cls-29" points="298.77 276.89 370.81 201.21 298.77 289.66"/><polygon class="cls-29" points="344.36 230.39 380.84 222.18 336.16 239.5 344.36 230.39"/><polygon class="cls-29" points="324.3 252.27 331.6 211.24 330.69 246.8 324.3 252.27"/><polygon class="cls-29" points="313.36 265.95 350.75 265.04 317.92 259.57 313.36 265.95"/><path class="cls-33" d="M358.38,418.39l-13,4.91.09,4.72,17.41-.67,6.25-3.11-3.4-8.65S364.32,418.1,358.38,418.39Z"/><path class="cls-33" d="M444.78,417.8l-13,4.91.09,4.72,17.41-.67,6.25-3.11-3.4-8.65S450.73,417.51,444.78,417.8Z"/><path class="cls-34" d="M392,307.19c-2.33-1.38-4.88-1.09-8.38-1.17a2.27,2.27,0,0,0-1,.14c-2.55,1.22,1.4,2.75,1.34,4-.1,2.22-6.22,5-8,5.83,0,1.25,1.62,1.76,2.87,1.87a36.26,36.26,0,0,0,12.88-1.24c4.18-1.18,5.68-3.2,3.12-6.74A9.56,9.56,0,0,0,392,307.19Z"/><path class="cls-34" d="M445.66,241.24c-3.6,5-10.13,13-14.41,12.77-1.59-.09-3.29-4-4.71-8.33,3.61-3.68,4-11.19,3.84-16.05,0-.3,0-.6,0-.88s0-.32,0-.47,0-.44,0-.64c-.11-1.56-.25-2.55-.25-2.55l9.83-.75Z"/><path class="cls-35" d="M443.41,297.85s5,17.79-4.5,31.37c-2.68,5.46-13.48,24.37-13.27,30.87.36,11.46,5.92,21.89,12.07,31.27,3.33,5.08,6.91,10,10.47,14.93a63.32,63.32,0,0,1,7.22,12.45c-2.82,2.92-12.26,3.21-15.83,1.83-2.91-1.12-5.21-4.54-7.45-6.67-3.35-3.19-6.13-7.17-9-10.76-6.18-7.64-12.2-15.43-17.66-23.61-2.4-3.59-4.73-7.35-5.67-11.56-1.86-8.37,4.59-13.82,8.45-20.49s7.46-13.46,11-20.3c4.29-8.33,8.48-16.72,12.47-25.19Z"/><path class="cls-36" d="M443.41,297.85c2.71,4.69,7.67,18.21-.79,31.68-5.73,9.11-20.38,18.58-30.25,28a132.45,132.45,0,0,0-21.56,26.21c-7,10.49-12.76,21.95-20,32.32a10.3,10.3,0,0,1-3.23,3.38c-2,1.07-4.36.76-6.55.36-3.18-.58-6.4-.49-9.57-1.27,9.48-18.81,14.41-39.95,25.62-58,7.88-12.68,16.66-24.77,25.64-36.7,5.49-7.3,14-21,23.82-23.08C446.32,296.5,443.41,297.85,443.41,297.85Z"/><path class="cls-37" d="M436.47,235.25c-17.84,10.71-17.3,40.09-28.21,60.89s38.36,10.58,43.62-2.1S456.19,223.42,436.47,235.25Z"/><path class="cls-34" d="M424.51,215.25c0,6.92-1.94,13.54,8.26,13,5-.25,9.33-5.07,9.74-12s-3.29-12.74-8.26-13S424.46,200.62,424.51,215.25Z"/><path class="cls-38" d="M430.38,229.62c0-.3,0-.6,0-.88s0-.32,0-.47a13.23,13.23,0,0,0,5.55-.76A12,12,0,0,1,430.38,229.62Z"/><path class="cls-39" d="M445.59,224a19.26,19.26,0,0,0,2.61-3.33c2.16-5.11,2.21-11.08,1.29-16.42-.36-2.09-.8-4.31-2.27-5.84-2.69-2.81-8.58-2.71-12.14-2.24s-7.32,1.2-10.49-.42c-1.1-.56-2.39-1.4-3.44-.74a2,2,0,0,0-.46,2.58c.27.51,4.11,3.29,2.36,4l-.12,0-.1,0h-.28l-.19,0-.16,0-.22-.07-.19-.07-.27-.12-.23-.11L421,201l-.27-.16-.37-.23-.56-.38a3.82,3.82,0,0,0-.66-.38c-.65-.28-1-.12-1.17.32l0,.08a3.24,3.24,0,0,0,.41,1.91l0,0,0,.06a7.54,7.54,0,0,0,.44.76l0,0,.22.32.11.15a9.38,9.38,0,0,0,.86,1l.07.07.19.17.09.08.32.28.23.18.32.24c.2.14.4.28.62.41,4.59,2.82,8.37-1.06,13.13.8,2.3.9,4.14,3.5,3.29,5.82a3.17,3.17,0,1,1-1.24,6,8.32,8.32,0,0,0,3.55,8.61C441.58,227.81,443.8,225.9,445.59,224Z"/><path class="cls-40" d="M452.1,246.46c1.12,10.43-10.11,66.06-53,72.44,0,0-15-10.88-4.45-20.65,0,0,29.9.78,40.87-54.26C438.43,229.53,450.72,233.67,452.1,246.46Z"/><path class="cls-41" d="M176.33,275.54s-65.94,38.69-51,150.19c1.12,8.35,10.31,10.2,13.71,2.81,9.58-20.84,27.88-49.21,59.2-59.61Z"/><path class="cls-42" d="M319.54,275.54s65.94,38.69,51,150.19c-1.12,8.35-10.31,10.2-13.71,2.81-9.58-20.84-27.88-49.21-59.2-59.61Z"/><path class="cls-43" d="M272.73,402.9H220.8a4.39,4.39,0,0,1-4.28-3.42l-2.85-12.58a4.39,4.39,0,0,1,4.28-5.36h57.64a4.39,4.39,0,0,1,4.28,5.36L277,399.49A4.39,4.39,0,0,1,272.73,402.9Z"/><path class="cls-44" d="M171.82,273.61s8,73.19,32.61,119.56c0,0,39.13-18.84,85.5,0,0,0,28.26-39.13,34.06-125.36,3.34-49.69-.65-106.41-17.1-155.29H191.95C176.65,152.34,165.76,205.81,171.82,273.61Z"/><path class="cls-45" d="M238.7,33.22c-11.56,13.08-31.38,39.29-46.75,79.3H306.88c-10.53-31.28-26.16-59.34-48.27-80.27A13.86,13.86,0,0,0,238.7,33.22Z"/><circle class="cls-46" cx="249.44" cy="312.16" r="28.15"/><circle class="cls-47" cx="249.28" cy="312.32" r="19.54" transform="translate(-147.83 267.74) rotate(-45)"/><circle class="cls-48" cx="249.44" cy="245.22" r="28.15"/><circle class="cls-49" cx="249.28" cy="245.38" r="19.54" transform="translate(-100.5 248.14) rotate(-45)"/><circle class="cls-50" cx="249.44" cy="178.28" r="28.15"/><circle class="cls-51" cx="249.28" cy="178.44" r="19.54" transform="translate(-53.17 228.53) rotate(-45)"/><polygon class="cls-52" points="306.39 196.89 355.81 196.89 353.9 191.2 304.44 191.2 306.39 196.89"/><rect class="cls-52" x="320.04" y="224.14" width="43.09" height="3.11" transform="translate(683.17 451.4) rotate(180)"/><rect class="cls-52" x="334.79" y="268.54" width="43.09" height="3.11" transform="translate(712.67 540.19) rotate(180)"/><rect class="cls-52" x="350.21" y="312.93" width="43.09" height="3.11" transform="translate(743.5 628.98) rotate(180)"/><rect class="cls-52" x="365.62" y="357.33" width="43.09" height="3.11" transform="translate(774.34 717.77) rotate(180)"/><rect class="cls-52" x="380.44" y="401.73" width="43.09" height="3.11" transform="translate(803.97 806.57) rotate(180)"/><polygon class="cls-53" points="310.44 191.2 391.36 427.41 385.99 429.25 304.44 191.2 310.44 191.2"/><polygon class="cls-53" points="353.9 191.2 434.82 427.41 429.45 429.25 347.9 191.2 353.9 191.2"/><path class="cls-54" d="M146.21,398.76c-7.07-5-11.29-13.24-13.13-21.69s-1.55-17.2-1.21-25.84A63.56,63.56,0,0,1,164,364.59a54.15,54.15,0,0,1,18.68,29.19c.76,3.19.92,7.17-1.74,9.09-4.21,3-10.55-2.31-15.13.17"/><polyline class="cls-29" points="174.27 412.5 142.42 367.35 180.89 413.81"/><polygon class="cls-29" points="154.84 384.06 154.33 364.3 158.72 389.26 154.84 384.06"/><polygon class="cls-29" points="164.12 396.72 143.59 388.72 161.94 392.85 164.12 396.72"/><polygon class="cls-29" points="170.09 403.8 173.47 384.32 167.25 400.78 170.09 403.8"/><path class="cls-55" d="M157.65,388.6c16.81,3.47,51.91,21.23,31.32,42.19-4.82,4.9-11.89,7.17-18.76,7.15-14.57-.06-29.73-7.54-38.93-18.63-6.69-8.07-11.25-17.66-15.71-27.15A77.06,77.06,0,0,1,157.65,388.6Z"/><polyline class="cls-29" points="195.36 434.48 135.9 403.62 203.22 432.2"/><polygon class="cls-29" points="158.59 414.7 147.03 393.7 165.67 418.13 158.59 414.7"/><polygon class="cls-29" points="175.65 423.15 149.07 425.98 171.14 420.2 175.65 423.15"/><polygon class="cls-29" points="186.02 427.45 178.79 404.59 181.28 425.78 186.02 427.45"/><path class="cls-56" d="M204,381.49c8.66,14.81,18.93,52.79-10.42,51.5-6.87-.3-13.28-4-17.86-9.17-9.71-10.87-14.28-27.14-12.18-41.4,1.53-10.37,5.6-20.18,9.68-29.83A77.06,77.06,0,0,1,204,381.49Z"/><polyline class="cls-29" points="195.11 440.22 178.28 375.38 202.06 444.54"/><polygon class="cls-29" points="185.22 399.65 193.1 377.01 187.41 407.21 185.22 399.65"/><polygon class="cls-29" points="190.35 417.98 170.47 400.12 189.53 412.66 190.35 417.98"/><polygon class="cls-29" points="194.09 428.57 206.25 407.91 192.16 423.93 194.09 428.57"/><path class="cls-57" d="M349.57,398.76c7.07-5,11.29-13.24,13.13-21.69s1.55-17.2,1.21-25.84a63.56,63.56,0,0,0-32.16,13.36,54.15,54.15,0,0,0-18.68,29.19c-.76,3.19-.92,7.17,1.74,9.09,4.21,3,10.55-2.31,15.13.17"/><polyline class="cls-29" points="321.51 412.5 353.36 367.35 314.89 413.81"/><polygon class="cls-29" points="340.95 384.06 341.45 364.3 337.06 389.26 340.95 384.06"/><polygon class="cls-29" points="331.66 396.72 352.19 388.72 333.84 392.85 331.66 396.72"/><polygon class="cls-29" points="325.69 403.8 322.32 384.32 328.53 400.78 325.69 403.8"/><path class="cls-58" d="M338.14,388.6c-16.81,3.47-51.91,21.23-31.32,42.19,4.82,4.9,11.89,7.17,18.76,7.15,14.57-.06,29.73-7.54,38.93-18.63,6.69-8.07,11.25-17.66,15.71-27.15A77.06,77.06,0,0,0,338.14,388.6Z"/><polyline class="cls-29" points="300.42 434.48 359.88 403.62 292.56 432.2"/><polygon class="cls-29" points="337.19 414.7 348.76 393.7 330.11 418.13 337.19 414.7"/><polygon class="cls-29" points="320.14 423.15 346.71 425.98 324.64 420.2 320.14 423.15"/><polygon class="cls-29" points="309.76 427.45 316.99 404.59 314.51 425.78 309.76 427.45"/><path class="cls-59" d="M291.78,381.49c-8.66,14.81-18.93,52.79,10.42,51.5,6.87-.3,13.28-4,17.86-9.17,9.71-10.87,14.28-27.14,12.18-41.4-1.53-10.37-5.6-20.18-9.68-29.83A77.06,77.06,0,0,0,291.78,381.49Z"/><polyline class="cls-29" points="300.67 440.22 317.5 375.38 293.72 444.54"/><polygon class="cls-29" points="310.56 399.65 302.68 377.01 308.37 407.21 310.56 399.65"/><polygon class="cls-29" points="305.44 417.98 325.31 400.12 306.25 412.66 305.44 417.98"/><polygon class="cls-29" points="301.69 428.57 289.53 407.91 303.62 423.93 301.69 428.57"/><path class="cls-60" d="M215.14,429.6c-6.68-2.91-13.57-5.88-20.86-6s-15.13,3.3-18,10a60.81,60.81,0,0,0-32.4-4.32c-4.31.61-9.11,2.14-10.88,6.12-1.57,3.53,0,7.86,2.88,10.46s6.72,3.78,10.51,4.55A63.77,63.77,0,0,0,186.95,445c16.12,10,38.45,8.61,53.25-3.21a54.35,54.35,0,0,0,37.28,10.93,15.52,15.52,0,0,0,7.62-2.21c2.2-1.52,3.69-4.36,2.9-6.92a68.27,68.27,0,0,0,55.23-1.06c4.22-2,8.59-4.89,9.7-9.43.94-3.85-.86-8-3.83-10.63a19.72,19.72,0,0,0-10.88-4.3,33.11,33.11,0,0,0-28.58,11.39,15.57,15.57,0,0,0-28.43.22l-3.1-20.59c.44,2.92-40.75,4.91-44.53,4.79-3.2-.1-18.24-3.29-20-1.12C212.36,414.4,215.1,427.27,215.14,429.6Z"/><path class="cls-61" d="M214.35,400.25H275.6c4.12-.57,6.21.85,6.75,2.85l3.36,12.58c.73,2.74-1.73,5.36-5,5.36h-68c-3.32,0-5.78-2.61-5-5.36L211,403.1C211.54,401.11,213.63,399.69,214.35,400.25Z"/><path class="cls-62" d="M98.84,185.36c-5.09,1.68-10.61.39-16,.37s-11.6,2-13.14,7.17c-.92,3.06.11,6.47-.95,9.49-1.23,3.53-4.88,5.49-8,7.61-6.35,4.35-11.44,10.82-13.18,18.33s.22,16,5.77,21.32c2.56,2.45,5.92,4.42,7,7.78,1.3,3.88-.9,8-1.27,12.05-.53,5.83,2.89,11.53,7.63,15s10.62,4.94,16.43,5.7a76.13,76.13,0,0,0,38-4.86c6.87-2.77,13.3-6.53,20.1-9.48s14.17-5.11,21.54-4.39c3.39.33,7.28,1.11,9.81-1.16,2.29-2.06,2.19-5.91.44-8.44s-4.72-3.95-7.68-4.79c-5.29-1.5-11.87-2.13-14.29-7.07-1.94-4-.06-8.6.51-13a21.76,21.76,0,0,0-12.52-22.09c-3-1.29-6.17-1.89-9.12-3.17s-5.78-3.5-6.57-6.62c-.64-2.52.13-5.18-.18-7.76-.49-4-3.61-7.32-7.23-9.13s-7.71-2.38-11.72-2.92"/><path class="cls-63" d="M157.87,219.66,168,208.72s3.91,4.49,2.19,7.28-7.23,7-7.23,7Z"/><path class="cls-63" d="M157.87,219.66s1.46-8.76,3.08-8.49,3.29,5.82,3.29,5.82Z"/><path class="cls-63" d="M49.94,286.92l-9.22,11.73s-4.27-4.16-2.78-7.08,6.63-7.6,6.63-7.6Z"/><path class="cls-63" d="M49.94,286.92s-.74,8.85-2.37,8.71-3.75-5.53-3.75-5.53Z"/><path class="cls-64" d="M163.84,207.68h0L172.94,219c3.35-1,6.09,2.83,6,5.16a2.75,2.75,0,0,1-1.55,2.11l-3.17-4.18-1.85,1.41,3.19,4.25a3,3,0,0,1-3.85.37c-1.85-1.16-3.94-3.73-2.11-6.5l-9-11.28.05-.17c-3.45,1.05-6.21-2.5-6.08-4.86a2.75,2.75,0,0,1,1.55-2.11l3.17,4.18,1.85-1.41-3.19-4.25a3,3,0,0,1,3.85-.37C163.56,202.5,165.44,205.14,163.84,207.68Z"/><path class="cls-65" d="M118.12,356.34q0-3.86-.26-7.73c-.7-12.37,3.69-39.4,2.71-51.75-.25-3.19-.83-7.84-2.51-8.43-8.41-2.91-26.49,21.67-24.29,33.63,0,.19.07.4.12.61,1.62,8.55,6.9,31.67,9.41,39.19a45.88,45.88,0,0,0-1.14,7.09c-1.43,16.22,3.09,38.16,4.34,50.27h.61a34.58,34.58,0,0,0,6.68-.46l.76-2.7C114.29,395.65,118.38,376.75,118.12,356.34Z"/><path class="cls-66" d="M114,288.66a40.41,40.41,0,0,1-9.7.23,157.79,157.79,0,0,1-18.43-2.74C75,297,72,333.49,70.59,345c0,0-1.53,10.73,0,18.85.08.43-1.78,3.14-2,3.54-3.53,7.19-5.44,15.2-7.17,23-.37,1.65-5,21.38-4.72,21.49a36,36,0,0,0,6.94,2.25h0C71,394.63,81.62,375,89.2,355.59c5.59-14.31,12.24-28.18,17.87-42.48Z"/><path class="cls-67" d="M158,217.61a87.22,87.22,0,0,1-12.71,9.81c-3.08,1.89-6,2.69-9.47,3.66-4.88,1.39-7.4.57-12.3-.57-4.75-1.1-9.53-2.08-14.34-2.89-2.33-.4-1.2,1.26-3.45,1.9a14.47,14.47,0,0,0-4.33,2c-2.08,1.45-3.72,3.41-3.21,5.86a4.24,4.24,0,0,0,1.34,2.32,4.82,4.82,0,0,0,2.73,1.24c2.7.28,6.88.86,11.3,1.45,10.85,1.45,22.69,4.67,32-2.83,4.79-3.85,10.45-10.6,14.9-14.83.14-.13,1.78-1.53,1.6-1.77Z"/><path class="cls-68" d="M88.28,268c-.05,1.18-.16,2.36-.3,3.53-.45,3.7-4.31,11.87-2,15,2.47,3.35,11.48,3.57,15.17,3.86,1.57.12,17.83-1.07,17.69-1.35a34.13,34.13,0,0,1,.44-31.06c1.37-2.53,3.08-4.94,3.68-7.74,1-4.7-1.32-9.14-4-12.82-2.35-3.22-3.78-7-7.39-8.84-7.1-3.67-16-3.44-23.51-1.66-3,.7-7.35,1.57-9.28,4.23-2.63,3.61-.51,9.48,1.37,13s4.25,6.56,5.84,10.12A30.1,30.1,0,0,1,88.28,268Z"/><path class="cls-69" d="M86.81,207.39c.2,8,7.11,12.65,7.11,12.65l-.46,7.29,4.66,3,3.2,2.07,1.84-3.84.25-4.7a2.42,2.42,0,0,1,1.92-2.23,8.82,8.82,0,0,0,4.54-2.75,3,3,0,0,0,.29-.36h0c3-4.13,4.17-19.93-6.19-24.42C93.27,189.47,86.6,199.37,86.81,207.39Z"/><path class="cls-70" d="M93.51,223.93a7.45,7.45,0,0,0-2.25,2.31,29.6,29.6,0,0,1,2.88,1.51c1.22.75,7.11,4.9,7.11,4.9L103,229.1S96.84,224.86,93.51,223.93Z"/><path class="cls-71" d="M103,229.1a4.92,4.92,0,0,1,2.69,2.24s1.05-2-.29-5.61a9.3,9.3,0,0,0-2-1.45Z"/><path class="cls-72" d="M80.25,229.58c-4.5,1.53-7.07,8.19-9.77,11.66-7.62,9.79-15.65,18.83-20.63,30.32-2.48,5.72-5.26,12.92-5.26,12.92l.89.49,4.46,1.94c5.85-7.79,10.62-15.73,16.84-23.23a53.36,53.36,0,0,1,8.31-7.89c3.13-2.51,5.31-6.27,7.86-9.34a16.13,16.13,0,0,0,3.22-6.24C87.27,236.21,86.4,227.49,80.25,229.58Z"/><path class="cls-73" d="M108.53,194s-2-1.25-2.69-1.59a8.66,8.66,0,0,0-2.7-.91,11.86,11.86,0,0,0-3.45,0c-.55.09-4.85,1.48-5.88,1.91s-2.71,2.35-3,2.55-2.26,2.48-2.26,2.48l.31.14-2.31,1.68-1.63,3.18s-.14,13.34,9,16.59a26.74,26.74,0,0,0,.74-5.94s-3.4-2.4-3.4-4.85c0-3.41,3.79,0,3.79,0a24.9,24.9,0,0,0,1-4.8c.13-1.64-1-3.09-2.28-4.21a9.86,9.86,0,0,0,5.53-1.15c5.28-2.84,12.16-1.47,12.16-1.47Z"/><path class="cls-33" d="M65,411.2l13.09,6-.43,4.89-18-1.94-6.26-3.67,4.15-8.73S58.83,410.48,65,411.2Z"/><path class="cls-33" d="M113.6,413.81l14.19,2.45.84,4.83-17.91,2.76-7-1.94,1.77-9.5S107.48,414.69,113.6,413.81Z"/><path class="cls-34" d="M313.52,93.36a26.2,26.2,0,0,1-.89-6.79c.15-3.9.65-9.56,7.13-11.88s13.64-.93,15.77,3.75,2,10.5,1.24,15.46a30.57,30.57,0,0,0,3.11,17.83c-1.21-2.48-10.14,1.44-12-1.32-1.69-2.46-.51-7.19-5-7.32-1.87-.06-2.79,1.79-4.77.77-1.48-.76-2.36-3.57-2.88-5l-.1-.29a14.62,14.62,0,0,1-1.66-.14c-1-.29-.89-.71-.67-1.32A15.83,15.83,0,0,0,313.52,93.36Z"/><path class="cls-38" d="M293.59,188a74.4,74.4,0,0,1,6.29,17c1.74,7.8-1.68,20.73-.48,29.86.29,1.77.85,6,1.65,7.28,1,1.51,3,3.1,3.34,5.19a3.25,3.25,0,0,1-1.85,3.32c-1.42.78-2.45.08-3,.17-3,.5-3.45,2.75-8.66,3.82a8.41,8.41,0,0,1-5.61-1.08A1.12,1.12,0,0,1,285,252c.28-.48,4.08-1.93,5.77-3.08a10.83,10.83,0,0,0,3.45-5c.21-1.09-.94-6.14-1.43-8.26-3.4-14.61-7.81-35.19-10-43.7"/><path class="cls-38" d="M336.95,164.88l22.89,13.19s1.18,7.68-9.43,10.81c-6.16,1.82-16.13.79-18.72,1.12s-43.59,5-43.59,5-4,1.21-5-1.95c-1.54-5,1.74-5.31,5-7.81C293.49,181,312.49,170.83,336.95,164.88Z"/><path class="cls-33" d="M294.1,245.38l-11.86,7.89,1.17,4.71,17.3-4.66,5.55-4.55-5.39-7.89S300,243.73,294.1,245.38Z"/><path class="cls-34" d="M292,188.08a74.4,74.4,0,0,1,0,18.12c-1.09,7.92-9.24,21.15-11.31,30.13-.35,1.76-1.31,6-1,7.39.39,1.76,1.72,4,1.31,6a3.25,3.25,0,0,1-2.89,2.46c-1.6.24-2.32-.78-2.84-.88-3-.59-4.19,1.37-9.45.56a8.41,8.41,0,0,1-4.88-3,1.12,1.12,0,0,1,.24-1.56c.43-.35,4.5-.38,6.48-.88a10.83,10.83,0,0,0,5-3.47c.57-.95,1.27-6.08,1.54-8.24,1.91-14.87,5.67-39.93,6.61-48.66"/><path class="cls-34" d="M336.08,166.87,360,180.54s-1,8.7-11.78,11c-6.28,1.34-16.7-.17-19.3,0s-43.85,1.62-43.85,1.62-4,.87-4.24-2.43c-.27-4.41-.61-6.54,2.79-8.79C289.35,178.11,311.23,170.92,336.08,166.87Z"/><path class="cls-74" d="M355.37,159.28s7.48,14.57,5.57,20.77-5.57,12.07-15.84,12.15-36,.08-36,.08-.89-6.72-3.15-10.9a31.85,31.85,0,0,0-5.92-7.46s26.11-8,27.92-9.78a23.19,23.19,0,0,0,3.58-5.57"/><path class="cls-75" d="M317.11,130.25a46,46,0,0,1,5.58-7.3l5.25,2.36c-2.47,4.74-2.92,10.31-4.05,15.49a12.25,12.25,0,0,1-3-.3c-.51-.83-.32-.42-1-1.62A21.24,21.24,0,0,1,317.11,130.25Z"/><path class="cls-34" d="M323.48,132.93s-7.33,19.76-8.61,21.38c-5,6.36-24.77,16.37-24.77,16.37a3.87,3.87,0,0,1-2.45-4.31c6.08-2.67,17.29-15,19.75-16.47,1.59-1,8.61-25.14,8.61-25.14"/><path class="cls-76" d="M326.84,100.44c-4.33-.82-5.1-5.66-5.53-9.87-.11-1.06-.32-2.16-1.46-2.29-.79-.09-1.3.1-1.58.77-.19.47.19,3.81-.92,1.91s-2-1.95-2-6.12c0-.49.18-2.51-.13-2.81-1.94,1.41-2.5,3.84-2.73,5.62-1.46-.62-1.87-2.72-1.87-3.52a9.32,9.32,0,0,1,.77-4.18c2.54-5.44,5.23-6.44,7.5-7.41s4.49-1.89,6.88-1.82,5.35.77,6,2.56c6.93-1.78,9.3,11.83,8.6,16.34a13.44,13.44,0,0,1-11.12,10.87A8.23,8.23,0,0,1,326.84,100.44Z"/><path class="cls-33" d="M271.95,244.06l-14,2.56-.78,4.79L274.89,254l6.89-2-1.83-9.37S278,244.87,271.95,244.06Z"/><path class="cls-77" d="M345.43,63.54c6.83-.47,14.81.69,18.38,6.52,2.44,4,2.21,9.29,5.09,13,3.45,4.41,9.81,4.79,15.21,6.24a32.93,32.93,0,0,1,22.66,22.27c1.4,4.86,1.42,10.65-2,14.35-3.06,3.28-8,4-12.48,3.74-3.56-.21-7.93-1.77-8.17-5.33-.09-1.39.52-2.73.7-4.12.57-4.44-3.53-8.31-7.86-9.46s-8.9-.41-13.38-.39-9.41-.93-12.19-4.45c-3.56-4.53-2.31-11.7-6.26-15.9-4.8-5.1-14.26-6-14.34-14.92C330.71,67.47,339.12,64,345.43,63.54Z"/><path class="cls-78" d="M355.68,155.15c-.93-4.53-1.64-15.87-2.36-19.71a144.2,144.2,0,0,0-4.48-19.16c-1-2.93-1.69-5.82-4.11-7.71a13.66,13.66,0,0,0-5.2-2.38,4.94,4.94,0,0,0-2.67-2.51,6.83,6.83,0,0,0-3.34-.09,26.83,26.83,0,0,0-9.86,3.69l.12,2.61c-1.09.3-2.19.64-3.3,1.07-5.15,2-5.68,14.5-8.68,23.72,0,0,2.19,3.24,8,4,0,.05,0,.12.08.17,2,3.58,4.16,4.6,6.65,7.57,1.86,2.22,2.47,6.79,2.85,11.69.07.84-.64,2.33-.43,3.15.39,1.58,2.79,2.07,5.46,2.12,6.14.12,15.46-2.12,18.21-2,2.58.1,5-1.16,4.77-2.68C357.17,157.64,356.11,157.21,355.68,155.15Z"/><path class="cls-16" d="M280.35,163.06l0,0L286,176.25c-2.38,2.49-.34,6.63,1.75,7.6a2.72,2.72,0,0,0,2.57-.38l-2.19-4.7,2.08-1,2.24,4.76a3,3,0,0,0,2.1-3.2c-.15-2.16-1.44-5.17-4.71-4.85L284.2,161.4l-.17,0c2.52-2.53.68-6.58-1.43-7.56a2.72,2.72,0,0,0-2.57.38l2.19,4.7-2.08,1-2.24-4.76a3,3,0,0,0-2.1,3.2C275.94,160.42,277.39,163.28,280.35,163.06Z"/><path class="cls-63" d="M293.57,163.38l-14.25,3.82s2.12,5.5,5.35,5.28,10.09-4.92,10.09-4.92Z"/><path class="cls-63" d="M293.57,163.38s-8.33-2.77-8.84-1.23,3.57,5.56,3.57,5.56Z"/></g></svg>