<svg xmlns="http://www.w3.org/2000/svg" xmlns:xlink="http://www.w3.org/1999/xlink" viewBox="0 0 500 500"><defs><style>.cls-1{isolation:isolate;}.cls-2{fill:url(#radial-gradient);}.cls-3{fill:url(#radial-gradient-2);}.cls-4{fill:url(#radial-gradient-3);}.cls-15,.cls-5,.cls-6{opacity:0.34;}.cls-15,.cls-16,.cls-17,.cls-5,.cls-6{mix-blend-mode:screen;}.cls-5{fill:url(#radial-gradient-4);}.cls-6{fill:url(#radial-gradient-5);}.cls-10,.cls-11,.cls-12,.cls-13,.cls-14,.cls-7,.cls-8,.cls-9{opacity:0.4;mix-blend-mode:multiply;}.cls-7{fill:url(#radial-gradient-6);}.cls-8{fill:url(#radial-gradient-7);}.cls-9{fill:url(#radial-gradient-8);}.cls-10{fill:url(#radial-gradient-9);}.cls-11{fill:url(#radial-gradient-10);}.cls-12{fill:url(#radial-gradient-11);}.cls-13{fill:url(#radial-gradient-12);}.cls-14{fill:url(#radial-gradient-13);}.cls-15{fill:url(#radial-gradient-14);}.cls-16{fill:url(#radial-gradient-15);}.cls-17{fill:url(#radial-gradient-16);}</style><radialGradient id="radial-gradient" cx="-159.42" cy="-247.33" r="240.36" gradientTransform="translate(2.68 409.42) rotate(90)" gradientUnits="userSpaceOnUse"><stop offset="0" stop-color="#e26f34"/><stop offset="0.26" stop-color="#e26f34"/><stop offset="0.54" stop-color="#e27034" stop-opacity="0.99"/><stop offset="0.65" stop-color="#e37335" stop-opacity="0.96"/><stop offset="0.72" stop-color="#e57936" stop-opacity="0.91"/><stop offset="0.78" stop-color="#e78237" stop-opacity="0.83"/><stop offset="0.83" stop-color="#ea8d38" stop-opacity="0.74"/><stop offset="0.87" stop-color="#ed9b3b" stop-opacity="0.62"/><stop offset="0.91" stop-color="#f1ac3d" stop-opacity="0.47"/><stop offset="0.95" stop-color="#f6bf40" stop-opacity="0.31"/><stop offset="0.98" stop-color="#fbd443" stop-opacity="0.12"/><stop offset="1" stop-color="#ffe245" stop-opacity="0"/></radialGradient><radialGradient id="radial-gradient-2" cx="-159.42" cy="-247.33" r="201.16" gradientTransform="matrix(0, 1, -1, 0, 2.68, 409.42)" gradientUnits="userSpaceOnUse"><stop offset="0" stop-color="#e26f34"/><stop offset="0.26" stop-color="#e26f34"/><stop offset="0.92" stop-color="#ffe245"/></radialGradient><radialGradient id="radial-gradient-3" cx="-159.42" cy="-247.33" r="201.16" xlink:href="#radial-gradient-2"/><radialGradient id="radial-gradient-4" cx="-195.86" cy="-294.95" r="145.84" gradientTransform="translate(33.99 449.8) rotate(80.04)" xlink:href="#radial-gradient-2"/><radialGradient id="radial-gradient-5" cx="-218.43" cy="-310" r="106.9" gradientTransform="translate(33.99 449.8) rotate(80.04)" xlink:href="#radial-gradient-2"/><radialGradient id="radial-gradient-6" cx="-62.03" cy="-124.84" r="89.38" gradientTransform="translate(33.99 449.8) rotate(80.04)" xlink:href="#radial-gradient-2"/><radialGradient id="radial-gradient-7" cx="-201.46" cy="-393.84" r="104.12" gradientTransform="translate(33.99 449.8) rotate(80.04)" xlink:href="#radial-gradient-2"/><radialGradient id="radial-gradient-8" cx="-149.95" cy="-197.19" r="168.39" gradientTransform="translate(33.99 449.8) rotate(80.04)" xlink:href="#radial-gradient-2"/><radialGradient id="radial-gradient-9" cx="-175.56" cy="-286.38" r="160.57" gradientTransform="translate(33.99 449.8) rotate(80.04)" xlink:href="#radial-gradient-2"/><radialGradient id="radial-gradient-10" cx="-252.3" cy="-79.54" r="7.41" gradientTransform="translate(33.99 449.8) rotate(80.04)" xlink:href="#radial-gradient-2"/><radialGradient id="radial-gradient-11" cx="-17.35" cy="-388.32" r="14.02" gradientTransform="translate(33.99 449.8) rotate(80.04)" xlink:href="#radial-gradient-2"/><radialGradient id="radial-gradient-12" cx="-402.08" cy="-716.13" r="739.15" gradientTransform="translate(33.99 449.8) rotate(80.04)" xlink:href="#radial-gradient-2"/><radialGradient id="radial-gradient-13" cx="-370.69" cy="-667.96" r="686.27" gradientTransform="translate(33.99 449.8) rotate(80.04)" xlink:href="#radial-gradient-2"/><radialGradient id="radial-gradient-14" cx="-388.6" cy="-620.05" r="646.06" gradientTransform="translate(33.99 449.8) rotate(80.04)" xlink:href="#radial-gradient-2"/><radialGradient id="radial-gradient-15" cx="-221.84" cy="187.01" r="110.14" gradientTransform="matrix(0, 1, -1, 0, 559.15, 282.81)" xlink:href="#radial-gradient-2"/><radialGradient id="radial-gradient-16" cx="-110.67" cy="-79.23" r="60.76" gradientTransform="translate(330.22 231.09) rotate(90)" xlink:href="#radial-gradient-2"/></defs><title>history-planet-2</title><g class="cls-1"><g id="OBJECTS"><circle class="cls-2" cx="250" cy="250" r="240.35" transform="translate(-39.48 47.02) rotate(-9.96)"/><circle class="cls-3" cx="250" cy="250" r="201.16" transform="translate(-39.48 47.02) rotate(-9.96)"/><circle class="cls-4" cx="250" cy="250" r="201.16" transform="translate(-39.48 47.02) rotate(-9.96)"/><path class="cls-5" d="M436,217.32c4.68,26.65,3.52,53.59-5.4,79.25-6.87,19.74-22.49,32-40.41,41.42-9.91,5.23-21.69,8.42-32.34,4.93-8.34-2.73-14.88-9.15-21.06-15.37-16.14-16.25-32.18-32.66-46.51-50.51-12.05-15-23.49-31.55-40.54-40.5-15.9-8.34-34.57-8.95-52-13.39A119,119,0,0,1,163.06,208c-6.16-4-12.08-8.63-15.85-14.9-5.08-8.46-5.68-18.84-5.36-28.71.56-17.3,1.74-33.56,11.38-48.19A117.56,117.56,0,0,1,188.45,82C208.66,69.19,234,60.24,258,61.23,345.58,64.86,420.9,131.06,436,217.32Z"/><path class="cls-6" d="M408.13,189.43c3.43,19.53,2.58,39.28-4,58.09-5,14.47-16.48,23.43-29.62,30.36-7.27,3.83-15.9,6.17-23.71,3.62-6.12-2-10.9-6.7-15.44-11.27-11.83-11.91-23.58-23.94-34.09-37-8.84-11-17.22-23.13-29.72-29.68-11.65-6.11-25.34-6.56-38.09-9.82A87.22,87.22,0,0,1,208,182.62c-4.51-2.9-8.86-6.32-11.62-10.92-3.73-6.2-4.16-13.81-3.93-21,.41-12.68,1.27-24.6,8.34-35.32a86.15,86.15,0,0,1,25.81-25.09c14.82-9.4,33.39-16,51-15.23C341.82,77.68,397,126.2,408.13,189.43Z"/><path class="cls-7" d="M54.35,296.62q.74,3.11,1.58,6.18c.28,1,.54,2,.83,3q1.13,3.91,2.4,7.74c.47,1.4,1,2.79,1.47,4.18s.9,2.51,1.37,3.75c.62,1.62,1.25,3.23,1.9,4.83.33.81.68,1.6,1,2.4,1.63,3.84,3.36,7.62,5.21,11.32a162.44,162.44,0,0,0,34,29.94c2.21,1.45,5.6,2.65,7.09.47,1.73-2.52-1-7.48,2-8.32a3.65,3.65,0,0,1,2.91.89,46.87,46.87,0,0,1,19.14,28.1A58,58,0,0,0,120.51,387l12.89,17.82c1.89,2.62,3.59,6.75.94,8.59a3.13,3.13,0,0,1-1,.44,201.39,201.39,0,0,0,85.47,34.91l.2,0a199.06,199.06,0,0,0,21.75,2.18,126.27,126.27,0,0,0-14.45-4.28c-12.2-2.93-24.77-4.95-36.23-10a9.52,9.52,0,0,1,1.23-6.86c1.82-3.12,6.41-3.81,10.87-2.18,4.48,1.36,9,5.1,15.39,6.1a12.92,12.92,0,0,0,9.64-2.43,10.25,10.25,0,0,0,3.34-4.31,8.78,8.78,0,0,0,.18-5.68c-1.18-3.5-3.27-5.42-5-7.26a52.9,52.9,0,0,0-5.4-4.58c-3.44-2.55-6.23-4.44-8.2-5.85l-3.1-2.18L188.5,388.21c-14.37-15.36-34.87-25.67-50.83-40.09-10.16-9.17-18.73-20.31-30.42-27.44-1.67-1-4.09-1.85-5.36-.35-1,1.16-.5,2.9,0,4.32l6.52,17.74c-4.87,2.34-10.26-1.76-14-5.65a367,367,0,0,1-42.78-53.46c.08.51.14,1,.23,1.52.53,3,1.15,6,1.81,9C53.9,294.74,54.13,295.68,54.35,296.62Zm116.4,107.92,18.06,8.32c3.55,1.64,8.27,3.07,10.92.2,2.37-2.58,1.18-6.72-.42-9.83-.08-.15-.17-.29-.25-.44l6.15,4.36,11.44,7.46a47.7,47.7,0,0,1,4.94,3.82c1.59,1.45,3.23,3.16,3.73,4.6s.14,2.72-1.37,4.06a7.83,7.83,0,0,1-5.79,1.76c-4.68-.32-9.4-3.55-14.87-5a16.07,16.07,0,0,0-8.26-.19,9.4,9.4,0,0,0-6,4.74,11.15,11.15,0,0,0-.95,7.25c-11.35-5.49-21.53-14.86-24.27-27.13a4.88,4.88,0,0,1,.31-3.88C165.5,402.72,168.55,403.53,170.75,404.54Z"/><path class="cls-8" d="M309.75,57.94a17.48,17.48,0,0,0,2.14,6.77c15.83,29.46,43.53,50.3,66.36,74.74,2.73,2.92,5,8.38,1.45,10.14a6.35,6.35,0,0,1-4.06.09c-6.6-1.36-13.27-3.73-20.08-3.56,1,10.43,16.87,19.57,24.14,26.1,8.9,8,17.72,16.94,20.83,28.86,1,3.85,1.35,8,0,11.74-1.23,3.4-3.74,6.19-5.28,9.46a18.1,18.1,0,0,0-1.09,3.09c-1.54,1.39-3.27,2.83-5.09,4.44-3.29,2.91-7.08,6.92-8.26,12.34s0,10.68,1.73,15a56.94,56.94,0,0,0,6.14,11c4.08,5.9,7.18,9.56,7.18,9.56s3.11,3.64,8.27,8.62a154.39,154.39,0,0,0,20.32,16.5,147.52,147.52,0,0,0,16.73,9.74c.36-1.11.69-2.23,1-3.34a180.47,180.47,0,0,1-14.89-10.35,165,165,0,0,1-18.66-17c-4.7-5-7.53-8.62-7.53-8.62s-3.1-3.38-7.29-8.83a52.84,52.84,0,0,1-6-9.58c-1.72-3.65-2.86-7.82-2.2-11.77s3.21-7.45,6.17-10.54l1.73-1.78a28.21,28.21,0,0,0,3.42,12.86c3.49,6.54,8.89,11.81,14.21,17,11.43,11.1,22.93,22.22,35.46,32a200.74,200.74,0,0,0,4.19-30.8c-10.95-8.93-21.47-18.45-29.84-29.79-1.57-2.13-3.11-4.45-3.3-7.09s1.52-5.59,4.15-5.83c1.67-.15,3.85.56,4.69-.89a3,3,0,0,0,0-2.39c-2.53-8.12-8.48-14.93-10.45-23.2-.35-1.49-.51-3.24.53-4.36s3-1.08,4.52-.72c8.11,1.9,14.2,8.41,19.77,14.61l6.05,6.73c-.14-.65-.25-1.31-.4-2-.25-1.16-.51-2.32-.78-3.48q-.82-3.45-1.75-6.85c-.33-1.2-.67-2.39-1-3.58q-.87-3-1.83-5.89-.57-1.74-1.16-3.45-1-2.83-2.05-5.61c-.51-1.34-1-2.68-1.57-4q-1.17-2.89-2.43-5.74c-.51-1.16-1-2.31-1.58-3.46-.73-1.57-1.49-3.12-2.26-4.67-.67-1.34-1.34-2.68-2-4q-1.49-2.82-3.05-5.59c-.67-1.19-1.37-2.36-2.07-3.53s-1.53-2.53-2.32-3.79-1.6-2.56-2.43-3.82q-1.82-2.76-3.72-5.45c-.86-1.22-1.75-2.42-2.64-3.62q-1.11-1.5-2.24-3c-.95-1.23-1.89-2.46-2.86-3.66s-1.83-2.21-2.76-3.3q-2.38-2.82-4.86-5.55-1-1.09-2-2.17c-1.19-1.27-2.38-2.53-3.6-3.77l-.49-.49q-4-4-8.17-7.77l-1.56-1.39c-1.44-1.27-2.88-2.52-4.36-3.75l-.16-.13q-4.71-3.92-9.66-7.54l-.89-.65A202,202,0,0,0,309.75,57.94Zm51,36.79c13.81,2.18,25.29,12.19,32.85,23.48,4,6,7.24,12.11,11.63,18,4.61,6.15,9.13,12.81,9.64,20.73a4,4,0,0,1-.31,2.2c-.95,1.71-3.51,1.39-5.29.58-11.15-5.06-15.75-18.1-23.38-27.69-8.88-11.16-22.82-18.56-28.17-31.78-.76-1.88-1-4.62.87-5.4A4,4,0,0,1,360.8,94.73Z"/><path class="cls-9" d="M308.75,438.47c.35,1.16.68,2.36,1,3.56q8.77-2.72,17.14-6.17,1.71-.71,3.41-1.44c1.32-.57,2.64-1.14,3.95-1.74,0-2.44-.13-4.91-.29-7.32l7.25,3.95c2.59-1.32,5.13-2.7,7.64-4.12l.73-.4q3.89-2.22,7.66-4.61l.34-.21q7.87-5,15.2-10.66h0a405.31,405.31,0,0,0-44-31c-6.11-4.84-15.74-11.84-25.85-18.22-8.56-5.47-17.32-10.55-24.08-14.18a103.29,103.29,0,0,0-11.77-5.5s-1.24-.45-3.46-1.1a57.77,57.77,0,0,0-9.48-1.92,11.67,11.67,0,0,0-4.26.11,5.77,5.77,0,0,0-4.22,3.58,6.81,6.81,0,0,0-.32,3c.14,1.17.23,1.41.35,2.06l.67,3.42,1.36,7a6.64,6.64,0,0,1,.08,1.29.94.94,0,0,1-.1.46.89.89,0,0,1-.88.44c-1.48-.12-3.85-1.57-5.91-2.72s-4.06-2.51-5.92-3.86a75.31,75.31,0,0,1-9.53-8.26c-5.2-5.32-8-9.57-8.42-9.29-.08,0,0,.35.14.81-1.67-4.85-8.75-10.66-12-14.67L192.26,305l-25.69-31.29C151.5,255.38,134,238.81,123.4,217.29c-3.94-8-9.57-20.54-7.83-29.72,1.34-7,9.44-11.26,14.72-15.31a41.88,41.88,0,0,0,8.18-8,29.45,29.45,0,0,0,2.51-3.56,38.26,38.26,0,0,0,2-3.84,52.17,52.17,0,0,0,3.61-10.72A63,63,0,0,0,144.47,113a102.35,102.35,0,0,0-13.11-25.42c-.83.6-1.63,1.23-2.45,1.85,4,7,8.37,15.72,10.89,25a58.75,58.75,0,0,1,.64,30.33,46.44,46.44,0,0,1-3.5,9.22,33.06,33.06,0,0,1-1.85,3.2,24.55,24.55,0,0,1-2,3.08,35.64,35.64,0,0,1-6.71,7c-1.92,1.64-4.41,3.34-6.88,5.58a91.13,91.13,0,0,0,5.68-12.8c4.59-14.08,1.8-29.72-4.46-43.14A107.65,107.65,0,0,0,112.77,103q-2,1.91-4,3.86c-1.69,1.67-3.38,3.35-5,5.08a104.28,104.28,0,0,1,9.76,16.89c2.1,4.61,3.87,9.89,2.09,14.63a3.27,3.27,0,0,1-2.11,2.28,3.11,3.11,0,0,1-1.53-.17c-3.9-1.25-6.32-5-8.41-8.55l-8.8-14.77h0q-2.38,2.9-4.67,5.86c-1.42,1.86-2.81,3.74-4.17,5.65l-.36.49a59.15,59.15,0,0,1,3.54,7.48c4.62,12.23,2.72,25.84.75,38.76-.51,3.38-1.21,7.09-3.89,9.22-5,4-12.45-.37-18.67,1.06-5.9,1.35-9.42,7.9-9.31,13.95s3,11.67,6,16.94c24.61,43.68,59.68,80.43,95.36,115.67-4.42-3.6-9-7.26-13.52-10.93-14-11.23-27.48-22.85-36.8-32.41s-15.27-16.21-15.27-16.21-6.2-6.43-14.85-16.61a254.11,254.11,0,0,1-27.95-39.57c-.4,2.81-.73,5.63-1,8.46a258.89,258.89,0,0,0,24.05,35.15c8.54,10.59,14.67,17.23,14.67,17.23s6.09,6.68,15.9,16.09,23.84,21,38.25,31.71c13.15,9.85,25,20.84,38.69,29.74a526,526,0,0,1,73.14,58.2c3.77,3.56,7.73,7.37,12.8,8.49s11.4-1.84,11.78-7c.14-1.94-.51-4.11.61-5.71,1.25-1.78,3.9-1.69,6-1.17C298.48,415.89,305.17,426.61,308.75,438.47Zm-141-123.3c-5.43-1.22-10-4.71-14.24-8.36-6.32-5.5-12.09-11.59-17.86-17.67-10.23-10.79-20.47-21.58-29.85-33.12C100.31,249.34,95,242,94,233.43a3.53,3.53,0,0,1,.22-2.13c.79-1.42,2.87-1.24,4.42-.77,10.65,3.25,19.63,11,26.5,19.59,3.08,3.85,4.79,8.14,8.09,11.85,7.55,8.5,13.31,18.51,20.86,26.83a184,184,0,0,1,16.13,20.52c1.17,1.73,2.17,4.41.45,5.6A3.74,3.74,0,0,1,167.71,315.17Zm45.41,40.65c-5.34.2-10-3.23-14.25-6.52-5.3-4.15-10.66-8.38-14.69-13.78a19.91,19.91,0,0,1-4.24-9.54,3.75,3.75,0,0,1,.27-2.19c1-1.86,3.81-1.31,5.66-.29,12.85,7,19.67,18.53,27.86,29.83.5.69.95,1.77.26,2.27A1.55,1.55,0,0,1,213.12,355.82Zm39.63,16.66c-6.79-2.23-11.69-8-16.22-13.53l-1.61-2c1.17.91,2.38,1.81,3.64,2.67,1.06.72,2.15,1.42,3.26,2.09a12.35,12.35,0,0,0,4.27,1.75,5.73,5.73,0,0,0,5.73-2.11,6.42,6.42,0,0,0,1.16-3,11.35,11.35,0,0,0,0-2.44c-.33-2.8-.68-5-1-7.39l-.49-3.45c-.07-.48-.2-1.35-.17-1.28a.49.49,0,0,1,.05-.2c.33-.2-.17-.24,1.9,0a52.78,52.78,0,0,1,8.33,2.08l3.1,1.13A101.4,101.4,0,0,1,276,351.55l2.44,1.2c-2.56-.49-5.08-.28-6.71,1.62-2.29,2.65-1.15,6.71-1.81,10.15C268.58,371.54,259.53,374.7,252.74,372.47Zm36.87,12.2c-1.21-1.43-2.49-3.33-1.7-5a4,4,0,0,1,2.86-1.93c4-1,8.08.55,11.81,2.21,10.18,4.56,19.25,10.64,28.55,16.71,3.49,2.28,7.06,2.89,10.68,4.71,4.2,2.12,19.15,15.3,7.49,16.49l-.64.05c-7.2.44-12.34-7.72-18.92-9.55a2.59,2.59,0,0,0-1.95,0c-1,.58-.94,2.15-.35,3.19s1.51,1.91,1.77,3.08c.51,2.3-2.08,4.34-4.43,4.2s-4.35-1.7-6.14-3.23C307.89,406.38,298.72,395.5,289.61,384.67Z"/><path class="cls-10" d="M165.29,67.53c-1.41.66-2.81,1.35-4.2,2s-2.84,1.38-4.23,2.11-2.64,1.44-4,2.16-2.81,1.52-4.19,2.32c4.45,13.39,10.74,25.92,20.35,36.18,13.24,14.14,31.9,23,45.82,36.05,1,2.08,1.43,4.24,0,6.31-2.19,3.59-7.14,5.7-12.21,6.9S191.83,163,185.83,163s-12.47,0-18.93,1.66-13.07,4.56-17.44,10.54a20.65,20.65,0,0,0-3.83,10.09,30.74,30.74,0,0,0,.9,10.35c1.67,6.56,4.39,12.21,6.73,17.78,4.8,11.13,10.28,21.44,16.71,29.19a134,134,0,0,0,16.92,16.79l6.85,5.7,7.06,5.42c4.53,3.4,11.09,8.15,19.2,13.48s17.84,11.16,28.4,17,22,11.77,33.33,17.75c14.13,7.36,28,15.08,40.22,22.66,21.17,19.29,40.44,41.11,64.83,56h0A202.11,202.11,0,0,0,402,381.7c-2.11-1.92-4.09-4-6-6.08l-61.65-66.4c15.62-.94,29.4,9.22,42.5,17.76,14.79,9.64,31,17.85,47.94,22.38a201.29,201.29,0,0,0,11.75-24.08h0a45.05,45.05,0,0,1-6.18-1.22c-50.44-13-89-52.65-122.79-92.37a33.8,33.8,0,0,1-1.84-9.81c0-3.29-.11-8.46,2.66-8.85,1.5-.38,3.88-.08,5.94,0l3.23.43,3.27.68c8.8,2.06,17.7,6.39,27.34,9.58a59.5,59.5,0,0,0,15.1,3.14,24.69,24.69,0,0,0,3.9,0,26.45,26.45,0,0,0,3.94-.33,15.16,15.16,0,0,0,7.85-3.45,11.92,11.92,0,0,0,3.67-8,26.82,26.82,0,0,0-.54-7.39,44.15,44.15,0,0,0-4.62-12c-3.8-6.8-7.33-11.79-9.79-15.49s-4-5.65-4-5.65-1.51-2-4.37-5.44a112.49,112.49,0,0,0-13-13.2c-11.66-10.16-29.31-19.22-41.68-34.49-6.4-7.39-12.44-15.34-18.19-22.62-2.14-2.76-4.17-5.45-6.12-8.08a175.45,175.45,0,0,1-17.74-31.37,38.36,38.36,0,0,1-3.09-10.3h0q-5.39-.25-10.83-.21h-.16c-3.4,0-6.81.15-10.24.35l-1,0c-3.12.2-6.25.5-9.39.84-.59.07-1.17.1-1.75.17q-5.4.64-10.83,1.59h-.07c-3.23.57-6.42,1.22-9.59,1.94-1.07.24-2.13.53-3.2.79-2.07.5-4.13,1-6.17,1.57-1.28.35-2.55.74-3.82,1.12-1.78.53-3.56,1.07-5.32,1.65-1.37.45-2.72.92-4.08,1.4q-2.43.86-4.83,1.77-2.11.8-4.19,1.65c-1.51.61-3,1.25-4.48,1.9S166.69,66.88,165.29,67.53Zm137.54,257.7c-6.13-3.63-12.41-7.23-18.76-10.73-11.22-6.27-22.47-12.42-32.84-18.44s-19.81-11.94-27.69-17.33-14.25-10.17-18.65-13.58l-6.85-5.44c-21.49-17.3-38.79-38.64-46.36-65.38-1.61-5.67-1.55-11.71,1.76-16.31s8.8-7.54,14.56-9.1,11.86-1.82,17.92-2.05,12-.57,17.59-2.07a34.37,34.37,0,0,0,7.81-3.12,15.17,15.17,0,0,0,5.93-5.65,7.9,7.9,0,0,0,1-4.23,59.83,59.83,0,0,1,8.26,10.88c2.48,4.24,4.38,9.29,3,14-2.69,9.34-15.1,10.89-24.81,10.49s-22,.7-25.24,9.88c-1.21,3.46-.67,7.27.19,10.83,5.46,22.6,22.69,40.35,40.53,55.26C246.68,285.22,275.93,303.79,302.83,325.23ZM303,216a31.85,31.85,0,0,0,0,6.09,34.36,34.36,0,0,0,.74,4.49c-2.5-4.33-3.66-9.36-.42-12.22A12.07,12.07,0,0,0,303,216Zm-21.62,26.27c8.9,10.51,25.22,23.26,29,36.71a3.24,3.24,0,0,1,.07,2.09c-.77,1.86-3.54,1.15-5.28.14-26.78-15.68-53.5-33.95-69.17-60.74-1.24-2.12-2.43-4.39-2.51-6.84s1.3-5.13,3.67-5.74c1.74-.45,3.56.26,5.19,1C258.05,216.2,270.39,229.21,281.41,242.23Zm60.69-81.5A107.49,107.49,0,0,1,354,173.44c2.65,3.31,4.07,5.29,4.07,5.29s1.5,1.91,4,5.38,6.16,8.57,9.76,14.69A38.28,38.28,0,0,1,376.13,209c.84,3.69,1.06,8-1.09,9.9-2.19,2.24-7.09,2.71-11.56,2.61a55.15,55.15,0,0,1-13.88-2.48c-6.18-1.82-12.34-4.21-18.55-6.18l25.94.48c2.09,0,4.36,0,6-1.26,3.17-2.46,1.93-7.46.25-11.11-8.44-18.31-20.41-34.49-33.37-50.07C334.42,154.35,338.63,157.57,342.1,160.72ZM208.48,75.19a275,275,0,0,1,82.3,69l-1.47-1A27.8,27.8,0,0,1,301,166.56a8.36,8.36,0,0,1-1.69,5.39c-1.87,2.08-5.08,2.16-7.86,1.8-15.55-2-28.57-12.84-38.63-24.86s-18.17-25.7-29.28-36.77c-9.81-9.78-22.45-18.34-25.8-31.79-.42-1.67-.65-3.55.22-5C199.94,71.93,205.06,73.32,208.48,75.19Z"/><path class="cls-11" d="M78.77,190.29c.1-.43-7.43-2.63-19-5.73-.28.8-.56,1.59-.83,2.4C70.81,189.32,78.67,190.73,78.77,190.29Z"/><path class="cls-12" d="M402,381.7l0,0a202.42,202.42,0,0,0,22.89-32.34l-.12,0A202.23,202.23,0,0,1,402,381.7Z"/><path class="cls-13" d="M422.9,351.16c-8.38-2.14-18.74,6.23-26.23,9.32-12.27,5.07-25.31,8.49-38.64,8.76-21.52.44-44-8.29-56.28-26-5.41-7.82-8.61-16.91-12.72-25.48a129.8,129.8,0,0,0-75.68-66.37c-21.32-7-45-8.63-63.35-21.6-24.92-17.65-32.74-52.38-26.87-82.35,5.62-28.67,23.22-49.38,34.48-75.12-17.39,2.48-38.69,24.15-50.72,36.35a201.06,201.06,0,0,0-55,176.11C71.09,394.22,175.38,467.34,284.8,448.13a201.31,201.31,0,0,0,81.91-34.23C384.93,400.89,418.49,374.33,422.9,351.16Z"/><path class="cls-14" d="M284.8,448.13a201.32,201.32,0,0,0,81.91-34.23c9.77-7,23.93-17.85,35.66-30,.08-.33.2-.67.26-1-8.38-2.14-18.74,6.23-26.23,9.32-12.27,5.07-25.31,8.49-38.64,8.76-21.52.44-44-8.29-56.28-26-5.41-7.82-8.6-16.91-12.72-25.48a129.8,129.8,0,0,0-75.68-66.37c-21.32-7-45-8.63-63.35-21.6C104.8,243.88,97,209.14,102.86,179.18c5.62-28.67,23.22-49.38,34.48-75.12-17.39,2.48-38.69,24.15-50.72,36.35A201.63,201.63,0,0,0,71.14,158c-.41.79-.84,1.56-1.24,2.36a201.61,201.61,0,0,0-18,124.39C71.09,394.22,175.38,467.34,284.8,448.13Z"/><path class="cls-15" d="M285.43,437.8C180.72,456.19,80.92,386.22,62.53,281.5A192.41,192.41,0,0,1,115.17,113c7.88-8,19.93-20.23,32.09-27.92-5.68,5.14-10.83,10.36-14.87,14.45A192.41,192.41,0,0,0,79.75,268c18.39,104.71,118.19,174.69,222.9,156.3A192.65,192.65,0,0,0,381,391.57l2.42-1.75c-7.12,6-14.11,11.28-19.64,15.22A192.66,192.66,0,0,1,285.43,437.8Z"/><ellipse class="cls-16" cx="313.08" cy="110.58" rx="21.2" ry="39.26" transform="translate(77.74 344.8) rotate(-64.32)"/><ellipse class="cls-17" cx="376.86" cy="147.78" rx="11.7" ry="21.66" transform="translate(-7.21 275.66) rotate(-39.83)"/></g></g></svg>