<svg width="2000" height="1541" viewBox="0 0 2000 1541" fill="none" xmlns="http://www.w3.org/2000/svg">
<g clip-path="url(#clip0_48_53)">
<path opacity="0.5" d="M20.5569 876.472C309.549 667.39 621.967 486.026 960.679 374.197C1023.54 353.409 1087.85 335.009 1153.82 328.08C1201.39 323.062 1258.75 329.752 1280.98 371.808C1289.11 386.862 1291.02 404.783 1289.59 421.748C1284.09 493.195 1227.2 548.393 1174.38 596.9C1103.62 661.894 1033.58 728.084 957.81 787.343C880.602 847.798 797.657 901.323 725.469 967.513C653.042 1033.7 590.654 1115.42 568.424 1211C563.882 1230.84 562.209 1254.73 577.268 1268.11C593.044 1282.45 617.665 1276.95 637.983 1270.74C861.48 1200.01 1075.65 1092.24 1307.76 1059.99C1323.29 1057.84 1340.03 1056.16 1354.13 1063.57C1382.57 1078.39 1382.34 1119.72 1371.34 1149.83C1353.17 1200.73 1318.04 1243.5 1280.51 1282.45C1188.96 1377.79 1081.15 1455.93 974.304 1533.59C967.611 1500.13 922.672 1493.68 888.729 1496.31C798.375 1503 708.498 1517.82 620.772 1540.28C608.103 1514.71 633.919 1487.71 657.105 1470.74C740.289 1409.57 823.712 1348.4 906.896 1287.23C757.261 1289.14 619.338 1365.84 472.093 1393.08C440.54 1398.82 407.553 1402.4 376.24 1395.47C344.926 1388.54 314.569 1369.67 300.705 1340.75C286.841 1312.08 290.905 1277.43 303.813 1248.28C316.72 1219.13 337.516 1194.28 358.073 1170.14C445.082 1067.39 544.52 967.99 622.445 858.312C634.875 840.869 644.915 820.319 644.197 798.813C643.958 790.45 642.046 781.848 636.548 775.635C624.836 762.015 602.844 764.404 586.112 770.856C528.983 792.839 470.18 831.549 423.33 870.259C360.225 922.351 288.514 967.035 218.716 1009.33C188.12 1027.97 156.567 1046.13 121.19 1052.34C85.8133 1058.55 46.3726 1051.15 22.4692 1024.38C-8.36621 989.974 -3.82455 936.449 10.9956 892.482C28.206 841.107 56.8902 793.795 94.1795 754.368" fill="url(#paint0_radial_48_53)"/>
<path opacity="0.5" d="M1982.55 627.246C1842.24 719.481 1714.59 830.355 1571.89 919.005C1429.19 1007.42 1265.21 1074.08 1097.65 1063.57C1094.3 1063.33 1090.71 1063.09 1087.61 1061.66C1071.35 1054.01 1083.54 1029.4 1096.93 1017.45C1191.35 931.67 1277.88 837.045 1354.85 735.252C1392.37 685.789 1427.75 634.176 1457.39 579.456C1470.3 555.322 1533.88 434.413 1469.82 426.766C1439.7 423.182 1397.87 440.148 1373.49 456.635C1331.42 484.831 1299.39 524.975 1266.4 563.207C1196.61 644.212 1120.83 720.198 1039.56 789.733C1012.07 813.15 983.865 836.089 951.117 851.621C944.185 854.966 936.297 857.834 928.648 856.161C905.701 850.665 913.111 815.778 926.975 796.423C965.22 743.376 1012.79 697.498 1053.66 646.362C1094.54 595.227 997.968 642.061 1004.42 576.828C1007.77 541.463 1131.83 395.225 1102.67 375.153C1068.48 351.497 1021.63 365.356 984.343 383.516C877.973 434.413 786.423 510.638 690.57 579.217C594.717 647.796 489.781 710.401 373.133 727.128C364.288 728.322 354.966 729.278 347.078 725.455C324.609 714.941 331.302 681.488 343.014 659.744C383.172 585.43 441.974 523.064 499.821 461.653C590.176 366.073 680.292 270.492 770.647 174.912C813.195 129.989 855.982 84.5886 907.852 50.6576C959.484 16.7265 1021.63 -5.25694 1083.06 1.91158C1004.66 90.3234 926.258 178.735 847.616 267.147C828.493 288.653 807.936 316.371 817.497 343.611C876.778 347.196 930.321 312.07 981.714 282.201C1054.38 239.907 1131.83 205.976 1212.14 181.125C1231.98 174.912 1258.28 171.328 1269.51 188.771C1277.4 200.958 1273.1 217.445 1267.36 230.827C1221.23 337.877 1099.08 402.154 1067.05 514.222C1064.42 523.78 1062.51 534.294 1066.81 542.896C1077.33 563.685 1108.4 555.8 1128.48 544.33C1240.11 481.008 1338.11 396.181 1443.05 322.345C1547.99 248.509 1664.63 183.753 1792.28 169.655C1842.95 164.159 1903.67 171.567 1929.01 215.773C1956.26 263.085 1927.09 322.584 1895.54 367.268C1836.26 451.139 1766.46 527.604 1688.54 594.51C1634.76 640.627 1576.19 683.161 1536.99 742.182C1522.65 763.926 1510.94 788.538 1510.94 814.345C1510.7 840.39 1524.56 867.631 1548.7 876.95C1561.85 881.968 1576.43 881.729 1590.3 880.056C1709.1 867.87 1813.79 790.45 1932.83 779.936C1952.67 778.263 1975.14 779.458 1988.77 793.795C2003.11 808.849 2002.15 833.939 1991.87 852.338C1981.59 870.498 1964.14 883.402 1946.93 895.11C1842.24 967.034 1727.26 1023.67 1606.55 1063.33" fill="url(#paint1_radial_48_53)"/>
<path opacity="0.5" d="M1525.76 684.117C1349.83 841.585 1150.95 972.77 982.909 1138.84C920.999 1200.01 859.806 1275.04 863.153 1362.02C863.392 1367.76 863.87 1373.73 867.216 1378.51C874.148 1388.78 888.968 1388.78 901.159 1386.63C1053.42 1361.3 1162.42 1213.39 1314.45 1186.39C1315.88 1208.38 1298.91 1226.54 1283.14 1241.83C1212.86 1310.41 1143.54 1387.83 1123.22 1483.89C1122.27 1488.66 1121.55 1494.4 1124.66 1498.22C1128.24 1502.52 1134.93 1502.28 1140.43 1501.57C1221.94 1490.34 1294.61 1443.74 1355.56 1388.78C1416.76 1333.82 1468.87 1269.55 1528.62 1213.39C1596.27 1149.59 1674.67 1094.63 1725.83 1016.98C1711.49 1007.66 1692.12 1009.57 1677.06 1017.45C1662.01 1025.34 1650.05 1038 1638.34 1050.43C1576.19 1116.38 1510.22 1178.98 1440.9 1237.53C1414.13 1259.99 1385.68 1282.69 1351.5 1289.86C1417 1198.34 1517.87 1131.43 1563.05 1028.21C1566.63 1020.08 1569.74 1011 1566.39 1002.88C1563.28 995.47 1555.87 991.169 1548.23 988.54C1519.06 978.504 1486.79 987.823 1458.83 1000.49C1372.06 1039.44 1297 1109.21 1202.82 1123.55C1189.2 1125.7 1171.27 1123.79 1167.44 1110.41C1165.53 1103.71 1168.64 1096.55 1171.75 1090.33C1203.3 1029.64 1262.1 988.54 1316.84 947.68C1394.29 889.854 1470.06 823.903 1511.17 736.447C1516.91 724.022 1521.93 709.684 1516.67 697.259C1511.41 684.834 1490.38 680.055 1484.64 692.48" fill="url(#paint2_radial_48_53)"/>
<path opacity="0.5" d="M825.146 151.495C735.987 253.288 688.897 413.146 579.897 493.434C564.838 504.425 549.062 515.178 531.134 519.479C512.968 523.78 491.933 520.196 479.742 506.337C467.551 492.478 466.595 471.928 469.941 453.529C484.522 370.135 564.36 312.548 589.459 231.543C594.717 214.817 596.151 194.028 583.005 182.32C572.726 173.239 557.189 173.717 543.803 176.824C500.299 187.338 466.117 219.835 432.652 249.465C395.602 282.201 356.878 313.026 316.72 341.461C300.466 352.93 279.192 364.639 261.743 355.32C275.367 319.716 301.661 290.564 327.238 262.129C374.567 209.56 422.374 156.274 457.512 94.6245C467.312 77.659 476.156 56.8703 467.79 39.1879C441.018 38.4711 416.876 54.7197 395.841 70.9684C285.407 156.513 195.769 265.952 107.565 374.197C85.0962 401.677 62.1489 429.873 49.002 462.848C43.9823 475.512 40.1577 489.371 42.309 502.753C44.2213 516.373 53.0656 529.515 66.2125 533.577C74.1006 535.967 82.7058 534.772 90.833 532.861C132.903 522.108 164.456 488.177 195.769 458.069C227.322 427.722 261.025 399.765 296.642 374.436C320.306 357.71 348.751 341.222 376.718 349.107C365.005 370.852 343.492 385.189 325.326 401.677C307.159 418.164 290.427 440.864 293.773 465.237C294.49 470.016 296.163 475.034 299.749 478.38C307.159 484.592 318.394 480.53 326.76 475.99C381.738 444.927 418.788 390.446 462.292 344.567C472.81 333.575 485.957 322.106 501.016 323.778C481.893 381.366 441.257 429.156 398.709 472.406C310.506 562.252 209.872 640.866 133.142 740.748C109.956 771.334 88.4427 805.265 85.0962 843.258C83.662 859.745 86.0523 877.428 96.0918 890.331C117.844 918.288 161.348 912.076 194.574 899.889C294.012 863.091 379.108 795.946 456.077 723.543C615.035 573.721 747.46 395.942 845.225 200.719C854.548 182.32 864.109 162.726 881.08 151.017L825.146 151.495Z" fill="url(#paint3_radial_48_53)"/>
</g>
<defs>
<radialGradient id="paint0_radial_48_53" cx="0" cy="0" r="1" gradientUnits="userSpaceOnUse" gradientTransform="translate(689.253 933.366) scale(649.472 649.245)">
<stop offset="0.0592593" stop-color="#001256"/>
<stop offset="0.322" stop-color="#001151"/>
<stop offset="0.6269" stop-color="#000E43"/>
<stop offset="0.9515" stop-color="#00092C" stop-opacity="0.012652"/>
<stop offset="0.963" stop-color="#00092B" stop-opacity="0"/>
</radialGradient>
<radialGradient id="paint1_radial_48_53" cx="0" cy="0" r="1" gradientUnits="userSpaceOnUse" gradientTransform="translate(1166.16 532.3) scale(699.639 699.395)">
<stop offset="0.0592593" stop-color="#001256"/>
<stop offset="0.322" stop-color="#001151"/>
<stop offset="0.6269" stop-color="#000E43"/>
<stop offset="0.9515" stop-color="#00092C" stop-opacity="0.012652"/>
<stop offset="0.963" stop-color="#00092B" stop-opacity="0"/>
</radialGradient>
<radialGradient id="paint2_radial_48_53" cx="0" cy="0" r="1" gradientUnits="userSpaceOnUse" gradientTransform="translate(1294.66 1093.05) scale(420.432 420.286)">
<stop offset="0.0592593" stop-color="#430056"/>
<stop offset="0.322" stop-color="#3F0051"/>
<stop offset="0.6269" stop-color="#340043"/>
<stop offset="0.9515" stop-color="#22002C" stop-opacity="0.012652"/>
<stop offset="0.963" stop-color="#21002B" stop-opacity="0"/>
</radialGradient>
<radialGradient id="paint3_radial_48_53" cx="0" cy="0" r="1" gradientUnits="userSpaceOnUse" gradientTransform="translate(461.216 474.74) scale(427.728 427.579)">
<stop offset="0.0592593" stop-color="#430056"/>
<stop offset="0.322" stop-color="#3F0051"/>
<stop offset="0.6269" stop-color="#340043"/>
<stop offset="0.9515" stop-color="#22002C" stop-opacity="0.012652"/>
<stop offset="0.963" stop-color="#21002B" stop-opacity="0"/>
</radialGradient>
<clipPath id="clip0_48_53">
<rect width="2000" height="1540.28" fill="white"/>
</clipPath>
</defs>
</svg>
