<svg xmlns="http://www.w3.org/2000/svg" xmlns:xlink="http://www.w3.org/1999/xlink" viewBox="0 0 250 250"><defs><style>.cls-1{isolation:isolate;}.cls-2{fill:url(#radial-gradient);}.cls-17,.cls-18,.cls-19,.cls-20,.cls-21,.cls-22,.cls-23,.cls-24,.cls-25,.cls-26,.cls-27,.cls-28,.cls-29,.cls-3,.cls-30,.cls-31,.cls-32,.cls-33,.cls-4,.cls-9{mix-blend-mode:screen;}.cls-3{fill:url(#radial-gradient-2);}.cls-4{fill:url(#radial-gradient-3);}.cls-17,.cls-18,.cls-19,.cls-20,.cls-21,.cls-22,.cls-23,.cls-24,.cls-25,.cls-26,.cls-27,.cls-28,.cls-29,.cls-30,.cls-31,.cls-32,.cls-33,.cls-5,.cls-8{opacity:0.45;}.cls-5{fill:url(#radial-gradient-4);}.cls-6{fill:url(#radial-gradient-5);}.cls-10,.cls-11,.cls-12,.cls-13,.cls-14,.cls-15,.cls-16,.cls-7,.cls-8{mix-blend-mode:multiply;}.cls-7{fill:url(#radial-gradient-6);}.cls-8{fill:url(#radial-gradient-7);}.cls-10{fill:url(#radial-gradient-8);}.cls-11{fill:url(#radial-gradient-9);}.cls-12{fill:url(#radial-gradient-10);}.cls-13{fill:url(#radial-gradient-11);}.cls-14{fill:url(#radial-gradient-12);}.cls-15{fill:url(#radial-gradient-13);}.cls-16{fill:url(#radial-gradient-14);}.cls-17{fill:url(#radial-gradient-15);}.cls-18{fill:url(#radial-gradient-16);}.cls-19{fill:url(#radial-gradient-17);}.cls-20{fill:url(#radial-gradient-18);}.cls-21{fill:url(#radial-gradient-19);}.cls-22{fill:url(#radial-gradient-20);}.cls-23{fill:url(#radial-gradient-21);}.cls-24{fill:url(#radial-gradient-22);}.cls-25{fill:url(#radial-gradient-23);}.cls-26{fill:url(#radial-gradient-24);}.cls-27{fill:url(#radial-gradient-25);}.cls-28{fill:url(#radial-gradient-26);}.cls-29{fill:url(#radial-gradient-27);}.cls-30{fill:url(#radial-gradient-28);}.cls-31{fill:url(#radial-gradient-29);}.cls-32{fill:url(#radial-gradient-30);}.cls-33{fill:url(#radial-gradient-31);}.cls-34{fill:url(#radial-gradient-32);}.cls-35{fill:url(#radial-gradient-33);}.cls-36{fill:url(#radial-gradient-34);}</style><radialGradient id="radial-gradient" cx="-137.5" cy="508.42" r="230.01" gradientTransform="matrix(1.25, 0, 0, 0.86, 276.12, -485.05)" gradientUnits="userSpaceOnUse"><stop offset="0" stop-color="#ffe245"/><stop offset="0.37" stop-color="#fee245" stop-opacity="0.99"/><stop offset="0.51" stop-color="#fae244" stop-opacity="0.97"/><stop offset="0.6" stop-color="#f2e243" stop-opacity="0.92"/><stop offset="0.68" stop-color="#e8e241" stop-opacity="0.85"/><stop offset="0.74" stop-color="#dae23e" stop-opacity="0.77"/><stop offset="0.8" stop-color="#c9e23b" stop-opacity="0.66"/><stop offset="0.85" stop-color="#b5e237" stop-opacity="0.53"/><stop offset="0.9" stop-color="#9ee333" stop-opacity="0.39"/><stop offset="0.95" stop-color="#83e32d" stop-opacity="0.22"/><stop offset="0.99" stop-color="#67e328" stop-opacity="0.04"/><stop offset="1" stop-color="#61e327" stop-opacity="0"/></radialGradient><radialGradient id="radial-gradient-2" cx="17.14" cy="487.28" r="147.22" gradientTransform="matrix(0.83, -0.56, 0.56, 0.83, -232.86, -400.71)" xlink:href="#radial-gradient"/><radialGradient id="radial-gradient-3" cx="17.14" cy="487.28" r="147.23" gradientTransform="matrix(0.83, -0.56, 0.56, 0.83, -232.86, -400.71)" xlink:href="#radial-gradient"/><radialGradient id="radial-gradient-4" cx="29.33" cy="486.43" r="211.82" gradientTransform="matrix(0.83, -0.56, 0.56, 0.83, -232.86, -400.71)" gradientUnits="userSpaceOnUse"><stop offset="0.08" stop-color="#ffe245"/><stop offset="0.53" stop-color="#de007b"/><stop offset="1" stop-color="#e38427"/></radialGradient><radialGradient id="radial-gradient-5" cx="13.29" cy="489.19" r="260.77" gradientTransform="matrix(0.83, -0.56, 0.56, 0.83, -232.86, -400.71)" gradientUnits="userSpaceOnUse"><stop offset="0" stop-color="#d1e1ee"/><stop offset="0.34" stop-color="#8ee1ee"/><stop offset="0.94" stop-color="#732fa4"/></radialGradient><radialGradient id="radial-gradient-6" cx="13.29" cy="536.2" r="222.55" gradientTransform="matrix(1, 0, 0, 1, 112.67, -515.02)" gradientUnits="userSpaceOnUse"><stop offset="0.08" stop-color="#f128c5"/><stop offset="1" stop-color="#c11bb9"/></radialGradient><radialGradient id="radial-gradient-7" cx="12.56" cy="593.6" r="105.67" xlink:href="#radial-gradient-5"/><radialGradient id="radial-gradient-8" cx="12.93" cy="486.75" r="148.85" xlink:href="#radial-gradient-5"/><radialGradient id="radial-gradient-9" cx="12.94" cy="486.75" r="148.85" xlink:href="#radial-gradient-5"/><radialGradient id="radial-gradient-10" cx="12.94" cy="486.75" r="148.85" xlink:href="#radial-gradient-5"/><radialGradient id="radial-gradient-11" cx="12.94" cy="486.76" r="148.84" xlink:href="#radial-gradient-5"/><radialGradient id="radial-gradient-12" cx="12.94" cy="486.76" r="148.84" xlink:href="#radial-gradient-5"/><radialGradient id="radial-gradient-13" cx="13.6" cy="596.58" r="72.61" gradientTransform="translate(115.7 -516.45)" xlink:href="#radial-gradient-6"/><radialGradient id="radial-gradient-14" cx="13.2" cy="604.17" r="54.5" gradientTransform="matrix(0.83, -0.56, 0.56, 0.83, -232.86, -400.71)" xlink:href="#radial-gradient-6"/><radialGradient id="radial-gradient-15" cx="15.95" cy="598.3" r="205.3" gradientTransform="matrix(0.83, -0.56, 0.5, 0.73, -222.23, -383.88)" xlink:href="#radial-gradient"/><radialGradient id="radial-gradient-16" cx="71.9" cy="590.26" r="40.56" gradientTransform="matrix(0.83, -0.56, 0.56, 0.83, -232.86, -400.71)" xlink:href="#radial-gradient"/><radialGradient id="radial-gradient-17" cx="116.16" cy="606.43" r="40.56" gradientTransform="matrix(0.83, -0.56, 0.56, 0.83, -232.86, -400.71)" xlink:href="#radial-gradient"/><radialGradient id="radial-gradient-18" cx="14.75" cy="634.36" r="29.03" gradientTransform="matrix(0.83, -0.56, 0.56, 0.83, -232.86, -400.71)" xlink:href="#radial-gradient"/><radialGradient id="radial-gradient-19" cx="67.56" cy="629.99" r="29.03" gradientTransform="matrix(0.83, -0.56, 0.56, 0.83, -232.86, -400.71)" xlink:href="#radial-gradient"/><radialGradient id="radial-gradient-20" cx="-41.64" cy="629.99" r="29.03" gradientTransform="matrix(0.83, -0.56, 0.56, 0.83, -232.86, -400.71)" xlink:href="#radial-gradient"/><radialGradient id="radial-gradient-21" cx="-45.89" cy="590.25" r="40.57" gradientTransform="matrix(0.83, -0.56, 0.56, 0.83, -232.86, -400.71)" xlink:href="#radial-gradient"/><radialGradient id="radial-gradient-22" cx="-86.43" cy="606.42" r="40.56" gradientTransform="matrix(0.83, -0.56, 0.56, 0.83, -232.86, -400.71)" xlink:href="#radial-gradient"/><radialGradient id="radial-gradient-23" cx="14.18" cy="583.92" r="40.56" gradientTransform="matrix(0.83, -0.56, 0.56, 0.83, -232.86, -400.71)" xlink:href="#radial-gradient"/><radialGradient id="radial-gradient-24" cx="-80.09" cy="618.55" r="15.41" gradientTransform="matrix(1, 0, 0, 1, 132.74, -463.6)" xlink:href="#radial-gradient"/><radialGradient id="radial-gradient-25" cx="-38.53" cy="601.26" r="15.41" gradientTransform="matrix(1, 0, 0, 1, 115.79, -484)" xlink:href="#radial-gradient"/><radialGradient id="radial-gradient-26" cx="22.5" cy="595.74" r="15.41" gradientTransform="matrix(1, 0, 0, 1, 102.08, -517.41)" xlink:href="#radial-gradient"/><radialGradient id="radial-gradient-27" cx="80.63" cy="602.11" r="15.41" gradientTransform="matrix(1, 0, 0, 1, 95.57, -551.25)" xlink:href="#radial-gradient"/><radialGradient id="radial-gradient-28" cx="126.28" cy="616.76" r="15.41" gradientTransform="matrix(1, 0, 0, 1, 95.89, -579.5)" xlink:href="#radial-gradient"/><radialGradient id="radial-gradient-29" cx="73.95" cy="637.28" r="11.74" gradientTransform="matrix(1, 0, 0, 1, 115.74, -553.36)" xlink:href="#radial-gradient"/><radialGradient id="radial-gradient-30" cx="21.1" cy="641.36" r="11.74" gradientTransform="matrix(1, 0, 0, 1, 127.21, -524.3)" xlink:href="#radial-gradient"/><radialGradient id="radial-gradient-31" cx="-36.8" cy="636.79" r="11.74" gradientTransform="matrix(1, 0, 0, 1, 134.7, -490.91)" xlink:href="#radial-gradient"/><radialGradient id="radial-gradient-32" cx="156.26" cy="336.36" r="68.79" gradientTransform="translate(-48.57 -145.6) rotate(-11.12)" gradientUnits="userSpaceOnUse"><stop offset="0" stop-color="#c11bb9" stop-opacity="0"/><stop offset="0.07" stop-color="#ca1ebb" stop-opacity="0.2"/><stop offset="0.14" stop-color="#d320be" stop-opacity="0.38"/><stop offset="0.22" stop-color="#db22c0" stop-opacity="0.55"/><stop offset="0.31" stop-color="#e224c1" stop-opacity="0.69"/><stop offset="0.4" stop-color="#e825c3" stop-opacity="0.8"/><stop offset="0.49" stop-color="#ec27c4" stop-opacity="0.89"/><stop offset="0.6" stop-color="#ef27c4" stop-opacity="0.95"/><stop offset="0.73" stop-color="#f028c5" stop-opacity="0.99"/><stop offset="0.92" stop-color="#f128c5"/></radialGradient><radialGradient id="radial-gradient-33" cx="171.88" cy="372.8" r="43.74" xlink:href="#radial-gradient-32"/><radialGradient id="radial-gradient-34" cx="185.83" cy="405.36" r="28.12" xlink:href="#radial-gradient-32"/></defs><title>home-ovni</title><g class="cls-1"><g id="OBJECTS"><ellipse class="cls-2" cx="104.32" cy="65.72" rx="68.78" ry="47.55" transform="translate(-18.9 70.16) rotate(-34.27)"/><path class="cls-3" d="M107.46,24.3c1.07-3.17,2.22-6.31,3.4-9.44A87.42,87.42,0,0,0,79,28.54C53.6,45.84,40.62,72.49,46.11,92.69,45.52,73.93,58.2,51.9,80.2,36.91A89,89,0,0,1,107.46,24.3Z"/><path class="cls-4" d="M158.1,29.07c-8.61-12.63-25.33-17.57-43.83-14.8-1.16,3-2.26,6.11-3.33,9.19,20.28-4.36,39.08.31,48.39,14a32,32,0,0,1,4.42,9.69A33.48,33.48,0,0,0,158.1,29.07Z"/><path class="cls-5" d="M161.16,27c-7-10.27-19.06-15.72-33.16-16.37,6.77,2.69,7.58,7.32-5.37,13.8C89,41.26,73.5,60.34,55.32,69.48c-6.51,3.27-9.3.72-10.22-3.89-5.34,14-5,28.09,2.38,38.88A34.82,34.82,0,0,0,60.7,115.89C76.61,103.32,98.62,85,130.13,65.26c15.87-9.94,27.65-18.76,36-26.8A34,34,0,0,0,161.16,27Z"/><path class="cls-6" d="M247.6,19c10.69,15.68-35.42,65.72-103,111.76s-131,70.66-141.68,55S23.22,96.58,90.78,50.53,236.92,3.37,247.6,19Z"/><ellipse class="cls-7" cx="125.26" cy="102.42" rx="148.04" ry="34.35" transform="translate(-35.93 88.33) rotate(-34.27)"/><path class="cls-8" d="M105.92,74C171.23,29.52,232.67,5,246.35,17.62c-8.48-8.29-38.05-10.86-74.29-2.55,7.67,1,11.7,3.44,5.57,7.24-14.59,9-47,23.91-73.11,41.7C81.68,79.58,63,97.73,39,116.8c-10.74,8.53-12.8,4.46-11.81-2.63-21,30.64-29.63,59-25.1,69.91C-4.62,166.74,40.63,118.53,105.92,74Z"/><g class="cls-9"><path class="cls-10" d="M109.41,71.68c-3.3-5.05-6.12-9.31-6.12-9.31s-5-7.09-9.7-13.69l-1,.68c4.42,6.81,9.21,14,9.21,14s2.93,4.17,6.42,9.09Z"/><path class="cls-11" d="M176.67,15.26s2.91-.2,7.29-.2a143,143,0,0,1,16,.87c4.89.51,9.69,1.34,13.67,2.13l1.57-.46a132.6,132.6,0,0,0-15.08-3A136,136,0,0,0,184,13.36c-1.39,0-2.61,0-3.67,0q-5.38,1-11,2.38h.07C173.75,15.33,176.67,15.26,176.67,15.26Z"/><path class="cls-12" d="M155,35.25c4.14.75,8.28,1.58,11.37,2.26l.44.1.89-.45-1.15-.35c-3-.9-7.15-1.93-11.29-2.85-8.28-1.82-16.71-2.86-16.71-2.86s-5.19-.54-11.51-.82c-1,.43-1.91.86-2.86,1.3,7.45.49,14.16,1.35,14.16,1.35S146.67,33.78,155,35.25Z"/><path class="cls-13" d="M15.8,152.07c.66-3.6,1.56-7.74,2.62-11.84a151.87,151.87,0,0,1,4.91-14.88c.73-2,1.51-3.61,2-4.77l.77-1.8.81-1.78c.54-1.12,1.19-2.78,2.17-4.68.45-.93,1-1.94,1.5-3q-3.44,4.77-6.48,9.48l-.43,1.07c-.45,1.18-1.2,2.82-1.89,4.87a143.33,143.33,0,0,0-4.58,15.16c-1.09,4.78-1.93,9.54-2.42,13.52C15.09,153,15.43,152.53,15.8,152.07Z"/><path class="cls-14" d="M50.38,116.81c.2-1.57.42-3.18.66-4.81,1.22-8.13,3.19-16.09,3.19-16.09S56,87.88,58.42,80c.47-1.48.95-2.93,1.43-4.34L58,77.52c-.26.7-.53,1.4-.78,2.11-2.81,7.79-4.75,15.86-4.75,15.86s-1.79,8.1-2.68,16.34c-.22,2-.4,4.1-.54,6Z"/></g><ellipse class="cls-15" cx="129.1" cy="106.62" rx="48.3" ry="11.21" transform="translate(-37.63 91.22) rotate(-34.27)"/><path class="cls-16" d="M122.79,97.36C107.73,107.62,95.95,118.49,91.1,126c8.81-2,22.83-8.9,37.45-18.86C143.6,96.85,155.39,86,160.24,78.5,151.43,80.52,137.41,87.4,122.79,97.36Z"/><path class="cls-17" d="M136.89,70.82C139.75,75,132.42,85,120.52,93.09s-23.86,11.28-26.72,7.09S98.28,86,110.17,77.91,134,66.62,136.89,70.82ZM39.71,153.17c-11.9,8.11-19.23,18.08-16.37,22.27s14.82,1,26.72-7.09,19.23-18.08,16.37-22.27S51.61,145.06,39.71,153.17ZM64.1,117c-11.9,8.11-19.23,18.08-16.37,22.27s14.82,1,26.72-7.09,19.23-18.08,16.37-22.27S76,108.87,64.1,117Zm97.33-66.33c-11.9,8.11-19.23,18.08-16.37,22.27s14.82,1,26.72-7.09S191,47.74,188.15,43.55,173.34,42.53,161.44,50.64Zm45.67-11.56c-11.9,8.11-19.23,18.08-16.37,22.27s14.82,1,26.72-7.09S236.68,36.18,233.83,32,219,31,207.11,39.08ZM88.33,144.93c-9.06,6.18-14.65,13.77-12.47,17s11.29.77,20.35-5.4,14.65-13.77,12.47-17S97.4,138.75,88.33,144.93Zm90.24-61.5c-9.06,6.18-14.65,13.77-12.47,17s11.29.77,20.35-5.4,14.65-13.77,12.47-17S187.63,77.25,178.57,83.43Zm-41.18,33.35c-9.06,6.18-14.65,13.77-12.47,17s11.29.77,20.35-5.4,14.65-13.77,12.47-17S146.45,110.61,137.39,116.78Z"/><path class="cls-18" d="M188.75,45.66c-4.74-1.41-14.61,1.9-24.44,8.61-10.22,7-17,15.29-17,20.16,4.74,1.41,14.61-1.9,24.44-8.61C182,58.86,188.83,50.53,188.75,45.66Z"/><path class="cls-19" d="M217.46,54.26c10.22-7,17-15.29,17-20.16-4.74-1.41-14.61,1.9-24.44,8.61-10.22,7-17,15.29-17,20.16C197.76,64.28,207.62,61,217.46,54.26Z"/><path class="cls-20" d="M140.26,120.41c-7.3,5-12.34,10.88-12.88,14.65,3.83.59,10.87-1.92,17.9-6.71,7.3-5,12.34-10.88,12.88-14.65C154.32,113.1,147.28,115.62,140.26,120.41Z"/><path class="cls-21" d="M181.44,87.06c-7.3,5-12.34,10.88-12.88,14.65,3.83.59,10.87-1.92,17.9-6.71,7.31-5,12.34-10.87,12.88-14.65C195.5,79.75,188.47,82.27,181.44,87.06Z"/><path class="cls-22" d="M91.2,148.55c-7.3,5-12.34,10.88-12.88,14.65,3.83.59,10.87-1.92,17.89-6.71,7.3-5,12.34-10.88,12.88-14.65C105.27,141.25,98.23,143.76,91.2,148.55Z"/><path class="cls-23" d="M67,120.6c-10.22,7-17,15.29-17,20.16,4.74,1.41,14.61-1.9,24.44-8.61,10.22-7,17-15.29,17-20.16C86.67,110.58,76.81,113.9,67,120.6Z"/><path class="cls-24" d="M25.61,177c4.74,1.41,14.61-1.9,24.44-8.61,10.22-7,17-15.29,17-20.16-4.74-1.41-14.61,1.9-24.44,8.61C32.36,163.75,25.53,172.08,25.61,177Z"/><path class="cls-25" d="M113,81.53c-10.22,7-17,15.29-17,20.16,4.74,1.41,14.61-1.9,24.44-8.61,10.22-7,17-15.29,17-20.16C132.74,71.51,122.88,74.83,113,81.53Z"/><ellipse class="cls-26" cx="52.65" cy="160.47" rx="9.85" ry="2.52" transform="translate(-81.23 57.51) rotate(-34.27)"/><ellipse class="cls-27" cx="77.25" cy="122.77" rx="9.85" ry="2.52" transform="translate(-55.72 64.82) rotate(-34.27)"/><ellipse class="cls-28" cx="124.56" cy="83.84" rx="9.85" ry="2.52" transform="translate(-25.58 84.71) rotate(-34.27)"/><ellipse class="cls-29" cx="176.19" cy="56.36" rx="9.85" ry="2.52" transform="translate(-1.14 109.01) rotate(-34.27)"/><ellipse class="cls-30" cx="222.16" cy="42.76" rx="9.85" ry="2.52" transform="translate(14.5 132.54) rotate(-34.27)"/><ellipse class="cls-31" cx="189.69" cy="88" rx="7.5" ry="1.92" transform="translate(-16.62 122.11) rotate(-34.28)"/><ellipse class="cls-32" cx="148.31" cy="121.14" rx="7.5" ry="1.92" transform="translate(-42.47 104.56) rotate(-34.27)"/><ellipse class="cls-33" cx="97.9" cy="149.98" rx="7.5" ry="1.92" transform="translate(-67.46 81.18) rotate(-34.28)"/><g class="cls-9"><path class="cls-34" d="M106.05,210.49c-9.32,1.83-12.65-.63-14.34-3.11-2.55-3.74-3.7-10.94,15.69-30.15,12.45-12.33,30.35-26.65,50.4-40.31,8-5.43,78.26-52.61,89.76-35.75h0c11.5,16.87-58.12,65-66.1,70.46-20.05,13.67-39.92,25.09-56,32.17C117.09,207.51,110.8,209.55,106.05,210.49Zm-6.83-8.23c5.95,1.48,35.3-9.36,77.26-37.95s62.77-51.94,63.58-58c-6-1.49-35.32,9.36-77.26,38S100,196.17,99.22,202.26Z"/><path class="cls-35" d="M153.33,223.12c-5.29,1-8.68.16-10.58-2.62-7.62-11.19,29.42-37.71,41-45.57s49.76-32.64,57.39-21.46h0c7.62,11.18-29.43,37.7-41,45.57-12.37,8.43-24.65,15.49-34.56,19.87A60.57,60.57,0,0,1,153.33,223.12Zm78.94-63.62c-6.3,1.32-21.94,8-43.57,22.75s-33.57,26.85-37.11,32.23c6.3-1.32,21.94-8,43.56-22.76S228.73,164.88,232.27,159.5Z"/><path class="cls-36" d="M189.34,239.71c-3.91.77-7,.28-8.62-2.12-4.92-7.23,11-20.31,25.25-30S238.2,187.82,243.13,195h0c4.92,7.22-11,20.31-25.25,30C208.37,231.53,197.19,238.17,189.34,239.71Zm41.36-36.19a150.92,150.92,0,0,0-37.55,25.59,130.93,130.93,0,0,0,19.74-11.37A130.55,130.55,0,0,0,230.69,203.52Z"/></g></g></g></svg>