<svg width="100" height="100" viewBox="0 0 100 100" fill="none" xmlns="http://www.w3.org/2000/svg">
<path d="M22.175 24.8587C24.4776 22.3247 27.1093 20.1105 30 18.2754C28.8513 17.9458 27.6737 17.7267 26.4833 17.6212C24.1 17.442 23.0541 18.0087 22.6083 18.4545C22.1666 18.8962 21.6 19.942 21.775 22.3295C21.8361 23.0934 21.9666 23.9365 22.175 24.8587ZM86.3625 59.2129C86.6152 59.724 86.8611 60.2323 87.1 60.7379C89.0833 64.9879 90.3958 69.142 90.6791 72.8754C90.9583 76.592 90.2375 80.4587 87.4291 83.2712C84.6208 86.0795 80.75 86.8004 77.0333 86.5212C73.7833 86.2712 70.2125 85.2462 66.5333 83.6712L66.5208 83.6795C65.8736 83.4032 65.2318 83.1142 64.5958 82.8129C56.125 78.8004 46.4333 71.7545 37.3375 62.6545C28.25 53.567 21.2041 43.8837 17.1916 35.4212C16.8861 34.774 16.5958 34.1309 16.3208 33.492L16.325 33.4837C14.7458 29.7962 13.7166 26.2129 13.4708 22.9545C13.1875 19.2379 13.9083 15.3712 16.7208 12.5587C19.525 9.75038 23.3958 9.02955 27.1125 9.30872C30.8458 9.59205 34.9958 10.9045 39.25 12.892C39.7666 13.1282 40.2847 13.3782 40.8041 13.642C47.1001 12.0493 53.7017 12.119 59.9627 13.8442C66.2236 15.5694 71.9292 18.891 76.5208 23.4837C81.1156 28.0765 84.4385 33.7842 86.1637 40.0476C87.889 46.311 87.9575 52.9151 86.3625 59.2129ZM81.725 70.017C79.9011 72.9024 77.6918 75.5252 75.1583 77.8129C76.0694 78.0212 76.9027 78.1532 77.6583 78.2087C80.0458 78.3879 81.0916 77.8212 81.5333 77.3754C81.9833 76.9337 82.55 75.8879 82.3666 73.5004C82.2631 72.3216 82.0483 71.1553 81.725 70.017ZM23.4875 76.517C19.0127 72.0435 15.7427 66.5105 13.9819 60.4331C12.221 54.3556 12.0266 47.9315 13.4166 41.7587C17.925 50.0129 24.6875 58.842 32.9166 67.0754C41.1541 75.3129 49.9916 82.0754 58.25 86.5879C52.0765 87.9787 45.6516 87.7846 39.5734 86.0237C33.4952 84.2628 27.9614 80.9924 23.4875 76.517Z" fill="url(#paint0_linear_80_8)"/>
<defs>
<linearGradient id="paint0_linear_80_8" x1="12.5005" y1="48.3789" x2="90.7349" y2="48.3789" gradientUnits="userSpaceOnUse">
<stop stop-color="#FA781D"/>
<stop offset="1" stop-color="#F69718"/>
</linearGradient>
</defs>
</svg>
