<svg xmlns="http://www.w3.org/2000/svg" xmlns:xlink="http://www.w3.org/1999/xlink" viewBox="0 0 400 500"><defs><style>.cls-1{fill:none;}.cls-2{isolation:isolate;}.cls-3{clip-path:url(#clip-path);}.cls-13,.cls-31,.cls-4,.cls-44,.cls-45,.cls-46,.cls-47,.cls-48,.cls-49,.cls-5,.cls-50,.cls-51,.cls-52,.cls-53,.cls-54,.cls-55,.cls-56,.cls-57,.cls-58,.cls-59,.cls-6,.cls-60,.cls-61,.cls-62,.cls-63,.cls-64,.cls-65,.cls-66,.cls-67,.cls-68,.cls-69,.cls-7,.cls-70{opacity:0.5;}.cls-14,.cls-4,.cls-5,.cls-6,.cls-7,.cls-70{mix-blend-mode:screen;}.cls-4{fill:url(#radial-gradient);}.cls-5{fill:url(#radial-gradient-2);}.cls-6{fill:url(#radial-gradient-3);}.cls-7{fill:url(#radial-gradient-4);}.cls-8{fill:url(#radial-gradient-5);}.cls-9{fill:url(#radial-gradient-6);}.cls-10{fill:url(#radial-gradient-7);}.cls-11{fill:url(#radial-gradient-8);}.cls-12{fill:url(#radial-gradient-9);}.cls-13{fill:url(#radial-gradient-10);}.cls-14{fill:url(#radial-gradient-11);}.cls-15,.cls-16{opacity:0.25;}.cls-15,.cls-16,.cls-17,.cls-18,.cls-19,.cls-20,.cls-21,.cls-22,.cls-23,.cls-24,.cls-25,.cls-26,.cls-27,.cls-28,.cls-29,.cls-30,.cls-31,.cls-32,.cls-33,.cls-34,.cls-35,.cls-36,.cls-37,.cls-38,.cls-39,.cls-40,.cls-41,.cls-42,.cls-43,.cls-44,.cls-45,.cls-46,.cls-47,.cls-48,.cls-49,.cls-50,.cls-51,.cls-52,.cls-53,.cls-54,.cls-55,.cls-56,.cls-57,.cls-58,.cls-59,.cls-60,.cls-61,.cls-62,.cls-63,.cls-64,.cls-65,.cls-66,.cls-67,.cls-68,.cls-69{mix-blend-mode:multiply;}.cls-15{fill:url(#radial-gradient-12);}.cls-16{fill:url(#radial-gradient-13);}.cls-17{fill:url(#radial-gradient-14);}.cls-18{fill:url(#radial-gradient-15);}.cls-19{fill:url(#radial-gradient-16);}.cls-20{fill:url(#radial-gradient-18);}.cls-21{fill:url(#radial-gradient-19);}.cls-22{fill:url(#radial-gradient-20);}.cls-23{fill:url(#radial-gradient-21);}.cls-24{fill:url(#radial-gradient-22);}.cls-25{fill:url(#radial-gradient-23);}.cls-26{fill:url(#radial-gradient-24);}.cls-27{fill:url(#radial-gradient-25);}.cls-28{fill:url(#radial-gradient-27);}.cls-29{fill:url(#radial-gradient-28);}.cls-30{fill:url(#radial-gradient-29);}.cls-32{fill:url(#radial-gradient-30);}.cls-33{fill:url(#radial-gradient-32);}.cls-34{fill:url(#radial-gradient-33);}.cls-35{fill:url(#radial-gradient-34);}.cls-36{fill:url(#radial-gradient-35);}.cls-37{fill:url(#radial-gradient-37);}.cls-38{fill:url(#radial-gradient-38);}.cls-39{fill:url(#radial-gradient-39);}.cls-40{fill:url(#radial-gradient-40);}.cls-41{fill:url(#radial-gradient-42);}.cls-42{fill:url(#radial-gradient-43);}.cls-43{fill:url(#radial-gradient-44);}.cls-44{fill:url(#radial-gradient-45);}.cls-45{fill:url(#radial-gradient-46);}.cls-46{fill:url(#radial-gradient-47);}.cls-47{fill:url(#radial-gradient-48);}.cls-48{fill:url(#radial-gradient-49);}.cls-49{fill:url(#radial-gradient-50);}.cls-50{fill:url(#radial-gradient-51);}.cls-51{fill:url(#radial-gradient-52);}.cls-52{fill:url(#radial-gradient-53);}.cls-53{fill:url(#radial-gradient-54);}.cls-54{fill:url(#radial-gradient-55);}.cls-55{fill:url(#radial-gradient-56);}.cls-56{fill:url(#radial-gradient-57);}.cls-57{fill:url(#radial-gradient-58);}.cls-58{fill:url(#radial-gradient-59);}.cls-59{fill:url(#radial-gradient-60);}.cls-60{fill:url(#radial-gradient-61);}.cls-61{fill:url(#radial-gradient-62);}.cls-62{fill:url(#radial-gradient-63);}.cls-63{fill:url(#radial-gradient-64);}.cls-64{fill:url(#radial-gradient-65);}.cls-65{fill:url(#radial-gradient-66);}.cls-66{fill:url(#radial-gradient-67);}.cls-67{fill:url(#radial-gradient-68);}.cls-68{fill:url(#radial-gradient-69);}.cls-69{fill:url(#radial-gradient-70);}.cls-70{fill:url(#radial-gradient-71);}</style><clipPath id="clip-path"><rect class="cls-1" x="-859.69" y="-1.35" width="750" height="500"/></clipPath><radialGradient id="radial-gradient" cx="-132.44" cy="76.97" r="134.67" gradientUnits="userSpaceOnUse"><stop offset="0.06" stop-color="#001256"/><stop offset="0.24" stop-color="#001154" stop-opacity="0.94"/><stop offset="0.44" stop-color="#00104d" stop-opacity="0.78"/><stop offset="0.66" stop-color="#000e41" stop-opacity="0.51"/><stop offset="0.89" stop-color="#000a31" stop-opacity="0.13"/><stop offset="0.96" stop-color="#00092b" stop-opacity="0"/></radialGradient><radialGradient id="radial-gradient-2" cx="-316.67" cy="98.93" r="331.36" xlink:href="#radial-gradient"/><radialGradient id="radial-gradient-3" cx="-316.67" cy="98.93" r="331.09" xlink:href="#radial-gradient"/><radialGradient id="radial-gradient-4" cx="-316.67" cy="98.93" r="331.36" xlink:href="#radial-gradient"/><radialGradient id="radial-gradient-5" cx="-503.88" cy="-21.63" r="450.81" gradientTransform="matrix(0.75, -0.96, -0.77, -0.6, 431.28, -8.22)" gradientUnits="userSpaceOnUse"><stop offset="0.08" stop-color="#ffe245"/><stop offset="0.53" stop-color="#de007b" stop-opacity="0.47"/><stop offset="1" stop-color="#e38427" stop-opacity="0"/></radialGradient><radialGradient id="radial-gradient-6" cx="-476.8" cy="-353.96" r="421.08" gradientTransform="matrix(0.75, -0.96, -0.34, -0.26, 323.03, -92.61)" xlink:href="#radial-gradient-5"/><radialGradient id="radial-gradient-7" cx="-341.72" cy="-27.23" r="465.29" gradientTransform="matrix(0.61, -0.79, -0.79, -0.61, 292.88, 181.27)" xlink:href="#radial-gradient-5"/><radialGradient id="radial-gradient-8" cx="-347.57" cy="8.97" r="481.09" gradientTransform="matrix(0.61, -0.79, -0.79, -0.61, 292.88, 181.27)" xlink:href="#radial-gradient-5"/><radialGradient id="radial-gradient-9" cx="-338.41" cy="-22.85" r="100.31" gradientTransform="matrix(0.62, -0.79, -0.79, -0.61, 292.66, 181.4)" gradientUnits="userSpaceOnUse"><stop offset="0.08" stop-color="#ffe245"/><stop offset="1" stop-color="#e38427"/></radialGradient><radialGradient id="radial-gradient-10" cx="-340.4" cy="-27.56" r="112.15" xlink:href="#radial-gradient-9"/><radialGradient id="radial-gradient-11" cx="-339.94" cy="-29.18" r="83.3" xlink:href="#radial-gradient-9"/><radialGradient id="radial-gradient-12" cx="-342.41" cy="-17.92" r="94.12" xlink:href="#radial-gradient-9"/><radialGradient id="radial-gradient-13" cx="-287.65" cy="125.92" r="87.12" xlink:href="#radial-gradient-9"/><radialGradient id="radial-gradient-14" cx="-491.63" cy="-241.65" r="30.59" gradientTransform="matrix(0.31, -0.95, -0.95, -0.31, 8.53, -66.68)" xlink:href="#radial-gradient-9"/><radialGradient id="radial-gradient-15" cx="-490.61" cy="-241.25" r="29.59" gradientTransform="matrix(0.31, -0.95, -0.95, -0.31, 8.53, -66.68)" xlink:href="#radial-gradient-9"/><radialGradient id="radial-gradient-16" cx="-617.69" cy="-235.31" r="10.99" gradientTransform="matrix(1.36, 0, 0, -1, 923.45, 216.43)" xlink:href="#radial-gradient-9"/><radialGradient id="radial-gradient-18" cx="-617.32" cy="-235.17" r="10.63" gradientTransform="matrix(0.42, -1.29, -0.95, -0.31, 125.36, -425.13)" xlink:href="#radial-gradient-9"/><radialGradient id="radial-gradient-19" cx="-1597.91" cy="440.32" r="19.59" gradientTransform="matrix(-1.36, 0, 0, 1, -2086.07, -45.49)" xlink:href="#radial-gradient-9"/><radialGradient id="radial-gradient-20" cx="-1597.25" cy="440.58" r="18.95" gradientTransform="matrix(-0.87, 1.04, 0.77, 0.64, -1657.06, 1779.4)" xlink:href="#radial-gradient-9"/><radialGradient id="radial-gradient-21" cx="-496.8" cy="185.99" r="21.34" gradientTransform="matrix(1.36, 0, 0, -1, 735.75, 625.3)" xlink:href="#radial-gradient-9"/><radialGradient id="radial-gradient-22" cx="-496.08" cy="186.27" r="20.64" gradientTransform="matrix(1.06, -0.85, -0.63, -0.78, 709.48, 154.16)" xlink:href="#radial-gradient-9"/><radialGradient id="radial-gradient-23" cx="-593.35" cy="-356.74" r="13.43" gradientTransform="matrix(1, 0, 0, -1, 684.5, 123.21)" xlink:href="#radial-gradient-9"/><radialGradient id="radial-gradient-24" cx="-592.9" cy="-356.57" r="12.99" gradientTransform="matrix(0.11, -0.99, -0.99, -0.11, -188.3, -158.59)" xlink:href="#radial-gradient-9"/><radialGradient id="radial-gradient-25" cx="-381.79" cy="-45.83" r="19.79" gradientTransform="matrix(1, 0, 0, -1, 430.75, 421.98)" xlink:href="#radial-gradient-9"/><radialGradient id="radial-gradient-27" cx="-381.13" cy="-45.57" r="19.15" gradientTransform="matrix(0.55, -0.84, -0.84, -0.55, 227.82, 115.75)" xlink:href="#radial-gradient-9"/><radialGradient id="radial-gradient-28" cx="-1784.9" cy="502.86" r="19.79" gradientTransform="matrix(-1, 0, 0, 1, -1664.7, -121.53)" xlink:href="#radial-gradient-9"/><radialGradient id="radial-gradient-29" cx="-1784.24" cy="503.12" r="19.15" gradientTransform="matrix(-0.6, 0.8, 0.8, 0.59, -1354.5, 1522.85)" xlink:href="#radial-gradient-9"/><radialGradient id="radial-gradient-30" cx="-1646.28" cy="704.85" r="15.15" gradientTransform="matrix(-1, 0, 0, 1, -1568.15, -338.41)" xlink:href="#radial-gradient-9"/><radialGradient id="radial-gradient-32" cx="-1645.77" cy="705.05" r="14.66" gradientTransform="matrix(-0.28, 0.96, 0.96, 0.28, -1064.76, 1759.02)" xlink:href="#radial-gradient-9"/><radialGradient id="radial-gradient-33" cx="-1635.72" cy="734.09" r="11.99" gradientTransform="matrix(-1, 0, 0, 1, -1533.98, -347.7)" xlink:href="#radial-gradient-9"/><radialGradient id="radial-gradient-34" cx="-1635.32" cy="734.25" r="11.59" gradientTransform="matrix(-0.28, 0.96, 0.96, 0.28, -1064.76, 1759.02)" xlink:href="#radial-gradient-9"/><radialGradient id="radial-gradient-35" cx="-1611.85" cy="-264.91" r="27.97" gradientTransform="matrix(0, -1, -1, 0, -118.09, -1174.89)" xlink:href="#radial-gradient-9"/><radialGradient id="radial-gradient-37" cx="-1610.91" cy="-264.55" r="27.06" gradientTransform="matrix(-0.99, -0.14, -0.14, 0.99, -1503.69, 452.61)" xlink:href="#radial-gradient-9"/><radialGradient id="radial-gradient-38" cx="-1371.92" cy="-430.83" r="11.99" gradientTransform="matrix(0, -1, -1, 0, -301.58, -912.83)" xlink:href="#radial-gradient-9"/><radialGradient id="radial-gradient-39" cx="-1371.52" cy="-430.67" r="11.6" gradientTransform="matrix(-0.86, -0.52, -0.52, 0.86, -1272.67, 115.21)" xlink:href="#radial-gradient-9"/><radialGradient id="radial-gradient-40" cx="-437.8" cy="741.56" r="11.99" gradientTransform="matrix(0, 1, 1, 0, -720.03, 863.3)" xlink:href="#radial-gradient-9"/><radialGradient id="radial-gradient-42" cx="-437.4" cy="741.72" r="11.59" gradientTransform="matrix(0.99, 0.1, 0.1, -0.99, 388.02, 1213.99)" xlink:href="#radial-gradient-9"/><radialGradient id="radial-gradient-43" cx="-1651.61" cy="721.14" r="26.51" gradientTransform="matrix(-1, 0, 0, 1, -1552.05, -360.81)" xlink:href="#radial-gradient-9"/><radialGradient id="radial-gradient-44" cx="-1650.73" cy="721.49" r="25.64" gradientTransform="matrix(-0.28, 0.96, 0.96, 0.27, -1061.41, 1763.33)" xlink:href="#radial-gradient-9"/><radialGradient id="radial-gradient-45" cx="-281.9" cy="-16.81" r="4.65" gradientTransform="matrix(1, 0, 0, -1, 412.63, 398.94)" xlink:href="#radial-gradient-9"/><radialGradient id="radial-gradient-46" cx="-282.95" cy="-4.62" r="2.99" gradientTransform="matrix(1, 0, 0, -1, 404.06, 403.83)" xlink:href="#radial-gradient-9"/><radialGradient id="radial-gradient-47" cx="-360.54" cy="39.98" r="5.31" gradientTransform="matrix(1, 0, 0, -1, 397.9, 483.07)" xlink:href="#radial-gradient-9"/><radialGradient id="radial-gradient-48" cx="-356.72" cy="22.37" r="3.98" gradientTransform="matrix(1, 0, 0, -1, 410.81, 472.76)" xlink:href="#radial-gradient-9"/><radialGradient id="radial-gradient-49" cx="-332.32" cy="49.39" r="15.26" gradientTransform="matrix(1, 0, 0, -1, 375.84, 468.21)" xlink:href="#radial-gradient-9"/><radialGradient id="radial-gradient-50" cx="-322.11" cy="42.86" r="5.64" gradientTransform="matrix(1, 0, 0, -1, 380.72, 454.01)" xlink:href="#radial-gradient-9"/><radialGradient id="radial-gradient-51" cx="-321.2" cy="53.25" r="4.31" gradientTransform="matrix(1, 0, 0, -1, 372.68, 456.78)" xlink:href="#radial-gradient-9"/><radialGradient id="radial-gradient-52" cx="-372.84" cy="40.41" r="4.31" gradientTransform="matrix(1, 0, 0, -1, 402.67, 492.57)" xlink:href="#radial-gradient-9"/><radialGradient id="radial-gradient-53" cx="-355.39" cy="8.75" r="3.32" gradientTransform="matrix(1, 0, 0, -1, 421.28, 466.22)" xlink:href="#radial-gradient-9"/><radialGradient id="radial-gradient-54" cx="-336.41" cy="-30.01" r="9.29" gradientTransform="matrix(1, 0, 0, -1, 442.25, 438.6)" xlink:href="#radial-gradient-9"/><radialGradient id="radial-gradient-55" cx="-345.63" cy="-9.14" r="3.98" gradientTransform="matrix(1, 0, 0, -1, 431.37, 451.92)" xlink:href="#radial-gradient-9"/><radialGradient id="radial-gradient-56" cx="-343.16" cy="-35.49" r="4.65" gradientTransform="matrix(1, 0, 0, -1, 450.93, 440.03)" xlink:href="#radial-gradient-9"/><radialGradient id="radial-gradient-57" cx="-358.3" cy="-28.3" r="3.32" gradientTransform="matrix(1, 0, 0, -1, 451.6, 454.25)" xlink:href="#radial-gradient-9"/><radialGradient id="radial-gradient-58" cx="-314.12" cy="-29.15" r="13.6" gradientTransform="matrix(1, 0, 0, -1, 431.35, 422.98)" xlink:href="#radial-gradient-9"/><radialGradient id="radial-gradient-59" cx="-325.82" cy="-8.15" r="5.31" gradientTransform="matrix(1, 0, 0, -1, 422.46, 437.16)" xlink:href="#radial-gradient-9"/><radialGradient id="radial-gradient-60" cx="-285.61" cy="-29.9" r="4.31" gradientTransform="matrix(1, 0, 0, -1, 424.5, 396.7)" xlink:href="#radial-gradient-9"/><radialGradient id="radial-gradient-61" cx="-290.97" cy="-4.16" r="5.97" gradientTransform="matrix(1, 0, 0, -1, 405.65, 411.48)" xlink:href="#radial-gradient-9"/><radialGradient id="radial-gradient-62" cx="-291.39" cy="7.89" r="5.31" gradientTransform="matrix(1, 0, 0, -1, 396.57, 416.19)" xlink:href="#radial-gradient-9"/><radialGradient id="radial-gradient-63" cx="-315.74" cy="30.16" r="4.65" gradientTransform="matrix(1, 0, 0, -1, 388.65, 443.71)" xlink:href="#radial-gradient-9"/><radialGradient id="radial-gradient-64" cx="-289.56" cy="29.53" r="4.98" gradientTransform="matrix(1, 0, 0, -1, 378.94, 422.98)" xlink:href="#radial-gradient-9"/><radialGradient id="radial-gradient-65" cx="-289.69" cy="38.08" r="4.31" gradientTransform="matrix(1, 0, 0, -1, 372.51, 426.1)" xlink:href="#radial-gradient-9"/><radialGradient id="radial-gradient-66" cx="-290.16" cy="56.15" r="8.63" gradientTransform="matrix(1, 0, 0, -1, 356.81, 435.05)" xlink:href="#radial-gradient-9"/><radialGradient id="radial-gradient-67" cx="-281.71" cy="59.61" r="2.65" gradientTransform="matrix(1, 0, 0, -1, 353.11, 427.45)" xlink:href="#radial-gradient-9"/><radialGradient id="radial-gradient-68" cx="-271.71" cy="47.99" r="2.32" gradientTransform="matrix(1, 0, 0, -1, 358.55, 414.93)" xlink:href="#radial-gradient-9"/><radialGradient id="radial-gradient-69" cx="-262.32" cy="10.8" r="3.32" gradientTransform="matrix(1, 0, 0, -1, 383.85, 393.6)" xlink:href="#radial-gradient-9"/><radialGradient id="radial-gradient-70" cx="-269.37" cy="-15.32" r="2.32" gradientTransform="matrix(1, 0, 0, -1, 407.52, 388.77)" xlink:href="#radial-gradient-9"/><radialGradient id="radial-gradient-71" cx="-336.69" cy="-19.04" r="58.44" xlink:href="#radial-gradient-9"/></defs><title>nav-comet</title><g class="cls-2"><g id="BACKGROUND2"><g class="cls-3"><path class="cls-4" d="M-21.27,57.95H1A134.74,134.74,0,0,0-132.34-57.75,134.72,134.72,0,0,0-267.06,77,134.72,134.72,0,0,0-132.34,211.69,134.56,134.56,0,0,0-21.27,153.23Z"/><path class="cls-5" d="M-21.27,57.95H.11Q15.27,39.78,29,20.45c15-21.18,28.83-49.26,15.88-71.73C32.77-72.21,4.08-75.82-19.94-73.16-80.39-66.47-135.59-35.87-185.32-.86s-96.06,75.16-149,105.16c-9.54,5.41-24.3,9.1-29.24-.69-2.1-4.15-1.2-9.15.08-13.62,15.15-53.11,73-83.51,94.81-134.23,2.74-6.37,4.77-14.1,1-19.91-5.38-8.27-17.79-6.59-27.21-3.67A528.83,528.83,0,0,0-404-19.89c-24.31,14.14-49.7,30.83-77.77,29.12-4.45-12.9,5.26-26,14.32-36.21L-356-152.63c-29.1-3.39-58.46,7-82.93,23.13s-44.83,37.6-64.93,58.9L-632.2,65.31c-27.48,29.11-55.28,58.66-74.31,93.88-5.57,10.31-8.72,26.2,1.89,31.18,3.78,1.78,8.2,1.34,12.34.75,55.26-8,104.9-37.64,150.33-70.1s88.82-68.62,139.17-92.74c17.74-8.5,39.9-15.1,56.08-3.91,13.82,9.56-44.85,78.86-46.49,95.58-3,30.89,42.72,8.66,23.37,32.93s-41.86,46-60,71.13c-6.56,9.1-10.1,25.67.81,28.28,3.57.86,7.27-.56,10.6-2.12,15.46-7.25,28.89-18.15,41.86-29.27A1000.43,1000.43,0,0,0-269.11,113.6c15.62-18.17,30.88-37.17,50.75-50.55,11.61-7.81,31.37-15.92,45.67-14.19,30.35,3.68.24,61-5.92,72.39-14,26-30.76,50.32-48.56,73.79A988.69,988.69,0,0,1-349.36,328.71c-6.3,5.74-12.11,17.34-4.41,21a12.69,12.69,0,0,0,4.71.91c79.4,4.88,157-26.63,224.6-68.55,12.18-7.55,24.13-15.45,35.92-23.58a180.4,180.4,0,0,1-27,5c-6.62.68-13.51.9-19.7-1.52-11.46-4.48-18-17.41-17.93-29.72s5.59-24,12.38-34.21c18.49-28,46.29-48.16,71.75-70a591.63,591.63,0,0,0,47.8-45.9Z"/><path class="cls-6" d="M46.63,216.15c-16.57,1.44-32.56,5.64-48.32,11L-107.88,350.42A635,635,0,0,0,53.31,270.73c8.17-5.6,16.46-11.68,21.32-20.3s5.35-20.51-1.47-27.69C66.67,215.89,56,215.34,46.63,216.15Z"/><path class="cls-7" d="M-11.12,201.95c-25.6,19.16-51.12,38.42-77.41,56.54C-59,250.78-30.75,237-1.69,227.14L20,201.95Z"/></g></g><g id="BACKGROUND1"><path class="cls-8" d="M300,107.07c-26.6,115-109.86,204-213.26,239.67-43.91,15.75-81.16,52.13-78,95.78h0c2.76,43.42,69.72,69.66,135.15,36.73,142-71.68,232.83-209.54,246.7-357.77,6.64-67.46-23.33-121-44.09-117h0C325.37,8.14,312.19,57,300,107.07Z"/><path class="cls-9" d="M324.56,77.75C319.45,229.56,212.15,355.18,70.44,386.49c-21.14,4.78-37.72,21.94-35.77,41.25h0C36.58,447,61.09,459.58,87.29,452,256.65,402.7,367.21,246.06,361.81,77.84c-.74-25.89-12.17-46.19-21.49-44.77h0C330.91,34.47,325.39,54.9,324.56,77.75Z"/><path class="cls-10" d="M103,463.16a54.46,54.46,0,0,1-23.2,1.65c-14.35-7.08-24.56-18.26-29.51-31.73,1.78-16.88,16.8-31.11,35.89-35.41,141.72-31.25,248.66-158,251.34-310.39.28-15.4,2.74-29.43,7.05-37.8,12.6,7.71,25.5,29.17,30.57,58.09C373.76,268.41,265.74,415.9,103,463.16Z"/><path class="cls-11" d="M346.23,67.63c6.13,168.49-104.85,325.59-274.87,374-20.89,6-41.19-1-48.89-14-.19-16.07,5.8-31.11,14.64-44.14a51.88,51.88,0,0,1,17.77-7.47C196.9,345.53,304.52,219.69,309,67.7c.05-1.83.15-3.63.27-5.4,5.91-16.79,12.46-30.76,20.38-38.16C337.6,28.72,345.54,46.39,346.23,67.63Z"/><path class="cls-12" d="M120.72,374.15a63.78,63.78,0,1,0,11.05,89.48A63.79,63.79,0,0,0,120.72,374.15Z"/><path class="cls-13" d="M125.36,368.21a71.31,71.31,0,1,0,12.36,100A71.33,71.33,0,0,0,125.36,368.21Z"/><path class="cls-14" d="M38.53,467.58A63.79,63.79,0,0,0,136,391.36a63.79,63.79,0,1,1-112.82,59A63.53,63.53,0,0,0,38.53,467.58Z"/><path class="cls-15" d="M64.41,378.51a63.74,63.74,0,0,0,45.88,102.8A63.75,63.75,0,1,1,85.9,360.82,63.56,63.56,0,0,0,64.41,378.51Z"/><path class="cls-16" d="M144.83,416.95A61.09,61.09,0,0,0,36.28,469.4a63.77,63.77,0,1,1,108.54-52.46Z"/><path class="cls-17" d="M70.4,465.48c-7.19-2.33-14.13-.78-15.52,3.46s3.32,9.58,10.51,11.92,14.14.78,15.52-3.46S77.59,467.82,70.4,465.48Z"/><path class="cls-18" d="M81.15,475.78c-2.56,2.79-8.36,3.58-14.37,1.63-6.3-2-10.69-6.39-10.75-10.3,2.56-2.79,8.36-3.58,14.37-1.63C76.7,467.53,81.09,471.88,81.15,475.78Z"/><ellipse class="cls-19" cx="82.67" cy="445.16" rx="3.95" ry="4.92" transform="translate(-366.23 386.01) rotate(-71.97)"/><ellipse class="cls-19" cx="82.67" cy="445.16" rx="3.95" ry="4.92" transform="translate(-366.23 386.01) rotate(-71.97)"/><path class="cls-20" d="M87.49,445.9a4.85,4.85,0,0,1-5.4,1.32c-2.26-.73-3.73-2.64-3.6-4.49a4.85,4.85,0,0,1,5.4-1.32C86.15,442.14,87.62,444,87.49,445.9Z"/><ellipse class="cls-21" cx="88.48" cy="406.18" rx="7.04" ry="8.76" transform="translate(-279.29 212.4) rotate(-49.93)"/><path class="cls-22" d="M81,401.73c2.7-1.65,6.71-1.17,9.81,1.43S95.21,410,93.76,413c-2.7,1.65-6.71,1.17-9.81-1.43S79.56,404.71,81,401.73Z"/><ellipse class="cls-23" cx="57.23" cy="426.83" rx="7.67" ry="9.54" transform="matrix(0.78, -0.63, 0.63, 0.78, -255.82, 131.09)"/><path class="cls-24" d="M64.3,433.14c-3.23,1.2-7.42-.13-10.19-3.56-2.91-3.59-3.28-8.24-1.12-11.13,3.23-1.2,7.42.13,10.19,3.56C66.09,425.6,66.47,430.25,64.3,433.14Z"/><ellipse class="cls-25" cx="90" cy="471.97" rx="3.55" ry="6.01" transform="translate(-389.17 507.27) rotate(-83.42)"/><path class="cls-26" d="M95.93,471.94c-.86,1.42-3.28,2.27-6,2s-5.16-1.82-5.52-3.49c.86-1.42,3.28-2.27,6-2S95.57,470.26,95.93,471.94Z"/><ellipse class="cls-27" cx="46.68" cy="456.14" rx="5.23" ry="8.85" transform="matrix(0.55, -0.84, 0.84, 0.55, -360.92, 246.11)"/><ellipse class="cls-27" cx="46.68" cy="456.14" rx="5.23" ry="8.85" transform="matrix(0.55, -0.84, 0.84, 0.55, -360.92, 246.11)"/><path class="cls-28" d="M54.52,460c-2.07,1.31-5.82.83-9.25-1.4-3.59-2.34-5.6-5.79-5-8.24,2.07-1.31,5.82-.83,9.25,1.4C53.12,454.09,55.13,457.55,54.52,460Z"/><ellipse class="cls-29" cx="122.68" cy="392.75" rx="5.23" ry="8.85" transform="translate(-265.93 257.54) rotate(-53.47)"/><path class="cls-30" d="M115.08,388.43c2.14-1.19,5.86-.48,9.15,1.95,3.44,2.55,5.24,6.12,4.48,8.53-2.14,1.19-5.86.48-9.15-1.95C116.12,394.4,114.32,390.83,115.08,388.43Z"/><g class="cls-31"><ellipse class="cls-32" cx="79.98" cy="375.16" rx="4.01" ry="6.78" transform="matrix(0.28, -0.96, 0.96, 0.28, -302.61, 347.38)"/><ellipse class="cls-32" cx="79.98" cy="375.16" rx="4.01" ry="6.78" transform="matrix(0.28, -0.96, 0.96, 0.28, -302.61, 347.38)"/><path class="cls-33" d="M73.37,374.08c1.22-1.42,4.08-1.91,7.09-1s5.39,3,5.49,4.93c-1.22,1.42-4.08,1.91-7.09,1S73.47,376,73.37,374.08Z"/></g><ellipse class="cls-34" cx="103.21" cy="393.27" rx="3.17" ry="5.36" transform="translate(-303.24 382.77) rotate(-73.81)"/><path class="cls-35" d="M98,392.42c1-1.12,3.23-1.51,5.61-.82s4.27,2.37,4.34,3.9c-1,1.12-3.23,1.51-5.61.82S98.06,393.95,98,392.42Z"/><ellipse class="cls-36" cx="130.2" cy="440.07" rx="12.51" ry="7.4" transform="translate(-324.06 505.38) rotate(-81.7)"/><ellipse class="cls-36" cx="130.2" cy="440.07" rx="12.51" ry="7.4" transform="translate(-324.06 505.38) rotate(-81.7)"/><path class="cls-37" d="M130.52,427.73c2.91,1.88,4.51,7,3.68,12.7-.88,6-4.12,10.62-7.63,11.28-2.91-1.88-4.51-7-3.68-12.7C123.76,433,127,428.39,130.52,427.73Z"/><ellipse class="cls-38" cx="122.06" cy="460.02" rx="5.36" ry="3.17" transform="translate(-335.04 327.43) rotate(-58.96)"/><path class="cls-39" d="M124.23,455.19c.84,1.22.63,3.51-.65,5.63s-3.39,3.52-4.88,3.19c-.84-1.22-.63-3.51.65-5.63S122.74,454.87,124.23,455.19Z"/><ellipse class="cls-40" cx="28.34" cy="424.59" rx="5.36" ry="3.17" transform="translate(-396.92 409.26) rotate(-84.12)"/><ellipse class="cls-40" cx="28.34" cy="424.59" rx="5.36" ry="3.17" transform="translate(-396.92 409.26) rotate(-84.12)"/><path class="cls-41" d="M28.43,429.88c-1.28-.75-2.06-2.91-1.8-5.37s1.57-4.62,3.06-5c1.28.75,2.06,2.91,1.8,5.37S29.92,429.54,28.43,429.88Z"/><ellipse class="cls-42" cx="102.72" cy="375.7" rx="7.01" ry="11.86" transform="translate(-286.73 370.87) rotate(-74)"/><path class="cls-43" d="M91.17,373.85c2.13-2.49,7.13-3.36,12.4-1.85,5.52,1.58,9.45,5.21,9.63,8.59-2.13,2.49-7.13,3.36-12.4,1.85C95.27,380.86,91.34,377.22,91.17,373.85Z"/><circle class="cls-44" cx="129.86" cy="413.04" r="2.04" transform="translate(-275.7 261.4) rotate(-52.05)"/><circle class="cls-45" cx="120.55" cy="406.72" r="1.31" transform="translate(-274.28 251.61) rotate(-52.04)"/><circle class="cls-46" cx="36.34" cy="440.02" r="2.33" transform="translate(-332.96 198.04) rotate(-52.05)"/><circle class="cls-47" cx="53.34" cy="448.09" r="1.75" transform="matrix(0.62, -0.79, 0.79, 0.62, -332.78, 214.55)"/><circle class="cls-48" cx="40.52" cy="409.99" r="6.71" transform="translate(-307.68 189.79) rotate(-52.05)"/><circle class="cls-49" cx="57.51" cy="407.89" r="2.48" transform="translate(-299.49 202.39) rotate(-52.05)"/><circle class="cls-50" cx="50.64" cy="401.05" r="1.9" transform="translate(-296.73 194.32) rotate(-52.05)"/><circle class="cls-51" cx="29" cy="449.65" r="1.9" transform="translate(-343.39 195.98) rotate(-52.05)"/><circle class="cls-52" cx="65.27" cy="455.54" r="1.46" transform="translate(-334.06 226.83) rotate(-52.04)"/><circle class="cls-53" cx="104.05" cy="463.2" r="4.08" transform="translate(-325.18 260.35) rotate(-52.04)"/><circle class="cls-54" cx="84.99" cy="458.71" r="1.75" transform="translate(-328.98 243.63) rotate(-52.05)"/><circle class="cls-55" cx="106.9" cy="472.82" r="2.04" transform="translate(-331.65 266.28) rotate(-52.04)"/><circle class="cls-56" cx="92.69" cy="480.61" r="1.46" transform="translate(-343.27 258.09) rotate(-52.04)"/><circle class="cls-57" cx="114.59" cy="444.23" r="5.98" transform="translate(-306.16 261.36) rotate(-52.04)"/><circle class="cls-58" cx="95.63" cy="442.22" r="2.33" transform="translate(-311.87 245.65) rotate(-52.05)"/><circle class="cls-59" cx="138.08" cy="424.07" r="1.9" transform="translate(-281.23 272.12) rotate(-52.05)"/><circle class="cls-60" cx="113.54" cy="412.16" r="2.63" transform="translate(-281.29 248.21) rotate(-52.05)"/><circle class="cls-61" cx="104.16" cy="405.22" r="2.33" transform="translate(-279.42 238.12) rotate(-52.05)"/><circle class="cls-62" cx="72.02" cy="410.87" r="2.04" transform="translate(-296.25 214.96) rotate(-52.05)"/><circle class="cls-63" cx="88.42" cy="390.55" r="2.19" transform="translate(-273.92 220.1) rotate(-52.05)"/><circle class="cls-64" cx="81.98" cy="385.53" r="1.9" transform="translate(-272.43 213.05) rotate(-52.05)"/><circle class="cls-65" cx="64.96" cy="373.93" r="3.79" transform="translate(-269.83 195.17) rotate(-52.05)"/><circle class="cls-66" cx="70.88" cy="366.34" r="1.17" transform="translate(-261.56 196.89) rotate(-52.04)"/><circle class="cls-67" cx="86.38" cy="365.66" r="1.02" transform="matrix(0.62, -0.79, 0.79, 0.62, -255.04, 208.82)"/><circle class="cls-68" cx="120.9" cy="380.91" r="1.46" transform="matrix(0.62, -0.79, 0.79, 0.62, -253.79, 241.92)"/><circle class="cls-69" cx="137.73" cy="402.72" r="1.02" transform="translate(-264.53 263.65) rotate(-52.05)"/><path class="cls-70" d="M111.19,407.22a37.16,37.16,0,1,0,6.44,52.13A37.17,37.17,0,0,0,111.19,407.22Z"/></g></g></svg>