<svg xmlns="http://www.w3.org/2000/svg" xmlns:xlink="http://www.w3.org/1999/xlink" viewBox="0 0 500 500"><defs><style>.cls-1{isolation:isolate;}.cls-2{fill:url(#radial-gradient);}.cls-3{fill:url(#radial-gradient-2);}.cls-4,.cls-5{opacity:0.25;}.cls-13,.cls-17,.cls-18,.cls-23,.cls-26,.cls-30,.cls-34,.cls-38,.cls-4,.cls-42,.cls-46,.cls-5,.cls-50,.cls-54,.cls-57,.cls-62,.cls-64,.cls-65,.cls-9{mix-blend-mode:screen;}.cls-4{fill:url(#radial-gradient-3);}.cls-5{fill:url(#radial-gradient-4);}.cls-10,.cls-11,.cls-12,.cls-14,.cls-15,.cls-16,.cls-19,.cls-20,.cls-21,.cls-22,.cls-24,.cls-25,.cls-27,.cls-28,.cls-29,.cls-31,.cls-32,.cls-33,.cls-35,.cls-36,.cls-37,.cls-39,.cls-40,.cls-41,.cls-43,.cls-44,.cls-45,.cls-47,.cls-48,.cls-49,.cls-51,.cls-52,.cls-53,.cls-55,.cls-56,.cls-58,.cls-59,.cls-6,.cls-60,.cls-61,.cls-63,.cls-66,.cls-7,.cls-8{mix-blend-mode:multiply;}.cls-6{fill:url(#radial-gradient-5);}.cls-7{fill:url(#radial-gradient-6);}.cls-8{fill:url(#radial-gradient-7);}.cls-9{fill:url(#radial-gradient-8);}.cls-10,.cls-14,.cls-19,.cls-22,.cls-27,.cls-31,.cls-35,.cls-39,.cls-43,.cls-47,.cls-51,.cls-55,.cls-58,.cls-61,.cls-64,.cls-65{opacity:0.45;}.cls-10{fill:url(#radial-gradient-9);}.cls-11{fill:url(#radial-gradient-10);}.cls-12{fill:url(#radial-gradient-11);}.cls-13{fill:url(#radial-gradient-12);}.cls-14{fill:url(#radial-gradient-13);}.cls-15{fill:url(#radial-gradient-14);}.cls-16{fill:url(#radial-gradient-15);}.cls-17{fill:url(#radial-gradient-16);}.cls-18{fill:url(#radial-gradient-17);}.cls-19{fill:url(#radial-gradient-18);}.cls-20{fill:url(#radial-gradient-19);}.cls-21{fill:url(#radial-gradient-20);}.cls-22{fill:url(#radial-gradient-21);}.cls-23{fill:url(#radial-gradient-22);}.cls-24{fill:url(#radial-gradient-23);}.cls-25{fill:url(#radial-gradient-24);}.cls-26{fill:url(#radial-gradient-25);}.cls-27{fill:url(#radial-gradient-26);}.cls-28{fill:url(#radial-gradient-27);}.cls-29{fill:url(#radial-gradient-28);}.cls-30{fill:url(#radial-gradient-29);}.cls-31{fill:url(#radial-gradient-30);}.cls-32{fill:url(#radial-gradient-31);}.cls-33{fill:url(#radial-gradient-32);}.cls-34{fill:url(#radial-gradient-33);}.cls-35{fill:url(#radial-gradient-34);}.cls-36{fill:url(#radial-gradient-35);}.cls-37{fill:url(#radial-gradient-36);}.cls-38{fill:url(#radial-gradient-37);}.cls-39{fill:url(#radial-gradient-38);}.cls-40{fill:url(#radial-gradient-39);}.cls-41{fill:url(#radial-gradient-40);}.cls-42{fill:url(#radial-gradient-41);}.cls-43{fill:url(#radial-gradient-42);}.cls-44{fill:url(#radial-gradient-43);}.cls-45{fill:url(#radial-gradient-44);}.cls-46{fill:url(#radial-gradient-45);}.cls-47{fill:url(#radial-gradient-46);}.cls-48{fill:url(#radial-gradient-47);}.cls-49{fill:url(#radial-gradient-48);}.cls-50{fill:url(#radial-gradient-49);}.cls-51{fill:url(#radial-gradient-50);}.cls-52{fill:url(#radial-gradient-51);}.cls-53{fill:url(#radial-gradient-52);}.cls-54{fill:url(#radial-gradient-53);}.cls-55{fill:url(#radial-gradient-54);}.cls-56{fill:url(#radial-gradient-55);}.cls-57{fill:url(#radial-gradient-57);}.cls-58{fill:url(#radial-gradient-58);}.cls-59{fill:url(#radial-gradient-59);}.cls-60{fill:url(#radial-gradient-60);}.cls-61{fill:url(#radial-gradient-61);}.cls-62{fill:url(#radial-gradient-62);}.cls-63{fill:url(#radial-gradient-63);}.cls-64{fill:url(#radial-gradient-64);}.cls-65{fill:url(#radial-gradient-65);}.cls-67{fill:url(#radial-gradient-66);}.cls-68{fill:url(#radial-gradient-67);}.cls-69{fill:url(#radial-gradient-68);}.cls-70{fill:url(#radial-gradient-69);}.cls-71{fill:url(#radial-gradient-70);}.cls-72{fill:url(#radial-gradient-71);}.cls-73{fill:url(#radial-gradient-72);}.cls-74{fill:url(#radial-gradient-73);}.cls-75{fill:url(#radial-gradient-74);}.cls-76{fill:url(#radial-gradient-75);}.cls-77{fill:url(#radial-gradient-76);}.cls-78{fill:url(#radial-gradient-77);}.cls-79{fill:url(#radial-gradient-78);}.cls-80{fill:url(#radial-gradient-79);}.cls-81{fill:url(#radial-gradient-80);}.cls-82{fill:url(#radial-gradient-81);}.cls-83{fill:url(#radial-gradient-82);}.cls-84{fill:url(#radial-gradient-83);}</style><radialGradient id="radial-gradient" cx="248.37" cy="252.17" r="235.62" gradientUnits="userSpaceOnUse"><stop offset="0" stop-color="#ffe245"/><stop offset="0.24" stop-color="#ffe145" stop-opacity="0.99"/><stop offset="0.38" stop-color="#fede44" stop-opacity="0.96"/><stop offset="0.49" stop-color="#fcd942" stop-opacity="0.9"/><stop offset="0.59" stop-color="#fad240" stop-opacity="0.83"/><stop offset="0.68" stop-color="#f7c83d" stop-opacity="0.73"/><stop offset="0.76" stop-color="#f4bd39" stop-opacity="0.6"/><stop offset="0.83" stop-color="#f0af35" stop-opacity="0.46"/><stop offset="0.9" stop-color="#eb9f30" stop-opacity="0.29"/><stop offset="0.97" stop-color="#e68d2a" stop-opacity="0.1"/><stop offset="1" stop-color="#e38427" stop-opacity="0"/></radialGradient><radialGradient id="radial-gradient-2" cx="365.56" cy="61.6" r="969.43" gradientUnits="userSpaceOnUse"><stop offset="0.08" stop-color="#ffe245"/><stop offset="0.53" stop-color="#de007b"/><stop offset="1" stop-color="#e38427"/></radialGradient><radialGradient id="radial-gradient-3" cx="365.56" cy="61.6" r="969.43" xlink:href="#radial-gradient-2"/><radialGradient id="radial-gradient-4" cx="365.56" cy="61.6" r="969.43" xlink:href="#radial-gradient-2"/><radialGradient id="radial-gradient-5" cx="365.56" cy="61.6" r="969.43" xlink:href="#radial-gradient-2"/><radialGradient id="radial-gradient-6" cx="365.56" cy="61.6" r="969.43" xlink:href="#radial-gradient-2"/><radialGradient id="radial-gradient-7" cx="365.56" cy="61.6" r="969.43" xlink:href="#radial-gradient-2"/><radialGradient id="radial-gradient-8" cx="365.56" cy="61.6" r="969.43" xlink:href="#radial-gradient-2"/><radialGradient id="radial-gradient-9" cx="365.56" cy="61.6" r="969.43" xlink:href="#radial-gradient-2"/><radialGradient id="radial-gradient-10" cx="365.56" cy="61.6" r="969.43" xlink:href="#radial-gradient-2"/><radialGradient id="radial-gradient-11" cx="365.56" cy="61.6" r="969.43" xlink:href="#radial-gradient-2"/><radialGradient id="radial-gradient-12" cx="365.56" cy="61.6" r="969.43" xlink:href="#radial-gradient-2"/><radialGradient id="radial-gradient-13" cx="365.56" cy="61.6" r="969.43" xlink:href="#radial-gradient-2"/><radialGradient id="radial-gradient-14" cx="365.56" cy="61.6" r="969.43" xlink:href="#radial-gradient-2"/><radialGradient id="radial-gradient-15" cx="365.56" cy="61.6" r="969.43" xlink:href="#radial-gradient-2"/><radialGradient id="radial-gradient-16" cx="365.56" cy="61.6" r="969.44" xlink:href="#radial-gradient-2"/><radialGradient id="radial-gradient-17" cx="365.56" cy="61.6" r="969.43" xlink:href="#radial-gradient-2"/><radialGradient id="radial-gradient-18" cx="365.56" cy="61.6" r="969.43" xlink:href="#radial-gradient-2"/><radialGradient id="radial-gradient-19" cx="365.56" cy="61.61" r="969.42" xlink:href="#radial-gradient-2"/><radialGradient id="radial-gradient-20" cx="-2664.59" cy="-1343.41" r="969.44" gradientTransform="translate(-176.97 1048.76) rotate(112.46)" xlink:href="#radial-gradient-2"/><radialGradient id="radial-gradient-21" cx="365.56" cy="61.6" r="969.44" xlink:href="#radial-gradient-2"/><radialGradient id="radial-gradient-22" cx="365.56" cy="61.6" r="969.43" xlink:href="#radial-gradient-2"/><radialGradient id="radial-gradient-23" cx="365.56" cy="61.6" r="969.44" xlink:href="#radial-gradient-2"/><radialGradient id="radial-gradient-24" cx="365.56" cy="61.6" r="969.43" xlink:href="#radial-gradient-2"/><radialGradient id="radial-gradient-25" cx="365.56" cy="61.6" r="969.43" xlink:href="#radial-gradient-2"/><radialGradient id="radial-gradient-26" cx="365.56" cy="61.6" r="969.44" xlink:href="#radial-gradient-2"/><radialGradient id="radial-gradient-27" cx="365.56" cy="61.6" r="969.43" xlink:href="#radial-gradient-2"/><radialGradient id="radial-gradient-28" cx="-375.28" cy="2254.71" r="969.4" gradientTransform="matrix(0.46, -0.89, 0.89, 0.46, -552.46, -111.54)" xlink:href="#radial-gradient-2"/><radialGradient id="radial-gradient-29" cx="365.56" cy="61.6" r="969.43" xlink:href="#radial-gradient-2"/><radialGradient id="radial-gradient-30" cx="365.56" cy="61.6" r="969.44" xlink:href="#radial-gradient-2"/><radialGradient id="radial-gradient-31" cx="365.56" cy="61.6" r="969.43" xlink:href="#radial-gradient-2"/><radialGradient id="radial-gradient-32" cx="365.56" cy="61.6" r="969.43" xlink:href="#radial-gradient-2"/><radialGradient id="radial-gradient-33" cx="365.56" cy="61.6" r="969.43" xlink:href="#radial-gradient-2"/><radialGradient id="radial-gradient-34" cx="365.56" cy="61.6" r="969.43" xlink:href="#radial-gradient-2"/><radialGradient id="radial-gradient-35" cx="365.56" cy="61.6" r="969.43" xlink:href="#radial-gradient-2"/><radialGradient id="radial-gradient-36" cx="-1723.93" cy="-1674.31" r="969.39" gradientTransform="translate(107.18 701.36) rotate(77.28)" xlink:href="#radial-gradient-2"/><radialGradient id="radial-gradient-37" cx="365.56" cy="61.6" r="969.43" xlink:href="#radial-gradient-2"/><radialGradient id="radial-gradient-38" cx="365.56" cy="61.6" r="969.43" xlink:href="#radial-gradient-2"/><radialGradient id="radial-gradient-39" cx="365.56" cy="61.6" r="969.43" xlink:href="#radial-gradient-2"/><radialGradient id="radial-gradient-40" cx="384.99" cy="186.12" r="969.45" gradientTransform="matrix(1, -0.06, 0.06, 1, -24.4, -20.15)" xlink:href="#radial-gradient-2"/><radialGradient id="radial-gradient-41" cx="365.56" cy="61.6" r="969.43" xlink:href="#radial-gradient-2"/><radialGradient id="radial-gradient-42" cx="365.56" cy="61.6" r="969.43" xlink:href="#radial-gradient-2"/><radialGradient id="radial-gradient-43" cx="365.56" cy="61.6" r="969.43" xlink:href="#radial-gradient-2"/><radialGradient id="radial-gradient-44" cx="365.56" cy="61.6" r="969.43" xlink:href="#radial-gradient-2"/><radialGradient id="radial-gradient-45" cx="365.56" cy="61.61" r="969.43" xlink:href="#radial-gradient-2"/><radialGradient id="radial-gradient-46" cx="365.56" cy="61.6" r="969.44" xlink:href="#radial-gradient-2"/><radialGradient id="radial-gradient-47" cx="365.56" cy="61.6" r="969.43" xlink:href="#radial-gradient-2"/><radialGradient id="radial-gradient-48" cx="365.56" cy="61.6" r="969.43" xlink:href="#radial-gradient-2"/><radialGradient id="radial-gradient-49" cx="365.56" cy="61.6" r="969.43" xlink:href="#radial-gradient-2"/><radialGradient id="radial-gradient-50" cx="365.56" cy="61.6" r="969.43" xlink:href="#radial-gradient-2"/><radialGradient id="radial-gradient-51" cx="365.56" cy="61.6" r="969.43" xlink:href="#radial-gradient-2"/><radialGradient id="radial-gradient-52" cx="365.56" cy="61.6" r="969.43" xlink:href="#radial-gradient-2"/><radialGradient id="radial-gradient-53" cx="365.56" cy="61.6" r="969.43" xlink:href="#radial-gradient-2"/><radialGradient id="radial-gradient-54" cx="365.56" cy="61.6" r="969.43" xlink:href="#radial-gradient-2"/><radialGradient id="radial-gradient-55" cx="365.56" cy="61.6" r="969.43" xlink:href="#radial-gradient-2"/><radialGradient id="radial-gradient-57" cx="365.56" cy="61.6" r="969.43" xlink:href="#radial-gradient-2"/><radialGradient id="radial-gradient-58" cx="365.56" cy="61.6" r="969.43" xlink:href="#radial-gradient-2"/><radialGradient id="radial-gradient-59" cx="365.56" cy="61.6" r="969.43" xlink:href="#radial-gradient-2"/><radialGradient id="radial-gradient-60" cx="369.33" cy="106.67" r="969.41" gradientTransform="matrix(0.93, -0.36, -0.36, -0.93, 125.82, 683.29)" xlink:href="#radial-gradient-2"/><radialGradient id="radial-gradient-61" cx="365.56" cy="61.6" r="969.43" xlink:href="#radial-gradient-2"/><radialGradient id="radial-gradient-62" cx="365.56" cy="61.6" r="969.43" xlink:href="#radial-gradient-2"/><radialGradient id="radial-gradient-63" cx="365.56" cy="61.6" r="969.43" xlink:href="#radial-gradient-2"/><radialGradient id="radial-gradient-64" cx="1044.97" cy="1480.41" r="969.44" gradientTransform="translate(472.56 -712.07)" xlink:href="#radial-gradient-2"/><radialGradient id="radial-gradient-65" cx="904.93" cy="746.12" r="969.41" gradientTransform="translate(152.84 -487.07)" xlink:href="#radial-gradient-2"/><radialGradient id="radial-gradient-66" cx="365.56" cy="61.6" r="969.42" xlink:href="#radial-gradient-2"/><radialGradient id="radial-gradient-67" cx="365.56" cy="61.61" r="969.4" xlink:href="#radial-gradient-2"/><radialGradient id="radial-gradient-68" cx="365.56" cy="61.6" r="969.43" xlink:href="#radial-gradient-2"/><radialGradient id="radial-gradient-69" cx="365.56" cy="61.61" r="969.41" xlink:href="#radial-gradient-2"/><radialGradient id="radial-gradient-70" cx="365.56" cy="61.61" r="969.42" xlink:href="#radial-gradient-2"/><radialGradient id="radial-gradient-71" cx="365.56" cy="61.6" r="969.43" xlink:href="#radial-gradient-2"/><radialGradient id="radial-gradient-72" cx="365.56" cy="61.61" r="969.42" xlink:href="#radial-gradient-2"/><radialGradient id="radial-gradient-73" cx="365.56" cy="61.6" r="969.43" xlink:href="#radial-gradient-2"/><radialGradient id="radial-gradient-74" cx="365.56" cy="61.61" r="969.42" xlink:href="#radial-gradient-2"/><radialGradient id="radial-gradient-75" cx="365.56" cy="61.59" r="969.48" xlink:href="#radial-gradient-2"/><radialGradient id="radial-gradient-76" cx="365.56" cy="61.6" r="969.43" xlink:href="#radial-gradient-2"/><radialGradient id="radial-gradient-77" cx="365.56" cy="61.6" r="969.43" xlink:href="#radial-gradient-2"/><radialGradient id="radial-gradient-78" cx="365.56" cy="61.6" r="969.43" xlink:href="#radial-gradient-2"/><radialGradient id="radial-gradient-79" cx="365.56" cy="61.6" r="969.43" xlink:href="#radial-gradient-2"/><radialGradient id="radial-gradient-80" cx="365.56" cy="61.6" r="969.44" xlink:href="#radial-gradient-2"/><radialGradient id="radial-gradient-81" cx="365.56" cy="61.6" r="969.43" xlink:href="#radial-gradient-2"/><radialGradient id="radial-gradient-82" cx="365.56" cy="61.61" r="969.41" xlink:href="#radial-gradient-2"/><radialGradient id="radial-gradient-83" cx="365.56" cy="61.6" r="969.44" xlink:href="#radial-gradient-2"/></defs><title>travel-planet-1</title><g class="cls-1"><g id="OBJECTS"><circle class="cls-2" cx="250" cy="250" r="240.47"/><circle class="cls-3" cx="250" cy="250" r="200.42"/><path class="cls-4" d="M95.87,255.2c-11.78-4.48-23.62,3.84-32.07-9.81-7.48-12.08-1.77-24.65,1.07-37a188.21,188.21,0,0,1,22.28-54.94C121.11,97.26,183.3,62.1,249,62.1a189.15,189.15,0,0,1,83.88,19.6c11.11,5.51,23.84,11.4,30,22.7a43.27,43.27,0,0,1,2.84,33.7,56,56,0,0,1-14.64,22.65A78.28,78.28,0,0,1,332.27,174c-9.67,4.93-21.3,9.3-25,19.5-3,8.17-.12,18.72-6.32,24.81-5.61,5.5-14.93,3.63-22.35,6.21a19.08,19.08,0,0,0-12.12,13.64c-1.3,5.9.28,12.2-1.35,18-3.18,11.29-16.66,16-28.36,16.82s-24.42,0-34.06,6.66c-9,6.28-13.26,18-22.47,24-9.41,6.16-22.19,4.89-32.19-.26s-17.83-13.61-25.44-21.89l-17.32-18.85C102.53,259.71,99.65,256.63,95.87,255.2Z"/><path class="cls-5" d="M74.83,230.19a188.19,188.19,0,0,1,22.28-54.94c34-56.2,96.14-91.36,161.82-91.36a189.16,189.16,0,0,1,83.88,19.6c11.11,5.51,23.84,11.4,30,22.7.26.47.45,1,.69,1.44a40.57,40.57,0,0,0-4.42-13.26c-6.21-11.3-18.94-17.19-30-22.7a189.16,189.16,0,0,0-83.88-19.6c-65.67,0-127.86,35.16-161.82,91.36A188.22,188.22,0,0,0,71.1,218.36c-2.85,12.34-8.55,24.91-1.07,37l.09.13C69.64,247.09,72.89,238.59,74.83,230.19Z"/><path class="cls-6" d="M450.42,250c0,110.69-89.73,200.42-200.42,200.42-95.78,0-179.06-70.38-198.21-163.87-2.9-14.15,10.44-27.06,24.71-27.81,12.82-.67,23.74,8.82,32.47,18.24A302.1,302.1,0,0,1,134,307.87c8.8,12.43,16.16,30.67,31.54,35.91,7.54,2.57,16.45,1.71,22.69-3.24,3.06-2.43,5.36-5.67,7.61-8.87,7.86-11.17,18.14-28.72,33.36-15.18,6.21,5.52,25.94,16.23,28,1.26.56-4-.26-8.18.8-12.09,2.23-8.23,12-12.2,20.49-11.77s16.56,4,25,5.38,18.31.07,23.23-6.89c3.87-5.47,3.56-12.91,1.75-19.37s-4.92-12.53-6.24-19.11c-1.68-8.36-.19-17.48,4.82-24.37s13.69-11.21,22.15-10.18c7.4.9,15.74,5.35,21.58.7a12.4,12.4,0,0,0,3.65-5.5c2.61-7,1.5-14.84,1.54-22.35s1.84-15.92,8.13-20c2.55-1.66,5.81-2.62,7.31-5.27,1.28-2.25.88-5,.39-7.58a216.06,216.06,0,0,0-7.25-27.76c-1.63-4.9-2.11-12.3,3-13.22a8.22,8.22,0,0,1,4.09.62c23,8,34,31.72,43,53A200.68,200.68,0,0,1,450.42,250Z"/><path class="cls-7" d="M423.89,182.81a188.11,188.11,0,0,1,7.89,53.81c0,103.39-83.81,187.2-187.2,187.2-78,0-147.18-50-175.44-120.76,23.79,78.89,97.24,136.4,180.92,136.4,103.39,0,187.2-83.81,187.2-187.2A187.56,187.56,0,0,0,423.89,182.81Z"/><path class="cls-8" d="M141.29,100.72s23.2-31.37,86.85-37,72.62,9.66,55.16,25.55-40.65,44.59-81.86,41.15S128.75,117.53,141.29,100.72Z"/><path class="cls-9" d="M253.18,62.52c40.69.16,45,13.23,30.12,26.73-17.46,15.89-40.65,44.59-81.86,41.15s-72.69-12.87-60.14-29.68c0,0,4.41-6,14.67-13.16-13.32,8.65-19,16.24-19,16.24-13.7,18.19,20.67,28.39,65.68,32.11S273,108.56,292,91.37C308.94,76.13,303.13,61.41,253.18,62.52Z"/><path class="cls-10" d="M267.74,63.26c1.39,4.5-1.49,9.89-7.49,15.35-17.46,15.89-40.65,44.59-81.86,41.15-14-1.16-26.79-3-37.18-5.61,7.8,8.6,31.67,13.87,60.23,16.25,41.21,3.44,64.4-25.26,81.86-41.15C296.13,77.58,294.65,66.23,267.74,63.26Z"/><path class="cls-11" d="M143.43,109.27s23.19-31.37,86.85-37c35.65-3.16,54.13.25,60.44,6.65,3.28-11.34-13.17-19.58-62.58-15.2-63.65,5.65-86.85,37-86.85,37-3.77,5.06-3.54,9.44-.28,13.2A14.5,14.5,0,0,1,143.43,109.27Z"/><path class="cls-12" d="M104.9,132.71c-10.43,6.9-30.29,24.12-25.24,43.2s39.27-.56,51.05-20.76S124.58,119.7,104.9,132.71Z"/><path class="cls-13" d="M126,129.29c8.17,3.58,11.74,13.81,4.71,25.86-11.78,20.2-46,39.83-51.05,20.76a24.16,24.16,0,0,1-.65-3.47,26.33,26.33,0,0,0,.72,9.08c5.52,20.83,42.9-.61,55.77-22.67C144.33,143.69,137.87,131.09,126,129.29Z"/><path class="cls-14" d="M130.7,155.15c-10.15,17.4-36.93,34.35-47.39,26.53,12.48.27,32.59-14,41.07-28.51,6.58-11.28,3.89-21-3.19-25.14C132.57,129.23,139,140.94,130.7,155.15Z"/><path class="cls-15" d="M108.85,139.43c10.1-6.68,19.7-5.88,25.09-.82-2.66-10.35-15.41-14.91-29-5.9-10.44,6.9-30.29,24.12-25.25,43.2a10.1,10.1,0,0,0,3.8,5.88C79.19,163,98.57,146.22,108.85,139.43Z"/><path class="cls-16" d="M263.28,312.35c-5.14,3.4-14.92,11.88-12.43,21.27s19.34-.28,25.14-10.22S273,305.94,263.28,312.35Z"/><path class="cls-17" d="M263.28,312.35A13.16,13.16,0,0,1,270,310a12.64,12.64,0,0,0-7.5,2.78c-.72.54-1.54,1.19-2.39,1.92C261.25,313.76,262.34,313,263.28,312.35Z"/><path class="cls-18" d="M276,323.4c-5.8,9.95-22.65,19.62-25.14,10.22-1-3.77,0-7.38,1.85-10.59-2.79,4.31-4.58,9.44-3.31,14.82,2.62,11.07,20.38-.33,26.49-12.05a15.13,15.13,0,0,0,1.92-8.1A12.46,12.46,0,0,1,276,323.4Z"/><path class="cls-19" d="M263.77,318c6.06-4,11.77-2.57,13.79,1.49,1.78-7.83-5.91-12.67-14.28-7.14-5.14,3.4-14.92,11.88-12.43,21.27a5.91,5.91,0,0,0,.26.64C252.27,327,259.57,320.78,263.77,318Z"/><path class="cls-20" d="M277,313.73a14.25,14.25,0,0,1-1.44,3.36c-5.63,9.65-21.61,19-24.84,11a12.09,12.09,0,0,0,.12,5.57c2.49,9.39,19.34-.28,25.14-10.22C278.2,319.61,278.28,316.18,277,313.73Z"/><path class="cls-21" d="M85.67,289c-1.18-6-5.28-18.33-14.91-19.62s-7.13,18-.16,27.14S87.89,300.44,85.67,289Z"/><path class="cls-22" d="M85.67,289c-1.06-5.46-4.53-16-12.28-18.92,3.71,4.45,5.62,10.73,6.36,14.53,1.63,8.41-3.54,13.46-9.16,11.88l0,0C77.58,305.71,87.89,300.44,85.67,289Z"/><path class="cls-23" d="M90.4,291c-1.65-5.74-6.53-16.94-16-20.44,7,3.44,10.24,13.27,11.25,18.49,1.55,8-3,13-8.34,12.07C85.25,306,93.31,301.12,90.4,291Z"/><path class="cls-24" d="M75.6,294.28c-5.28-6.94-8-19.65-4.81-24.86h0c-9.63-1.29-7.13,18-.16,27.14,4.32,5.67,9.91,5.8,13,2.37C81,299,78.09,297.56,75.6,294.28Z"/><path class="cls-25" d="M374.33,374.9c-5.14,3.4-14.92,11.88-12.43,21.27S381.24,395.9,387,386,384,368.49,374.33,374.9Z"/><path class="cls-26" d="M387,386c-5.8,9.95-22.65,19.62-25.14,10.22a11.83,11.83,0,0,1-.34-2.1,14.16,14.16,0,0,0,.34,4.34c2.49,10.28,19.34-.3,25.14-11.19a13.81,13.81,0,0,0,1.82-7.5A12.07,12.07,0,0,1,387,386Z"/><path class="cls-27" d="M365.24,399.51c-2.49-9.39,7.29-17.88,12.43-21.27,4-2.63,7.8-2.89,10.54-1.62-1.92-4.23-7.71-5.8-13.88-1.73-5.14,3.4-14.92,11.88-12.43,21.27a4.63,4.63,0,0,0,3.44,3.58C365.31,399.66,365.26,399.6,365.24,399.51Z"/><path class="cls-28" d="M383.46,372.79a11,11,0,0,1-1.63,7.95c-4.17,7.16-14.05,14.13-20.2,14a12,12,0,0,0,.27,1.43c2.49,9.39,19.34-.28,25.14-10.22C390.84,379.43,388.35,374,383.46,372.79Z"/><path class="cls-29" d="M360.13,117.46c.65,6.13,3.68,18.71,13.16,20.83s8.66-17.3,2.5-27S358.91,105.91,360.13,117.46Z"/><path class="cls-30" d="M376.79,112.1a12.39,12.39,0,0,0-5.67-5.31,12.09,12.09,0,0,1,4.67,4.47c6.16,9.73,7,29.14-2.5,27s-12.51-14.7-13.16-20.83a13.29,13.29,0,0,1,.9-6.8,15.09,15.09,0,0,0-1.73,8.88c.57,7,3.63,21.25,14.07,23.44S383.38,123.05,376.79,112.1Z"/><path class="cls-31" d="M373.86,131.49c-9.17-2-12.3-13.87-13.08-20.19a13.71,13.71,0,0,0-.65,6.16c.65,6.13,3.68,18.71,13.16,20.83,5.42,1.21,7.46-4.61,7.08-11.64C379.42,130.13,377.34,132.27,373.86,131.49Z"/><path class="cls-32" d="M375.79,111.27c-5.14-8.12-13.45-6.39-15.34,1.12,3.4-2,8.14-.92,11.51,4.41,3.73,5.9,5.49,15.33,4.19,21.39C382.5,136,381.24,119.87,375.79,111.27Z"/><path class="cls-33" d="M84.75,327.74c-.12,7.54,2.69,15.74,5.76,21.28a169.85,169.85,0,0,0,22,30.49c26.19,29.39,52.37,35.81,67.34,23.51s17.64-66.8-1.6-83.91c-14.94-13.28-41.57-15.71-60.5-14-9,.82-22.84,2.93-29,10.48C85.94,319,84.82,323.23,84.75,327.74Z"/><path class="cls-34" d="M183.49,319.69c-13.19-11.53-35-15.17-53.48-15,16.95.19,36.29,3.87,48.21,14.46,19.24,17.1,16.57,71.61,1.6,83.91s-41.15,5.88-67.34-23.51a169.85,169.85,0,0,1-22-30.49c-3-5.39-5.7-13.28-5.74-20.64,0,.08,0,.16,0,.25-.13,7.83,2.84,16.34,6.08,22.11A176.51,176.51,0,0,0,114,382.41c27.66,30.53,55.33,37.19,71.14,24.42S203.82,337.45,183.49,319.69Z"/><path class="cls-35" d="M178.22,319.13a47.06,47.06,0,0,0-12.74-7.86c13.92,21.15,10.47,67.17-3.12,78.33-10,8.24-25.11,8-41.84-1.83,23.4,22.2,45.88,26.3,59.31,15.27C194.78,390.74,197.46,336.23,178.22,319.13Z"/><path class="cls-36" d="M120.54,372.13a169.82,169.82,0,0,1-22-30.49c-3.07-5.55-5.88-13.75-5.76-21.28a20.81,20.81,0,0,1,2.34-9.71,20.55,20.55,0,0,0-6.47,5c-2.74,3.33-3.86,7.61-3.93,12.12-.12,7.54,2.69,15.74,5.76,21.28a169.85,169.85,0,0,0,22,30.49c26.19,29.39,52.37,35.81,67.34,23.51a19.65,19.65,0,0,0,4-4.73C168.47,406.64,144.52,399,120.54,372.13Z"/><path class="cls-37" d="M332.4,106.57a30.13,30.13,0,0,0-12.87,6.8A112.09,112.09,0,0,0,303.09,132c-15.12,21.13-15.44,38.93-5.35,46.78s45.58,1.65,53.79-13.23c6.38-11.55,4.08-29.05.22-41-1.84-5.68-5.21-14.28-11-17.18A12.67,12.67,0,0,0,332.4,106.57Z"/><path class="cls-38" d="M353.64,131.67c2.48,11.09,3.08,24.42-2.12,33.83-8.22,14.87-43.71,21.08-53.79,13.23a17.11,17.11,0,0,1-5.65-8c.73,6,3.15,10.83,7,14.16,10.31,8.82,45.84,2.79,53.77-13.33C358.31,160.55,356.88,144.37,353.64,131.67Z"/><path class="cls-39" d="M305.31,168.87c-9.86-7.67-9.74-24.86,4.4-45.37-2.32,2.73-4.55,5.54-6.63,8.45-15.12,21.13-15.44,38.93-5.35,46.78s45.58,1.65,53.79-13.23a27.09,27.09,0,0,0,1.39-3.19C339.71,172.17,313.72,175.41,305.31,168.87Z"/><path class="cls-40" d="M351.74,124.52c-1.84-5.68-5.21-14.28-11-17.18a12.67,12.67,0,0,0-8.38-.77,30.14,30.14,0,0,0-12.87,6.8,103,103,0,0,0-10,10.3c1.41-1.43,2.87-2.82,4.37-4.15a30.13,30.13,0,0,1,12.87-6.8,12.67,12.67,0,0,1,8.38.77c5.76,2.9,9.13,11.5,11,17.18,3.86,11.94,6.16,29.44-.22,41l-.08.11a21.3,21.3,0,0,0,5.67-6.26C357.9,154,355.6,136.45,351.74,124.52Z"/><path class="cls-41" d="M416.27,159.65c12.9,9.72,19.59,44.71,20.55,54,3.12,30.43,7,58.46-5.62,67.65s-53.14,1.1-57.3-22.68-6.79-62.24,7.54-75.29c7.48-6.81,11.78-17.1,19.87-23.15C407,156,412,156.41,416.27,159.65Z"/><path class="cls-42" d="M439.77,246.57c.74,16.2-.74,29.08-8.57,34.76-12.67,9.19-53.14,1.1-57.3-22.68s-6.79-62.24,7.54-75.29c7.48-6.81,11.78-17.1,19.87-23.15a14.94,14.94,0,0,1,6.22-2.91c-2.89-.12-6,.81-9.35,3.18-8.86,6.28-13.6,16.93-21.8,24-15.71,13.54-13,53.29-8.5,77.86s48.69,32.8,62.57,23.26C439.55,279.35,440.87,264.74,439.77,246.57Z"/><path class="cls-43" d="M386.1,241.44c-3.28-18.73-5.57-46.53.6-63.88a46.17,46.17,0,0,1-5.25,5.81c-14.33,13-11.7,51.51-7.54,75.29s44.64,31.87,57.3,22.68c4.25-3.08,6.61-8.33,7.78-15C423.21,271.58,389.85,262.91,386.1,241.44Z"/><path class="cls-44" d="M436.82,213.69c-1-9.33-7.65-44.32-20.55-54a10.77,10.77,0,0,0-9.6-2.11c12.6,10.19,19.16,44.43,20.11,53.65,3.12,30.43,7,58.46-5.62,67.65-4.88,3.54-13.89,4.5-23.36,3,12.64,4.38,26.8,4.3,33.4-.49C443.87,272.15,439.94,244.12,436.82,213.69Z"/><path class="cls-45" d="M222.36,401.21s-33.48,0-20.57,17.7,45.92,12.91,49.75.48S237.67,403.12,222.36,401.21Z"/><path class="cls-46" d="M251.54,419.38c-3.83,12.44-36.83,17.22-49.75-.48a13.86,13.86,0,0,1-2.89-6.43c-.33,2.62.45,5.84,2.89,9.82,12.91,21.08,45.92,15.38,49.75.57a14.36,14.36,0,0,0,.41-5.42A11.88,11.88,0,0,1,251.54,419.38Z"/><path class="cls-47" d="M222.36,401.21s-25.84,0-23.35,12c6.16-5.16,20.86-5.16,20.86-5.16,13.79,1.72,29.48,5,29.65,14.76a10,10,0,0,0,2-3.43C255.37,406.95,237.67,403.12,222.36,401.21Z"/><path class="cls-48" d="M204.28,410.19A17.58,17.58,0,0,1,202,406c-3.48,2.62-4.71,6.65-.16,12.89,12.91,17.7,45.92,12.91,49.75.48a9.84,9.84,0,0,0,.29-5.06C243.37,423.85,215.83,426,204.28,410.19Z"/><path class="cls-49" d="M171.13,143.37c-8.7,1.74-31,9.81-25.81,25.81s40.78-1.55,48.52-15S176.82,142.23,171.13,143.37Z"/><path class="cls-50" d="M184.4,142.89c7.39.72,14,3.47,9.45,11.31-6.73,11.67-34.52,26.44-45.06,19.58,11,8.32,40.57-2.72,48.66-14.13C206.61,146.75,194.63,143.37,184.4,142.89Z"/><path class="cls-51" d="M193.85,154.21c-7.51,13-41.19,29.84-47.9,16.21,12.73-.55,31.74-11.91,37.16-21.29,1.51-2.61,1.76-4.65,1.18-6.25C191.71,143.58,198.4,146.32,193.85,154.21Z"/><path class="cls-52" d="M149.2,173.06C144,157.06,166.31,149,175,147.25c3.5-.7,14.2-1.5,20.13,1.1-1.86-7-19.34-5.91-24-5-8.7,1.74-31,9.81-25.81,25.81a8.32,8.32,0,0,0,4.5,5.11A8.83,8.83,0,0,1,149.2,173.06Z"/><path class="cls-53" d="M403.68,306.63s-13.38,3.6-23.15,24.69.51,37,22.64,14.4S429.4,295.83,403.68,306.63Z"/><path class="cls-54" d="M409.19,304.79c19.43-4.67,14.35,20.09-6,40.94-16,16.33-25.75,12.58-26.31,1.31-2.09,15.35,7.17,21.89,26.31,3.15C433,320.92,430.09,298.59,409.19,304.79Z"/><path class="cls-55" d="M387,334.8c9.77-21.09,23.15-24.69,23.15-24.69,4.14-1.74,7.5-2.48,10.14-2.42-2.12-3.9-7.48-4.9-16.65-1,0,0-13.38,3.6-23.15,24.69-6.46,13.93-4.15,25.61,4.52,25.42C382.33,352.29,382.76,344,387,334.8Z"/><path class="cls-56" d="M416.51,304.6c1.1,8.05-5.65,22.29-18.12,35.05-9.36,9.57-16.58,12.23-21.08,10.53,2.14,8.67,11.5,10.24,25.86-4.45C420.38,328.11,426.69,307.7,416.51,304.6Z"/><path class="cls-6" d="M286,330.25S234.6,357,273.7,377.58s88.49-14.4,74.08-47.33S286,330.25,286,330.25Z"/><path class="cls-57" d="M273.7,377.58c-9.29-4.89-13.43-10.13-14.4-15.27-1.27,7.53,2,15.53,14.4,22.84,35,20.64,78.09-8.55,76.56-41.36C348.77,371.73,307.42,395.33,273.7,377.58Z"/><path class="cls-58" d="M296,337.11s28.37-19.72,47.86-13.35c-17.56-21.49-57.8,6.48-57.8,6.48S234.6,357,273.7,377.58l.56.27C254.75,358.58,296,337.11,296,337.11Z"/><path class="cls-59" d="M347.78,330.25a27.69,27.69,0,0,0-3.88-6.42c9.83,31.88-37.54,63.87-75.31,44a38.91,38.91,0,0,1-9.47-6.68c.53,5.52,4.58,11.19,14.58,16.45C312.8,398.15,362.18,363.17,347.78,330.25Z"/><path class="cls-60" d="M177.15,266.92s-70.27-7.89-34.8-48.45,107-22.39,105,21.39S177.15,266.92,177.15,266.92Z"/><path class="cls-61" d="M226.23,204.23a36,36,0,0,1,3,16.26c-2,43.78-70.25,27.06-70.25,27.06s-14.17-1.61-26.58-7c1.67,21.57,44.74,26.41,44.74,26.41s68.29,16.72,70.25-27.06C248.1,224.18,239.35,211.81,226.23,204.23Z"/><path class="cls-62" d="M239.48,215.43a36,36,0,0,1,7.92,24.44c-2,43.78-70.25,27.06-70.25,27.06s-39.13-4.41-44.24-23.5c4.71,20.67,45.17,27.37,45.17,27.37s71.15,17.1,73.11-26.68C251.7,232.91,247.13,223.13,239.48,215.43Z"/><path class="cls-63" d="M146,226.33c29.07-33.23,82.31-27,99.53.38-11.21-33.83-71.56-44.43-103.23-8.23-12.36,14.13-11.87,24.29-6,31.53C135.21,243.73,137.62,236,146,226.33Z"/><ellipse class="cls-64" cx="136.54" cy="171.25" rx="39.12" ry="21.12" transform="translate(-82.2 182.41) rotate(-54.35)"/><ellipse class="cls-65" cx="184.04" cy="115.07" rx="21.58" ry="11.65" transform="translate(-32.86 106.92) rotate(-29.86)"/><g class="cls-66"><circle class="cls-67" cx="291.42" cy="258.91" r="7.61"/><circle class="cls-68" cx="313.49" cy="276.92" r="4.82"/><circle class="cls-69" cx="303.6" cy="220.86" r="14.71"/><circle class="cls-70" cx="210.5" cy="365.71" r="5.83"/><circle class="cls-71" cx="215.83" cy="338.57" r="6.6"/><circle class="cls-72" cx="238.91" cy="365.2" r="8.88"/><circle class="cls-73" cx="271.13" cy="409.09" r="4.06"/><circle class="cls-74" cx="285.59" cy="405.79" r="4.31"/><circle class="cls-75" cx="351.04" cy="278.45" r="6.34"/><circle class="cls-76" cx="366.26" cy="294.17" r="3.3"/><circle class="cls-77" cx="93.56" cy="227.97" r="6.6"/><circle class="cls-78" cx="97.62" cy="252.32" r="8.12"/><circle class="cls-79" cx="142.77" cy="280.22" r="4.06"/><circle class="cls-80" cx="166.87" cy="295.19" r="8.88"/><circle class="cls-81" cx="246.02" cy="149.58" r="5.33"/><circle class="cls-82" cx="230.8" cy="168.35" r="12.43"/><circle class="cls-83" cx="266.06" cy="152.88" r="6.09"/><circle class="cls-84" cx="303.85" cy="96.82" r="6.85"/></g></g></g></svg>