<svg xmlns="http://www.w3.org/2000/svg" xmlns:xlink="http://www.w3.org/1999/xlink" viewBox="0 0 500 500"><defs><style>.cls-1{isolation:isolate;}.cls-2{fill:url(#radial-gradient);}.cls-3{fill:url(#radial-gradient-2);}.cls-4,.cls-5{opacity:0.25;}.cls-13,.cls-17,.cls-18,.cls-23,.cls-26,.cls-30,.cls-34,.cls-38,.cls-4,.cls-42,.cls-46,.cls-5,.cls-50,.cls-54,.cls-58,.cls-63,.cls-65,.cls-66,.cls-9{mix-blend-mode:screen;}.cls-4{fill:url(#radial-gradient-3);}.cls-5{fill:url(#radial-gradient-4);}.cls-10,.cls-11,.cls-12,.cls-14,.cls-15,.cls-16,.cls-19,.cls-20,.cls-21,.cls-22,.cls-24,.cls-25,.cls-27,.cls-28,.cls-29,.cls-31,.cls-32,.cls-33,.cls-35,.cls-36,.cls-37,.cls-39,.cls-40,.cls-41,.cls-43,.cls-44,.cls-45,.cls-47,.cls-48,.cls-49,.cls-51,.cls-52,.cls-53,.cls-55,.cls-56,.cls-57,.cls-59,.cls-6,.cls-60,.cls-61,.cls-62,.cls-64,.cls-67,.cls-7,.cls-8{mix-blend-mode:multiply;}.cls-6{fill:url(#radial-gradient-5);}.cls-7{fill:url(#radial-gradient-6);}.cls-8{fill:url(#radial-gradient-7);}.cls-9{fill:url(#radial-gradient-8);}.cls-10,.cls-14,.cls-19,.cls-22,.cls-27,.cls-31,.cls-35,.cls-39,.cls-43,.cls-47,.cls-51,.cls-55,.cls-59,.cls-62,.cls-65,.cls-66{opacity:0.45;}.cls-10{fill:url(#radial-gradient-9);}.cls-11{fill:url(#radial-gradient-10);}.cls-12{fill:url(#radial-gradient-11);}.cls-13{fill:url(#radial-gradient-12);}.cls-14{fill:url(#radial-gradient-13);}.cls-15{fill:url(#radial-gradient-14);}.cls-16{fill:url(#radial-gradient-15);}.cls-17{fill:url(#radial-gradient-16);}.cls-18{fill:url(#radial-gradient-17);}.cls-19{fill:url(#radial-gradient-18);}.cls-20{fill:url(#radial-gradient-19);}.cls-21{fill:url(#radial-gradient-20);}.cls-22{fill:url(#radial-gradient-21);}.cls-23{fill:url(#radial-gradient-22);}.cls-24{fill:url(#radial-gradient-23);}.cls-25{fill:url(#radial-gradient-24);}.cls-26{fill:url(#radial-gradient-25);}.cls-27{fill:url(#radial-gradient-26);}.cls-28{fill:url(#radial-gradient-27);}.cls-29{fill:url(#radial-gradient-28);}.cls-30{fill:url(#radial-gradient-29);}.cls-31{fill:url(#radial-gradient-30);}.cls-32{fill:url(#radial-gradient-31);}.cls-33{fill:url(#radial-gradient-32);}.cls-34{fill:url(#radial-gradient-33);}.cls-35{fill:url(#radial-gradient-34);}.cls-36{fill:url(#radial-gradient-35);}.cls-37{fill:url(#radial-gradient-36);}.cls-38{fill:url(#radial-gradient-37);}.cls-39{fill:url(#radial-gradient-38);}.cls-40{fill:url(#radial-gradient-39);}.cls-41{fill:url(#radial-gradient-40);}.cls-42{fill:url(#radial-gradient-41);}.cls-43{fill:url(#radial-gradient-42);}.cls-44{fill:url(#radial-gradient-43);}.cls-45{fill:url(#radial-gradient-44);}.cls-46{fill:url(#radial-gradient-45);}.cls-47{fill:url(#radial-gradient-46);}.cls-48{fill:url(#radial-gradient-47);}.cls-49{fill:url(#radial-gradient-48);}.cls-50{fill:url(#radial-gradient-49);}.cls-51{fill:url(#radial-gradient-50);}.cls-52{fill:url(#radial-gradient-51);}.cls-53{fill:url(#radial-gradient-52);}.cls-54{fill:url(#radial-gradient-53);}.cls-55{fill:url(#radial-gradient-54);}.cls-56{fill:url(#radial-gradient-55);}.cls-57{fill:url(#radial-gradient-56);}.cls-58{fill:url(#radial-gradient-57);}.cls-59{fill:url(#radial-gradient-58);}.cls-60{fill:url(#radial-gradient-59);}.cls-61{fill:url(#radial-gradient-60);}.cls-62{fill:url(#radial-gradient-61);}.cls-63{fill:url(#radial-gradient-62);}.cls-64{fill:url(#radial-gradient-63);}.cls-65{fill:url(#radial-gradient-64);}.cls-66{fill:url(#radial-gradient-65);}.cls-68{fill:url(#radial-gradient-66);}.cls-69{fill:url(#radial-gradient-67);}.cls-70{fill:url(#radial-gradient-68);}.cls-71{fill:url(#radial-gradient-69);}.cls-72{fill:url(#radial-gradient-70);}.cls-73{fill:url(#radial-gradient-71);}.cls-74{fill:url(#radial-gradient-72);}.cls-75{fill:url(#radial-gradient-73);}.cls-76{fill:url(#radial-gradient-74);}.cls-77{fill:url(#radial-gradient-75);}.cls-78{fill:url(#radial-gradient-76);}.cls-79{fill:url(#radial-gradient-77);}.cls-80{fill:url(#radial-gradient-78);}.cls-81{fill:url(#radial-gradient-79);}.cls-82{fill:url(#radial-gradient-80);}.cls-83{fill:url(#radial-gradient-81);}.cls-84{fill:url(#radial-gradient-82);}.cls-85{fill:url(#radial-gradient-83);}</style><radialGradient id="radial-gradient" cx="250" cy="250" r="211.93" gradientUnits="userSpaceOnUse"><stop offset="0" stop-color="#d1e1ee"/><stop offset="0.34" stop-color="#8ee1ee"/><stop offset="0.94" stop-color="#732fa4"/></radialGradient><radialGradient id="radial-gradient-2" cx="250" cy="250" r="240.41" gradientUnits="userSpaceOnUse"><stop offset="0.06" stop-color="#732fa4"/><stop offset="0.66" stop-color="#8ee1ee"/><stop offset="1" stop-color="#d1e1ee" stop-opacity="0"/></radialGradient><radialGradient id="radial-gradient-3" cx="208.64" cy="115.96" r="252.4" xlink:href="#radial-gradient"/><radialGradient id="radial-gradient-4" cx="214.92" cy="110.1" r="217.35" xlink:href="#radial-gradient"/><radialGradient id="radial-gradient-5" cx="250.96" cy="286.31" r="194.1" xlink:href="#radial-gradient"/><radialGradient id="radial-gradient-6" cx="253.39" cy="314.65" r="167.77" xlink:href="#radial-gradient"/><radialGradient id="radial-gradient-7" cx="196.4" cy="29.34" r="139.61" xlink:href="#radial-gradient"/><radialGradient id="radial-gradient-8" cx="197.46" cy="27.46" r="151.76" xlink:href="#radial-gradient"/><radialGradient id="radial-gradient-9" cx="198.11" cy="30.39" r="137.58" xlink:href="#radial-gradient"/><radialGradient id="radial-gradient-10" cx="196.4" cy="34.85" r="124.09" xlink:href="#radial-gradient"/><radialGradient id="radial-gradient-11" cx="92.45" cy="102.54" r="87.61" xlink:href="#radial-gradient"/><radialGradient id="radial-gradient-12" cx="94.65" cy="102.41" r="95.39" xlink:href="#radial-gradient"/><radialGradient id="radial-gradient-13" cx="95.29" cy="102.75" r="86.21" xlink:href="#radial-gradient"/><radialGradient id="radial-gradient-14" cx="92.23" cy="103.16" r="85.03" xlink:href="#radial-gradient"/><radialGradient id="radial-gradient-15" cx="262.02" cy="304.38" r="43.15" xlink:href="#radial-gradient"/><radialGradient id="radial-gradient-16" cx="264.85" cy="311.89" r="9.34" xlink:href="#radial-gradient"/><radialGradient id="radial-gradient-17" cx="261.08" cy="313.49" r="39.97" xlink:href="#radial-gradient"/><radialGradient id="radial-gradient-18" cx="262.01" cy="305.43" r="39.05" xlink:href="#radial-gradient"/><radialGradient id="radial-gradient-19" cx="262.02" cy="309.6" r="38.32" xlink:href="#radial-gradient"/><radialGradient id="radial-gradient-20" cx="-798.81" cy="43.91" r="43.15" gradientTransform="translate(-176.97 1048.76) rotate(112.46)" xlink:href="#radial-gradient"/><radialGradient id="radial-gradient-21" cx="66.77" cy="261.04" r="45.57" xlink:href="#radial-gradient"/><radialGradient id="radial-gradient-22" cx="71.33" cy="261.05" r="47.63" xlink:href="#radial-gradient"/><radialGradient id="radial-gradient-23" cx="61.86" cy="259.99" r="47.22" xlink:href="#radial-gradient"/><radialGradient id="radial-gradient-24" cx="379.44" cy="370.53" r="43.15" xlink:href="#radial-gradient"/><radialGradient id="radial-gradient-25" cx="379.45" cy="379.65" r="37.27" xlink:href="#radial-gradient"/><radialGradient id="radial-gradient-26" cx="379.15" cy="370.61" r="42.64" xlink:href="#radial-gradient"/><radialGradient id="radial-gradient-27" cx="379.52" cy="370.9" r="42.76" xlink:href="#radial-gradient"/><radialGradient id="radial-gradient-28" cx="224.38" cy="906.12" r="43.14" gradientTransform="matrix(0.46, -0.89, 0.89, 0.46, -552.46, -111.54)" xlink:href="#radial-gradient"/><radialGradient id="radial-gradient-29" cx="374.9" cy="86.63" r="53.91" xlink:href="#radial-gradient"/><radialGradient id="radial-gradient-30" cx="374.94" cy="94.42" r="41.01" xlink:href="#radial-gradient"/><radialGradient id="radial-gradient-31" cx="375.21" cy="87.04" r="47.91" xlink:href="#radial-gradient"/><radialGradient id="radial-gradient-32" cx="120.38" cy="273.52" r="164.67" xlink:href="#radial-gradient"/><radialGradient id="radial-gradient-33" cx="122.93" cy="272.21" r="171.55" xlink:href="#radial-gradient"/><radialGradient id="radial-gradient-34" cx="143.13" cy="282.69" r="147.11" xlink:href="#radial-gradient"/><radialGradient id="radial-gradient-35" cx="117" cy="281.82" r="154.69" xlink:href="#radial-gradient"/><radialGradient id="radial-gradient-36" cx="-507.79" cy="-395.8" r="108.7" gradientTransform="translate(107.18 701.36) rotate(77.28)" xlink:href="#radial-gradient"/><radialGradient id="radial-gradient-37" cx="321.64" cy="106.06" r="92.06" xlink:href="#radial-gradient"/><radialGradient id="radial-gradient-38" cx="319.33" cy="96.97" r="93.12" xlink:href="#radial-gradient"/><radialGradient id="radial-gradient-39" cx="332.34" cy="76.41" r="98.35" xlink:href="#radial-gradient"/><radialGradient id="radial-gradient-40" cx="416.13" cy="154.39" r="188.41" gradientTransform="matrix(1, -0.06, 0.06, 1, -24.4, -20.15)" xlink:href="#radial-gradient"/><radialGradient id="radial-gradient-41" cx="402.86" cy="108.54" r="195.18" xlink:href="#radial-gradient"/><radialGradient id="radial-gradient-42" cx="406.33" cy="138.08" r="159.9" xlink:href="#radial-gradient"/><radialGradient id="radial-gradient-43" cx="424.04" cy="109.82" r="184.69" xlink:href="#radial-gradient"/><radialGradient id="radial-gradient-44" cx="218.32" cy="400.26" r="54.48" xlink:href="#radial-gradient"/><radialGradient id="radial-gradient-45" cx="218.31" cy="414.04" r="48.53" xlink:href="#radial-gradient"/><radialGradient id="radial-gradient-46" cx="218.33" cy="402.79" r="46.58" xlink:href="#radial-gradient"/><radialGradient id="radial-gradient-47" cx="218.31" cy="406.92" r="49.39" xlink:href="#radial-gradient"/><radialGradient id="radial-gradient-48" cx="159.89" cy="125.7" r="57.57" xlink:href="#radial-gradient"/><radialGradient id="radial-gradient-49" cx="164.85" cy="125.64" r="59.07" xlink:href="#radial-gradient"/><radialGradient id="radial-gradient-50" cx="160.78" cy="126.02" r="56.7" xlink:href="#radial-gradient"/><radialGradient id="radial-gradient-51" cx="159.81" cy="126.12" r="56.02" xlink:href="#radial-gradient"/><radialGradient id="radial-gradient-52" cx="402.89" cy="290.03" r="80.55" xlink:href="#radial-gradient"/><radialGradient id="radial-gradient-53" cx="404.34" cy="287.81" r="88.63" xlink:href="#radial-gradient"/><radialGradient id="radial-gradient-54" cx="402.44" cy="290.04" r="80.28" xlink:href="#radial-gradient"/><radialGradient id="radial-gradient-55" cx="403.19" cy="290.6" r="79.89" xlink:href="#radial-gradient"/><radialGradient id="radial-gradient-56" cx="298.01" cy="297" r="114.21" xlink:href="#radial-gradient"/><radialGradient id="radial-gradient-57" cx="298.01" cy="333.3" r="91.26" xlink:href="#radial-gradient"/><radialGradient id="radial-gradient-58" cx="295.28" cy="298.98" r="104.79" xlink:href="#radial-gradient"/><radialGradient id="radial-gradient-59" cx="298.07" cy="308.37" r="104.38" xlink:href="#radial-gradient"/><radialGradient id="radial-gradient-60" cx="205.35" cy="324.53" r="139.28" gradientTransform="matrix(0.93, -0.36, -0.36, -0.93, 125.82, 683.29)" xlink:href="#radial-gradient"/><radialGradient id="radial-gradient-61" cx="174.11" cy="179.96" r="120.52" xlink:href="#radial-gradient"/><radialGradient id="radial-gradient-62" cx="176.03" cy="194.17" r="114.16" xlink:href="#radial-gradient"/><radialGradient id="radial-gradient-63" cx="173.3" cy="174.96" r="107.18" xlink:href="#radial-gradient"/><radialGradient id="radial-gradient-64" cx="-388.36" cy="813.2" r="116.04" gradientTransform="matrix(1, 0, 0, 1, 466.17, -708.66)" xlink:href="#radial-gradient"/><radialGradient id="radial-gradient-65" cx="2.91" cy="559.2" r="64.02" gradientTransform="matrix(1, 0, 0, 1, 148.48, -486.21)" xlink:href="#radial-gradient"/><radialGradient id="radial-gradient-66" cx="164.85" cy="19.89" r="559" xlink:href="#radial-gradient"/><radialGradient id="radial-gradient-67" cx="164.85" cy="19.89" r="559.01" xlink:href="#radial-gradient"/><radialGradient id="radial-gradient-68" cx="164.85" cy="19.89" r="559.01" xlink:href="#radial-gradient"/><radialGradient id="radial-gradient-69" cx="164.85" cy="19.89" r="559.01" xlink:href="#radial-gradient"/><radialGradient id="radial-gradient-70" cx="164.85" cy="19.89" r="559.01" xlink:href="#radial-gradient"/><radialGradient id="radial-gradient-71" cx="164.85" cy="19.88" r="559.01" xlink:href="#radial-gradient"/><radialGradient id="radial-gradient-72" cx="164.85" cy="19.88" r="559.02" xlink:href="#radial-gradient"/><radialGradient id="radial-gradient-73" cx="164.84" cy="19.89" r="559.02" xlink:href="#radial-gradient"/><radialGradient id="radial-gradient-74" cx="164.85" cy="19.89" r="559.01" xlink:href="#radial-gradient"/><radialGradient id="radial-gradient-75" cx="164.85" cy="19.89" r="559.01" xlink:href="#radial-gradient"/><radialGradient id="radial-gradient-76" cx="164.85" cy="19.89" r="559.01" xlink:href="#radial-gradient"/><radialGradient id="radial-gradient-77" cx="164.85" cy="19.89" r="559.01" xlink:href="#radial-gradient"/><radialGradient id="radial-gradient-78" cx="164.85" cy="19.89" r="559" xlink:href="#radial-gradient"/><radialGradient id="radial-gradient-79" cx="164.85" cy="19.89" r="559.01" xlink:href="#radial-gradient"/><radialGradient id="radial-gradient-80" cx="164.85" cy="19.89" r="558.99" xlink:href="#radial-gradient"/><radialGradient id="radial-gradient-81" cx="164.85" cy="19.89" r="559.01" xlink:href="#radial-gradient"/><radialGradient id="radial-gradient-82" cx="164.85" cy="19.89" r="559.01" xlink:href="#radial-gradient"/><radialGradient id="radial-gradient-83" cx="164.85" cy="19.89" r="559.01" xlink:href="#radial-gradient"/></defs><title>travel-planet-1</title><g class="cls-1"><g id="OBJECTS"><circle class="cls-2" cx="250" cy="250" r="211.93"/><circle class="cls-3" cx="250" cy="250" r="240.41"/><path class="cls-4" d="M87,255.5c-12.46-4.73-25,4.06-33.91-10.37-7.91-12.78-1.87-26.06,1.14-39.11A199,199,0,0,1,77.8,147.92c35.91-59.43,101.66-96.61,171.11-96.61A200,200,0,0,1,337.61,72c11.75,5.83,25.21,12.06,31.77,24a45.75,45.75,0,0,1,3,35.63,59.27,59.27,0,0,1-15.48,23.95A82.78,82.78,0,0,1,337,169.68c-10.23,5.22-22.52,9.83-26.44,20.62-3.14,8.64-.13,19.8-6.69,26.24-5.93,5.82-15.78,3.83-23.63,6.57a20.18,20.18,0,0,0-12.82,14.42c-1.38,6.23.3,12.9-1.43,19-3.36,11.94-17.62,16.87-30,17.79s-25.82,0-36,7c-9.57,6.64-14,19-23.76,25.36-10,6.51-23.47,5.18-34-.27s-18.85-14.39-26.9-23.15L97,263.42C94.06,260.27,91,257,87,255.5Z"/><path class="cls-5" d="M64.78,229.05A199,199,0,0,1,88.33,171C124.24,111.53,190,74.35,259.44,74.35a200,200,0,0,1,88.7,20.72c11.75,5.83,25.21,12.06,31.77,24,.27.49.48,1,.72,1.52a42.91,42.91,0,0,0-4.67-14c-6.56-11.95-20-18.18-31.77-24a200,200,0,0,0-88.7-20.72C186,61.85,120.29,99,84.39,158.45a199,199,0,0,0-23.56,58.09c-3,13.05-9,26.34-1.14,39.11l.09.13C59.29,246.93,62.73,237.93,64.78,229.05Z"/><path class="cls-6" d="M461.93,250C461.93,367,367,461.93,250,461.93c-101.28,0-189.34-74.42-209.59-173.28-3.07-15,11-28.61,26.13-29.4,13.56-.71,25.1,9.33,34.33,19.28a319.38,319.38,0,0,1,26.49,32.66c9.3,13.15,17.08,32.43,33.35,38,8,2.72,17.39,1.81,24-3.43,3.24-2.57,5.67-6,8-9.38C201.07,324.55,211.93,306,228,320.3c6.56,5.83,27.43,17.17,29.65,1.33.59-4.24-.27-8.65.84-12.78,2.35-8.7,12.67-12.9,21.67-12.45s17.51,4.18,26.4,5.69,19.36.08,24.56-7.28c4.1-5.79,3.76-13.65,1.85-20.48s-5.2-13.25-6.6-20.2c-1.77-8.84-.2-18.48,5.1-25.77s14.48-11.85,23.42-10.76c7.83,1,16.65,5.65,22.81.74a13.11,13.11,0,0,0,3.86-5.82c2.76-7.45,1.58-15.69,1.63-23.63s1.94-16.83,8.6-21.18c2.69-1.76,6.14-2.78,7.73-5.57,1.35-2.38.93-5.33.41-8a228.52,228.52,0,0,0-7.67-29.35c-1.73-5.18-2.23-13,3.14-14a8.69,8.69,0,0,1,4.33.65c24.33,8.44,36,33.54,45.47,56A212.21,212.21,0,0,1,461.93,250Z"/><path class="cls-7" d="M433.88,179a198.9,198.9,0,0,1,8.34,56.9c0,109.32-88.63,198-198,198-82.52,0-155.63-52.9-185.51-127.69,25.15,83.42,102.82,144.24,191.3,144.24,109.32,0,198-88.63,198-198A198.32,198.32,0,0,0,433.88,179Z"/><path class="cls-8" d="M135.05,92.15S159.58,59,226.88,53s76.79,10.21,58.33,27-43,47.15-86.56,43.51S121.78,109.93,135.05,92.15Z"/><path class="cls-9" d="M253.36,51.75c43,.17,47.54,14,31.85,28.27-18.46,16.8-43,47.15-86.56,43.51s-76.86-13.61-63.6-31.39c0,0,4.67-6.31,15.51-13.91-14.09,9.14-20.09,17.17-20.09,17.17-14.49,19.23,21.86,30,69.45,33.95s74.37-28.91,94.53-47.08C312.32,66.15,306.18,50.58,253.36,51.75Z"/><path class="cls-10" d="M268.76,52.54c1.47,4.75-1.57,10.46-7.92,16.23-18.46,16.8-43,47.15-86.56,43.51-14.76-1.23-28.33-3.19-39.32-5.93,8.25,9.1,33.49,14.66,63.69,17.18,43.58,3.64,68.1-26.71,86.56-43.51C298.77,67.68,297.22,55.68,268.76,52.54Z"/><path class="cls-11" d="M137.31,101.19S161.84,68,229.14,62.05c37.69-3.34,57.24.26,63.91,7,3.47-12-13.92-20.71-66.17-16.07-67.31,6-91.83,39.14-91.83,39.14-4,5.35-3.74,10-.3,14A15.35,15.35,0,0,1,137.31,101.19Z"/><path class="cls-12" d="M96.57,126c-11,7.29-32,25.51-26.69,45.68s41.52-.59,54-21.95S117.38,112.22,96.57,126Z"/><path class="cls-13" d="M118.87,122.36c8.64,3.79,12.41,14.61,5,27.34-12.46,21.36-48.64,42.12-54,21.95a25.62,25.62,0,0,1-.69-3.67,27.84,27.84,0,0,0,.76,9.61c5.83,22,45.36-.65,59-24C138.27,137.59,131.44,124.27,118.87,122.36Z"/><path class="cls-14" d="M123.85,149.7C113.12,168.1,84.8,186,73.74,177.76c13.2.29,34.46-14.78,43.43-30.15,7-11.93,4.11-22.21-3.37-26.58C125.83,122.29,132.62,134.68,123.85,149.7Z"/><path class="cls-15" d="M100.75,133.08c10.68-7.06,20.83-6.22,26.53-.87-2.81-10.95-16.3-15.76-30.71-6.24-11,7.29-32,25.51-26.69,45.68a10.68,10.68,0,0,0,4,6.22C69.39,158.05,89.88,140.26,100.75,133.08Z"/><path class="cls-16" d="M264,315.93c-5.43,3.59-15.77,12.56-13.15,22.49s20.45-.29,26.58-10.81S274.29,309.15,264,315.93Z"/><path class="cls-17" d="M264,315.93a13.92,13.92,0,0,1,7.11-2.49,13.36,13.36,0,0,0-7.94,2.94c-.77.57-1.63,1.25-2.53,2C261.89,317.42,263.05,316.58,264,315.93Z"/><path class="cls-18" d="M277.48,327.61c-6.13,10.52-24,20.74-26.58,10.81-1.05-4,0-7.81,2-11.19-3,4.56-4.84,10-3.5,15.67,2.77,11.71,21.55-.34,28-12.74a16,16,0,0,0,2-8.56A13.18,13.18,0,0,1,277.48,327.61Z"/><path class="cls-19" d="M264.56,321.9c6.4-4.23,12.44-2.72,14.58,1.57,1.88-8.27-6.25-13.4-15.1-7.55-5.43,3.59-15.77,12.56-13.15,22.49a6.24,6.24,0,0,0,.28.68C252.4,331.38,260.12,324.84,264.56,321.9Z"/><path class="cls-20" d="M278.56,317.39a15.08,15.08,0,0,1-1.52,3.55c-6,10.2-22.86,20.07-26.26,11.59a12.78,12.78,0,0,0,.13,5.89c2.63,9.93,20.45-.29,26.58-10.81C279.82,323.6,279.9,320,278.56,317.39Z"/><path class="cls-21" d="M76.24,291.27c-1.24-6.39-5.58-19.38-15.76-20.74s-7.54,19-.17,28.7S78.58,303.33,76.24,291.27Z"/><path class="cls-22" d="M76.24,291.27c-1.12-5.77-4.79-16.9-13-20,3.93,4.71,5.94,11.34,6.72,15.37,1.73,8.89-3.74,14.23-9.69,12.56l0,0C67.68,308.91,78.58,303.33,76.24,291.27Z"/><path class="cls-23" d="M81.24,293.34c-1.75-6.07-6.91-17.91-16.9-21.62,7.44,3.64,10.82,14,11.9,19.55C77.88,299.72,73,305,67.42,304,75.79,309.2,84.32,304.05,81.24,293.34Z"/><path class="cls-24" d="M65.59,296.82C60,289.49,57.15,276,60.5,270.53h0c-10.18-1.37-7.54,19-.17,28.7,4.57,6,10.48,6.13,13.77,2.51C71.3,301.77,68.22,300.29,65.59,296.82Z"/><path class="cls-25" d="M381.47,382.07c-5.43,3.59-15.77,12.56-13.15,22.49s20.45-.29,26.58-10.81S391.72,375.3,381.47,382.07Z"/><path class="cls-26" d="M394.9,393.75c-6.13,10.52-24,20.74-26.58,10.81a12.49,12.49,0,0,1-.36-2.22,15,15,0,0,0,.36,4.59c2.63,10.87,20.45-.32,26.58-11.83a14.61,14.61,0,0,0,1.92-7.93A12.76,12.76,0,0,1,394.9,393.75Z"/><path class="cls-27" d="M371.86,408.1c-2.63-9.93,7.71-18.9,13.15-22.49,4.21-2.79,8.25-3.05,11.14-1.71-2-4.48-8.16-6.14-14.68-1.83-5.43,3.59-15.77,12.56-13.15,22.49a4.89,4.89,0,0,0,3.64,3.78C371.93,408.25,371.88,408.19,371.86,408.1Z"/><path class="cls-28" d="M391.12,379.84c.54,2.36.11,5.26-1.72,8.4-4.41,7.57-14.86,14.94-21.36,14.8a12.51,12.51,0,0,0,.28,1.51c2.63,9.93,20.45-.29,26.58-10.81C398.93,386.86,396.29,381.1,391.12,379.84Z"/><path class="cls-29" d="M366.46,109.86c.69,6.48,3.89,19.79,13.92,22s9.15-18.29,2.64-28.58S365.16,97.64,366.46,109.86Z"/><path class="cls-30" d="M384.07,104.19a13.1,13.1,0,0,0-6-5.61A12.78,12.78,0,0,1,383,103.3c6.51,10.29,7.39,30.81-2.64,28.58s-13.23-15.55-13.92-22a14,14,0,0,1,1-7.19,16,16,0,0,0-1.82,9.39c.61,7.37,3.83,22.47,14.88,24.79S391,115.77,384.07,104.19Z"/><path class="cls-31" d="M381,124.69c-9.7-2.16-13-14.66-13.84-21.34a14.49,14.49,0,0,0-.68,6.51c.69,6.48,3.89,19.79,13.92,22,5.73,1.28,7.89-4.88,7.48-12.31C386.85,123.25,384.65,125.51,381,124.69Z"/><path class="cls-32" d="M383,103.3c-5.44-8.59-14.22-6.76-16.22,1.18,3.59-2.11,8.61-1,12.18,4.66,3.95,6.23,5.8,16.21,4.43,22.62C390.11,129.49,388.78,112.4,383,103.3Z"/><path class="cls-33" d="M75.27,332.21c-.13,8,2.84,16.64,6.09,22.51A179.57,179.57,0,0,0,104.59,387c27.69,31.08,55.38,37.86,71.2,24.86s18.65-70.64-1.7-88.72c-15.79-14-44-16.61-64-14.79-9.52.87-24.15,3.1-30.71,11.08C76.52,322.91,75.34,327.43,75.27,332.21Z"/><path class="cls-34" d="M179.68,323.69c-13.95-12.19-37-16-56.55-15.88,17.92.2,38.38,4.09,51,15.29,20.34,18.08,17.52,75.72,1.7,88.72S132.28,418,104.59,387a179.58,179.58,0,0,1-23.23-32.24c-3.16-5.7-6-14-6.07-21.82,0,.09,0,.17,0,.26-.13,8.28,3,17.28,6.43,23.38A186.65,186.65,0,0,0,106.24,390c29.25,32.28,58.51,39.32,75.22,25.83S201.17,342.47,179.68,323.69Z"/><path class="cls-35" d="M174.1,323.1a49.76,49.76,0,0,0-13.47-8.32c14.72,22.36,11.07,71-3.3,82.83-10.61,8.71-26.55,8.48-44.25-1.94,24.74,23.48,48.51,27.81,62.71,16.14C191.62,398.82,194.44,341.18,174.1,323.1Z"/><path class="cls-36" d="M113.11,379.14A179.58,179.58,0,0,1,89.88,346.9c-3.25-5.87-6.21-14.54-6.09-22.51a22,22,0,0,1,2.47-10.27,21.73,21.73,0,0,0-6.84,5.26c-2.9,3.52-4.08,8-4.15,12.82-.13,8,2.84,16.64,6.09,22.51A179.58,179.58,0,0,0,104.59,387c27.69,31.08,55.38,37.86,71.2,24.86a20.78,20.78,0,0,0,4.24-5C163.79,415.63,138.46,407.6,113.11,379.14Z"/><path class="cls-37" d="M337.13,98.34a31.86,31.86,0,0,0-13.61,7.19,118.55,118.55,0,0,0-17.38,19.65c-16,22.35-16.33,41.16-5.66,49.46s48.2,1.74,56.88-14c6.74-12.21,4.31-30.72.23-43.34-1.94-6-5.51-15.1-11.6-18.16A13.4,13.4,0,0,0,337.13,98.34Z"/><path class="cls-38" d="M359.59,124.88c2.62,11.72,3.26,25.82-2.24,35.77-8.69,15.73-46.21,22.29-56.88,14a18.1,18.1,0,0,1-6-8.47c.77,6.32,3.33,11.45,7.45,15,10.9,9.32,48.47,2.95,56.86-14.1C364.52,155.41,363,138.3,359.59,124.88Z"/><path class="cls-39" d="M308.49,164.22c-10.43-8.11-10.3-26.29,4.65-48-2.46,2.88-4.81,5.86-7,8.94-16,22.35-16.33,41.16-5.66,49.46s48.2,1.74,56.88-14a28.63,28.63,0,0,0,1.47-3.37C344.86,167.71,317.38,171.13,308.49,164.22Z"/><path class="cls-40" d="M357.58,117.31c-1.94-6-5.51-15.1-11.6-18.16a13.39,13.39,0,0,0-8.86-.81,31.86,31.86,0,0,0-13.61,7.19A108.78,108.78,0,0,0,313,116.42q2.24-2.26,4.62-4.39a31.86,31.86,0,0,1,13.61-7.19,13.39,13.39,0,0,1,8.86.81c6.09,3.06,9.66,12.16,11.6,18.16,4.08,12.62,6.52,31.13-.23,43.34l-.08.12a22.52,22.52,0,0,0,6-6.62C364.1,148.44,361.66,129.94,357.58,117.31Z"/><path class="cls-41" d="M425.82,154.46c13.64,10.28,20.72,47.28,21.73,57.14,3.3,32.18,7.45,61.82-5.94,71.53s-56.19,1.16-60.59-24-7.18-65.81,8-79.61c7.91-7.2,12.46-18.08,21-24.48C416,150.58,421.28,151,425.82,154.46Z"/><path class="cls-42" d="M450.67,246.38c.78,17.13-.78,30.75-9.06,36.76-13.4,9.71-56.19,1.16-60.59-24s-7.18-65.81,8-79.61c7.91-7.2,12.46-18.08,21-24.48a15.79,15.79,0,0,1,6.58-3.08c-3.06-.13-6.35.86-9.89,3.36-9.37,6.64-14.38,17.9-23.05,25.37-16.61,14.32-13.71,56.35-9,82.33s51.48,34.68,66.16,24.59C450.43,281,451.83,265.58,450.67,246.38Z"/><path class="cls-43" d="M393.91,240.95c-3.47-19.81-5.89-49.2.63-67.55a48.81,48.81,0,0,1-5.56,6.15c-15.16,13.8-12.37,54.46-8,79.61s47.2,33.7,60.59,24c4.5-3.26,7-8.81,8.22-15.9C433.16,272.82,397.88,263.65,393.91,240.95Z"/><path class="cls-44" d="M447.55,211.6c-1-9.86-8.09-46.86-21.73-57.14a11.4,11.4,0,0,0-10.15-2.24C429,163,435.93,199.2,436.93,209c3.3,32.18,7.45,61.82-5.94,71.53-5.16,3.74-14.69,4.76-24.7,3.18,13.36,4.63,28.34,4.54,35.32-.52C455,273.42,450.85,243.78,447.55,211.6Z"/><path class="cls-45" d="M220.77,409.89s-35.4,0-21.75,18.71,48.56,13.66,52.6.51S237,411.91,220.77,409.89Z"/><path class="cls-46" d="M251.63,429.11c-4,13.15-38.95,18.21-52.6-.51a14.65,14.65,0,0,1-3.06-6.8c-.35,2.77.48,6.18,3.06,10.38,13.66,22.29,48.56,16.27,52.6.6a15.18,15.18,0,0,0,.43-5.73A12.54,12.54,0,0,1,251.63,429.11Z"/><path class="cls-47" d="M220.77,409.89s-27.32,0-24.69,12.7c6.51-5.45,22.06-5.46,22.06-5.46,14.59,1.82,31.17,5.31,31.35,15.61a10.51,10.51,0,0,0,2.13-3.63C255.67,416,237,411.91,220.77,409.89Z"/><path class="cls-48" d="M201.66,419.39a18.59,18.59,0,0,1-2.47-4.42c-3.68,2.77-5,7-.17,13.63,13.66,18.71,48.56,13.66,52.6.51a10.4,10.4,0,0,0,.31-5.35C243,433.83,213.87,436.12,201.66,419.39Z"/><path class="cls-49" d="M166.61,137.25c-9.2,1.84-32.75,10.37-27.29,27.29s43.12-1.64,51.31-15.83S172.62,136,166.61,137.25Z"/><path class="cls-50" d="M180.63,136.75c7.81.76,14.78,3.67,10,12-7.12,12.34-36.5,28-47.65,20.7,11.58,8.8,42.9-2.88,51.45-14.94C204.12,140.82,191.45,137.25,180.63,136.75Z"/><path class="cls-51" d="M190.62,148.71c-7.94,13.77-43.55,31.55-50.65,17.14,13.46-.58,33.56-12.59,39.29-22.51,1.59-2.76,1.86-4.92,1.25-6.61C188.37,137.47,195.44,140.37,190.62,148.71Z"/><path class="cls-52" d="M143.42,168.64c-5.46-16.92,18.09-25.45,27.29-27.29,3.7-.74,15-1.59,21.28,1.16-2-7.44-20.45-6.25-25.39-5.26-9.2,1.84-32.75,10.37-27.29,27.29a8.79,8.79,0,0,0,4.75,5.4A9.36,9.36,0,0,1,143.42,168.64Z"/><path class="cls-53" d="M412.5,309.88S398.36,313.69,388,336s.54,39.17,23.93,15.23S439.7,298.46,412.5,309.88Z"/><path class="cls-54" d="M418.33,307.94c20.55-4.94,15.18,21.24-6.37,43.29-16.87,17.26-27.23,13.3-27.82,1.38-2.21,16.23,7.58,23.15,27.82,3.33C443.56,325,440.43,301.38,418.33,307.94Z"/><path class="cls-55" d="M394.91,339.67c10.34-22.3,24.48-26.11,24.48-26.11,4.38-1.84,7.93-2.62,10.73-2.56-2.24-4.12-7.91-5.18-17.61-1.11,0,0-14.14,3.81-24.48,26.11-6.83,14.73-4.39,27.08,4.78,26.88C389.93,358.16,390.38,349.43,394.91,339.67Z"/><path class="cls-56" d="M426.07,307.74c1.16,8.51-6,23.57-19.16,37.06-9.89,10.12-17.54,12.93-22.3,11.13,2.26,9.17,12.16,10.83,27.34-4.71C430.16,332.6,436.83,311,426.07,307.74Z"/><path class="cls-57" d="M288.11,334.85s-54.4,28.29-13.06,50,93.57-15.23,78.33-50S288.11,334.85,288.11,334.85Z"/><path class="cls-58" d="M275.06,384.9c-9.83-5.17-14.2-10.71-15.23-16.15-1.34,8,2.14,16.42,15.23,24.15,37,21.83,82.58-9,81-43.74C354.44,378.72,310.72,403.67,275.06,384.9Z"/><path class="cls-59" d="M298.63,342.11s30-20.85,50.61-14.11c-18.56-22.72-61.12,6.85-61.12,6.85s-54.4,28.29-13.06,50l.59.28C255,364.81,298.63,342.11,298.63,342.11Z"/><path class="cls-60" d="M353.39,334.85a29.27,29.27,0,0,0-4.11-6.79c10.39,33.71-39.69,67.53-79.64,46.51a41.13,41.13,0,0,1-10-7.07c.56,5.84,4.85,11.83,15.42,17.4C316.4,406.66,368.62,369.67,353.39,334.85Z"/><path class="cls-61" d="M173,267.89s-74.3-8.35-36.79-51.23S249.32,193,247.25,239.28,173,267.89,173,267.89Z"/><path class="cls-62" d="M224.87,201.6A38.08,38.08,0,0,1,228,218.8c-2.07,46.3-74.29,28.61-74.29,28.61s-15-1.7-28.1-7.44c1.77,22.8,47.31,27.93,47.31,27.93s72.21,17.68,74.29-28.61C248,222.7,238.74,209.62,224.87,201.6Z"/><path class="cls-63" d="M238.88,213.44a38.09,38.09,0,0,1,8.37,25.84c-2.07,46.3-74.29,28.61-74.29,28.61s-41.38-4.66-46.77-24.85C131.17,264.9,174,272,174,272s75.24,18.08,77.31-28.21C251.79,231.93,247,221.59,238.88,213.44Z"/><path class="cls-64" d="M140.08,225c30.73-35.13,87-28.57,105.25.4-11.86-35.77-75.67-47-109.16-8.71-13.07,14.94-12.55,25.68-6.34,33.34C128.62,243.37,131.17,235.15,140.08,225Z"/><ellipse class="cls-65" cx="130.03" cy="166.73" rx="41.36" ry="22.34" transform="translate(-81.24 175.23) rotate(-54.35)"/><ellipse class="cls-66" cx="180.25" cy="107.33" rx="22.82" ry="12.32" transform="translate(-29.51 104.01) rotate(-29.86)"/><g class="cls-67"><circle class="cls-68" cx="293.8" cy="259.43" r="8.05"/><circle class="cls-69" cx="317.14" cy="278.47" r="5.1"/><circle class="cls-70" cx="306.68" cy="219.19" r="15.56"/><circle class="cls-71" cx="208.24" cy="372.35" r="6.17"/><circle class="cls-72" cx="213.87" cy="343.65" r="6.97"/><circle class="cls-73" cx="238.28" cy="371.81" r="9.39"/><circle class="cls-74" cx="272.34" cy="418.22" r="4.29"/><circle class="cls-75" cx="287.63" cy="414.73" r="4.56"/><circle class="cls-76" cx="356.84" cy="280.08" r="6.71"/><circle class="cls-77" cx="372.93" cy="296.71" r="3.49"/><circle class="cls-78" cx="84.58" cy="226.7" r="6.97"/><circle class="cls-79" cx="88.87" cy="252.45" r="8.58"/><circle class="cls-80" cx="136.62" cy="281.96" r="4.29"/><circle class="cls-81" cx="162.1" cy="297.78" r="9.39"/><circle class="cls-82" cx="245.79" cy="143.82" r="5.63"/><circle class="cls-83" cx="229.69" cy="163.67" r="13.14"/><circle class="cls-84" cx="266.98" cy="147.3" r="6.44"/><circle class="cls-85" cx="306.94" cy="88.03" r="7.24"/></g></g></g></svg>