<svg xmlns="http://www.w3.org/2000/svg" xmlns:xlink="http://www.w3.org/1999/xlink" viewBox="0 0 500 500"><defs><style>.cls-1{isolation:isolate;}.cls-2{fill:url(#radial-gradient);}.cls-3{fill:url(#radial-gradient-2);}.cls-4{fill:url(#radial-gradient-3);}.cls-15,.cls-5,.cls-6{opacity:0.34;}.cls-15,.cls-16,.cls-17,.cls-5,.cls-6{mix-blend-mode:screen;}.cls-5{fill:url(#radial-gradient-4);}.cls-6{fill:url(#radial-gradient-5);}.cls-10,.cls-11,.cls-12,.cls-13,.cls-14,.cls-7,.cls-8,.cls-9{opacity:0.4;mix-blend-mode:multiply;}.cls-7{fill:url(#radial-gradient-6);}.cls-8{fill:url(#radial-gradient-7);}.cls-9{fill:url(#radial-gradient-8);}.cls-10{fill:url(#radial-gradient-9);}.cls-11{fill:url(#radial-gradient-10);}.cls-12{fill:url(#radial-gradient-11);}.cls-13{fill:url(#radial-gradient-12);}.cls-14{fill:url(#radial-gradient-13);}.cls-15{fill:url(#radial-gradient-14);}.cls-16{fill:url(#radial-gradient-15);}.cls-17{fill:url(#radial-gradient-16);}</style><radialGradient id="radial-gradient" cx="-159.42" cy="-247.33" r="187.71" gradientTransform="translate(2.68 409.42) rotate(90)" gradientUnits="userSpaceOnUse"><stop offset="0.08" stop-color="#ffe245"/><stop offset="1" stop-color="#61e327"/></radialGradient><radialGradient id="radial-gradient-2" cx="-159.42" cy="-247.33" r="187.71" xlink:href="#radial-gradient"/><radialGradient id="radial-gradient-3" cx="-159.42" cy="-247.33" r="240.42" gradientTransform="translate(2.68 409.42) rotate(90)" gradientUnits="userSpaceOnUse"><stop offset="0" stop-color="#ffe245"/><stop offset="0.37" stop-color="#fee245" stop-opacity="0.99"/><stop offset="0.51" stop-color="#fae244" stop-opacity="0.97"/><stop offset="0.6" stop-color="#f2e243" stop-opacity="0.92"/><stop offset="0.68" stop-color="#e8e241" stop-opacity="0.85"/><stop offset="0.74" stop-color="#dae23e" stop-opacity="0.77"/><stop offset="0.8" stop-color="#c9e23b" stop-opacity="0.66"/><stop offset="0.85" stop-color="#b5e237" stop-opacity="0.53"/><stop offset="0.9" stop-color="#9ee333" stop-opacity="0.39"/><stop offset="0.95" stop-color="#83e32d" stop-opacity="0.22"/><stop offset="0.99" stop-color="#67e328" stop-opacity="0.04"/><stop offset="1" stop-color="#61e327" stop-opacity="0"/></radialGradient><radialGradient id="radial-gradient-4" cx="-193.42" cy="-291.77" r="136.09" gradientTransform="translate(33.99 449.8) rotate(80.04)" xlink:href="#radial-gradient"/><radialGradient id="radial-gradient-5" cx="-214.48" cy="-305.81" r="99.75" gradientTransform="translate(33.99 449.8) rotate(80.04)" xlink:href="#radial-gradient"/><radialGradient id="radial-gradient-6" cx="-68.55" cy="-133.03" r="83.4" gradientTransform="translate(33.99 449.8) rotate(80.04)" xlink:href="#radial-gradient"/><radialGradient id="radial-gradient-7" cx="-198.65" cy="-384.04" r="97.15" gradientTransform="translate(33.99 449.8) rotate(80.04)" xlink:href="#radial-gradient"/><radialGradient id="radial-gradient-8" cx="-150.58" cy="-200.54" r="157.12" gradientTransform="translate(33.99 449.8) rotate(80.04)" xlink:href="#radial-gradient"/><radialGradient id="radial-gradient-9" cx="-174.48" cy="-283.77" r="149.83" gradientTransform="translate(33.99 449.8) rotate(80.04)" xlink:href="#radial-gradient"/><radialGradient id="radial-gradient-10" cx="-246.09" cy="-90.76" r="6.91" gradientTransform="translate(33.99 449.8) rotate(80.04)" xlink:href="#radial-gradient"/><radialGradient id="radial-gradient-11" cx="-26.86" cy="-378.88" r="13.09" gradientTransform="translate(33.99 449.8) rotate(80.04)" xlink:href="#radial-gradient"/><radialGradient id="radial-gradient-12" cx="-385.85" cy="-684.77" r="689.7" gradientTransform="translate(33.99 449.8) rotate(80.04)" xlink:href="#radial-gradient"/><radialGradient id="radial-gradient-13" cx="-356.56" cy="-639.82" r="640.36" gradientTransform="translate(33.99 449.8) rotate(80.04)" xlink:href="#radial-gradient"/><radialGradient id="radial-gradient-14" cx="-373.27" cy="-595.12" r="602.84" gradientTransform="translate(33.99 449.8) rotate(80.04)" xlink:href="#radial-gradient"/><radialGradient id="radial-gradient-15" cx="-218.28" cy="201.2" r="102.77" gradientTransform="translate(565.17 291.9) rotate(90)" xlink:href="#radial-gradient"/><radialGradient id="radial-gradient-16" cx="-109.03" cy="-66.15" r="56.7" gradientTransform="translate(332.63 238.11) rotate(90)" xlink:href="#radial-gradient"/></defs><title>travel-planet-3</title><g class="cls-1"><g id="OBJECTS"><circle class="cls-2" cx="250" cy="250" r="187.7" transform="translate(-39.48 47.02) rotate(-9.96)"/><circle class="cls-3" cx="250" cy="250" r="187.7" transform="translate(-39.48 47.02) rotate(-9.96)"/><circle class="cls-4" cx="250" cy="250" r="240.42" transform="translate(-39.48 47.02) rotate(-9.96)"/><path class="cls-5" d="M423.6,219.51c4.37,24.87,3.29,50-5,73.95-6.41,18.42-21,29.83-37.71,38.65-9.25,4.88-20.24,7.86-30.18,4.6-7.79-2.55-13.88-8.53-19.65-14.35-15.06-15.16-30-30.47-43.4-47.13-11.25-14-21.92-29.44-37.83-37.79-14.83-7.78-32.26-8.35-48.49-12.49a111,111,0,0,1-32.42-14.11c-5.75-3.69-11.27-8-14.79-13.9-4.74-7.9-5.3-17.58-5-26.79.52-16.14,1.62-31.31,10.62-45a109.68,109.68,0,0,1,32.85-31.94c18.86-12,42.51-20.32,64.9-19.39C339.19,77.25,409.46,139,423.6,219.51Z"/><path class="cls-6" d="M397.55,193.49c3.2,18.23,2.41,36.65-3.69,54.2-4.7,13.5-15.38,21.87-27.64,28.33-6.78,3.58-14.83,5.76-22.12,3.37-5.71-1.87-10.17-6.25-14.41-10.52-11-11.11-22-22.34-31.81-34.55-8.24-10.27-16.07-21.58-27.73-27.7-10.87-5.7-23.65-6.12-35.54-9.16a81.4,81.4,0,0,1-23.77-10.34c-4.21-2.7-8.26-5.9-10.84-10.19-3.48-5.79-3.88-12.88-3.66-19.63.38-11.83,1.19-23,7.78-33a80.39,80.39,0,0,1,24.08-23.41C242,92.17,259.36,86,275.77,86.73,335.68,89.21,387.19,134.48,397.55,193.49Z"/><path class="cls-7" d="M67.44,293.5q.69,2.9,1.47,5.77c.26.95.5,1.9.77,2.83q1,3.65,2.24,7.22c.44,1.31.91,2.6,1.37,3.9s.84,2.34,1.28,3.5c.57,1.51,1.16,3,1.77,4.51.31.75.63,1.5,1,2.24,1.52,3.58,3.13,7.11,4.86,10.57A151.55,151.55,0,0,0,113.91,362c2.06,1.35,5.22,2.47,6.62.44,1.62-2.35-.89-7,1.85-7.76a3.41,3.41,0,0,1,2.71.83A43.74,43.74,0,0,1,143,381.71a54.12,54.12,0,0,0-13.78-3.9l12,16.62c1.77,2.44,3.35,6.3.88,8a2.91,2.91,0,0,1-.9.41,187.91,187.91,0,0,0,79.76,32.58l.19,0a185.91,185.91,0,0,0,20.29,2,118.16,118.16,0,0,0-13.48-4c-11.39-2.73-23.11-4.61-33.81-9.33a8.88,8.88,0,0,1,1.14-6.4c1.7-2.91,6-3.55,10.14-2,4.18,1.27,8.37,4.76,14.36,5.69a12.05,12.05,0,0,0,9-2.27,9.56,9.56,0,0,0,3.12-4,8.19,8.19,0,0,0,.17-5.3c-1.1-3.27-3.05-5.06-4.67-6.77a49.35,49.35,0,0,0-5-4.27c-3.21-2.38-5.81-4.14-7.66-5.46l-2.89-2L192.61,379c-13.41-14.33-32.54-24-47.43-37.4-9.48-8.56-17.48-19-28.38-25.61-1.56-1-3.82-1.72-5-.33-.91,1.08-.47,2.7,0,4l6.08,16.55c-4.54,2.19-9.57-1.65-13.07-5.27a342.46,342.46,0,0,1-39.92-49.88c.08.47.13.94.21,1.42.5,2.83,1.08,5.62,1.69,8.39C67,291.74,67.23,292.62,67.44,293.5ZM176,394.2,192.9,402c3.31,1.53,7.72,2.87,10.19.18,2.21-2.4,1.11-6.27-.39-9.17-.07-.14-.16-.27-.23-.41l5.74,4.07,10.68,7a44.7,44.7,0,0,1,4.61,3.57c1.48,1.35,3,2.94,3.48,4.29s.13,2.54-1.28,3.79a7.31,7.31,0,0,1-5.41,1.64c-4.36-.3-8.77-3.32-13.87-4.62a15,15,0,0,0-7.71-.18,8.77,8.77,0,0,0-5.61,4.42,10.41,10.41,0,0,0-.89,6.77c-10.59-5.12-20.09-13.87-22.65-25.31a4.56,4.56,0,0,1,.29-3.62C171.15,392.5,174,393.26,176,394.2Z"/><path class="cls-8" d="M305.76,70.79a16.31,16.31,0,0,0,2,6.32c14.77,27.49,40.62,46.93,61.92,69.74,2.55,2.73,4.7,7.82,1.35,9.46a5.92,5.92,0,0,1-3.79.09c-6.16-1.27-12.38-3.48-18.74-3.32,1,9.73,15.74,18.26,22.52,24.35,8.3,7.46,16.53,15.81,19.44,26.93.94,3.59,1.26,7.47,0,11-1.14,3.18-3.49,5.77-4.93,8.83a16.91,16.91,0,0,0-1,2.88c-1.44,1.3-3,2.64-4.75,4.14-3.07,2.72-6.61,6.46-7.7,11.51s0,10,1.61,14a53.18,53.18,0,0,0,5.73,10.3c3.81,5.5,6.7,8.92,6.7,8.92s2.91,3.4,7.72,8a144.12,144.12,0,0,0,19,15.4,137.78,137.78,0,0,0,15.61,9.09c.34-1,.64-2.08,1-3.12a168.79,168.79,0,0,1-13.89-9.66A154,154,0,0,1,398,279.78c-4.39-4.68-7-8-7-8s-2.89-3.15-6.8-8.24a49.26,49.26,0,0,1-5.63-8.94c-1.61-3.4-2.67-7.3-2.05-11s3-7,5.75-9.84l1.62-1.66a26.31,26.31,0,0,0,3.19,12c3.25,6.1,8.3,11,13.26,15.84,10.67,10.36,21.4,20.73,33.09,29.89a187.33,187.33,0,0,0,3.91-28.74c-10.21-8.33-20-17.22-27.85-27.8-1.47-2-2.91-4.15-3.08-6.61s1.42-5.21,3.87-5.44c1.56-.14,3.59.52,4.37-.83a2.83,2.83,0,0,0,0-2.23c-2.36-7.58-7.91-13.93-9.75-21.65-.33-1.39-.48-3,.49-4.07s2.76-1,4.22-.67c7.57,1.77,13.25,7.85,18.45,13.63l5.65,6.28c-.13-.61-.24-1.22-.37-1.83-.24-1.08-.48-2.17-.73-3.24q-.76-3.22-1.63-6.39c-.31-1.12-.63-2.23-1-3.34q-.81-2.77-1.7-5.5-.53-1.62-1.09-3.22-.92-2.64-1.91-5.23-.72-1.88-1.47-3.74-1.1-2.7-2.27-5.36c-.48-1.08-1-2.16-1.47-3.23-.68-1.46-1.39-2.91-2.11-4.36-.62-1.25-1.25-2.5-1.9-3.73q-1.39-2.63-2.85-5.22c-.63-1.11-1.28-2.2-1.93-3.3s-1.43-2.36-2.16-3.53-1.49-2.39-2.27-3.56q-1.69-2.58-3.47-5.09c-.81-1.14-1.63-2.26-2.46-3.38q-1-1.4-2.09-2.77c-.88-1.15-1.76-2.29-2.67-3.42s-1.71-2.06-2.57-3.08q-2.22-2.63-4.53-5.18l-1.86-2c-1.11-1.18-2.22-2.36-3.36-3.52l-.46-.46q-3.71-3.74-7.62-7.25l-1.45-1.3c-1.34-1.18-2.69-2.36-4.06-3.5l-.15-.12q-4.4-3.66-9-7l-.83-.61A188.45,188.45,0,0,0,305.76,70.79Zm47.63,34.33c12.88,2,23.6,11.37,30.66,21.91,3.76,5.63,6.76,11.3,10.85,16.75,4.3,5.74,8.52,12,9,19.34a3.72,3.72,0,0,1-.29,2c-.88,1.6-3.27,1.29-4.94.54-10.4-4.72-14.7-16.89-21.81-25.83-8.29-10.41-21.29-17.32-26.29-29.66-.71-1.76-.93-4.31.82-5A3.73,3.73,0,0,1,353.39,105.12Z"/><path class="cls-9" d="M304.82,425.86c.33,1.09.63,2.21,1,3.32q8.18-2.54,16-5.76,1.6-.66,3.18-1.35c1.23-.53,2.47-1.06,3.68-1.62,0-2.28-.12-4.58-.27-6.83l6.77,3.68c2.41-1.23,4.79-2.52,7.13-3.84l.68-.37q3.63-2.07,7.15-4.3l.31-.19q7.34-4.66,14.18-9.95h0a378.5,378.5,0,0,0-41.08-29c-5.7-4.52-14.69-11-24.12-17-8-5.1-16.16-9.85-22.47-13.24a96.31,96.31,0,0,0-11-5.13s-1.16-.42-3.23-1a53.9,53.9,0,0,0-8.85-1.79,10.89,10.89,0,0,0-4,.1,5.38,5.38,0,0,0-3.94,3.34,6.34,6.34,0,0,0-.29,2.79c.13,1.1.22,1.32.32,1.92l.62,3.19,1.27,6.52a6.19,6.19,0,0,1,.07,1.2.89.89,0,0,1-.09.42.83.83,0,0,1-.82.41c-1.39-.12-3.59-1.47-5.51-2.54s-3.79-2.34-5.53-3.6a70.35,70.35,0,0,1-8.9-7.71c-4.85-5-7.43-8.93-7.86-8.66-.08,0,0,.32.13.76-1.56-4.52-8.17-9.95-11.24-13.69l-12-14.6-24-29.2c-14.07-17.14-30.39-32.6-40.29-52.67-3.67-7.45-8.93-19.17-7.3-27.73,1.25-6.57,8.81-10.51,13.73-14.29a39.08,39.08,0,0,0,7.63-7.42,27.52,27.52,0,0,0,2.34-3.32,35.8,35.8,0,0,0,1.9-3.58,48.67,48.67,0,0,0,3.37-10,58.78,58.78,0,0,0-2-31,95.54,95.54,0,0,0-12.24-23.72c-.77.56-1.52,1.15-2.28,1.73,3.73,6.53,7.81,14.67,10.16,23.32a54.82,54.82,0,0,1,.6,28.3,43.28,43.28,0,0,1-3.26,8.6,30.85,30.85,0,0,1-1.73,3,22.77,22.77,0,0,1-1.88,2.87,33.28,33.28,0,0,1-6.26,6.56c-1.79,1.53-4.11,3.12-6.42,5.21a85,85,0,0,0,5.3-11.94c4.29-13.13,1.68-27.74-4.16-40.25a100.44,100.44,0,0,0-7.41-13q-1.91,1.78-3.76,3.61c-1.58,1.56-3.16,3.13-4.68,4.74a97.42,97.42,0,0,1,9.1,15.76c2,4.3,3.61,9.23,1.95,13.65a3,3,0,0,1-2,2.13,2.89,2.89,0,0,1-1.43-.16c-3.64-1.17-5.89-4.69-7.85-8l-8.22-13.78h0q-2.22,2.7-4.35,5.47c-1.32,1.74-2.63,3.49-3.89,5.27l-.34.46a55.19,55.19,0,0,1,3.31,7c4.31,11.41,2.54,24.11.7,36.17-.48,3.15-1.13,6.61-3.63,8.6-4.66,3.71-11.62-.35-17.42,1-5.5,1.26-8.79,7.37-8.69,13s2.79,10.89,5.56,15.81c23,40.76,55.68,75.05,89,107.93-4.13-3.36-8.37-6.78-12.62-10.19-13.06-10.47-25.64-21.33-34.34-30.24s-14.25-15.13-14.25-15.13-5.79-6-13.86-15.5a237,237,0,0,1-26.08-36.92c-.37,2.62-.68,5.25-.94,7.9a241.57,241.57,0,0,0,22.44,32.8c8,9.88,13.69,16.08,13.69,16.08s5.68,6.24,14.84,15,22.25,19.56,35.69,29.59c12.27,9.19,23.37,19.44,36.1,27.75a490.78,490.78,0,0,1,68.25,54.31c3.52,3.32,7.22,6.87,11.94,7.92s10.64-1.72,11-6.54c.13-1.81-.47-3.84.57-5.32,1.17-1.66,3.63-1.57,5.6-1.09C295.24,404.79,301.48,414.79,304.82,425.86ZM173.21,310.81c-5.07-1.14-9.38-4.39-13.29-7.8-5.89-5.13-11.28-10.81-16.66-16.48-9.55-10.06-19.1-20.14-27.86-30.9-5.07-6.23-10-13.1-11-21.08a3.29,3.29,0,0,1,.21-2c.74-1.33,2.68-1.16,4.13-.71,9.94,3,18.32,10.28,24.73,18.28,2.88,3.59,4.47,7.6,7.55,11.06,7,7.93,12.42,17.28,19.47,25a171.73,171.73,0,0,1,15,19.15c1.09,1.62,2,4.12.42,5.23A3.49,3.49,0,0,1,173.21,310.81Zm42.37,37.93c-5,.19-9.37-3-13.3-6.09-5-3.87-9.94-7.82-13.7-12.86a18.58,18.58,0,0,1-4-8.9,3.51,3.51,0,0,1,.25-2c.94-1.73,3.56-1.22,5.29-.27,12,6.57,18.36,17.29,26,27.84.47.64.88,1.65.24,2.12A1.45,1.45,0,0,1,215.58,348.74Zm37,15.54c-6.33-2.08-10.91-7.47-15.14-12.63l-1.5-1.83c1.09.85,2.22,1.69,3.4,2.49,1,.67,2,1.32,3,1.95a11.53,11.53,0,0,0,4,1.63,5.34,5.34,0,0,0,5.34-2,6,6,0,0,0,1.08-2.82,10.6,10.6,0,0,0,0-2.28c-.3-2.61-.64-4.64-.94-6.89l-.46-3.22c-.06-.45-.18-1.26-.16-1.19a.48.48,0,0,1,0-.19c.31-.18-.16-.22,1.77,0a49.25,49.25,0,0,1,7.77,1.94l2.89,1.05a94.59,94.59,0,0,1,10.53,4.38l2.28,1.12c-2.39-.46-4.74-.26-6.27,1.51-2.13,2.47-1.07,6.26-1.69,9.47C267.34,363.41,258.89,366.36,252.56,364.28ZM287,375.66c-1.13-1.34-2.32-3.11-1.59-4.69a3.78,3.78,0,0,1,2.66-1.8c3.7-.9,7.54.51,11,2.07,9.5,4.25,18,9.93,26.64,15.59,3.25,2.12,6.59,2.7,10,4.4,3.92,2,17.87,14.28,7,15.39l-.6,0c-6.72.41-11.52-7.2-17.66-8.91a2.42,2.42,0,0,0-1.82,0c-1,.54-.87,2-.33,3s1.41,1.79,1.65,2.87c.47,2.15-1.94,4-4.14,3.92s-4.06-1.58-5.73-3C304,395.92,295.46,385.77,287,375.66Z"/><path class="cls-10" d="M171,79.74c-1.32.61-2.62,1.26-3.92,1.9s-2.65,1.29-4,2-2.47,1.34-3.69,2-2.63,1.42-3.91,2.17c4.16,12.5,10,24.18,19,33.76,12.36,13.19,29.77,21.47,42.75,33.64.93,1.94,1.34,4,0,5.89-2,3.35-6.66,5.32-11.39,6.44s-10.16,1.26-15.75,1.31-11.63,0-17.66,1.55-12.2,4.26-16.27,9.83a19.26,19.26,0,0,0-3.57,9.42,28.69,28.69,0,0,0,.84,9.66c1.56,6.12,4.1,11.39,6.28,16.59,4.48,10.38,9.59,20,15.59,27.24a125.08,125.08,0,0,0,15.79,15.66l6.4,5.32,6.59,5.06c4.23,3.17,10.35,7.61,17.92,12.58s16.65,10.41,26.5,15.89,20.52,11,31.1,16.56c13.19,6.87,26.17,14.07,37.53,21.15,19.76,18,37.73,38.36,60.49,52.25h0a188.64,188.64,0,0,0,14.17-14.68c-2-1.79-3.81-3.75-5.6-5.68l-57.53-62c14.57-.87,27.43,8.6,39.66,16.57,13.8,9,28.9,16.66,44.74,20.88a187.88,187.88,0,0,0,11-22.47h0a42.15,42.15,0,0,1-5.76-1.14C371.22,307,335.22,270,303.71,232.9a31.51,31.51,0,0,1-1.72-9.15c0-3.07-.1-7.89,2.48-8.26,1.4-.35,3.62-.07,5.54,0l3,.4,3.05.63c8.21,1.92,16.51,6,25.51,8.94a55.59,55.59,0,0,0,14.09,2.93,23.15,23.15,0,0,0,3.64,0,24.68,24.68,0,0,0,3.67-.31,14.16,14.16,0,0,0,7.32-3.22,11.12,11.12,0,0,0,3.42-7.46,25,25,0,0,0-.5-6.89,41.18,41.18,0,0,0-4.31-11.21c-3.54-6.35-6.84-11-9.13-14.45s-3.75-5.28-3.75-5.28-1.41-1.89-4.08-5.07a105,105,0,0,0-12.1-12.32C329,152.75,312.5,144.3,301,130c-6-6.9-11.61-14.31-17-21.1-2-2.58-3.89-5.08-5.72-7.54a163.67,163.67,0,0,1-16.56-29.27,35.75,35.75,0,0,1-2.88-9.61h0q-5-.23-10.11-.2h-.15c-3.17,0-6.36.14-9.55.33l-.92,0c-2.91.18-5.83.46-8.76.78-.55.06-1.09.1-1.64.16q-5,.6-10.11,1.48h-.07c-3,.53-6,1.14-8.95,1.81-1,.23-2,.49-3,.73-1.93.47-3.86.94-5.76,1.47-1.2.33-2.38.69-3.57,1-1.66.49-3.32,1-5,1.54-1.28.42-2.54.86-3.8,1.3q-2.27.8-4.51,1.65-2,.75-3.91,1.54c-1.4.57-2.8,1.17-4.18,1.77S172.26,79.13,171,79.74ZM299.3,320.2c-5.72-3.39-11.58-6.75-17.5-10-10.47-5.85-21-11.59-30.64-17.21s-18.48-11.14-25.83-16.17-13.29-9.49-17.4-12.67l-6.4-5.07c-20.05-16.15-36.19-36.06-43.26-61-1.5-5.29-1.44-10.93,1.64-15.22s8.21-7,13.58-8.49,11.07-1.7,16.72-1.92,11.21-.53,16.41-1.93a32.12,32.12,0,0,0,7.29-2.91,14.17,14.17,0,0,0,5.54-5.28,7.38,7.38,0,0,0,1-3.95,55.75,55.75,0,0,1,7.71,10.15c2.31,4,4.09,8.67,2.82,13.08-2.51,8.72-14.09,10.17-23.15,9.79s-20.57.65-23.55,9.22c-1.12,3.23-.62,6.78.18,10.1,5.09,21.09,21.17,37.66,37.82,51.57C246.9,282.87,274.19,300.19,299.3,320.2Zm.19-102a29.59,29.59,0,0,0,0,5.68,32.09,32.09,0,0,0,.69,4.19c-2.33-4-3.42-8.74-.39-11.4A11.14,11.14,0,0,0,299.49,218.23Zm-20.18,24.52c8.3,9.81,23.53,21.71,27,34.25a3,3,0,0,1,.06,1.95c-.71,1.73-3.31,1.08-4.92.13-25-14.63-49.93-31.68-64.54-56.67a13.92,13.92,0,0,1-2.34-6.38c-.07-2.29,1.21-4.78,3.43-5.36,1.63-.42,3.32.24,4.85,1C257.51,218.46,269,230.6,279.31,242.75Zm56.63-76.05a100.24,100.24,0,0,1,11.14,11.86c2.48,3.08,3.8,4.94,3.8,4.94s1.4,1.78,3.73,5,5.75,8,9.11,13.71a35.74,35.74,0,0,1,4,9.53c.79,3.45,1,7.5-1,9.24-2,2.09-6.61,2.53-10.78,2.44a51.43,51.43,0,0,1-13-2.31c-5.77-1.7-11.52-3.93-17.31-5.76l24.2.45c1.95,0,4.06,0,5.6-1.17,3-2.29,1.8-7,.24-10.36-7.87-17.08-19-32.18-31.14-46.72C328.77,160.74,332.7,163.75,335.94,166.7ZM211.25,86.88a256.63,256.63,0,0,1,76.8,64.38l-1.37-.94a25.94,25.94,0,0,1,10.92,21.83,7.8,7.8,0,0,1-1.57,5c-1.75,1.94-4.74,2-7.33,1.68-14.51-1.89-26.65-12-36-23.2s-17-24-27.32-34.31c-9.16-9.12-20.95-17.12-24.07-29.66a6.36,6.36,0,0,1,.2-4.7C203.29,83.85,208.07,85.14,211.25,86.88Z"/><path class="cls-11" d="M90.22,194.28c.09-.4-6.93-2.45-17.72-5.35-.26.75-.52,1.49-.77,2.24C82.8,193.38,90.13,194.69,90.22,194.28Z"/><path class="cls-12" d="M391.81,372.89l0,0a188.84,188.84,0,0,0,21.35-30.17l-.11,0A188.67,188.67,0,0,1,391.81,372.89Z"/><path class="cls-13" d="M411.33,344.39c-7.82-2-17.49,5.81-24.48,8.7-11.45,4.73-23.61,7.92-36.05,8.17-20.08.41-41.08-7.74-52.52-24.26-5-7.29-8-15.78-11.87-23.77a121.12,121.12,0,0,0-70.62-61.93c-19.9-6.51-42-8.05-59.11-20.15-23.25-16.47-30.55-48.88-25.07-76.84,5.24-26.75,21.67-46.08,32.17-70.1-16.23,2.32-36.11,22.54-47.33,33.92A187.61,187.61,0,0,0,65.13,282.47c17.93,102.1,115.24,170.33,217.34,152.4a187.84,187.84,0,0,0,76.43-31.94C375.91,390.79,407.22,366,411.33,344.39Z"/><path class="cls-14" d="M282.47,434.87a187.85,187.85,0,0,0,76.43-31.94c9.12-6.51,22.33-16.66,33.27-28,.07-.31.19-.63.25-.94-7.82-2-17.49,5.81-24.48,8.7-11.45,4.73-23.61,7.92-36.05,8.17-20.08.41-41.08-7.74-52.52-24.25-5-7.29-8-15.78-11.87-23.77a121.12,121.12,0,0,0-70.62-61.93c-19.9-6.51-42-8.05-59.11-20.15-23.25-16.47-30.55-48.88-25.07-76.84,5.24-26.75,21.67-46.08,32.17-70.1-16.23,2.32-36.11,22.54-47.33,33.92A188.4,188.4,0,0,0,83.11,164.2c-.38.74-.78,1.46-1.15,2.2A188.12,188.12,0,0,0,65.13,282.47C83.06,384.57,180.37,452.8,282.47,434.87Z"/><path class="cls-15" d="M283.06,425.24a179.6,179.6,0,0,1-158.87-303.1c7.36-7.46,18.6-18.88,29.94-26.05-5.3,4.8-10.1,9.66-13.87,13.49a179.64,179.64,0,0,0,232,272.53l2.26-1.63c-6.64,5.63-13.17,10.52-18.33,14.2A179.76,179.76,0,0,1,283.06,425.24Z"/><ellipse class="cls-16" cx="308.86" cy="119.91" rx="19.78" ry="36.63" transform="translate(66.94 346.29) rotate(-64.32)"/><ellipse class="cls-17" cx="368.38" cy="154.62" rx="10.91" ry="20.21" transform="translate(-13.56 271.8) rotate(-39.83)"/></g></g></svg>