<svg xmlns="http://www.w3.org/2000/svg" xmlns:xlink="http://www.w3.org/1999/xlink" viewBox="0 0 500 500"><defs><style>.cls-1{isolation:isolate;}.cls-13,.cls-17,.cls-18,.cls-2,.cls-23,.cls-26,.cls-30,.cls-34,.cls-38,.cls-4,.cls-42,.cls-46,.cls-5,.cls-50,.cls-54,.cls-58,.cls-63,.cls-65,.cls-66,.cls-9{mix-blend-mode:screen;}.cls-2{fill:url(#radial-gradient);}.cls-3{fill:url(#radial-gradient-2);}.cls-4,.cls-5{opacity:0.25;}.cls-4{fill:url(#radial-gradient-3);}.cls-5{fill:url(#radial-gradient-4);}.cls-10,.cls-11,.cls-12,.cls-14,.cls-15,.cls-16,.cls-19,.cls-20,.cls-21,.cls-22,.cls-24,.cls-25,.cls-27,.cls-28,.cls-29,.cls-31,.cls-32,.cls-33,.cls-35,.cls-36,.cls-37,.cls-39,.cls-40,.cls-41,.cls-43,.cls-44,.cls-45,.cls-47,.cls-48,.cls-49,.cls-51,.cls-52,.cls-53,.cls-55,.cls-56,.cls-57,.cls-59,.cls-6,.cls-60,.cls-61,.cls-62,.cls-64,.cls-67,.cls-7,.cls-8{mix-blend-mode:multiply;}.cls-6{fill:url(#radial-gradient-5);}.cls-7{fill:url(#radial-gradient-6);}.cls-8{fill:url(#radial-gradient-7);}.cls-9{fill:url(#radial-gradient-8);}.cls-10,.cls-14,.cls-19,.cls-22,.cls-27,.cls-31,.cls-35,.cls-39,.cls-43,.cls-47,.cls-51,.cls-55,.cls-59,.cls-62,.cls-65,.cls-66{opacity:0.45;}.cls-10{fill:url(#radial-gradient-9);}.cls-11{fill:url(#radial-gradient-10);}.cls-12{fill:url(#radial-gradient-11);}.cls-13{fill:url(#radial-gradient-12);}.cls-14{fill:url(#radial-gradient-13);}.cls-15{fill:url(#radial-gradient-14);}.cls-16{fill:url(#radial-gradient-15);}.cls-17{fill:url(#radial-gradient-16);}.cls-18{fill:url(#radial-gradient-17);}.cls-19{fill:url(#radial-gradient-18);}.cls-20{fill:url(#radial-gradient-19);}.cls-21{fill:url(#radial-gradient-20);}.cls-22{fill:url(#radial-gradient-21);}.cls-23{fill:url(#radial-gradient-22);}.cls-24{fill:url(#radial-gradient-23);}.cls-25{fill:url(#radial-gradient-24);}.cls-26{fill:url(#radial-gradient-25);}.cls-27{fill:url(#radial-gradient-26);}.cls-28{fill:url(#radial-gradient-27);}.cls-29{fill:url(#radial-gradient-28);}.cls-30{fill:url(#radial-gradient-29);}.cls-31{fill:url(#radial-gradient-30);}.cls-32{fill:url(#radial-gradient-31);}.cls-33{fill:url(#radial-gradient-32);}.cls-34{fill:url(#radial-gradient-33);}.cls-35{fill:url(#radial-gradient-34);}.cls-36{fill:url(#radial-gradient-35);}.cls-37{fill:url(#radial-gradient-36);}.cls-38{fill:url(#radial-gradient-37);}.cls-39{fill:url(#radial-gradient-38);}.cls-40{fill:url(#radial-gradient-39);}.cls-41{fill:url(#radial-gradient-40);}.cls-42{fill:url(#radial-gradient-41);}.cls-43{fill:url(#radial-gradient-42);}.cls-44{fill:url(#radial-gradient-43);}.cls-45{fill:url(#radial-gradient-44);}.cls-46{fill:url(#radial-gradient-45);}.cls-47{fill:url(#radial-gradient-46);}.cls-48{fill:url(#radial-gradient-47);}.cls-49{fill:url(#radial-gradient-48);}.cls-50{fill:url(#radial-gradient-49);}.cls-51{fill:url(#radial-gradient-50);}.cls-52{fill:url(#radial-gradient-51);}.cls-53{fill:url(#radial-gradient-52);}.cls-54{fill:url(#radial-gradient-53);}.cls-55{fill:url(#radial-gradient-54);}.cls-56{fill:url(#radial-gradient-55);}.cls-57{fill:url(#radial-gradient-56);}.cls-58{fill:url(#radial-gradient-57);}.cls-59{fill:url(#radial-gradient-58);}.cls-60{fill:url(#radial-gradient-59);}.cls-61{fill:url(#radial-gradient-60);}.cls-62{fill:url(#radial-gradient-61);}.cls-63{fill:url(#radial-gradient-62);}.cls-64{fill:url(#radial-gradient-63);}.cls-65{fill:url(#radial-gradient-64);}.cls-66{fill:url(#radial-gradient-65);}.cls-68{fill:url(#radial-gradient-66);}.cls-69{fill:url(#radial-gradient-67);}.cls-70{fill:url(#radial-gradient-68);}.cls-71{fill:url(#radial-gradient-69);}.cls-72{fill:url(#radial-gradient-70);}.cls-73{fill:url(#radial-gradient-71);}.cls-74{fill:url(#radial-gradient-72);}.cls-75{fill:url(#radial-gradient-73);}.cls-76{fill:url(#radial-gradient-74);}.cls-77{fill:url(#radial-gradient-75);}.cls-78{fill:url(#radial-gradient-76);}.cls-79{fill:url(#radial-gradient-77);}.cls-80{fill:url(#radial-gradient-78);}.cls-81{fill:url(#radial-gradient-79);}.cls-82{fill:url(#radial-gradient-80);}.cls-83{fill:url(#radial-gradient-81);}.cls-84{fill:url(#radial-gradient-82);}.cls-85{fill:url(#radial-gradient-83);}</style><radialGradient id="radial-gradient" cx="250" cy="250" r="240.46" gradientUnits="userSpaceOnUse"><stop offset="0.08" stop-color="#f128c5"/><stop offset="0.27" stop-color="#f028c5" stop-opacity="0.99"/><stop offset="0.4" stop-color="#ef27c4" stop-opacity="0.95"/><stop offset="0.51" stop-color="#ec27c4" stop-opacity="0.89"/><stop offset="0.6" stop-color="#e825c3" stop-opacity="0.8"/><stop offset="0.69" stop-color="#e224c1" stop-opacity="0.69"/><stop offset="0.78" stop-color="#db22c0" stop-opacity="0.55"/><stop offset="0.86" stop-color="#d320be" stop-opacity="0.38"/><stop offset="0.93" stop-color="#ca1ebb" stop-opacity="0.2"/><stop offset="1" stop-color="#c11bb9" stop-opacity="0"/></radialGradient><radialGradient id="radial-gradient-2" cx="250" cy="250" r="193.43" gradientUnits="userSpaceOnUse"><stop offset="0.08" stop-color="#f128c5"/><stop offset="1" stop-color="#c11bb9"/></radialGradient><radialGradient id="radial-gradient-3" cx="212.25" cy="127.66" r="230.37" gradientUnits="userSpaceOnUse"><stop offset="0.06" stop-color="#fce085"/><stop offset="0.96" stop-color="#e988fd"/></radialGradient><radialGradient id="radial-gradient-4" cx="217.99" cy="122.31" r="198.38" xlink:href="#radial-gradient-3"/><radialGradient id="radial-gradient-5" cx="250.88" cy="283.14" r="177.16" xlink:href="#radial-gradient-2"/><radialGradient id="radial-gradient-6" cx="253.09" cy="309.01" r="153.13" xlink:href="#radial-gradient-2"/><radialGradient id="radial-gradient-7" cx="201.08" cy="48.6" r="127.42" xlink:href="#radial-gradient-2"/><radialGradient id="radial-gradient-8" cx="202.04" cy="46.88" r="138.51" xlink:href="#radial-gradient-2"/><radialGradient id="radial-gradient-9" cx="202.64" cy="49.56" r="125.57" xlink:href="#radial-gradient-2"/><radialGradient id="radial-gradient-10" cx="201.08" cy="53.63" r="113.25" xlink:href="#radial-gradient-2"/><radialGradient id="radial-gradient-11" cx="106.2" cy="115.41" r="79.97" xlink:href="#radial-gradient-2"/><radialGradient id="radial-gradient-12" cx="108.21" cy="115.3" r="87.06" xlink:href="#radial-gradient-2"/><radialGradient id="radial-gradient-13" cx="108.79" cy="115.6" r="78.69" xlink:href="#radial-gradient-2"/><radialGradient id="radial-gradient-14" cx="106" cy="115.98" r="77.61" xlink:href="#radial-gradient-2"/><radialGradient id="radial-gradient-15" cx="260.97" cy="299.64" r="39.38" xlink:href="#radial-gradient-2"/><radialGradient id="radial-gradient-16" cx="263.56" cy="306.48" r="8.53" xlink:href="#radial-gradient-2"/><radialGradient id="radial-gradient-17" cx="260.11" cy="307.95" r="36.48" xlink:href="#radial-gradient-2"/><radialGradient id="radial-gradient-18" cx="260.96" cy="300.59" r="35.64" xlink:href="#radial-gradient-2"/><radialGradient id="radial-gradient-19" cx="260.97" cy="304.4" r="34.98" xlink:href="#radial-gradient-2"/><radialGradient id="radial-gradient-20" cx="-807.76" cy="32.28" r="39.38" gradientTransform="translate(-176.97 1048.76) rotate(112.46)" xlink:href="#radial-gradient-2"/><radialGradient id="radial-gradient-21" cx="82.76" cy="260.07" r="41.59" xlink:href="#radial-gradient-2"/><radialGradient id="radial-gradient-22" cx="86.92" cy="260.08" r="43.48" xlink:href="#radial-gradient-2"/><radialGradient id="radial-gradient-23" cx="78.28" cy="259.12" r="43.1" xlink:href="#radial-gradient-2"/><radialGradient id="radial-gradient-24" cx="368.14" cy="360.01" r="39.38" xlink:href="#radial-gradient-2"/><radialGradient id="radial-gradient-25" cx="368.15" cy="368.33" r="34.02" xlink:href="#radial-gradient-2"/><radialGradient id="radial-gradient-26" cx="367.88" cy="360.09" r="38.92" xlink:href="#radial-gradient-2"/><radialGradient id="radial-gradient-27" cx="368.22" cy="360.35" r="39.03" xlink:href="#radial-gradient-2"/><radialGradient id="radial-gradient-28" cx="209.02" cy="903.73" r="39.38" gradientTransform="matrix(0.46, -0.89, 0.89, 0.46, -552.46, -111.54)" xlink:href="#radial-gradient-2"/><radialGradient id="radial-gradient-29" cx="364" cy="100.89" r="49.21" xlink:href="#radial-gradient-2"/><radialGradient id="radial-gradient-30" cx="364.04" cy="108" r="37.43" xlink:href="#radial-gradient-2"/><radialGradient id="radial-gradient-31" cx="364.28" cy="101.26" r="43.73" xlink:href="#radial-gradient-2"/><radialGradient id="radial-gradient-32" cx="131.69" cy="271.46" r="150.3" xlink:href="#radial-gradient-2"/><radialGradient id="radial-gradient-33" cx="134.02" cy="270.27" r="156.58" xlink:href="#radial-gradient-2"/><radialGradient id="radial-gradient-34" cx="152.46" cy="279.83" r="134.27" xlink:href="#radial-gradient-2"/><radialGradient id="radial-gradient-35" cx="128.61" cy="279.04" r="141.19" xlink:href="#radial-gradient-2"/><radialGradient id="radial-gradient-36" cx="-499.15" cy="-382.09" r="99.21" gradientTransform="translate(107.18 701.36) rotate(77.28)" xlink:href="#radial-gradient-2"/><radialGradient id="radial-gradient-37" cx="315.39" cy="118.62" r="84.02" xlink:href="#radial-gradient-2"/><radialGradient id="radial-gradient-38" cx="313.28" cy="110.32" r="84.99" xlink:href="#radial-gradient-2"/><radialGradient id="radial-gradient-39" cx="325.16" cy="91.56" r="89.76" xlink:href="#radial-gradient-2"/><radialGradient id="radial-gradient-40" cx="402.4" cy="165.8" r="171.96" gradientTransform="matrix(1, -0.06, 0.06, 1, -24.4, -20.15)" xlink:href="#radial-gradient-2"/><radialGradient id="radial-gradient-41" cx="389.52" cy="120.89" r="178.14" xlink:href="#radial-gradient-2"/><radialGradient id="radial-gradient-42" cx="392.69" cy="147.85" r="145.95" xlink:href="#radial-gradient-2"/><radialGradient id="radial-gradient-43" cx="408.85" cy="122.05" r="168.57" xlink:href="#radial-gradient-2"/><radialGradient id="radial-gradient-44" cx="221.08" cy="387.15" r="49.73" xlink:href="#radial-gradient-2"/><radialGradient id="radial-gradient-45" cx="221.08" cy="399.72" r="44.3" xlink:href="#radial-gradient-2"/><radialGradient id="radial-gradient-46" cx="221.09" cy="389.45" r="42.51" xlink:href="#radial-gradient-2"/><radialGradient id="radial-gradient-47" cx="221.07" cy="393.23" r="45.08" xlink:href="#radial-gradient-2"/><radialGradient id="radial-gradient-48" cx="167.76" cy="136.55" r="52.54" xlink:href="#radial-gradient-2"/><radialGradient id="radial-gradient-49" cx="172.28" cy="136.49" r="53.91" xlink:href="#radial-gradient-2"/><radialGradient id="radial-gradient-50" cx="168.56" cy="136.84" r="51.75" xlink:href="#radial-gradient-2"/><radialGradient id="radial-gradient-51" cx="167.68" cy="136.94" r="51.13" xlink:href="#radial-gradient-2"/><radialGradient id="radial-gradient-52" cx="389.55" cy="286.54" r="73.52" xlink:href="#radial-gradient-2"/><radialGradient id="radial-gradient-53" cx="390.87" cy="284.51" r="80.89" xlink:href="#radial-gradient-2"/><radialGradient id="radial-gradient-54" cx="389.13" cy="286.55" r="73.27" xlink:href="#radial-gradient-2"/><radialGradient id="radial-gradient-55" cx="389.82" cy="287.06" r="72.91" xlink:href="#radial-gradient-2"/><radialGradient id="radial-gradient-56" cx="293.82" cy="292.89" r="104.24" xlink:href="#radial-gradient-2"/><radialGradient id="radial-gradient-57" cx="293.82" cy="326.03" r="83.3" xlink:href="#radial-gradient-2"/><radialGradient id="radial-gradient-58" cx="291.33" cy="294.7" r="95.64" xlink:href="#radial-gradient-2"/><radialGradient id="radial-gradient-59" cx="293.87" cy="303.28" r="95.27" xlink:href="#radial-gradient-2"/><radialGradient id="radial-gradient-60" cx="211.13" cy="327.6" r="127.12" gradientTransform="matrix(0.93, -0.36, -0.36, -0.93, 125.82, 683.29)" xlink:href="#radial-gradient-2"/><radialGradient id="radial-gradient-61" cx="180.74" cy="186.08" r="110" xlink:href="#radial-gradient-2"/><radialGradient id="radial-gradient-62" cx="182.49" cy="199.04" r="104.19" xlink:href="#radial-gradient-2"/><radialGradient id="radial-gradient-63" cx="179.99" cy="181.51" r="97.83" xlink:href="#radial-gradient-2"/><radialGradient id="radial-gradient-64" cx="-383.6" cy="831.38" r="105.91" gradientTransform="translate(476.44 -714.14)" gradientUnits="userSpaceOnUse"><stop offset="0" stop-color="#e26f34"/><stop offset="0.26" stop-color="#e26f34"/><stop offset="0.92" stop-color="#ffe245"/></radialGradient><radialGradient id="radial-gradient-65" cx="4.51" cy="576.02" r="58.43" gradientTransform="translate(155.49 -487.59)" xlink:href="#radial-gradient-64"/><radialGradient id="radial-gradient-66" cx="172.28" cy="39.97" r="510.21" xlink:href="#radial-gradient-2"/><radialGradient id="radial-gradient-67" cx="172.28" cy="39.97" r="510.22" xlink:href="#radial-gradient-2"/><radialGradient id="radial-gradient-68" cx="172.28" cy="39.97" r="510.22" xlink:href="#radial-gradient-2"/><radialGradient id="radial-gradient-69" cx="172.28" cy="39.98" r="510.21" xlink:href="#radial-gradient-2"/><radialGradient id="radial-gradient-70" cx="172.28" cy="39.98" r="510.21" xlink:href="#radial-gradient-2"/><radialGradient id="radial-gradient-71" cx="172.28" cy="39.97" r="510.22" xlink:href="#radial-gradient-2"/><radialGradient id="radial-gradient-72" cx="172.28" cy="39.97" r="510.22" xlink:href="#radial-gradient-2"/><radialGradient id="radial-gradient-73" cx="172.28" cy="39.97" r="510.22" xlink:href="#radial-gradient-2"/><radialGradient id="radial-gradient-74" cx="172.28" cy="39.97" r="510.22" xlink:href="#radial-gradient-2"/><radialGradient id="radial-gradient-75" cx="172.28" cy="39.96" r="510.23" xlink:href="#radial-gradient-2"/><radialGradient id="radial-gradient-76" cx="172.28" cy="39.97" r="510.23" xlink:href="#radial-gradient-2"/><radialGradient id="radial-gradient-77" cx="172.28" cy="39.97" r="510.21" xlink:href="#radial-gradient-2"/><radialGradient id="radial-gradient-78" cx="172.28" cy="39.97" r="510.22" xlink:href="#radial-gradient-2"/><radialGradient id="radial-gradient-79" cx="172.28" cy="39.97" r="510.22" xlink:href="#radial-gradient-2"/><radialGradient id="radial-gradient-80" cx="172.28" cy="39.98" r="510.2" xlink:href="#radial-gradient-2"/><radialGradient id="radial-gradient-81" cx="172.28" cy="39.97" r="510.22" xlink:href="#radial-gradient-2"/><radialGradient id="radial-gradient-82" cx="172.28" cy="39.97" r="510.22" xlink:href="#radial-gradient-2"/><radialGradient id="radial-gradient-83" cx="172.28" cy="39.97" r="510.22" xlink:href="#radial-gradient-2"/></defs><title>travel-planet-4</title><g class="cls-1"><g id="OBJECTS"><circle class="cls-2" cx="250" cy="250" r="240.46"/><circle class="cls-3" cx="250" cy="250" r="193.43"/><path class="cls-4" d="M101.24,255c-11.37-4.32-22.8,3.71-31-9.46-7.22-11.66-1.71-23.79,1-35.7a181.64,181.64,0,0,1,21.5-53C125.61,102.59,185.62,68.66,249,68.66a182.56,182.56,0,0,1,81,18.91c10.72,5.32,23,11,29,21.91A41.76,41.76,0,0,1,361.7,142a54.09,54.09,0,0,1-14.13,21.86,75.54,75.54,0,0,1-18.18,12.83c-9.34,4.76-20.55,9-24.14,18.82-2.87,7.89-.11,18.07-6.1,23.95-5.41,5.31-14.41,3.5-21.57,6a18.42,18.42,0,0,0-11.7,13.16c-1.26,5.69.27,11.77-1.31,17.38-3.07,10.9-16.08,15.4-27.37,16.23s-23.57,0-32.87,6.43c-8.73,6.06-12.8,17.33-21.69,23.15-9.09,5.94-21.42,4.72-31.07-.25S134.37,288.43,127,280.43l-16.71-18.19C107.67,259.37,104.89,256.4,101.24,255Z"/><path class="cls-5" d="M80.94,230.88a181.63,181.63,0,0,1,21.5-53c32.77-54.24,92.79-88.18,156.17-88.18a182.56,182.56,0,0,1,81,18.91c10.72,5.32,23,11,29,21.91.25.45.43.93.66,1.39a39.16,39.16,0,0,0-4.27-12.8c-6-10.91-18.28-16.59-29-21.91a182.56,182.56,0,0,0-81-18.91c-63.38,0-123.4,33.93-156.17,88.18a181.65,181.65,0,0,0-21.5,53c-2.75,11.91-8.26,24-1,35.7l.09.12C75.93,247.19,79.07,239,80.94,230.88Z"/><path class="cls-6" d="M443.43,250c0,106.83-86.6,193.43-193.43,193.43-92.44,0-172.81-67.93-191.3-158.15-2.8-13.66,10.08-26.12,23.85-26.84,12.37-.65,22.91,8.51,31.33,17.6a291.52,291.52,0,0,1,24.18,29.81c8.49,12,15.59,29.6,30.44,34.66,7.28,2.48,15.87,1.65,21.9-3.13,3-2.34,5.17-5.48,7.34-8.56,7.59-10.78,17.51-27.72,32.2-14.65,6,5.32,25,15.67,27.06,1.21.54-3.87-.25-7.9.77-11.67,2.15-7.94,11.56-11.78,19.78-11.36s16,3.82,24.09,5.19,17.67.07,22.42-6.65c3.74-5.28,3.43-12.46,1.69-18.7s-4.75-12.09-6-18.44c-1.62-8.06-.18-16.87,4.65-23.52s13.22-10.82,21.38-9.82c7.14.87,15.19,5.16,20.82.68a12,12,0,0,0,3.53-5.31c2.52-6.8,1.44-14.32,1.48-21.57s1.77-15.36,7.85-19.33c2.46-1.61,5.61-2.53,7.06-5.09,1.23-2.17.84-4.86.38-7.31a208.57,208.57,0,0,0-7-26.79c-1.58-4.72-2-11.87,2.87-12.76a7.93,7.93,0,0,1,4,.6c22.21,7.71,32.81,30.61,41.5,51.14A193.68,193.68,0,0,1,443.43,250Z"/><path class="cls-7" d="M417.83,185.15a180.69,180.69,0,0,1-173.06,232.6c-75.32,0-142-48.28-169.32-116.54,23,76.14,93.85,131.65,174.6,131.65A180.66,180.66,0,0,0,417.83,185.15Z"/><path class="cls-8" d="M145.08,105.93S167.47,75.65,228.9,70.2,299,79.52,282.14,94.86s-39.23,43-79,39.72S133,122.15,145.08,105.93Z"/><path class="cls-9" d="M253.07,69.06c39.27.15,43.39,12.77,29.07,25.8-16.85,15.33-39.23,43-79,39.72s-70.16-12.42-58-28.65c0,0,4.26-5.76,14.15-12.7-12.86,8.35-18.34,15.67-18.34,15.67-13.23,17.55,20,27.4,63.39,31s67.88-26.38,86.28-43C306.88,82.2,301.27,68,253.07,69.06Z"/><path class="cls-10" d="M267.12,69.78c1.34,4.34-1.44,9.54-7.23,14.81-16.85,15.34-39.23,43-79,39.72A233.2,233.2,0,0,1,145,118.89c7.53,8.3,30.57,13.38,58.13,15.68,39.77,3.32,62.16-24.38,79-39.72C294.52,83.59,293.1,72.64,267.12,69.78Z"/><path class="cls-11" d="M147.15,114.18S169.53,83.91,231,78.46c34.4-3.05,52.24.24,58.33,6.42,3.16-10.94-12.71-18.9-60.4-14.67-61.43,5.45-83.82,35.72-83.82,35.72-3.64,4.88-3.42,9.11-.27,12.74A14,14,0,0,1,147.15,114.18Z"/><path class="cls-12" d="M110,136.8c-10.07,6.66-29.24,23.28-24.36,41.69s37.9-.54,49.27-20S129,124.24,110,136.8Z"/><path class="cls-13" d="M130.32,133.5c7.88,3.46,11.33,13.33,4.55,25-11.37,19.49-44.4,38.44-49.27,20a23.37,23.37,0,0,1-.63-3.35,25.41,25.41,0,0,0,.7,8.77c5.32,20.1,41.4-.59,53.82-21.88C148,147.4,141.79,135.24,130.32,133.5Z"/><path class="cls-14" d="M134.87,158.46c-9.79,16.79-35.65,33.16-45.74,25.61,12,.26,31.45-13.49,39.64-27.51,6.35-10.89,3.75-20.28-3.08-24.26C136.66,133.44,142.86,144.74,134.87,158.46Z"/><path class="cls-15" d="M113.77,143.28c9.75-6.44,19-5.67,24.22-.79-2.56-10-14.88-14.39-28-5.69-10.07,6.66-29.24,23.28-24.36,41.69a9.75,9.75,0,0,0,3.66,5.67C85.15,166.08,103.85,149.84,113.77,143.28Z"/><path class="cls-16" d="M262.82,310.17c-5,3.28-14.4,11.47-12,20.53s18.66-.27,24.26-9.87S272.17,304,262.82,310.17Z"/><path class="cls-17" d="M262.82,310.17a12.7,12.7,0,0,1,6.49-2.28,12.19,12.19,0,0,0-7.24,2.69c-.7.52-1.48,1.14-2.31,1.86C260.86,311.54,261.91,310.77,262.82,310.17Z"/><path class="cls-18" d="M275.08,320.84c-5.6,9.6-21.86,18.93-24.26,9.87a13.3,13.3,0,0,1,1.79-10.22c-2.69,4.16-4.42,9.11-3.19,14.3,2.53,10.69,19.67-.31,25.57-11.63a14.6,14.6,0,0,0,1.85-7.81A12,12,0,0,1,275.08,320.84Z"/><path class="cls-19" d="M263.29,315.63c5.84-3.86,11.36-2.48,13.31,1.44,1.72-7.55-5.71-12.23-13.78-6.89-5,3.28-14.4,11.47-12,20.53a5.76,5.76,0,0,0,.25.62C252.19,324.28,259.24,318.31,263.29,315.63Z"/><path class="cls-20" d="M276.06,311.51a13.76,13.76,0,0,1-1.39,3.24c-5.43,9.31-20.86,18.32-24,10.58a11.66,11.66,0,0,0,.12,5.38c2.4,9.07,18.66-.27,24.26-9.87C277.22,317.18,277.29,313.87,276.06,311.51Z"/><path class="cls-21" d="M91.4,287.67C90.27,281.83,86.31,270,77,268.74s-6.88,17.35-.15,26.19S93.54,298.68,91.4,287.67Z"/><path class="cls-22" d="M91.4,287.67c-1-5.27-4.37-15.42-11.85-18.26,3.58,4.3,5.42,10.35,6.14,14,1.58,8.11-3.42,13-8.84,11.47l0,0C83.59,303.77,93.54,298.68,91.4,287.67Z"/><path class="cls-23" d="M96,289.56c-1.59-5.54-6.31-16.35-15.42-19.73,6.79,3.32,9.88,12.81,10.86,17.84,1.5,7.72-2.94,12.5-8.05,11.65C91,304,98.78,299.34,96,289.56Z"/><path class="cls-24" d="M81.68,292.74c-5.1-6.69-7.7-19-4.64-24h0c-9.29-1.25-6.88,17.35-.15,26.19,4.17,5.48,9.57,5.6,12.57,2.29C86.9,297.25,84.09,295.9,81.68,292.74Z"/><path class="cls-25" d="M370,370.54c-5,3.28-14.4,11.47-12,20.53s18.66-.27,24.26-9.87S379.35,364.36,370,370.54Z"/><path class="cls-26" d="M382.26,381.21c-5.6,9.6-21.86,18.93-24.26,9.87a11.4,11.4,0,0,1-.33-2,13.66,13.66,0,0,0,.33,4.19c2.4,9.92,18.66-.29,24.26-10.8A13.33,13.33,0,0,0,384,375.2,11.65,11.65,0,0,1,382.26,381.21Z"/><path class="cls-27" d="M361.22,394.3c-2.4-9.07,7-17.25,12-20.53,3.85-2.54,7.53-2.79,10.17-1.56-1.85-4.09-7.44-5.6-13.4-1.67-5,3.28-14.4,11.47-12,20.53a4.47,4.47,0,0,0,3.32,3.45C361.29,394.44,361.24,394.38,361.22,394.3Z"/><path class="cls-28" d="M378.8,368.51a10.59,10.59,0,0,1-1.57,7.67c-4,6.91-13.56,13.64-19.49,13.51a11.54,11.54,0,0,0,.26,1.38c2.4,9.07,18.66-.27,24.26-9.87C385.93,374.92,383.52,369.66,378.8,368.51Z"/><path class="cls-29" d="M356.29,122.09c.63,5.91,3.55,18.06,12.7,20.1s8.35-16.69,2.41-26.08S355.11,110.94,356.29,122.09Z"/><path class="cls-30" d="M372.37,116.91a12,12,0,0,0-5.47-5.12,11.67,11.67,0,0,1,4.51,4.32c5.94,9.39,6.74,28.12-2.41,26.08s-12.08-14.19-12.7-20.1a12.82,12.82,0,0,1,.87-6.56,14.56,14.56,0,0,0-1.67,8.57c.55,6.73,3.5,20.51,13.58,22.62S378.72,127.48,372.37,116.91Z"/><path class="cls-31" d="M369.54,135.62c-8.85-2-11.87-13.38-12.63-19.48a13.23,13.23,0,0,0-.62,5.95c.63,5.91,3.55,18.06,12.7,20.1,5.23,1.17,7.2-4.45,6.83-11.23C374.91,134.31,372.9,136.37,369.54,135.62Z"/><path class="cls-32" d="M371.41,116.11c-5-7.84-13-6.17-14.8,1.08,3.28-1.93,7.85-.89,11.11,4.25,3.6,5.69,5.3,14.79,4,20.64C377.88,140,376.66,124.41,371.41,116.11Z"/><path class="cls-33" d="M90.52,325c-.11,7.28,2.59,15.19,5.56,20.54A163.92,163.92,0,0,0,117.28,375c25.27,28.37,50.55,34.56,65,22.69s17-64.47-1.55-81c-14.42-12.81-40.12-15.16-58.38-13.5-8.69.79-22,2.83-28,10.11C91.66,316.55,90.58,320.68,90.52,325Z"/><path class="cls-34" d="M185.81,317.26c-12.73-11.12-33.78-14.64-51.62-14.49,16.36.18,35,3.73,46.52,14,18.57,16.51,16,69.12,1.55,81s-39.72,5.67-65-22.69a163.91,163.91,0,0,1-21.21-29.43c-2.88-5.2-5.5-12.82-5.54-19.92,0,.08,0,.16,0,.24-.12,7.56,2.74,15.77,5.87,21.34a170.34,170.34,0,0,0,22.4,30.57c26.7,29.46,53.4,35.89,68.66,23.57S205.43,334.4,185.81,317.26Z"/><path class="cls-35" d="M180.72,316.72a45.43,45.43,0,0,0-12.29-7.59c13.43,20.41,10.11,64.82-3,75.6-9.68,8-24.23,7.74-40.38-1.77,22.58,21.43,44.28,25.38,57.24,14.73C196.71,385.83,199.29,333.22,180.72,316.72Z"/><path class="cls-36" d="M125.06,367.87a163.91,163.91,0,0,1-21.21-29.43c-3-5.36-5.67-13.27-5.56-20.54a20.09,20.09,0,0,1,2.25-9.37,19.83,19.83,0,0,0-6.24,4.8c-2.64,3.21-3.72,7.34-3.79,11.7-.11,7.28,2.59,15.19,5.56,20.54A163.91,163.91,0,0,0,117.28,375c25.27,28.37,50.55,34.56,65,22.69a19,19,0,0,0,3.87-4.56C171.31,401.18,148.2,393.84,125.06,367.87Z"/><path class="cls-37" d="M329.52,111.58a29.08,29.08,0,0,0-12.42,6.56,108.19,108.19,0,0,0-15.87,17.93c-14.59,20.4-14.91,37.57-5.17,45.15s44,1.59,51.92-12.77c6.16-11.14,3.93-28,.21-39.56-1.77-5.48-5-13.78-10.59-16.58A12.22,12.22,0,0,0,329.52,111.58Z"/><path class="cls-38" d="M350,135.8c2.39,10.7,3,23.57-2,32.65-7.93,14.36-42.18,20.34-51.92,12.77a16.52,16.52,0,0,1-5.46-7.73c.7,5.77,3,10.45,6.8,13.66,9.95,8.51,44.24,2.69,51.9-12.87C354.53,163.67,353.15,148.05,350,135.8Z"/><path class="cls-39" d="M303.39,171.7c-9.52-7.41-9.4-24,4.25-43.79-2.24,2.63-4.39,5.35-6.4,8.16-14.59,20.4-14.91,37.57-5.17,45.15s44,1.59,51.92-12.77a26.12,26.12,0,0,0,1.34-3.08C336.58,174.89,311.5,178,303.39,171.7Z"/><path class="cls-40" d="M348.19,128.89c-1.77-5.48-5-13.78-10.59-16.58a12.23,12.23,0,0,0-8.08-.74,29.09,29.09,0,0,0-12.42,6.56,99.35,99.35,0,0,0-9.61,9.94c1.36-1.38,2.77-2.72,4.21-4a29.08,29.08,0,0,1,12.42-6.56,12.22,12.22,0,0,1,8.08.74c5.56,2.8,8.81,11.1,10.59,16.58,3.73,11.52,5.95,28.41-.21,39.56l-.07.11a20.56,20.56,0,0,0,5.47-6C354.14,157.31,351.92,140.41,348.19,128.89Z"/><path class="cls-41" d="M410.47,162.8c12.45,9.38,18.91,43.15,19.83,52.16,3,29.37,6.8,56.42-5.42,65.29s-51.29,1.06-55.3-21.89-6.55-60.07,7.28-72.66c7.22-6.57,11.37-16.51,19.18-22.34C401.52,159.26,406.33,159.68,410.47,162.8Z"/><path class="cls-42" d="M433.15,246.69c.72,15.63-.71,28.07-8.27,33.55-12.23,8.87-51.29,1.06-55.3-21.89s-6.55-60.07,7.28-72.66c7.22-6.57,11.37-16.51,19.18-22.34a14.41,14.41,0,0,1,6-2.81,14.46,14.46,0,0,0-9,3.07c-8.55,6.06-13.12,16.34-21,23.16-15.16,13.07-12.51,51.43-8.2,75.14s47,31.65,60.38,22.44C432.94,278.33,434.21,264.22,433.15,246.69Z"/><path class="cls-43" d="M381.35,241.74c-3.16-18.08-5.37-44.9.58-61.65a44.55,44.55,0,0,1-5.07,5.61c-13.83,12.59-11.29,49.71-7.28,72.66s43.08,30.75,55.3,21.89c4.1-3,6.38-8,7.51-14.51C417.17,270.83,385,262.46,381.35,241.74Z"/><path class="cls-44" d="M430.3,215c-.92-9-7.39-42.77-19.83-52.16a10.4,10.4,0,0,0-9.27-2c12.16,9.83,18.49,42.88,19.41,51.77,3,29.37,6.8,56.42-5.42,65.29-4.71,3.42-13.41,4.35-22.55,2.9,12.2,4.23,25.86,4.15,32.24-.48C437.11,271.38,433.32,244.32,430.3,215Z"/><path class="cls-45" d="M223.32,395.93s-32.31,0-19.85,17.08,44.32,12.46,48,.46S238.1,397.78,223.32,395.93Z"/><path class="cls-46" d="M251.49,413.48c-3.69,12-35.55,16.62-48-.46a13.37,13.37,0,0,1-2.79-6.21c-.32,2.53.44,5.64,2.79,9.47,12.46,20.35,44.32,14.85,48,.55a13.85,13.85,0,0,0,.39-5.23A11.45,11.45,0,0,1,251.49,413.48Z"/><path class="cls-47" d="M223.32,395.93s-24.94,0-22.54,11.59c5.94-5,20.13-5,20.13-5,13.31,1.66,28.45,4.85,28.62,14.24a9.6,9.6,0,0,0,1.95-3.31C255.18,401.47,238.1,397.78,223.32,395.93Z"/><path class="cls-48" d="M205.88,404.6a17,17,0,0,1-2.25-4c-3.36,2.52-4.55,6.42-.15,12.44,12.46,17.08,44.32,12.46,48,.46a9.5,9.5,0,0,0,.28-4.88C243.61,417.78,217,419.88,205.88,404.6Z"/><path class="cls-49" d="M173.88,147.09C165.49,148.77,144,156.55,149,172s39.36-1.49,46.83-14.45S179.37,146,173.88,147.09Z"/><path class="cls-50" d="M186.69,146.63c7.13.69,13.49,3.35,9.12,10.92-6.5,11.26-33.32,25.52-43.49,18.9,10.57,8,39.15-2.63,47-13.64C208.12,150.35,196.56,147.09,186.69,146.63Z"/><path class="cls-51" d="M195.81,157.55c-7.25,12.57-39.75,28.8-46.23,15.65,12.29-.53,30.63-11.49,35.86-20.55,1.46-2.52,1.7-4.49,1.14-6C193.75,147.3,200.2,149.94,195.81,157.55Z"/><path class="cls-52" d="M152.72,175.74c-5-15.44,16.51-23.23,24.91-24.91,3.38-.68,13.7-1.45,19.42,1.06-1.8-6.79-18.67-5.71-23.17-4.8C165.49,148.77,144,156.55,149,172a8,8,0,0,0,4.34,4.93A8.52,8.52,0,0,1,152.72,175.74Z"/><path class="cls-53" d="M398.32,304.66s-12.91,3.48-22.34,23.83.5,35.75,21.85,13.9S423.14,294.23,398.32,304.66Z"/><path class="cls-54" d="M403.64,302.88c18.75-4.51,13.85,19.39-5.81,39.51-15.4,15.76-24.85,12.14-25.39,1.26-2,14.81,6.92,21.13,25.39,3C426.66,318.45,423.81,296.9,403.64,302.88Z"/><path class="cls-55" d="M382.26,331.84C391.69,311.48,404.6,308,404.6,308a24.82,24.82,0,0,1,9.79-2.34c-2-3.76-7.22-4.73-16.07-1,0,0-12.91,3.48-22.34,23.83-6.23,13.45-4,24.72,4.37,24.53C377.71,348.72,378.13,340.76,382.26,331.84Z"/><path class="cls-56" d="M410.7,302.7c1.06,7.77-5.45,21.51-17.49,33.83-9,9.24-16,11.8-20.35,10.16,2.06,8.37,11.1,9.88,25-4.3C414.44,325.39,420.52,305.69,410.7,302.7Z"/><path class="cls-57" d="M284.79,327.45s-49.65,25.82-11.92,45.68,85.4-13.9,71.5-45.68S284.79,327.45,284.79,327.45Z"/><path class="cls-58" d="M272.87,373.12c-9-4.72-13-9.77-13.9-14.74-1.22,7.26,2,15,13.9,22,33.73,19.92,75.37-8.25,73.89-39.92C345.33,367.48,305.42,390.26,272.87,373.12Z"/><path class="cls-59" d="M294.38,334.07s27.38-19,46.19-12.88c-16.94-20.74-55.79,6.26-55.79,6.26s-49.65,25.82-11.92,45.68l.54.26C254.58,354.79,294.38,334.07,294.38,334.07Z"/><path class="cls-60" d="M344.37,327.45a26.73,26.73,0,0,0-3.75-6.2c9.49,30.77-36.23,61.64-72.69,42.45a37.54,37.54,0,0,1-9.14-6.45c.51,5.33,4.42,10.8,14.07,15.88C310.61,393,358.27,359.22,344.37,327.45Z"/><path class="cls-61" d="M179.69,266.33s-67.82-7.62-33.58-46.76S249.38,198,247.49,240.22,179.69,266.33,179.69,266.33Z"/><path class="cls-62" d="M227.06,205.82a34.75,34.75,0,0,1,2.9,15.7c-1.89,42.25-67.8,26.11-67.8,26.11s-13.68-1.55-25.65-6.79c1.61,20.81,43.18,25.49,43.18,25.49s65.91,16.14,67.8-26.11C248.17,225.08,239.72,213.15,227.06,205.82Z"/><path class="cls-63" d="M239.85,216.63a34.77,34.77,0,0,1,7.64,23.58c-1.89,42.25-67.8,26.11-67.8,26.11s-37.77-4.25-42.69-22.68c4.55,20,43.59,26.41,43.59,26.41s68.67,16.5,70.56-25.75C251.64,233.51,247.23,224.07,239.85,216.63Z"/><path class="cls-64" d="M149.67,227.15c28.05-32.07,79.44-26.08,96.06.37-10.82-32.65-69.07-42.88-99.63-7.95C134.18,233.21,134.65,243,140.32,250,139.21,243.95,141.54,236.45,149.67,227.15Z"/><ellipse class="cls-65" cx="140.5" cy="174" rx="37.75" ry="20.39" transform="translate(-82.78 186.77) rotate(-54.35)"/><ellipse class="cls-66" cx="186.34" cy="119.78" rx="20.83" ry="11.25" transform="matrix(0.87, -0.5, 0.5, 0.87, -34.9, 108.69)"/><g class="cls-67"><circle class="cls-68" cx="289.98" cy="258.6" r="7.34"/><circle class="cls-69" cx="311.28" cy="275.98" r="4.65"/><circle class="cls-70" cx="301.73" cy="221.88" r="14.2"/><circle class="cls-71" cx="211.88" cy="361.67" r="5.63"/><circle class="cls-72" cx="217.02" cy="335.48" r="6.37"/><circle class="cls-73" cx="239.3" cy="361.18" r="8.57"/><circle class="cls-74" cx="270.39" cy="403.54" r="3.92"/><circle class="cls-75" cx="284.35" cy="400.35" r="4.16"/><circle class="cls-76" cx="347.51" cy="277.45" r="6.12"/><circle class="cls-77" cx="362.2" cy="292.63" r="3.18"/><circle class="cls-78" cx="99.02" cy="228.73" r="6.37"/><circle class="cls-79" cx="102.94" cy="252.24" r="7.83"/><circle class="cls-80" cx="146.51" cy="279.17" r="3.92"/><circle class="cls-81" cx="169.77" cy="293.61" r="8.57"/><circle class="cls-82" cx="246.16" cy="153.09" r="5.14"/><circle class="cls-83" cx="231.47" cy="171.2" r="12"/><circle class="cls-84" cx="265.5" cy="156.27" r="5.88"/><circle class="cls-85" cx="301.97" cy="102.16" r="6.61"/></g></g></g></svg>